<svg width="144" height="120" viewBox="0 0 144 120" fill="none" xmlns="http://www.w3.org/2000/svg">
<path d="M73.5159 80.2188C72.3971 80.2188 71.6474 80.9685 71.4629 82.211H75.4614C75.3703 80.8307 74.665 80.2188 73.5159 80.2188Z" fill="white"/>
<path d="M59.7561 80.3262C58.3921 80.3262 57.5957 81.2768 57.5957 83.0074V83.1289C57.5957 84.8899 58.4832 85.7331 59.6791 85.7331C60.966 85.7331 61.9165 84.8759 61.9165 83.0822V82.9607C61.9165 81.1997 61.1038 80.3262 59.7561 80.3262Z" fill="white"/>
<path d="M82.4928 80.3262C81.1148 80.3262 80.3184 81.3211 80.3184 82.7785V82.9C80.3184 84.3854 81.2386 85.3056 82.4321 85.3056C83.719 85.3056 84.6532 84.3854 84.6532 82.8533V82.7458C84.6532 81.23 83.8264 80.3262 82.4928 80.3262Z" fill="white"/>
<path d="M92.0998 80.2188C90.9811 80.2188 90.2314 80.9685 90.0469 82.211H94.0454C93.9543 80.8307 93.249 80.2188 92.0998 80.2188Z" fill="white"/>
<path d="M93.8983 68.5645H37.8768C30.3866 68.5645 24.3164 74.637 24.3164 82.1249C24.3164 89.6151 30.3889 95.6853 37.8768 95.6853H93.8983C101.389 95.6853 107.459 89.6128 107.459 82.1249C107.459 74.6347 101.386 68.5645 93.8983 68.5645ZM44.6804 87.0506H42.6274V82.3935H37.7087V87.0506H35.672V76.0967H37.7087V80.7539H42.6274V76.0967H44.6804V87.0506ZM54.0274 87.0506H52.173V85.7941C51.7736 86.5765 50.9328 87.2025 49.6295 87.2025C48.0507 87.2025 46.8712 86.2986 46.8712 84.1685V79.0349H48.7257V83.9537C48.7257 85.1635 49.2301 85.7147 50.3045 85.7147C51.2995 85.7147 52.173 85.0724 52.173 83.7995V79.0349H54.0274V87.0506ZM63.7085 87.0506H61.854V85.703C61.4243 86.4995 60.3989 87.2048 59.2195 87.2048C57.2132 87.2048 55.6951 85.7801 55.6951 83.1759V83.0545C55.6951 80.497 57.2108 78.8714 59.2965 78.8714C60.5998 78.8714 61.4102 79.4693 61.854 80.2658V75.333H63.7085V87.0506ZM67.8168 87.0506H65.9623V75.3307H67.8168V87.0506ZM77.2993 83.4515H71.4323C71.493 84.9673 72.2591 85.8268 73.6394 85.8268C74.7581 85.8268 75.3397 85.383 75.4775 84.6006H77.2689C77.0073 86.2869 75.6457 87.2048 73.5927 87.2048C71.2337 87.2048 69.5334 85.6586 69.5334 83.1292V83.0077C69.5334 80.525 71.2337 78.8714 73.5179 78.8714C75.5102 78.8714 77.3016 80.0509 77.3016 82.9167V83.4515H77.2993ZM86.4454 86.4551C86.4291 88.814 84.8526 89.9935 82.3698 89.9935C79.8567 89.9935 78.724 88.8607 78.5091 87.3286H80.3776C80.5317 88.125 81.1436 88.5851 82.3535 88.5851C83.7945 88.5851 84.591 87.8658 84.591 86.4247V85.2452C84.1472 86.0113 83.1499 86.7307 81.9704 86.7307C79.9642 86.7307 78.4157 85.2289 78.4157 82.9167V82.8092C78.4157 80.5577 79.9478 78.8714 82.0171 78.8714C83.3344 78.8714 84.1309 79.4693 84.591 80.2658V79.0396H86.4454V86.4551ZM95.8835 83.4515H90.0165C90.0773 84.9673 90.8433 85.8268 92.2237 85.8268C93.3424 85.8268 93.924 85.383 94.0618 84.6006H95.8532C95.5916 86.2869 94.2299 87.2048 92.177 87.2048C89.818 87.2048 88.1177 85.6586 88.1177 83.1292V83.0077C88.1177 80.525 89.818 78.8714 92.1022 78.8714C94.0945 78.8714 95.8859 80.0509 95.8859 82.9167V83.4515H95.8835Z" fill="white"/>
<path d="M118.039 35.7344C117.633 35.7344 117.303 36.0637 117.303 36.4701C117.303 38.2919 115.82 39.7749 113.999 39.7749H110.659C110.252 39.7749 109.923 40.1043 109.923 40.5107V43.8505C109.923 45.6723 108.44 47.1554 106.618 47.1554C104.796 47.1554 103.313 45.6723 103.313 43.8505V40.5107C103.313 40.1043 102.984 39.7749 102.578 39.7749C102.171 39.7749 101.842 40.1043 101.842 40.5107V43.8505C101.842 46.4851 103.986 48.6268 106.618 48.6268C109.253 48.6268 111.394 46.4828 111.394 43.8505V41.2464H113.999C116.633 41.2464 118.775 39.1023 118.775 36.4701C118.775 36.0637 118.446 35.7344 118.039 35.7344Z" fill="#AC94CE"/>
<path d="M106.616 24.3125C103.981 24.3125 101.839 26.4566 101.839 29.0888V31.693H99.2353C96.6007 31.693 94.459 33.837 94.459 36.4692C94.459 36.8756 94.7883 37.205 95.1947 37.205C95.6011 37.205 95.9304 36.8756 95.9304 36.4692C95.9304 34.6475 97.4135 33.1644 99.2353 33.1644H102.575C102.982 33.1644 103.311 32.8351 103.311 32.4287V29.0888C103.311 27.267 104.794 25.7839 106.616 25.7839C108.437 25.7839 109.921 27.267 109.921 29.0888V32.4287C109.921 32.8351 110.25 33.1644 110.656 33.1644C111.063 33.1644 111.392 32.8351 111.392 32.4287V29.0888C111.392 26.4542 109.25 24.3125 106.616 24.3125Z" fill="white"/>
<path d="M27.6119 44.1816H25.0241C24.634 44.1816 24.3164 44.4993 24.3164 44.8893V55.6984C24.3164 56.0885 24.634 56.4061 25.0241 56.4061H27.5792C31.475 56.4061 33.7989 54.1359 33.7989 50.3359V50.1864C33.7989 46.4261 31.4843 44.1816 27.6119 44.1816ZM27.5278 45.625C31.2414 45.625 32.0192 48.1054 32.0192 50.1841V50.3172C32.0192 53.2998 30.4286 54.944 27.5442 54.944H26.0424V45.625H27.5278Z" fill="white"/>
<path d="M39.2905 47.3283C38.2932 47.5315 37.721 48.0733 37.3426 48.6175V48.2228C37.3426 47.765 36.9689 47.3913 36.5112 47.3913C36.0534 47.3913 35.6797 47.765 35.6797 48.2228V55.5752C35.6797 56.033 36.0534 56.4067 36.5112 56.4067C36.9689 56.4067 37.3426 56.033 37.3426 55.5752V51.4716C37.3426 49.8133 37.9779 49.059 39.5357 48.8628C39.9235 48.8137 40.2177 48.4844 40.2177 48.0803C40.2177 47.8491 40.115 47.6319 39.9351 47.4848C39.753 47.34 39.5194 47.2816 39.2905 47.3283Z" fill="white"/>
<path d="M41.8852 54.0742C41.2196 54.0742 40.6777 54.6161 40.6777 55.2817C40.6777 55.9474 41.2196 56.4892 41.8852 56.4892C42.5509 56.4892 43.0927 55.9474 43.0927 55.2817C43.0904 54.6161 42.5509 54.0742 41.8852 54.0742Z" fill="white"/>
<path d="M48.735 44.1816H46.1471C45.7571 44.1816 45.4395 44.4993 45.4395 44.8893V55.6984C45.4395 56.0885 45.7571 56.4061 46.1471 56.4061H48.7023C52.598 56.4061 54.922 54.1359 54.922 50.3359V50.1864C54.9243 46.4261 52.6097 44.1816 48.735 44.1816ZM48.6532 45.625C52.3668 45.625 53.1446 48.1054 53.1446 50.1841V50.3172C53.1446 53.2998 51.554 54.944 48.6696 54.944H47.1678V45.625H48.6532Z" fill="white"/>
<path d="M60.4155 47.3286C59.4182 47.5318 58.846 48.0736 58.4676 48.6178V48.2231C58.4676 47.7653 58.0939 47.3916 57.6362 47.3916C57.1784 47.3916 56.8047 47.7653 56.8047 48.2231V55.5755C56.8047 56.0333 57.1784 56.407 57.6362 56.407C58.0939 56.407 58.4676 56.0333 58.4676 55.5755V51.4719C58.4676 49.8136 59.1029 49.0592 60.6607 48.863C61.0484 48.814 61.3427 48.4847 61.3427 48.0806C61.3427 47.8494 61.24 47.6322 61.0601 47.485C60.878 47.3379 60.6444 47.2819 60.4155 47.3286Z" fill="white"/>
<path d="M66.4525 47.2383C63.8833 47.2383 62.0195 49.1722 62.0195 51.8371V51.9702C62.0195 54.6258 63.8763 56.5526 66.4361 56.5526C69.0146 56.5526 70.8854 54.6187 70.8854 51.9538V51.8207C70.8831 49.1675 69.0193 47.2383 66.4525 47.2383ZM69.1711 51.8557V51.9725C69.1711 53.89 68.1037 55.1279 66.4501 55.1279C64.7709 55.1279 63.7292 53.9181 63.7292 51.9725V51.8394C63.7292 49.8822 64.7709 48.6677 66.4501 48.6677C68.1037 48.6677 69.1711 49.9172 69.1711 51.8557Z" fill="white"/>
<path d="M77.082 47.2383C75.9095 47.2383 74.8515 47.8619 74.2606 48.5672V48.2192C74.2606 47.7615 73.8869 47.3878 73.4291 47.3878C72.9714 47.3878 72.5977 47.7615 72.5977 48.2192V58.6149C72.5977 59.0727 72.9714 59.4464 73.4291 59.4464C73.8869 59.4464 74.2606 59.0727 74.2606 58.6149V55.275C74.9005 56.0832 75.9235 56.555 77.082 56.555C79.5437 56.555 81.1973 54.6865 81.1973 51.9048V51.7717C81.195 49.06 79.5414 47.2383 77.082 47.2383ZM79.4853 51.8394V51.9725C79.4853 53.4112 79.0462 55.1279 76.9489 55.1279C75.1832 55.1279 74.2116 54.0068 74.2116 51.9725V51.8394C74.2116 49.8541 75.2275 48.6677 76.9325 48.6677C78.481 48.6677 79.4853 49.9125 79.4853 51.8394Z" fill="white"/>
<path d="M83.7748 47.3906C83.3171 47.3906 82.9434 47.7643 82.9434 48.2221V55.5745C82.9434 56.0323 83.3171 56.406 83.7748 56.406C84.2326 56.406 84.6063 56.0323 84.6063 55.5745V48.2221C84.604 47.762 84.2326 47.3906 83.7748 47.3906Z" fill="white"/>
<path d="M83.749 43.7305C83.1768 43.7305 82.6934 44.2139 82.6934 44.7862C82.6934 45.3584 83.1768 45.8418 83.749 45.8418C84.3213 45.8418 84.8047 45.3584 84.8047 44.7862C84.8047 44.2139 84.3213 43.7305 83.749 43.7305Z" fill="white"/>
<path d="M91.3364 47.2383C90.0402 47.2383 89.1526 47.8012 88.6668 48.4364V48.2192C88.6668 47.7615 88.2931 47.3878 87.8354 47.3878C87.3776 47.3878 87.0039 47.7615 87.0039 48.2192V55.5717C87.0039 56.0294 87.3776 56.4031 87.8354 56.4031C88.2931 56.4031 88.6668 56.0294 88.6668 55.5717V50.9682C88.6668 49.4127 89.8229 48.7144 90.9697 48.7144C92.315 48.7144 92.8872 49.338 92.8872 50.8001V55.5717C92.8872 56.0294 93.2609 56.4031 93.7187 56.4031C94.1765 56.4031 94.5502 56.0294 94.5502 55.5717V50.9005C94.5502 47.8736 92.8032 47.2383 91.3364 47.2383Z" fill="white"/>
</svg>
