<?xml version="1.0" encoding="UTF-8"?><svg id="Dr.Dropin_logo" xmlns="http://www.w3.org/2000/svg" viewBox="0 0 723.73 427.46"><g><path d="M636.63,253.27H87.09C38.99,253.27,0,292.26,0,340.36H0C0,388.46,38.99,427.46,87.09,427.46H636.63c48.1,0,87.09-38.99,87.09-87.09h0c0-48.1-38.99-87.09-87.09-87.09Zm-508.1,118.74h-13.27v-30.1h-31.78v30.1h-13.17v-70.78h13.17v30.1h31.78v-30.1h13.27v70.78Zm60.59,0h-11.98v-8.12c-2.57,5.05-8.02,9.11-16.43,9.11-10.2,0-17.82-5.84-17.82-19.6v-33.16h11.98v31.78c0,7.82,3.27,11.38,10.2,11.38,6.44,0,12.08-4.16,12.08-12.38v-30.79h11.98v51.78Zm62.57,0h-11.98v-8.71c-2.77,5.15-9.4,9.7-17.03,9.7-12.97,0-22.77-9.21-22.77-26.04v-.79c0-16.53,9.8-27.03,23.26-27.03,8.42,0,13.66,3.86,16.53,9.01v-31.88h11.98v75.73Zm36.93,.99c-14.85,0-26.14-9.7-26.14-26.23v-.79c0-16.43,11.68-26.83,26.14-26.83,11.48,0,22.27,5.15,23.66,19.4h-11.58c-.99-6.93-5.54-9.8-11.88-9.8-8.22,0-14.06,6.34-14.06,17.03v.79c0,11.29,5.54,17.23,14.35,17.23,6.34,0,11.78-3.76,12.47-11.09h10.99c-.89,11.88-9.9,20.29-23.96,20.29Zm80.98-24.25h-37.92c.4,9.8,5.35,15.34,14.26,15.34,7.23,0,10.99-2.87,11.88-7.92h11.58c-1.68,10.89-10.49,16.83-23.76,16.83-15.25,0-26.23-10-26.23-26.33v-.79c0-16.04,10.99-26.73,25.74-26.73,12.87,0,24.45,7.62,24.45,26.14v3.47Zm57.12,23.26h-11.98v-31.48c0-7.82-3.17-11.38-10.3-11.38-6.73,0-12.18,4.16-12.18,12.38v30.49h-11.98v-51.78h11.98v8.22c2.47-5.05,8.22-9.31,16.73-9.31,10.4,0,17.72,6.04,17.72,20.29v32.57Zm39.5-.4c-1.88,.69-4.46,1.29-8.12,1.29-10.3,0-15.64-5.54-15.64-15.34v-28.31h-6.93v-9.01h6.93v-11.39h11.98v11.39h11.38v9.01h-11.38v27.22c0,4.55,2.18,6.63,5.94,6.63,2.38,0,4.16-.3,5.84-.99v9.5Zm39.6-40.99c-10.49,.1-16.83,3.46-16.83,14.45v26.93h-11.98v-51.78h11.98v9.7c3.27-6.53,8.12-10.39,16.83-10.49v11.19Zm56.23,41.38h-11.98v-8.12c-2.57,5.05-8.02,9.11-16.43,9.11-10.2,0-17.82-5.84-17.82-19.6v-33.16h11.98v31.78c0,7.82,3.27,11.38,10.2,11.38,6.44,0,12.08-4.16,12.08-12.38v-30.79h11.98v51.78Zm91.28,0h-11.98v-31.98c0-7.62-3.27-10.89-9.21-10.89s-11.39,3.96-11.39,11.88v30.99h-11.98v-31.98c0-7.62-3.37-10.89-9.21-10.89s-11.38,3.96-11.38,11.88v30.99h-11.98v-51.78h11.98v7.92c2.47-4.85,8.12-9.01,15.74-9.01,6.73,0,12.08,2.87,14.65,9.31,3.96-6.44,11.09-9.31,17.52-9.31,9.5,0,17.23,5.84,17.23,20.1v32.77Z" fill="#fff"/><path d="M226.15,328.55c-8.81,0-13.96,6.14-13.96,17.32v.79c0,11.38,5.74,16.83,13.46,16.83,8.32,0,14.45-5.54,14.45-17.13v-.79c0-11.39-5.25-17.03-13.96-17.03Z" fill="#fff"/><path d="M345.15,327.85c-7.23,0-12.08,4.85-13.27,12.87h25.84c-.59-8.91-5.15-12.87-12.57-12.87Z" fill="#fff"/></g><path d="M401.28,48.91c-1.74,0-3.15,1.41-3.15,3.15,0,7.8-6.35,14.15-14.15,14.15h-14.3c-1.74,0-3.15,1.41-3.15,3.15v14.3c0,7.8-6.35,14.15-14.15,14.15s-14.15-6.35-14.15-14.15v-14.3c0-1.74-1.41-3.15-3.15-3.15s-3.15,1.41-3.15,3.15v14.3c0,11.28,9.18,20.45,20.45,20.45s20.45-9.18,20.45-20.45v-11.15h11.15c11.28,0,20.45-9.18,20.45-20.45,0-1.74-1.41-3.15-3.15-3.15Z" fill="#ac94ce"/><g><path d="M352.38,0C341.1,0,331.92,9.18,331.92,20.45v11.15h-11.15c-11.28,0-20.45,9.18-20.45,20.45,0,1.74,1.41,3.15,3.15,3.15s3.15-1.41,3.15-3.15c0-7.8,6.35-14.15,14.15-14.15h14.3c1.74,0,3.15-1.41,3.15-3.15v-14.3c0-7.8,6.35-14.15,14.15-14.15s14.15,6.35,14.15,14.15v14.3c0,1.74,1.41,3.15,3.15,3.15s3.15-1.41,3.15-3.15v-14.3C372.83,9.18,363.65,0,352.38,0Z" fill="#fff"/><path d="M14.11,85.07H3.03C1.36,85.07,0,86.43,0,88.1v46.28c0,1.67,1.36,3.03,3.03,3.03H13.97c16.68,0,26.63-9.72,26.63-25.99v-.64c0-16.1-9.9-25.7-26.49-25.7Zm-.36,6.18c15.9,0,19.23,10.62,19.23,19.52v.57c0,12.77-6.81,19.81-19.16,19.81H7.4v-39.9h6.35Z" fill="#fff"/><path d="M64.12,98.54c-4.27,.87-6.72,3.19-8.34,5.52v-1.69c0-1.96-1.6-3.56-3.56-3.56s-3.56,1.6-3.56,3.56v31.48c0,1.96,1.6,3.56,3.56,3.56s3.56-1.6,3.56-3.56v-17.57c0-7.1,2.72-10.33,9.39-11.17,1.66-.21,2.92-1.62,2.92-3.35,0-.99-.44-1.92-1.21-2.55-.77-.63-1.77-.88-2.75-.68Z" fill="#fff"/><path d="M75.22,127.43c-2.85,0-5.17,2.32-5.17,5.17s2.32,5.17,5.17,5.17,5.17-2.32,5.17-5.17-2.32-5.17-5.17-5.17Z" fill="#fff"/><path d="M104.56,85.07h-11.08c-1.67,0-3.03,1.36-3.03,3.03v46.28c0,1.67,1.36,3.03,3.03,3.03h10.94c16.68,0,26.63-9.72,26.63-25.99v-.64c0-16.1-9.9-25.7-26.49-25.7Zm-.36,6.18c15.9,0,19.23,10.62,19.23,19.52v.57c0,12.77-6.81,19.81-19.16,19.81h-6.43v-39.9h6.35Z" fill="#fff"/><path d="M154.57,98.54c-4.27,.87-6.72,3.19-8.34,5.52v-1.69c0-1.96-1.6-3.56-3.56-3.56s-3.56,1.6-3.56,3.56v31.48c0,1.96,1.6,3.56,3.56,3.56s3.56-1.6,3.56-3.56v-17.57c0-7.1,2.72-10.33,9.39-11.17,1.66-.21,2.92-1.62,2.92-3.35,0-.99-.44-1.92-1.21-2.55-.77-.63-1.78-.88-2.75-.68Z" fill="#fff"/><path d="M180.41,98.17c-11,0-18.98,8.28-18.98,19.69v.57c0,11.37,7.95,19.62,18.91,19.62s19.05-8.28,19.05-19.69v-.57c0-11.37-7.98-19.62-18.98-19.62Zm11.65,19.76v.5c0,8.21-4.57,13.51-11.65,13.51s-11.65-5.18-11.65-13.51v-.57c0-8.38,4.46-13.58,11.65-13.58s11.65,5.36,11.65,13.65Z" fill="#fff"/><path d="M225.92,98.17c-5.02,0-9.55,2.67-12.08,5.69v-1.49c0-1.96-1.6-3.56-3.56-3.56s-3.56,1.6-3.56,3.56v44.51c0,1.96,1.6,3.56,3.56,3.56s3.56-1.6,3.56-3.56v-14.3c2.74,3.46,7.12,5.48,12.08,5.48,10.54,0,17.62-8,17.62-19.91v-.57c0-11.61-7.08-19.41-17.62-19.41Zm10.29,19.69v.57c0,6.16-1.88,13.51-10.86,13.51-7.56,0-11.72-4.8-11.72-13.51v-.57c0-8.5,4.35-13.58,11.65-13.58,6.64,0,10.93,5.33,10.93,13.58Z" fill="#fff"/><path d="M254.58,98.81c-1.96,0-3.56,1.6-3.56,3.56v31.48c0,1.96,1.6,3.56,3.56,3.56s3.56-1.6,3.56-3.56v-31.48c0-1.96-1.6-3.56-3.56-3.56Z" fill="#fff"/><path d="M254.47,83.14c-2.45,0-4.52,2.07-4.52,4.52s2.07,4.52,4.52,4.52,4.52-2.07,4.52-4.52-2.07-4.52-4.52-4.52Z" fill="#fff"/><path d="M286.96,98.17c-5.55,0-9.35,2.41-11.43,5.13v-.93c0-1.96-1.6-3.56-3.56-3.56s-3.56,1.6-3.56,3.56v31.48c0,1.96,1.6,3.56,3.56,3.56s3.56-1.6,3.56-3.56v-19.71c0-6.66,4.95-9.65,9.86-9.65,5.76,0,8.21,2.67,8.21,8.93v20.43c0,1.96,1.6,3.56,3.56,3.56s3.56-1.6,3.56-3.56v-20c0-12.96-7.48-15.69-13.75-15.69Z" fill="#fff"/></g></svg>