<?xml version="1.0" encoding="UTF-8"?>
<svg xmlns="http://www.w3.org/2000/svg" xmlns:xlink="http://www.w3.org/1999/xlink" viewBox="0 0 50 50" version="1.1" fill="#43007e" width="50px" height="50px">
<g id="surface1" fill="#43007e">
<path style=" " d="M 33.53125 0 C 30.085938 0 26.851563 1.398438 24.21875 4.03125 C 21.226563 7.019531 19.878906 10.671875 20.28125 14.625 C 20.640625 18.132813 22.441406 21.691406 25.375 24.625 C 28.707031 27.964844 32.730469 29.8125 36.6875 29.8125 C 40.132813 29.8125 43.335938 28.414063 45.96875 25.78125 C 48.960938 22.792969 50.339844 19.109375 49.9375 15.15625 C 49.582031 11.648438 47.75 8.121094 44.8125 5.1875 C 41.472656 1.847656 37.484375 0 33.53125 0 Z M 33.875 6.71875 C 36.039063 6.71875 38.304688 7.800781 40.25 9.75 C 41.980469 11.476563 43.050781 13.492188 43.25 15.4375 C 43.457031 17.460938 42.738281 19.359375 41.15625 20.9375 C 39.742188 22.351563 38.097656 23.09375 36.3125 23.09375 C 34.148438 23.09375 31.886719 22.007813 29.9375 20.0625 C 28.207031 18.335938 27.136719 16.320313 26.9375 14.375 C 26.730469 12.351563 27.484375 10.421875 29.0625 8.84375 C 30.476563 7.429688 32.089844 6.71875 33.875 6.71875 Z M 21.34375 22.84375 L 1.21875 43 C 0.441406 43.777344 0 44.808594 0 45.90625 C 0 47.003906 0.441406 48.035156 1.21875 48.8125 C 1.992188 49.585938 2.996094 50 4.09375 50 C 5.191406 50 6.222656 49.585938 7 48.8125 L 27.125 28.65625 C 26.019531 27.902344 24.972656 27.035156 23.96875 26.03125 C 22.96875 25.03125 22.101563 23.957031 21.34375 22.84375 Z M 6.0625 32.125 C 4.925781 32.125 4.0625 32.964844 3.15625 33.875 L 1.78125 35.25 C 0.867188 36.160156 0 37.015625 0 38.15625 C 0 38.796875 0.285156 39.410156 0.84375 39.96875 L 1.125 40.25 L 8.125 33.21875 L 7.875 32.96875 C 7.316406 32.410156 6.703125 32.125 6.0625 32.125 Z " fill="#43007e"/>
</g>
</svg>
