<svg width="960" height="154" viewBox="0 0 960 154" fill="none" xmlns="http://www.w3.org/2000/svg">
<rect width="960" height="154" rx="10" fill="#E1F3F3" fill-opacity="0.5"/>
<path d="M39.0579 107.124C39.8619 107.124 40.5579 107.274 41.1459 107.574C41.7459 107.862 42.2139 108.276 42.5499 108.816C42.8859 109.356 43.0539 109.998 43.0539 110.742C43.0539 111.486 42.8859 112.128 42.5499 112.668C42.2139 113.208 41.7459 113.628 41.1459 113.928C40.5579 114.216 39.8619 114.36 39.0579 114.36H36.3039V119.004H34.8639V107.124H39.0579ZM38.8419 113.01C39.7779 113.01 40.4619 112.818 40.8939 112.434C41.3259 112.038 41.5419 111.474 41.5419 110.742C41.5419 109.998 41.3259 109.434 40.8939 109.05C40.4619 108.666 39.7779 108.474 38.8419 108.474H36.3039V113.01H38.8419ZM50.8363 113.19C50.8363 112.518 50.6563 112.002 50.2963 111.642C49.9363 111.27 49.4263 111.084 48.7663 111.084C48.1423 111.084 47.6143 111.222 47.1823 111.498C46.7503 111.762 46.4323 112.194 46.2283 112.794L45.0583 112.074C45.2983 111.402 45.7423 110.862 46.3903 110.454C47.0383 110.034 47.8423 109.824 48.8023 109.824C49.4503 109.824 50.0383 109.938 50.5663 110.166C51.0943 110.382 51.5083 110.718 51.8083 111.174C52.1203 111.618 52.2763 112.194 52.2763 112.902V117.258C52.2763 117.69 52.5043 117.906 52.9603 117.906C53.1883 117.906 53.4103 117.876 53.6263 117.816L53.5543 118.95C53.3143 119.07 53.0023 119.13 52.6183 119.13C52.1743 119.13 51.7903 119.022 51.4663 118.806C51.1543 118.59 50.9503 118.26 50.8543 117.816C50.5423 118.284 50.1163 118.632 49.5763 118.86C49.0363 119.076 48.5023 119.184 47.9743 119.184C47.4463 119.184 46.9543 119.094 46.4983 118.914C46.0423 118.734 45.6763 118.464 45.4003 118.104C45.1363 117.732 45.0043 117.276 45.0043 116.736C45.0043 116.064 45.2263 115.512 45.6703 115.08C46.1263 114.636 46.7563 114.336 47.5603 114.18L50.8363 113.532V113.19ZM46.4803 116.664C46.4803 117.036 46.6243 117.342 46.9123 117.582C47.2123 117.81 47.6323 117.924 48.1723 117.924C48.6403 117.924 49.0723 117.846 49.4683 117.69C49.8763 117.522 50.2063 117.276 50.4583 116.952C50.7103 116.616 50.8363 116.19 50.8363 115.674V114.72L48.2263 115.26C47.6383 115.38 47.2003 115.548 46.9123 115.764C46.6243 115.98 46.4803 116.28 46.4803 116.664ZM60.824 110.004V111.246H57.548V116.52C57.548 116.964 57.674 117.294 57.926 117.51C58.178 117.726 58.502 117.834 58.898 117.834C59.246 117.834 59.546 117.774 59.798 117.654C60.05 117.534 60.278 117.372 60.482 117.168L60.986 118.374C60.71 118.626 60.38 118.824 59.996 118.968C59.624 119.112 59.192 119.184 58.7 119.184C58.244 119.184 57.818 119.106 57.422 118.95C57.026 118.782 56.708 118.524 56.468 118.176C56.24 117.816 56.12 117.348 56.108 116.772V111.246H54.308V110.004H56.108V107.844L57.548 107.448V110.004H60.824ZM63.685 108.276C63.361 108.276 63.097 108.18 62.893 107.988C62.701 107.784 62.605 107.52 62.605 107.196C62.605 106.872 62.701 106.614 62.893 106.422C63.097 106.218 63.361 106.116 63.685 106.116C64.009 106.116 64.267 106.218 64.459 106.422C64.663 106.614 64.765 106.872 64.765 107.196C64.765 107.52 64.663 107.784 64.459 107.988C64.267 108.18 64.009 108.276 63.685 108.276ZM64.405 110.004V119.004H62.965V110.004H64.405ZM71.5083 119.184C70.6563 119.184 69.8943 118.998 69.2223 118.626C68.5623 118.254 68.0463 117.72 67.6743 117.024C67.3023 116.316 67.1163 115.476 67.1163 114.504C67.1163 113.532 67.3023 112.698 67.6743 112.002C68.0463 111.294 68.5563 110.754 69.2043 110.382C69.8523 110.01 70.5903 109.824 71.4183 109.824C72.2583 109.824 72.9723 110.004 73.5603 110.364C74.1603 110.724 74.6163 111.216 74.9283 111.84C75.2403 112.452 75.3963 113.142 75.3963 113.91C75.3963 114.114 75.3903 114.3 75.3783 114.468C75.3663 114.636 75.3483 114.786 75.3243 114.918H68.5383C68.6103 115.866 68.9043 116.604 69.4203 117.132C69.9363 117.66 70.6203 117.924 71.4723 117.924C72.1323 117.924 72.6663 117.798 73.0743 117.546C73.4943 117.294 73.8303 116.952 74.0823 116.52L75.2163 117.186C74.8803 117.798 74.3943 118.284 73.7583 118.644C73.1343 119.004 72.3843 119.184 71.5083 119.184ZM71.3823 111.084C70.6263 111.084 70.0023 111.312 69.5103 111.768C69.0303 112.212 68.7243 112.836 68.5923 113.64H73.9563C73.9203 112.824 73.6683 112.194 73.2003 111.75C72.7323 111.306 72.1263 111.084 71.3823 111.084ZM78.1349 119.004V110.004H79.3949L79.4849 111.408C79.7969 110.844 80.2229 110.442 80.7629 110.202C81.3029 109.95 81.8849 109.824 82.5089 109.824C83.1569 109.824 83.7449 109.95 84.2729 110.202C84.8009 110.442 85.2209 110.814 85.5329 111.318C85.8569 111.822 86.0189 112.464 86.0189 113.244V119.004H84.5789V113.748C84.5789 112.752 84.3629 112.062 83.9309 111.678C83.5109 111.282 82.9889 111.084 82.3649 111.084C81.9329 111.084 81.5009 111.186 81.0689 111.39C80.6369 111.594 80.2769 111.924 79.9889 112.38C79.7129 112.836 79.5749 113.448 79.5749 114.216V119.004H78.1349ZM94.5564 110.004V111.246H91.2804V116.52C91.2804 116.964 91.4064 117.294 91.6584 117.51C91.9104 117.726 92.2344 117.834 92.6304 117.834C92.9784 117.834 93.2784 117.774 93.5304 117.654C93.7824 117.534 94.0104 117.372 94.2144 117.168L94.7184 118.374C94.4424 118.626 94.1124 118.824 93.7284 118.968C93.3564 119.112 92.9244 119.184 92.4324 119.184C91.9764 119.184 91.5504 119.106 91.1544 118.95C90.7584 118.782 90.4404 118.524 90.2004 118.176C89.9724 117.816 89.8524 117.348 89.8404 116.772V111.246H88.0404V110.004H89.8404V107.844L91.2804 107.448V110.004H94.5564ZM106.342 119.184C105.598 119.184 104.914 118.998 104.29 118.626C103.666 118.254 103.168 117.72 102.796 117.024C102.424 116.316 102.238 115.476 102.238 114.504C102.238 113.508 102.436 112.662 102.832 111.966C103.228 111.27 103.75 110.742 104.398 110.382C105.046 110.01 105.742 109.824 106.486 109.824C107.134 109.824 107.71 109.974 108.214 110.274C108.718 110.562 109.09 110.958 109.33 111.462V105.864H110.77V119.004H109.51L109.42 117.312C109.168 117.924 108.76 118.392 108.196 118.716C107.632 119.028 107.014 119.184 106.342 119.184ZM106.486 117.924C107.338 117.924 108.022 117.606 108.538 116.97C109.066 116.334 109.33 115.47 109.33 114.378C109.33 113.346 109.072 112.542 108.556 111.966C108.04 111.378 107.374 111.084 106.558 111.084C105.646 111.084 104.938 111.396 104.434 112.02C103.93 112.644 103.678 113.472 103.678 114.504C103.678 115.536 103.924 116.364 104.416 116.988C104.908 117.612 105.598 117.924 106.486 117.924ZM117.879 119.184C117.027 119.184 116.265 118.998 115.593 118.626C114.933 118.254 114.417 117.72 114.045 117.024C113.673 116.316 113.487 115.476 113.487 114.504C113.487 113.532 113.673 112.698 114.045 112.002C114.417 111.294 114.927 110.754 115.575 110.382C116.223 110.01 116.961 109.824 117.789 109.824C118.629 109.824 119.343 110.004 119.931 110.364C120.531 110.724 120.987 111.216 121.299 111.84C121.611 112.452 121.767 113.142 121.767 113.91C121.767 114.114 121.761 114.3 121.749 114.468C121.737 114.636 121.719 114.786 121.695 114.918H114.909C114.981 115.866 115.275 116.604 115.791 117.132C116.307 117.66 116.991 117.924 117.843 117.924C118.503 117.924 119.037 117.798 119.445 117.546C119.865 117.294 120.201 116.952 120.453 116.52L121.587 117.186C121.251 117.798 120.765 118.284 120.129 118.644C119.505 119.004 118.755 119.184 117.879 119.184ZM117.753 111.084C116.997 111.084 116.373 111.312 115.881 111.768C115.401 112.212 115.095 112.836 114.963 113.64H120.327C120.291 112.824 120.039 112.194 119.571 111.75C119.103 111.306 118.497 111.084 117.753 111.084ZM129.642 110.004V111.246H126.366V116.52C126.366 116.964 126.492 117.294 126.744 117.51C126.996 117.726 127.32 117.834 127.716 117.834C128.064 117.834 128.364 117.774 128.616 117.654C128.868 117.534 129.096 117.372 129.3 117.168L129.804 118.374C129.528 118.626 129.198 118.824 128.814 118.968C128.442 119.112 128.01 119.184 127.518 119.184C127.062 119.184 126.636 119.106 126.24 118.95C125.844 118.782 125.526 118.524 125.286 118.176C125.058 117.816 124.938 117.348 124.926 116.772V111.246H123.126V110.004H124.926V107.844L126.366 107.448V110.004H129.642ZM137.039 113.19C137.039 112.518 136.859 112.002 136.499 111.642C136.139 111.27 135.629 111.084 134.969 111.084C134.345 111.084 133.817 111.222 133.385 111.498C132.953 111.762 132.635 112.194 132.431 112.794L131.261 112.074C131.501 111.402 131.945 110.862 132.593 110.454C133.241 110.034 134.045 109.824 135.005 109.824C135.653 109.824 136.241 109.938 136.769 110.166C137.297 110.382 137.711 110.718 138.011 111.174C138.323 111.618 138.479 112.194 138.479 112.902V117.258C138.479 117.69 138.707 117.906 139.163 117.906C139.391 117.906 139.613 117.876 139.829 117.816L139.757 118.95C139.517 119.07 139.205 119.13 138.821 119.13C138.377 119.13 137.993 119.022 137.669 118.806C137.357 118.59 137.153 118.26 137.057 117.816C136.745 118.284 136.319 118.632 135.779 118.86C135.239 119.076 134.705 119.184 134.177 119.184C133.649 119.184 133.157 119.094 132.701 118.914C132.245 118.734 131.879 118.464 131.603 118.104C131.339 117.732 131.207 117.276 131.207 116.736C131.207 116.064 131.429 115.512 131.873 115.08C132.329 114.636 132.959 114.336 133.763 114.18L137.039 113.532V113.19ZM132.683 116.664C132.683 117.036 132.827 117.342 133.115 117.582C133.415 117.81 133.835 117.924 134.375 117.924C134.843 117.924 135.275 117.846 135.671 117.69C136.079 117.522 136.409 117.276 136.661 116.952C136.913 116.616 137.039 116.19 137.039 115.674V114.72L134.429 115.26C133.841 115.38 133.403 115.548 133.115 115.764C132.827 115.98 132.683 116.28 132.683 116.664ZM142.699 108.276C142.375 108.276 142.111 108.18 141.907 107.988C141.715 107.784 141.619 107.52 141.619 107.196C141.619 106.872 141.715 106.614 141.907 106.422C142.111 106.218 142.375 106.116 142.699 106.116C143.023 106.116 143.281 106.218 143.473 106.422C143.677 106.614 143.779 106.872 143.779 107.196C143.779 107.52 143.677 107.784 143.473 107.988C143.281 108.18 143.023 108.276 142.699 108.276ZM143.419 110.004V119.004H141.979V110.004H143.419ZM148.128 105.864V116.718C148.128 117.174 148.212 117.492 148.38 117.672C148.548 117.84 148.818 117.924 149.19 117.924C149.43 117.924 149.628 117.906 149.784 117.87C149.94 117.834 150.15 117.768 150.414 117.672L150.18 118.932C149.784 119.1 149.34 119.184 148.848 119.184C147.408 119.184 146.688 118.38 146.688 116.772V105.864H148.128ZM155.502 119.184C154.626 119.184 153.816 118.998 153.072 118.626C152.34 118.254 151.776 117.726 151.38 117.042L152.604 116.16C152.868 116.712 153.252 117.144 153.756 117.456C154.272 117.768 154.89 117.924 155.61 117.924C156.246 117.924 156.744 117.804 157.104 117.564C157.464 117.312 157.644 116.988 157.644 116.592C157.644 116.34 157.56 116.112 157.392 115.908C157.236 115.692 156.93 115.536 156.474 115.44L154.314 114.99C153.438 114.81 152.808 114.51 152.424 114.09C152.052 113.67 151.866 113.148 151.866 112.524C151.866 112.032 152.004 111.582 152.28 111.174C152.568 110.766 152.97 110.442 153.486 110.202C154.014 109.95 154.632 109.824 155.34 109.824C156.228 109.824 156.978 109.998 157.59 110.346C158.202 110.694 158.658 111.186 158.958 111.822L157.752 112.614C157.548 112.086 157.218 111.702 156.762 111.462C156.306 111.21 155.832 111.084 155.34 111.084C154.692 111.084 154.188 111.216 153.828 111.48C153.468 111.744 153.288 112.074 153.288 112.47C153.288 112.734 153.378 112.98 153.558 113.208C153.738 113.424 154.074 113.58 154.566 113.676L156.816 114.144C157.656 114.312 158.244 114.588 158.58 114.972C158.916 115.356 159.084 115.824 159.084 116.376C159.084 117.228 158.754 117.912 158.094 118.428C157.434 118.932 156.57 119.184 155.502 119.184Z" fill="#5E4098"/>
<path d="M239.322 107.124V119.004H237.954V111.534L238.116 108.402H238.098L234.192 119.004H232.968L229.062 108.402H229.044L229.206 111.534V119.004H227.838V107.124H230.052L232.662 114.342L233.562 117.312H233.598L234.516 114.36L237.108 107.124H239.322ZM246.552 119.184C245.7 119.184 244.938 118.998 244.266 118.626C243.606 118.254 243.09 117.72 242.718 117.024C242.346 116.316 242.16 115.476 242.16 114.504C242.16 113.532 242.346 112.698 242.718 112.002C243.09 111.294 243.6 110.754 244.248 110.382C244.896 110.01 245.634 109.824 246.462 109.824C247.302 109.824 248.016 110.004 248.604 110.364C249.204 110.724 249.66 111.216 249.972 111.84C250.284 112.452 250.44 113.142 250.44 113.91C250.44 114.114 250.434 114.3 250.422 114.468C250.41 114.636 250.392 114.786 250.368 114.918H243.096V113.64H249.738L249 113.784C249 112.92 248.76 112.254 248.28 111.786C247.812 111.318 247.194 111.084 246.426 111.084C245.838 111.084 245.328 111.222 244.896 111.498C244.476 111.762 244.146 112.152 243.906 112.668C243.678 113.172 243.564 113.784 243.564 114.504C243.564 115.212 243.684 115.824 243.924 116.34C244.164 116.856 244.5 117.252 244.932 117.528C245.376 117.792 245.904 117.924 246.516 117.924C247.176 117.924 247.71 117.798 248.118 117.546C248.538 117.294 248.874 116.952 249.126 116.52L250.26 117.186C250.032 117.594 249.738 117.948 249.378 118.248C249.03 118.548 248.616 118.782 248.136 118.95C247.668 119.106 247.14 119.184 246.552 119.184ZM256.689 119.184C255.945 119.184 255.261 118.998 254.637 118.626C254.013 118.254 253.515 117.72 253.143 117.024C252.771 116.316 252.585 115.476 252.585 114.504C252.585 113.508 252.783 112.662 253.179 111.966C253.575 111.27 254.097 110.742 254.745 110.382C255.393 110.01 256.089 109.824 256.833 109.824C257.577 109.824 258.219 110.016 258.759 110.4C259.311 110.784 259.677 111.294 259.857 111.93L259.677 112.056V105.864H261.117V119.004H259.857L259.731 116.826L259.929 116.718C259.845 117.246 259.641 117.696 259.317 118.068C259.005 118.428 258.615 118.704 258.147 118.896C257.691 119.088 257.205 119.184 256.689 119.184ZM256.833 117.924C257.409 117.924 257.907 117.78 258.327 117.492C258.759 117.204 259.089 116.796 259.317 116.268C259.557 115.728 259.677 115.098 259.677 114.378C259.677 113.694 259.557 113.106 259.317 112.614C259.089 112.122 258.765 111.744 258.345 111.48C257.937 111.216 257.457 111.084 256.905 111.084C255.993 111.084 255.285 111.396 254.781 112.02C254.277 112.644 254.025 113.472 254.025 114.504C254.025 115.536 254.271 116.364 254.763 116.988C255.255 117.612 255.945 117.924 256.833 117.924ZM265.184 108.276C264.86 108.276 264.596 108.18 264.392 107.988C264.2 107.784 264.104 107.52 264.104 107.196C264.104 106.872 264.2 106.614 264.392 106.422C264.596 106.218 264.86 106.116 265.184 106.116C265.508 106.116 265.766 106.218 265.958 106.422C266.162 106.614 266.264 106.872 266.264 107.196C266.264 107.52 266.162 107.784 265.958 107.988C265.766 108.18 265.508 108.276 265.184 108.276ZM265.904 110.004V119.004H264.464V110.004H265.904ZM272.971 109.824C273.595 109.824 274.141 109.92 274.609 110.112C275.089 110.304 275.503 110.58 275.851 110.94C276.199 111.3 276.481 111.726 276.697 112.218L275.329 112.866C275.137 112.29 274.843 111.852 274.447 111.552C274.063 111.24 273.559 111.084 272.935 111.084C272.335 111.084 271.819 111.222 271.387 111.498C270.955 111.762 270.625 112.152 270.397 112.668C270.169 113.172 270.055 113.784 270.055 114.504C270.055 115.212 270.169 115.824 270.397 116.34C270.625 116.856 270.955 117.252 271.387 117.528C271.819 117.792 272.335 117.924 272.935 117.924C273.403 117.924 273.805 117.852 274.141 117.708C274.489 117.564 274.771 117.354 274.987 117.078C275.215 116.802 275.371 116.466 275.455 116.07L276.787 116.538C276.583 117.09 276.301 117.564 275.941 117.96C275.593 118.356 275.167 118.662 274.663 118.878C274.171 119.082 273.607 119.184 272.971 119.184C272.131 119.184 271.381 118.998 270.721 118.626C270.061 118.254 269.545 117.72 269.173 117.024C268.801 116.316 268.615 115.476 268.615 114.504C268.615 113.532 268.801 112.698 269.173 112.002C269.545 111.294 270.061 110.754 270.721 110.382C271.381 110.01 272.131 109.824 272.971 109.824ZM284.574 113.19C284.574 112.518 284.394 112.002 284.034 111.642C283.674 111.27 283.164 111.084 282.504 111.084C281.88 111.084 281.352 111.222 280.92 111.498C280.488 111.762 280.17 112.194 279.966 112.794L278.796 112.074C279.036 111.402 279.48 110.862 280.128 110.454C280.776 110.034 281.58 109.824 282.54 109.824C283.188 109.824 283.776 109.938 284.304 110.166C284.832 110.382 285.246 110.718 285.546 111.174C285.858 111.618 286.014 112.194 286.014 112.902V117.258C286.014 117.69 286.242 117.906 286.698 117.906C286.926 117.906 287.148 117.876 287.364 117.816L287.292 118.95C287.052 119.07 286.74 119.13 286.356 119.13C286.008 119.13 285.696 119.064 285.42 118.932C285.144 118.8 284.928 118.602 284.772 118.338C284.616 118.062 284.538 117.72 284.538 117.312V117.132L284.898 117.186C284.754 117.654 284.508 118.038 284.16 118.338C283.812 118.626 283.422 118.842 282.99 118.986C282.558 119.118 282.132 119.184 281.712 119.184C281.184 119.184 280.692 119.094 280.236 118.914C279.78 118.734 279.414 118.464 279.138 118.104C278.874 117.732 278.742 117.276 278.742 116.736C278.742 116.064 278.964 115.512 279.408 115.08C279.864 114.636 280.494 114.336 281.298 114.18L284.862 113.478V114.666L281.964 115.26C281.376 115.38 280.938 115.548 280.65 115.764C280.362 115.98 280.218 116.28 280.218 116.664C280.218 117.036 280.362 117.342 280.65 117.582C280.95 117.81 281.37 117.924 281.91 117.924C282.258 117.924 282.588 117.882 282.9 117.798C283.224 117.702 283.512 117.564 283.764 117.384C284.016 117.192 284.214 116.958 284.358 116.682C284.502 116.394 284.574 116.058 284.574 115.674V113.19ZM290.881 105.864V116.718C290.881 117.174 290.965 117.492 291.133 117.672C291.301 117.84 291.571 117.924 291.943 117.924C292.183 117.924 292.381 117.906 292.537 117.87C292.693 117.834 292.903 117.768 293.167 117.672L292.933 118.932C292.741 119.016 292.531 119.076 292.303 119.112C292.075 119.16 291.841 119.184 291.601 119.184C290.869 119.184 290.323 118.986 289.963 118.59C289.615 118.194 289.441 117.588 289.441 116.772V105.864H290.881ZM301.237 108.276C300.913 108.276 300.649 108.18 300.445 107.988C300.253 107.784 300.157 107.52 300.157 107.196C300.157 106.872 300.253 106.614 300.445 106.422C300.649 106.218 300.913 106.116 301.237 106.116C301.561 106.116 301.819 106.218 302.011 106.422C302.215 106.614 302.317 106.872 302.317 107.196C302.317 107.52 302.215 107.784 302.011 107.988C301.819 108.18 301.561 108.276 301.237 108.276ZM301.957 110.004V119.004H300.517V110.004H301.957ZM308.538 119.184C307.662 119.184 306.852 118.998 306.108 118.626C305.376 118.254 304.812 117.726 304.416 117.042L305.64 116.16C305.904 116.712 306.288 117.144 306.792 117.456C307.308 117.768 307.926 117.924 308.646 117.924C309.282 117.924 309.78 117.804 310.14 117.564C310.5 117.312 310.68 116.988 310.68 116.592C310.68 116.34 310.596 116.112 310.428 115.908C310.272 115.692 309.966 115.536 309.51 115.44L307.35 114.99C306.474 114.81 305.844 114.51 305.46 114.09C305.088 113.67 304.902 113.148 304.902 112.524C304.902 112.032 305.04 111.582 305.316 111.174C305.604 110.766 306.006 110.442 306.522 110.202C307.05 109.95 307.668 109.824 308.376 109.824C309.264 109.824 310.014 109.998 310.626 110.346C311.238 110.694 311.694 111.186 311.994 111.822L310.788 112.614C310.584 112.086 310.254 111.702 309.798 111.462C309.342 111.21 308.868 111.084 308.376 111.084C307.944 111.084 307.572 111.144 307.26 111.264C306.96 111.384 306.726 111.552 306.558 111.768C306.402 111.972 306.324 112.206 306.324 112.47C306.324 112.734 306.414 112.98 306.594 113.208C306.774 113.424 307.11 113.58 307.602 113.676L309.852 114.144C310.692 114.312 311.28 114.588 311.616 114.972C311.952 115.356 312.12 115.824 312.12 116.376C312.12 116.94 311.97 117.438 311.67 117.87C311.37 118.29 310.95 118.614 310.41 118.842C309.87 119.07 309.246 119.184 308.538 119.184ZM318.03 119.184C317.154 119.184 316.344 118.998 315.6 118.626C314.868 118.254 314.304 117.726 313.908 117.042L315.132 116.16C315.396 116.712 315.78 117.144 316.284 117.456C316.8 117.768 317.418 117.924 318.138 117.924C318.774 117.924 319.272 117.804 319.632 117.564C319.992 117.312 320.172 116.988 320.172 116.592C320.172 116.34 320.088 116.112 319.92 115.908C319.764 115.692 319.458 115.536 319.002 115.44L316.842 114.99C315.966 114.81 315.336 114.51 314.952 114.09C314.58 113.67 314.394 113.148 314.394 112.524C314.394 112.032 314.532 111.582 314.808 111.174C315.096 110.766 315.498 110.442 316.014 110.202C316.542 109.95 317.16 109.824 317.868 109.824C318.756 109.824 319.506 109.998 320.118 110.346C320.73 110.694 321.186 111.186 321.486 111.822L320.28 112.614C320.076 112.086 319.746 111.702 319.29 111.462C318.834 111.21 318.36 111.084 317.868 111.084C317.436 111.084 317.064 111.144 316.752 111.264C316.452 111.384 316.218 111.552 316.05 111.768C315.894 111.972 315.816 112.206 315.816 112.47C315.816 112.734 315.906 112.98 316.086 113.208C316.266 113.424 316.602 113.58 317.094 113.676L319.344 114.144C320.184 114.312 320.772 114.588 321.108 114.972C321.444 115.356 321.612 115.824 321.612 116.376C321.612 116.94 321.462 117.438 321.162 117.87C320.862 118.29 320.442 118.614 319.902 118.842C319.362 119.07 318.738 119.184 318.03 119.184ZM327.54 119.184C326.964 119.184 326.418 119.076 325.902 118.86C325.398 118.644 324.984 118.296 324.66 117.816C324.348 117.324 324.192 116.688 324.192 115.908V110.004H325.632V115.53C325.632 116.442 325.83 117.072 326.226 117.42C326.622 117.756 327.18 117.924 327.9 117.924C328.236 117.924 328.566 117.87 328.89 117.762C329.214 117.642 329.502 117.462 329.754 117.222C330.018 116.97 330.222 116.652 330.366 116.268C330.522 115.884 330.6 115.428 330.6 114.9V110.004H332.04V119.004H330.78L330.69 117.636C330.378 118.176 329.952 118.572 329.412 118.824C328.884 119.064 328.26 119.184 327.54 119.184ZM339.154 119.184C338.302 119.184 337.54 118.998 336.868 118.626C336.208 118.254 335.692 117.72 335.32 117.024C334.948 116.316 334.762 115.476 334.762 114.504C334.762 113.532 334.948 112.698 335.32 112.002C335.692 111.294 336.202 110.754 336.85 110.382C337.498 110.01 338.236 109.824 339.064 109.824C339.904 109.824 340.618 110.004 341.206 110.364C341.806 110.724 342.262 111.216 342.574 111.84C342.886 112.452 343.042 113.142 343.042 113.91C343.042 114.114 343.036 114.3 343.024 114.468C343.012 114.636 342.994 114.786 342.97 114.918H335.698V113.64H342.34L341.602 113.784C341.602 112.92 341.362 112.254 340.882 111.786C340.414 111.318 339.796 111.084 339.028 111.084C338.44 111.084 337.93 111.222 337.498 111.498C337.078 111.762 336.748 112.152 336.508 112.668C336.28 113.172 336.166 113.784 336.166 114.504C336.166 115.212 336.286 115.824 336.526 116.34C336.766 116.856 337.102 117.252 337.534 117.528C337.978 117.792 338.506 117.924 339.118 117.924C339.778 117.924 340.312 117.798 340.72 117.546C341.14 117.294 341.476 116.952 341.728 116.52L342.862 117.186C342.634 117.594 342.34 117.948 341.98 118.248C341.632 118.548 341.218 118.782 340.738 118.95C340.27 119.106 339.742 119.184 339.154 119.184Z" fill="#5E4098"/>
<path d="M422.263 107.124V119.004H420.895V111.534L421.057 108.402H421.039L417.133 119.004H415.909L412.003 108.402H411.985L412.147 111.534V119.004H410.779V107.124H412.993L415.603 114.342L416.503 117.312H416.539L417.457 114.36L420.049 107.124H422.263ZM429.494 119.184C428.642 119.184 427.88 118.998 427.208 118.626C426.548 118.254 426.032 117.72 425.66 117.024C425.288 116.316 425.102 115.476 425.102 114.504C425.102 113.532 425.288 112.698 425.66 112.002C426.032 111.294 426.542 110.754 427.19 110.382C427.838 110.01 428.576 109.824 429.404 109.824C430.244 109.824 430.958 110.004 431.546 110.364C432.146 110.724 432.602 111.216 432.914 111.84C433.226 112.452 433.382 113.142 433.382 113.91C433.382 114.114 433.376 114.3 433.364 114.468C433.352 114.636 433.334 114.786 433.31 114.918H426.524C426.596 115.866 426.89 116.604 427.406 117.132C427.922 117.66 428.606 117.924 429.458 117.924C430.118 117.924 430.652 117.798 431.06 117.546C431.48 117.294 431.816 116.952 432.068 116.52L433.202 117.186C432.866 117.798 432.38 118.284 431.744 118.644C431.12 119.004 430.37 119.184 429.494 119.184ZM429.368 111.084C428.612 111.084 427.988 111.312 427.496 111.768C427.016 112.212 426.71 112.836 426.578 113.64H431.942C431.906 112.824 431.654 112.194 431.186 111.75C430.718 111.306 430.112 111.084 429.368 111.084ZM439.63 119.184C438.886 119.184 438.202 118.998 437.578 118.626C436.954 118.254 436.456 117.72 436.084 117.024C435.712 116.316 435.526 115.476 435.526 114.504C435.526 113.508 435.724 112.662 436.12 111.966C436.516 111.27 437.038 110.742 437.686 110.382C438.334 110.01 439.03 109.824 439.774 109.824C440.422 109.824 440.998 109.974 441.502 110.274C442.006 110.562 442.378 110.958 442.618 111.462V105.864H444.058V119.004H442.798L442.708 117.312C442.456 117.924 442.048 118.392 441.484 118.716C440.92 119.028 440.302 119.184 439.63 119.184ZM439.774 117.924C440.626 117.924 441.31 117.606 441.826 116.97C442.354 116.334 442.618 115.47 442.618 114.378C442.618 113.346 442.36 112.542 441.844 111.966C441.328 111.378 440.662 111.084 439.846 111.084C438.934 111.084 438.226 111.396 437.722 112.02C437.218 112.644 436.966 113.472 436.966 114.504C436.966 115.536 437.212 116.364 437.704 116.988C438.196 117.612 438.886 117.924 439.774 117.924ZM448.125 108.276C447.801 108.276 447.537 108.18 447.333 107.988C447.141 107.784 447.045 107.52 447.045 107.196C447.045 106.872 447.141 106.614 447.333 106.422C447.537 106.218 447.801 106.116 448.125 106.116C448.449 106.116 448.707 106.218 448.899 106.422C449.103 106.614 449.205 106.872 449.205 107.196C449.205 107.52 449.103 107.784 448.899 107.988C448.707 108.18 448.449 108.276 448.125 108.276ZM448.845 110.004V119.004H447.405V110.004H448.845ZM455.913 109.824C456.837 109.824 457.605 110.04 458.217 110.472C458.829 110.892 459.303 111.474 459.639 112.218L458.271 112.866C458.079 112.29 457.785 111.852 457.389 111.552C457.005 111.24 456.501 111.084 455.877 111.084C454.977 111.084 454.269 111.39 453.753 112.002C453.249 112.602 452.997 113.436 452.997 114.504C452.997 115.572 453.249 116.412 453.753 117.024C454.269 117.624 454.977 117.924 455.877 117.924C456.585 117.924 457.149 117.762 457.569 117.438C457.989 117.114 458.265 116.658 458.397 116.07L459.729 116.538C459.429 117.366 458.955 118.014 458.307 118.482C457.671 118.95 456.873 119.184 455.913 119.184C455.073 119.184 454.323 118.998 453.663 118.626C453.003 118.254 452.487 117.72 452.115 117.024C451.743 116.316 451.557 115.476 451.557 114.504C451.557 113.532 451.743 112.698 452.115 112.002C452.487 111.294 453.003 110.754 453.663 110.382C454.323 110.01 455.073 109.824 455.913 109.824ZM467.515 113.19C467.515 112.518 467.335 112.002 466.975 111.642C466.615 111.27 466.105 111.084 465.445 111.084C464.821 111.084 464.293 111.222 463.861 111.498C463.429 111.762 463.111 112.194 462.907 112.794L461.737 112.074C461.977 111.402 462.421 110.862 463.069 110.454C463.717 110.034 464.521 109.824 465.481 109.824C466.129 109.824 466.717 109.938 467.245 110.166C467.773 110.382 468.187 110.718 468.487 111.174C468.799 111.618 468.955 112.194 468.955 112.902V117.258C468.955 117.69 469.183 117.906 469.639 117.906C469.867 117.906 470.089 117.876 470.305 117.816L470.233 118.95C469.993 119.07 469.681 119.13 469.297 119.13C468.853 119.13 468.469 119.022 468.145 118.806C467.833 118.59 467.629 118.26 467.533 117.816C467.221 118.284 466.795 118.632 466.255 118.86C465.715 119.076 465.181 119.184 464.653 119.184C464.125 119.184 463.633 119.094 463.177 118.914C462.721 118.734 462.355 118.464 462.079 118.104C461.815 117.732 461.683 117.276 461.683 116.736C461.683 116.064 461.905 115.512 462.349 115.08C462.805 114.636 463.435 114.336 464.239 114.18L467.515 113.532V113.19ZM463.159 116.664C463.159 117.036 463.303 117.342 463.591 117.582C463.891 117.81 464.311 117.924 464.851 117.924C465.319 117.924 465.751 117.846 466.147 117.69C466.555 117.522 466.885 117.276 467.137 116.952C467.389 116.616 467.515 116.19 467.515 115.674V114.72L464.905 115.26C464.317 115.38 463.879 115.548 463.591 115.764C463.303 115.98 463.159 116.28 463.159 116.664ZM473.822 105.864V116.718C473.822 117.174 473.906 117.492 474.074 117.672C474.242 117.84 474.512 117.924 474.884 117.924C475.124 117.924 475.322 117.906 475.478 117.87C475.634 117.834 475.844 117.768 476.108 117.672L475.874 118.932C475.478 119.1 475.034 119.184 474.542 119.184C473.102 119.184 472.382 118.38 472.382 116.772V105.864H473.822ZM483.458 119.004V105.864H484.898V111.354C485.21 110.814 485.624 110.424 486.14 110.184C486.656 109.944 487.22 109.824 487.832 109.824C488.48 109.824 489.068 109.95 489.596 110.202C490.124 110.442 490.544 110.814 490.856 111.318C491.18 111.822 491.342 112.464 491.342 113.244V119.004H489.902V113.748C489.902 112.752 489.686 112.062 489.254 111.678C488.834 111.282 488.312 111.084 487.688 111.084C487.256 111.084 486.824 111.186 486.392 111.39C485.96 111.594 485.6 111.93 485.312 112.398C485.036 112.854 484.898 113.466 484.898 114.234V119.004H483.458ZM495.323 108.276C494.999 108.276 494.735 108.18 494.531 107.988C494.339 107.784 494.243 107.52 494.243 107.196C494.243 106.872 494.339 106.614 494.531 106.422C494.735 106.218 494.999 106.116 495.323 106.116C495.647 106.116 495.905 106.218 496.097 106.422C496.301 106.614 496.403 106.872 496.403 107.196C496.403 107.52 496.301 107.784 496.097 107.988C495.905 108.18 495.647 108.276 495.323 108.276ZM496.043 110.004V119.004H494.603V110.004H496.043ZM502.624 119.184C501.748 119.184 500.938 118.998 500.194 118.626C499.462 118.254 498.898 117.726 498.502 117.042L499.726 116.16C499.99 116.712 500.374 117.144 500.878 117.456C501.394 117.768 502.012 117.924 502.732 117.924C503.368 117.924 503.866 117.804 504.226 117.564C504.586 117.312 504.766 116.988 504.766 116.592C504.766 116.34 504.682 116.112 504.514 115.908C504.358 115.692 504.052 115.536 503.596 115.44L501.436 114.99C500.56 114.81 499.93 114.51 499.546 114.09C499.174 113.67 498.988 113.148 498.988 112.524C498.988 112.032 499.126 111.582 499.402 111.174C499.69 110.766 500.092 110.442 500.608 110.202C501.136 109.95 501.754 109.824 502.462 109.824C503.35 109.824 504.1 109.998 504.712 110.346C505.324 110.694 505.78 111.186 506.08 111.822L504.874 112.614C504.67 112.086 504.34 111.702 503.884 111.462C503.428 111.21 502.954 111.084 502.462 111.084C501.814 111.084 501.31 111.216 500.95 111.48C500.59 111.744 500.41 112.074 500.41 112.47C500.41 112.734 500.5 112.98 500.68 113.208C500.86 113.424 501.196 113.58 501.688 113.676L503.938 114.144C504.778 114.312 505.366 114.588 505.702 114.972C506.038 115.356 506.206 115.824 506.206 116.376C506.206 117.228 505.876 117.912 505.216 118.428C504.556 118.932 503.692 119.184 502.624 119.184ZM514.276 110.004V111.246H511V116.52C511 116.964 511.126 117.294 511.378 117.51C511.63 117.726 511.954 117.834 512.35 117.834C512.698 117.834 512.998 117.774 513.25 117.654C513.502 117.534 513.73 117.372 513.934 117.168L514.438 118.374C514.162 118.626 513.832 118.824 513.448 118.968C513.076 119.112 512.644 119.184 512.152 119.184C511.696 119.184 511.27 119.106 510.874 118.95C510.478 118.782 510.16 118.524 509.92 118.176C509.692 117.816 509.572 117.348 509.56 116.772V111.246H507.76V110.004H509.56V107.844L511 107.448V110.004H514.276ZM520.143 109.824C520.995 109.824 521.745 110.01 522.393 110.382C523.053 110.754 523.569 111.294 523.941 112.002C524.313 112.698 524.499 113.532 524.499 114.504C524.499 115.476 524.313 116.316 523.941 117.024C523.569 117.72 523.053 118.254 522.393 118.626C521.745 118.998 520.995 119.184 520.143 119.184C519.303 119.184 518.553 118.998 517.893 118.626C517.233 118.254 516.717 117.72 516.345 117.024C515.973 116.316 515.787 115.476 515.787 114.504C515.787 113.532 515.973 112.698 516.345 112.002C516.717 111.294 517.233 110.754 517.893 110.382C518.553 110.01 519.303 109.824 520.143 109.824ZM520.143 111.066C519.231 111.066 518.517 111.372 518.001 111.984C517.485 112.596 517.227 113.436 517.227 114.504C517.227 115.572 517.485 116.412 518.001 117.024C518.517 117.636 519.231 117.942 520.143 117.942C521.055 117.942 521.769 117.636 522.285 117.024C522.801 116.412 523.059 115.572 523.059 114.504C523.059 113.436 522.801 112.596 522.285 111.984C521.769 111.372 521.055 111.066 520.143 111.066ZM527.21 119.004V110.004H528.38L528.578 111.48C529.082 110.376 530.042 109.824 531.458 109.824C531.614 109.824 531.782 109.836 531.962 109.86C532.154 109.884 532.316 109.932 532.448 110.004L532.196 111.318C532.064 111.27 531.92 111.234 531.764 111.21C531.608 111.186 531.386 111.174 531.098 111.174C530.726 111.174 530.348 111.282 529.964 111.498C529.592 111.714 529.28 112.044 529.028 112.488C528.776 112.92 528.65 113.472 528.65 114.144V119.004H527.21ZM541.956 110.004L537.726 120.516C537.378 121.392 536.982 122.004 536.538 122.352C536.106 122.7 535.572 122.874 534.936 122.874C534.528 122.874 534.15 122.814 533.802 122.694C533.466 122.586 533.166 122.436 532.902 122.244L533.298 120.984C533.538 121.2 533.79 121.356 534.054 121.452C534.33 121.56 534.6 121.614 534.864 121.614C535.176 121.614 535.47 121.518 535.746 121.326C536.022 121.134 536.274 120.744 536.502 120.156L536.97 118.986L536.07 116.844L533.208 110.004H534.846L537.096 115.872L537.654 117.474L538.302 115.692L540.408 110.004H541.956Z" fill="#5E4098"/>
<path d="M605.254 119.004L609.88 107.124H611.59L616.198 119.004H614.668L613.408 115.71H608.026L606.766 119.004H605.254ZM610.168 110.094L608.548 114.36H612.886L611.284 110.148L610.726 108.492H610.69L610.168 110.094ZM621.443 119.184C620.867 119.184 620.321 119.076 619.805 118.86C619.301 118.644 618.887 118.296 618.563 117.816C618.251 117.324 618.095 116.688 618.095 115.908V110.004H619.535V115.53C619.535 116.442 619.733 117.072 620.129 117.42C620.525 117.756 621.083 117.924 621.803 117.924C622.259 117.924 622.691 117.822 623.099 117.618C623.507 117.402 623.843 117.072 624.107 116.628C624.371 116.184 624.503 115.608 624.503 114.9V110.004H625.943V119.004H624.683L624.593 117.636C624.281 118.176 623.855 118.572 623.315 118.824C622.787 119.064 622.163 119.184 621.443 119.184ZM634.694 110.004V111.246H631.418V116.52C631.418 116.964 631.544 117.294 631.796 117.51C632.048 117.726 632.372 117.834 632.768 117.834C633.116 117.834 633.416 117.774 633.668 117.654C633.92 117.534 634.148 117.372 634.352 117.168L634.856 118.374C634.58 118.626 634.25 118.824 633.866 118.968C633.494 119.112 633.062 119.184 632.57 119.184C632.114 119.184 631.688 119.106 631.292 118.95C630.896 118.782 630.578 118.524 630.338 118.176C630.11 117.816 629.99 117.348 629.978 116.772V111.246H628.178V110.004H629.978V107.844L631.418 107.448V110.004H634.694ZM636.835 119.004V105.864H638.275V111.354C638.587 110.814 639.001 110.424 639.517 110.184C640.033 109.944 640.597 109.824 641.209 109.824C641.857 109.824 642.445 109.95 642.973 110.202C643.501 110.442 643.921 110.814 644.233 111.318C644.557 111.822 644.719 112.464 644.719 113.244V119.004H643.279V113.748C643.279 112.752 643.063 112.062 642.631 111.678C642.211 111.282 641.689 111.084 641.065 111.084C640.633 111.084 640.201 111.186 639.769 111.39C639.337 111.594 638.977 111.93 638.689 112.398C638.413 112.854 638.275 113.466 638.275 114.234V119.004H636.835ZM651.742 119.184C650.89 119.184 650.128 118.998 649.456 118.626C648.796 118.254 648.28 117.72 647.908 117.024C647.536 116.316 647.35 115.476 647.35 114.504C647.35 113.532 647.536 112.698 647.908 112.002C648.28 111.294 648.79 110.754 649.438 110.382C650.086 110.01 650.824 109.824 651.652 109.824C652.492 109.824 653.206 110.004 653.794 110.364C654.394 110.724 654.85 111.216 655.162 111.84C655.474 112.452 655.63 113.142 655.63 113.91C655.63 114.114 655.624 114.3 655.612 114.468C655.6 114.636 655.582 114.786 655.558 114.918H648.772C648.844 115.866 649.138 116.604 649.654 117.132C650.17 117.66 650.854 117.924 651.706 117.924C652.366 117.924 652.9 117.798 653.308 117.546C653.728 117.294 654.064 116.952 654.316 116.52L655.45 117.186C655.114 117.798 654.628 118.284 653.992 118.644C653.368 119.004 652.618 119.184 651.742 119.184ZM651.616 111.084C650.86 111.084 650.236 111.312 649.744 111.768C649.264 112.212 648.958 112.836 648.826 113.64H654.19C654.154 112.824 653.902 112.194 653.434 111.75C652.966 111.306 652.36 111.084 651.616 111.084ZM658.368 119.004V110.004H659.628L659.718 111.408C660.03 110.844 660.456 110.442 660.996 110.202C661.536 109.95 662.118 109.824 662.742 109.824C663.39 109.824 663.978 109.95 664.506 110.202C665.034 110.442 665.454 110.814 665.766 111.318C666.09 111.822 666.252 112.464 666.252 113.244V119.004H664.812V113.748C664.812 112.752 664.596 112.062 664.164 111.678C663.744 111.282 663.222 111.084 662.598 111.084C662.166 111.084 661.734 111.186 661.302 111.39C660.87 111.594 660.51 111.924 660.222 112.38C659.946 112.836 659.808 113.448 659.808 114.216V119.004H658.368ZM674.79 110.004V111.246H671.514V116.52C671.514 116.964 671.64 117.294 671.892 117.51C672.144 117.726 672.468 117.834 672.864 117.834C673.212 117.834 673.512 117.774 673.764 117.654C674.016 117.534 674.244 117.372 674.448 117.168L674.952 118.374C674.676 118.626 674.346 118.824 673.962 118.968C673.59 119.112 673.158 119.184 672.666 119.184C672.21 119.184 671.784 119.106 671.388 118.95C670.992 118.782 670.674 118.524 670.434 118.176C670.206 117.816 670.086 117.348 670.074 116.772V111.246H668.274V110.004H670.074V107.844L671.514 107.448V110.004H674.79ZM677.651 108.276C677.327 108.276 677.063 108.18 676.859 107.988C676.667 107.784 676.571 107.52 676.571 107.196C676.571 106.872 676.667 106.614 676.859 106.422C677.063 106.218 677.327 106.116 677.651 106.116C677.975 106.116 678.233 106.218 678.425 106.422C678.629 106.614 678.731 106.872 678.731 107.196C678.731 107.52 678.629 107.784 678.425 107.988C678.233 108.18 677.975 108.276 677.651 108.276ZM678.371 110.004V119.004H676.931V110.004H678.371ZM685.438 109.824C686.362 109.824 687.13 110.04 687.742 110.472C688.354 110.892 688.828 111.474 689.164 112.218L687.796 112.866C687.604 112.29 687.31 111.852 686.914 111.552C686.53 111.24 686.026 111.084 685.402 111.084C684.502 111.084 683.794 111.39 683.278 112.002C682.774 112.602 682.522 113.436 682.522 114.504C682.522 115.572 682.774 116.412 683.278 117.024C683.794 117.624 684.502 117.924 685.402 117.924C686.11 117.924 686.674 117.762 687.094 117.438C687.514 117.114 687.79 116.658 687.922 116.07L689.254 116.538C688.954 117.366 688.48 118.014 687.832 118.482C687.196 118.95 686.398 119.184 685.438 119.184C684.598 119.184 683.848 118.998 683.188 118.626C682.528 118.254 682.012 117.72 681.64 117.024C681.268 116.316 681.082 115.476 681.082 114.504C681.082 113.532 681.268 112.698 681.64 112.002C682.012 111.294 682.528 110.754 683.188 110.382C683.848 110.01 684.598 109.824 685.438 109.824ZM697.04 113.19C697.04 112.518 696.86 112.002 696.5 111.642C696.14 111.27 695.63 111.084 694.97 111.084C694.346 111.084 693.818 111.222 693.386 111.498C692.954 111.762 692.636 112.194 692.432 112.794L691.262 112.074C691.502 111.402 691.946 110.862 692.594 110.454C693.242 110.034 694.046 109.824 695.006 109.824C695.654 109.824 696.242 109.938 696.77 110.166C697.298 110.382 697.712 110.718 698.012 111.174C698.324 111.618 698.48 112.194 698.48 112.902V117.258C698.48 117.69 698.708 117.906 699.164 117.906C699.392 117.906 699.614 117.876 699.83 117.816L699.758 118.95C699.518 119.07 699.206 119.13 698.822 119.13C698.378 119.13 697.994 119.022 697.67 118.806C697.358 118.59 697.154 118.26 697.058 117.816C696.746 118.284 696.32 118.632 695.78 118.86C695.24 119.076 694.706 119.184 694.178 119.184C693.65 119.184 693.158 119.094 692.702 118.914C692.246 118.734 691.88 118.464 691.604 118.104C691.34 117.732 691.208 117.276 691.208 116.736C691.208 116.064 691.43 115.512 691.874 115.08C692.33 114.636 692.96 114.336 693.764 114.18L697.04 113.532V113.19ZM692.684 116.664C692.684 117.036 692.828 117.342 693.116 117.582C693.416 117.81 693.836 117.924 694.376 117.924C694.844 117.924 695.276 117.846 695.672 117.69C696.08 117.522 696.41 117.276 696.662 116.952C696.914 116.616 697.04 116.19 697.04 115.674V114.72L694.43 115.26C693.842 115.38 693.404 115.548 693.116 115.764C692.828 115.98 692.684 116.28 692.684 116.664ZM707.028 110.004V111.246H703.752V116.52C703.752 116.964 703.878 117.294 704.13 117.51C704.382 117.726 704.706 117.834 705.102 117.834C705.45 117.834 705.75 117.774 706.002 117.654C706.254 117.534 706.482 117.372 706.686 117.168L707.19 118.374C706.914 118.626 706.584 118.824 706.2 118.968C705.828 119.112 705.396 119.184 704.904 119.184C704.448 119.184 704.022 119.106 703.626 118.95C703.23 118.782 702.912 118.524 702.672 118.176C702.444 117.816 702.324 117.348 702.312 116.772V111.246H700.512V110.004H702.312V107.844L703.752 107.448V110.004H707.028ZM709.889 108.276C709.565 108.276 709.301 108.18 709.097 107.988C708.905 107.784 708.809 107.52 708.809 107.196C708.809 106.872 708.905 106.614 709.097 106.422C709.301 106.218 709.565 106.116 709.889 106.116C710.213 106.116 710.471 106.218 710.663 106.422C710.867 106.614 710.969 106.872 710.969 107.196C710.969 107.52 710.867 107.784 710.663 107.988C710.471 108.18 710.213 108.276 709.889 108.276ZM710.609 110.004V119.004H709.169V110.004H710.609ZM717.676 109.824C718.528 109.824 719.278 110.01 719.926 110.382C720.586 110.754 721.102 111.294 721.474 112.002C721.846 112.698 722.032 113.532 722.032 114.504C722.032 115.476 721.846 116.316 721.474 117.024C721.102 117.72 720.586 118.254 719.926 118.626C719.278 118.998 718.528 119.184 717.676 119.184C716.836 119.184 716.086 118.998 715.426 118.626C714.766 118.254 714.25 117.72 713.878 117.024C713.506 116.316 713.32 115.476 713.32 114.504C713.32 113.532 713.506 112.698 713.878 112.002C714.25 111.294 714.766 110.754 715.426 110.382C716.086 110.01 716.836 109.824 717.676 109.824ZM717.676 111.066C716.764 111.066 716.05 111.372 715.534 111.984C715.018 112.596 714.76 113.436 714.76 114.504C714.76 115.572 715.018 116.412 715.534 117.024C716.05 117.636 716.764 117.942 717.676 117.942C718.588 117.942 719.302 117.636 719.818 117.024C720.334 116.412 720.592 115.572 720.592 114.504C720.592 113.436 720.334 112.596 719.818 111.984C719.302 111.372 718.588 111.066 717.676 111.066ZM724.743 119.004V110.004H726.003L726.093 111.408C726.405 110.844 726.831 110.442 727.371 110.202C727.911 109.95 728.493 109.824 729.117 109.824C729.765 109.824 730.353 109.95 730.881 110.202C731.409 110.442 731.829 110.814 732.141 111.318C732.465 111.822 732.627 112.464 732.627 113.244V119.004H731.187V113.748C731.187 112.752 730.971 112.062 730.539 111.678C730.119 111.282 729.597 111.084 728.973 111.084C728.541 111.084 728.109 111.186 727.677 111.39C727.245 111.594 726.885 111.924 726.597 112.38C726.321 112.836 726.183 113.448 726.183 114.216V119.004H724.743Z" fill="#5E4098"/>
<path d="M828.117 107.124C828.921 107.124 829.617 107.274 830.205 107.574C830.805 107.862 831.273 108.276 831.609 108.816C831.945 109.356 832.113 109.998 832.113 110.742C832.113 111.486 831.945 112.128 831.609 112.668C831.273 113.208 830.805 113.628 830.205 113.928C829.617 114.216 828.921 114.36 828.117 114.36H825.363V119.004H823.923V107.124H828.117ZM827.901 113.01C828.837 113.01 829.521 112.818 829.953 112.434C830.385 112.038 830.601 111.474 830.601 110.742C830.601 109.998 830.385 109.434 829.953 109.05C829.521 108.666 828.837 108.474 827.901 108.474H825.363V113.01H827.901ZM839.895 113.19C839.895 112.518 839.715 112.002 839.355 111.642C838.995 111.27 838.485 111.084 837.825 111.084C837.201 111.084 836.673 111.222 836.241 111.498C835.809 111.762 835.491 112.194 835.287 112.794L834.117 112.074C834.357 111.402 834.801 110.862 835.449 110.454C836.097 110.034 836.901 109.824 837.861 109.824C838.509 109.824 839.097 109.938 839.625 110.166C840.153 110.382 840.567 110.718 840.867 111.174C841.179 111.618 841.335 112.194 841.335 112.902V117.258C841.335 117.69 841.563 117.906 842.019 117.906C842.247 117.906 842.469 117.876 842.685 117.816L842.613 118.95C842.373 119.07 842.061 119.13 841.677 119.13C841.233 119.13 840.849 119.022 840.525 118.806C840.213 118.59 840.009 118.26 839.913 117.816C839.601 118.284 839.175 118.632 838.635 118.86C838.095 119.076 837.561 119.184 837.033 119.184C836.505 119.184 836.013 119.094 835.557 118.914C835.101 118.734 834.735 118.464 834.459 118.104C834.195 117.732 834.063 117.276 834.063 116.736C834.063 116.064 834.285 115.512 834.729 115.08C835.185 114.636 835.815 114.336 836.619 114.18L839.895 113.532V113.19ZM835.539 116.664C835.539 117.036 835.683 117.342 835.971 117.582C836.271 117.81 836.691 117.924 837.231 117.924C837.699 117.924 838.131 117.846 838.527 117.69C838.935 117.522 839.265 117.276 839.517 116.952C839.769 116.616 839.895 116.19 839.895 115.674V114.72L837.285 115.26C836.697 115.38 836.259 115.548 835.971 115.764C835.683 115.98 835.539 116.28 835.539 116.664ZM851.705 110.004L847.475 120.516C847.127 121.392 846.731 122.004 846.287 122.352C845.855 122.7 845.321 122.874 844.685 122.874C844.277 122.874 843.899 122.814 843.551 122.694C843.215 122.586 842.915 122.436 842.651 122.244L843.047 120.984C843.287 121.2 843.539 121.356 843.803 121.452C844.079 121.56 844.349 121.614 844.613 121.614C844.925 121.614 845.219 121.518 845.495 121.326C845.771 121.134 846.023 120.744 846.251 120.156L846.719 118.986L845.819 116.844L842.957 110.004H844.595L846.845 115.872L847.403 117.474L848.051 115.692L850.157 110.004H851.705ZM853.588 119.004V110.004H854.848L854.938 111.408C855.262 110.856 855.682 110.454 856.198 110.202C856.726 109.95 857.266 109.824 857.818 109.824C858.454 109.824 859.054 109.968 859.618 110.256C860.182 110.544 860.614 110.988 860.914 111.588C861.106 111.18 861.376 110.85 861.724 110.598C862.072 110.334 862.45 110.142 862.858 110.022C863.278 109.89 863.674 109.824 864.046 109.824C864.622 109.824 865.168 109.944 865.684 110.184C866.212 110.424 866.644 110.796 866.98 111.3C867.316 111.804 867.484 112.452 867.484 113.244V119.004H866.044V113.388C866.044 112.572 865.84 111.984 865.432 111.624C865.024 111.264 864.52 111.084 863.92 111.084C863.452 111.084 863.014 111.198 862.606 111.426C862.198 111.654 861.868 111.99 861.616 112.434C861.376 112.878 861.256 113.424 861.256 114.072V119.004H859.816V113.388C859.816 112.572 859.612 111.984 859.204 111.624C858.796 111.264 858.292 111.084 857.692 111.084C857.296 111.084 856.888 111.192 856.468 111.408C856.06 111.612 855.718 111.942 855.442 112.398C855.166 112.854 855.028 113.454 855.028 114.198V119.004H853.588ZM874.506 119.184C873.654 119.184 872.892 118.998 872.22 118.626C871.56 118.254 871.044 117.72 870.672 117.024C870.3 116.316 870.114 115.476 870.114 114.504C870.114 113.532 870.3 112.698 870.672 112.002C871.044 111.294 871.554 110.754 872.202 110.382C872.85 110.01 873.588 109.824 874.416 109.824C875.256 109.824 875.97 110.004 876.558 110.364C877.158 110.724 877.614 111.216 877.926 111.84C878.238 112.452 878.394 113.142 878.394 113.91C878.394 114.114 878.388 114.3 878.376 114.468C878.364 114.636 878.346 114.786 878.322 114.918H871.536C871.608 115.866 871.902 116.604 872.418 117.132C872.934 117.66 873.618 117.924 874.47 117.924C875.13 117.924 875.664 117.798 876.072 117.546C876.492 117.294 876.828 116.952 877.08 116.52L878.214 117.186C877.878 117.798 877.392 118.284 876.756 118.644C876.132 119.004 875.382 119.184 874.506 119.184ZM874.38 111.084C873.624 111.084 873 111.312 872.508 111.768C872.028 112.212 871.722 112.836 871.59 113.64H876.954C876.918 112.824 876.666 112.194 876.198 111.75C875.73 111.306 875.124 111.084 874.38 111.084ZM881.133 119.004V110.004H882.393L882.483 111.408C882.795 110.844 883.221 110.442 883.761 110.202C884.301 109.95 884.883 109.824 885.507 109.824C886.155 109.824 886.743 109.95 887.271 110.202C887.799 110.442 888.219 110.814 888.531 111.318C888.855 111.822 889.017 112.464 889.017 113.244V119.004H887.577V113.748C887.577 112.752 887.361 112.062 886.929 111.678C886.509 111.282 885.987 111.084 885.363 111.084C884.931 111.084 884.499 111.186 884.067 111.39C883.635 111.594 883.275 111.924 882.987 112.38C882.711 112.836 882.573 113.448 882.573 114.216V119.004H881.133ZM897.554 110.004V111.246H894.278V116.52C894.278 116.964 894.404 117.294 894.656 117.51C894.908 117.726 895.232 117.834 895.628 117.834C895.976 117.834 896.276 117.774 896.528 117.654C896.78 117.534 897.008 117.372 897.212 117.168L897.716 118.374C897.44 118.626 897.11 118.824 896.726 118.968C896.354 119.112 895.922 119.184 895.43 119.184C894.974 119.184 894.548 119.106 894.152 118.95C893.756 118.782 893.438 118.524 893.198 118.176C892.97 117.816 892.85 117.348 892.838 116.772V111.246H891.038V110.004H892.838V107.844L894.278 107.448V110.004H897.554Z" fill="#5E4098"/>
<path d="M122 57L261.954 57.1928" stroke="#5E4098" stroke-opacity="0.3"/>
<path d="M311.35 57.2676L451.303 57.4653" stroke="#5E4098" stroke-opacity="0.3"/>
<path d="M500.697 57.5352L640.651 57.7328" stroke="#5E4098" stroke-opacity="0.3"/>
<path d="M690.047 57.8027L830 58.0004" stroke="#5E4098" stroke-opacity="0.3"/>
<circle cx="92" cy="57" r="30" fill="white"/>
<path d="M96.25 56.254L96.25 56.254L96.25 56.246C96.2466 55.3862 95.9035 54.5625 95.2955 53.9545C94.6875 53.3465 93.8638 53.0034 93.004 53V53H93C91.213 53 89.75 54.4614 89.75 56.25C89.75 57.4132 90.369 58.4389 91.2938 59.0137C90.374 59.2194 89.4634 59.57 88.6863 60.0029C88.0503 60.3573 87.4577 60.7921 87.0113 61.2942C86.5725 61.7878 86.2 62.4342 86.2 63.188V64.951V65.6C86.0709 65.4279 86 65.2176 86 65V49C86 48.7348 86.1054 48.4804 86.2929 48.2929C86.4804 48.1054 86.7348 48 87 48H98.988C99.2532 48 99.5076 48.1054 99.6951 48.2929C99.8826 48.4804 99.988 48.7348 99.988 49V65C99.988 65.1428 99.9575 65.2824 99.9 65.4102V64.951V63.188C99.9 62.4243 99.5118 61.7747 99.0643 61.2845C98.6077 60.7842 98.0026 60.3512 97.3557 59.9985C96.5636 59.5667 95.6373 59.2167 94.7076 59.0118C94.9193 58.8807 95.1168 58.7246 95.2957 58.5457C95.9036 57.9375 96.2466 57.1138 96.25 56.254ZM87 66C86.894 66 86.7898 65.9832 86.6908 65.951H87.2H93H98.9H99.2972C99.1982 65.9832 99.094 66 98.988 66H87Z" stroke="#5E4098" stroke-width="2"/>
<circle cx="284" cy="57" r="30" fill="white"/>
<circle cx="284" cy="57" r="9" stroke="#5E4098" stroke-width="2"/>
<line x1="283.9" y1="52.9004" x2="283.9" y2="57.9004" stroke="#5E4098" stroke-width="2" stroke-linecap="round"/>
<circle cx="283.898" cy="61.5039" r="1.5" fill="#5E4098"/>
<circle cx="476" cy="57" r="30" fill="white"/>
<path d="M484 57V49.5C484 49.1022 483.842 48.7206 483.561 48.4393C483.279 48.158 482.898 48 482.5 48H467.5C467.102 48 466.721 48.158 466.439 48.4393C466.158 48.7206 466 49.1022 466 49.5V64.5C466 64.8978 466.158 65.2794 466.439 65.5607C466.721 65.842 467.102 66 467.5 66H475" stroke="#5E4098" stroke-width="2" stroke-linecap="round" stroke-linejoin="round"/>
<path d="M479 64C480.657 64 482 62.6569 482 61C482 59.3431 480.657 58 479 58C477.343 58 476 59.3431 476 61C476 62.6569 477.343 64 479 64Z" stroke="#5E4098" stroke-width="2"/>
<path d="M481.5 63L484 65" stroke="#5E4098" stroke-width="2" stroke-linecap="round" stroke-linejoin="round"/>
<path d="M470 53H480" stroke="#5E4098" stroke-width="2" stroke-linecap="round" stroke-linejoin="round"/>
<path d="M470 57H474" stroke="#5E4098" stroke-width="2" stroke-linecap="round" stroke-linejoin="round"/>
<circle cx="668" cy="57" r="30" fill="white"/>
<path d="M665 57C666.995 57 668.5 55.495 668.5 53.5C668.5 51.505 666.995 50 665 50C663.005 50 661.5 51.505 661.5 53.5C661.5 55.495 663.005 57 665 57ZM666 57.948H664C661.243 57.948 659 60.191 659 62.948V63.948H671V62.948C671 60.191 668.757 57.948 666 57.948ZM677.294 53.24L672.994 57.532L671.702 56.24L670.288 57.654L672.994 60.358L678.706 54.656L677.294 53.24Z" fill="#5E4098"/>
<circle cx="860" cy="57" r="30" fill="white"/>
<path d="M851 52.8004C851 52.1639 851.253 51.5534 851.703 51.1033C852.153 50.6532 852.763 50.4004 853.4 50.4004H866.6C867.237 50.4004 867.847 50.6532 868.297 51.1033C868.747 51.5534 869 52.1639 869 52.8004V54.6004H851V52.8004Z" fill="#5E4098"/>
<path d="M851 55.8008H869V61.2008C869 61.8373 868.747 62.4478 868.297 62.8978C867.847 63.3479 867.237 63.6008 866.6 63.6008H853.4C852.763 63.6008 852.153 63.3479 851.703 62.8978C851.253 62.4478 851 61.8373 851 61.2008V55.8008ZM864.2 60.6008C864.041 60.6008 863.888 60.664 863.776 60.7765C863.663 60.889 863.6 61.0417 863.6 61.2008C863.6 61.3599 863.663 61.5125 863.776 61.625C863.888 61.7376 864.041 61.8008 864.2 61.8008H866.6C866.759 61.8008 866.912 61.7376 867.024 61.625C867.137 61.5125 867.2 61.3599 867.2 61.2008C867.2 61.0417 867.137 60.889 867.024 60.7765C866.912 60.664 866.759 60.6008 866.6 60.6008H864.2Z" fill="#5E4098"/>
</svg>
