<svg width="62" height="40" viewBox="0 0 62 40" fill="none" xmlns="http://www.w3.org/2000/svg">
<rect x="0.5" y="0.5" width="61" height="39" rx="7.5" fill="white" stroke="#D9D9D9"/>
<path fill-rule="evenodd" clip-rule="evenodd" d="M37.5568 28.9992C42.7392 28.9992 46.9403 24.7461 46.9403 19.4996C46.9403 14.2531 42.7392 10 37.5568 10C35.234 10 33.1083 10.8544 31.4697 12.2697C29.8312 10.8549 27.7059 10.0008 25.3835 10.0008C20.2012 10.0008 16 14.2539 16 19.5004C16 24.7469 20.2012 29 25.3835 29C27.7063 29 29.832 28.1456 31.4706 26.7303C33.1091 28.1451 35.2344 28.9992 37.5568 28.9992Z" fill="#ED0006"/>
<path fill-rule="evenodd" clip-rule="evenodd" d="M31.47 26.7299C33.4876 24.9875 34.7669 22.3948 34.7669 19.4996C34.7669 16.6044 33.4876 14.0117 31.47 12.2693C33.1086 10.8543 35.2341 10 37.5567 10C42.7391 10 46.9402 14.2531 46.9402 19.4996C46.9402 24.7461 42.7391 28.9992 37.5567 28.9992C35.2341 28.9992 33.1086 28.1449 31.47 26.7299Z" fill="#F9A000"/>
<path fill-rule="evenodd" clip-rule="evenodd" d="M31.4704 26.7341C33.488 24.9917 34.7674 22.399 34.7674 19.5037C34.7674 16.6085 33.488 14.0158 31.4704 12.2734C29.4528 14.0158 28.1735 16.6085 28.1735 19.5037C28.1735 22.399 29.4528 24.9917 31.4704 26.7341Z" fill="#FF5E00"/>
</svg>
