<svg width="105" height="134" viewBox="0 0 105 134" fill="none" xmlns="http://www.w3.org/2000/svg">
<path fill-rule="evenodd" clip-rule="evenodd" d="M67.5949 54.0397C64.4465 54.0397 61.6554 53.3053 58.9564 52.595C56.6658 51.9925 54.5024 51.4235 52.4344 51.4235C51.9493 51.4235 51.5564 51.0603 51.5564 50.6118C51.5564 50.1639 51.9493 49.8006 52.4344 49.8006C54.7473 49.8006 57.0252 50.3997 59.4366 51.0342C62.0206 51.7134 64.6919 52.4168 67.5949 52.4168C71.3944 52.4168 72.4088 51.295 73.1483 50.476C73.6244 49.9503 74.1632 49.3542 75.1674 49.3542C75.6525 49.3542 76.0454 49.7175 76.0454 50.1659C76.0454 50.6138 75.6514 50.9771 75.1674 50.9771C75.0146 50.9771 74.9017 51.0681 74.496 51.517C73.643 52.4606 72.215 54.0397 67.5949 54.0397Z" fill="#5A3C55"/>
<path fill-rule="evenodd" clip-rule="evenodd" d="M51.5501 55.9914C51.8512 56.4808 52.028 57.0517 52.0374 57.663L52.5212 88.7532C52.6056 94.136 49.7034 99.1961 44.9476 101.958L17.4807 117.911C15.8402 118.864 13.716 118.344 12.7354 116.75C11.7549 115.156 12.2906 113.092 13.93 112.139L41.3975 96.1868C44.0379 94.6529 45.649 91.844 45.6024 88.8556L45.1186 57.7644C45.0898 55.9078 46.6149 54.38 48.5256 54.3524C49.8073 54.3336 50.9368 54.9943 51.5501 55.9914Z" fill="#FFA898"/>
<path fill-rule="evenodd" clip-rule="evenodd" d="M45.6125 102.903L23.9124 115.479C23.5759 115.674 23.1408 115.567 22.9394 115.241L18.7895 108.509C18.5887 108.183 18.6983 107.761 19.0343 107.566L40.7344 94.9905C42.9756 93.6918 44.3417 91.3181 44.3077 88.7797L43.8175 57.7824C43.8033 56.5508 44.2757 55.3883 45.1606 54.5049C46.0455 53.6199 47.2277 53.1213 48.5058 53.103C50.1934 53.0812 51.7876 53.9351 52.6568 55.3446C53.0867 56.0425 53.3152 56.8374 53.3268 57.6411L53.8096 88.6429C53.9003 94.4583 50.7617 99.9189 45.6125 102.903Z" fill="#E1D9DF"/>
<path fill-rule="evenodd" clip-rule="evenodd" d="M29.3228 112.661L26.0322 114.639L21.2671 106.621L24.5572 104.643L29.3228 112.661Z" fill="#D6CBD3"/>
<path fill-rule="evenodd" clip-rule="evenodd" d="M34.2334 122.807C34.7149 123.313 35.525 123.341 36.0431 122.87L59.3568 101.645C59.8744 101.173 59.9031 100.381 59.4217 99.8744L27.956 66.8013C27.4745 66.295 26.6644 66.2663 26.1468 66.7373L2.83319 87.9633C2.31509 88.4343 2.2863 89.2273 2.76778 89.7331L34.2334 122.807ZM1.55468 86.8278L25.0808 65.4088C26.2353 64.3577 28.0424 64.4212 29.1168 65.5506L60.7797 98.8315C61.8541 99.9609 61.7892 101.729 60.6348 102.78L37.1086 124.199C35.9542 125.25 34.1471 125.186 33.0727 124.057L1.40971 90.7765C0.3353 89.6466 0.400196 87.8788 1.55468 86.8278Z" fill="#B6664C"/>
<path fill-rule="evenodd" clip-rule="evenodd" d="M2.98644 87.6827L26.3066 66.5562C26.8243 66.0869 27.6347 66.1155 28.1168 66.6194L59.5908 99.5382C60.0729 100.042 60.0436 100.831 59.5258 101.3L36.2057 122.427C35.688 122.895 34.8776 122.867 34.3955 122.364L2.92101 89.4448C2.43941 88.9408 2.46872 88.1515 2.98644 87.6827Z" fill="#F0ECEF"/>
<path fill-rule="evenodd" clip-rule="evenodd" d="M30.4724 111.489L48.3328 95.4213C48.5653 95.2123 48.9296 95.2244 49.1459 95.4497C49.3627 95.6745 49.3495 96.0261 49.117 96.2357L31.2561 112.303C31.0235 112.513 30.6597 112.5 30.4435 112.275C30.2267 112.05 30.2398 111.698 30.4724 111.489Z" fill="#CABAC4"/>
<path fill-rule="evenodd" clip-rule="evenodd" d="M28.8616 109.303L46.7221 93.2348C46.9546 93.0257 47.3184 93.0379 47.5352 93.2632C47.752 93.488 47.7384 93.8396 47.5063 94.0492L29.6453 110.117C29.4128 110.326 29.049 110.314 28.8322 110.089C28.6159 109.864 28.629 109.512 28.8616 109.303Z" fill="#CABAC4"/>
<path fill-rule="evenodd" clip-rule="evenodd" d="M26.6062 107.116L44.4667 91.0481C44.6993 90.8391 45.0636 90.8513 45.2798 91.0765C45.4966 91.3013 45.483 91.653 45.251 91.8625L27.3899 107.93C27.1574 108.14 26.7936 108.127 26.5768 107.902C26.3606 107.677 26.3737 107.325 26.6062 107.116Z" fill="#CABAC4"/>
<path fill-rule="evenodd" clip-rule="evenodd" d="M24.6725 104.93L42.533 88.8618C42.766 88.6523 43.1298 88.6649 43.3461 88.8902C43.5628 89.115 43.5497 89.4666 43.3172 89.6762L25.4563 105.744C25.2237 105.953 24.8599 105.94 24.6437 105.716C24.4269 105.49 24.44 105.139 24.6725 104.93Z" fill="#CABAC4"/>
<path fill-rule="evenodd" clip-rule="evenodd" d="M22.4172 103.055L40.2781 86.9876C40.5106 86.778 40.8744 86.7907 41.0907 87.016C41.3075 87.2408 41.2944 87.5924 41.0618 87.8015L23.2014 103.869C22.9683 104.079 22.6046 104.066 22.3883 103.841C22.1715 103.616 22.1846 103.265 22.4172 103.055Z" fill="#CABAC4"/>
<path fill-rule="evenodd" clip-rule="evenodd" d="M20.1614 100.557L38.0219 84.4884C38.2544 84.2794 38.6187 84.2916 38.835 84.5169C39.0518 84.7416 39.0382 85.0933 38.8061 85.3023L20.9451 101.37C20.7126 101.58 20.3488 101.567 20.132 101.342C19.9157 101.117 19.9289 100.766 20.1614 100.557Z" fill="#CABAC4"/>
<path fill-rule="evenodd" clip-rule="evenodd" d="M18.2282 98.6824L36.0886 82.6142C36.3217 82.4052 36.6855 82.4174 36.9017 82.6427C37.1185 82.8674 37.1054 83.2191 36.8728 83.4286L19.0119 99.4962C18.7794 99.7058 18.4156 99.6931 18.1993 99.4678C17.9825 99.243 17.9957 98.8914 18.2282 98.6824Z" fill="#CABAC4"/>
<path fill-rule="evenodd" clip-rule="evenodd" d="M16.2947 96.4958L34.1552 80.4277C34.3877 80.2186 34.752 80.2308 34.9683 80.4561C35.1851 80.6808 35.1715 81.0325 34.9394 81.2415L17.0784 97.3097C16.8459 97.5192 16.4821 97.5065 16.2653 97.2812C16.049 97.0565 16.0622 96.7048 16.2947 96.4958Z" fill="#CABAC4"/>
<path fill-rule="evenodd" clip-rule="evenodd" d="M14.3616 94.3091L32.2221 78.2413C32.4546 78.0317 32.8189 78.0444 33.0352 78.2697C33.252 78.4945 33.2384 78.8461 33.0063 79.0556L15.1453 95.123C14.9128 95.3326 14.549 95.3199 14.3322 95.0951C14.1159 94.8698 14.129 94.5182 14.3616 94.3091Z" fill="#CABAC4"/>
<path fill-rule="evenodd" clip-rule="evenodd" d="M12.1057 92.1227L29.9666 76.0547C30.1991 75.8452 30.5629 75.8579 30.7792 76.0832C30.996 76.3079 30.9828 76.6596 30.7503 76.8691L12.8894 92.9365C12.6568 93.1461 12.2931 93.1334 12.0768 92.9081C11.86 92.6834 11.8731 92.3317 12.1057 92.1227Z" fill="#CABAC4"/>
<path fill-rule="evenodd" clip-rule="evenodd" d="M11.4026 73.9306C12.0626 73.3341 12.0999 72.3302 11.4857 71.6888C10.8714 71.0474 9.83846 71.0111 9.17854 71.6081C8.51861 72.2051 8.48183 73.2085 9.09552 73.8504C9.70974 74.4918 10.7427 74.5276 11.4026 73.9306ZM8.49552 88.2591L8.40357 87.5028C8.32003 86.818 8.49079 86.1265 8.88486 85.5525L10.6093 83.0426C10.8667 82.6672 10.8258 82.1693 10.5095 81.8394L8.36522 79.5996C7.98796 79.2064 8.01108 78.5905 8.41566 78.2244L9.58157 77.1703C9.87423 76.9053 9.89052 76.46 9.61835 76.1755L8.1829 74.6762C7.09948 73.5446 7.16463 71.7735 8.32896 70.7205C9.4933 69.6675 11.3149 69.7308 12.3989 70.8625L13.8338 72.3613C14.1065 72.6463 14.5652 72.6621 14.8578 72.3976L16.0232 71.343C16.4278 70.9769 17.0615 70.9988 17.4382 71.3926L19.583 73.6324C19.8987 73.9623 20.4068 74.0379 20.8103 73.8147L23.51 72.3235C24.1268 71.9824 24.8487 71.8665 25.5454 71.9962L26.3152 72.1402C26.5106 72.1765 26.6688 72.3169 26.724 72.5028C26.7791 72.6892 26.7219 72.8894 26.5758 73.0216L9.38138 88.5747C9.23532 88.7069 9.0262 88.7478 8.83915 88.6809C8.65157 88.6145 8.51917 88.4511 8.49552 88.2591Z" fill="#B8A5B2"/>
<path fill-rule="evenodd" clip-rule="evenodd" d="M21.2671 73.8703L58.9686 109.329L63.2897 105.002C63.5472 104.744 63.5404 104.334 63.2749 104.084L26.5333 69.5288C26.2683 69.2793 25.8452 69.2855 25.5881 69.5431L21.2671 73.8703Z" fill="#54939B"/>
<path fill-rule="evenodd" clip-rule="evenodd" d="M32.5451 127.272L35.8827 130.409C36.5697 131.054 37.667 131.038 38.3328 130.371L41.5674 127.134L32.5451 127.272Z" fill="#54939B"/>
<path fill-rule="evenodd" clip-rule="evenodd" d="M4.01812 100.381L32.4247 127.134L41.6458 126.993L59.2896 109.299L21.5112 73.7189L3.86695 91.4124L4.01812 100.381Z" fill="#5FA2A8"/>
<path fill-rule="evenodd" clip-rule="evenodd" d="M0.529944 97.4496L3.8667 100.583L3.71882 91.8362L0.485117 95.0691C-0.180585 95.7351 -0.156884 96.8045 0.529944 97.4496Z" fill="#54939B"/>
<path fill-rule="evenodd" clip-rule="evenodd" d="M22.8071 105.464C22.97 105.619 23.2451 105.623 23.4127 105.454L34.0405 94.7068C34.1982 94.5467 34.1945 94.2678 34.0311 94.1128L26.8241 87.2681C26.6508 87.1034 26.3756 87.1172 26.2179 87.2774L15.5902 98.0245C15.4226 98.1939 15.4268 98.4538 15.6001 98.6191L22.8071 105.464Z" fill="#F0ECEF"/>
<mask id="mask0" mask-type="alpha" maskUnits="userSpaceOnUse" x="46" y="48" width="27" height="86">
<path fill-rule="evenodd" clip-rule="evenodd" d="M72.3247 48.8671H46.5167V133.996H72.3247V48.8671Z" fill="white"/>
</mask>
<g mask="url(#mask0)">
<path fill-rule="evenodd" clip-rule="evenodd" d="M72.2933 50.2684C72.2923 50.2393 72.2912 50.2108 72.2902 50.1838V50.1833C72.2839 50.0304 72.2792 49.9193 72.2787 49.9096C72.2709 49.7434 72.226 49.6171 72.1586 49.5136C72.156 49.508 72.156 49.5009 72.1529 49.4958C72.1518 49.4937 72.1482 49.4927 72.1466 49.4907C72.0882 49.4081 72.0093 49.3454 71.9195 49.2929C71.9018 49.2832 71.8846 49.2731 71.8663 49.2639C71.7734 49.2175 71.67 49.1798 71.5557 49.1512C71.5515 49.1502 71.5484 49.1482 71.5448 49.1472C71.5369 49.1462 71.528 49.1451 71.5202 49.1436C71.3036 49.0926 71.0598 49.06 70.8066 49.0193C70.708 49.0045 70.6062 48.9978 70.506 48.9851C70.4324 48.9754 70.3666 48.9606 70.2909 48.9515C70.2267 48.9443 70.1614 48.9454 70.0967 48.9392C69.8216 48.9117 69.5481 48.8959 69.2719 48.8857C69.1785 48.8827 69.0851 48.8689 68.9927 48.8679H68.9911C68.9045 48.8669 68.8183 48.8669 68.7327 48.8679C66.366 48.8679 60.4015 48.9097 58.052 49.2797C57.7414 49.3317 57.4574 49.4035 57.1881 49.4876C57.0993 49.5156 57.0184 49.5518 56.9339 49.5829C56.7606 49.6471 56.5904 49.7139 56.4327 49.7919C56.3424 49.8362 56.2563 49.8861 56.1702 49.9346C56.0303 50.0141 55.894 50.0982 55.7646 50.1889C55.6831 50.2459 55.6017 50.3051 55.5239 50.3667C55.4764 50.4039 55.4248 50.435 55.3788 50.4738C55.3872 50.4722 55.3966 50.4707 55.4049 50.4692C54.446 51.2698 53.7204 52.3966 52.8278 53.7752C52.5955 54.1279 52.3716 54.481 52.1909 54.825C48.2237 62.0685 45.8309 69.6137 46.6916 73.6724C46.7047 73.7331 46.7172 73.7937 46.7303 73.8539C47.3629 76.7843 47.6782 79.7748 47.6782 82.77V180.183H49.6091H58.3276H60.5185V79.2208C60.5185 76.3761 61.3881 73.5899 63.022 71.2343C64.1052 69.6723 65.4002 67.8636 66.9339 65.6645C71.0134 59.8332 72.0547 55.3296 72.2698 52.7416V52.733C72.2787 52.6321 72.287 52.523 72.287 52.4221C72.3215 52.019 72.3304 51.6658 72.3215 51.3717C72.3325 51.3508 72.3095 50.6944 72.2933 50.2684Z" fill="#C7B8C3"/>
</g>
<path fill-rule="evenodd" clip-rule="evenodd" d="M55.3154 50.4954C56.0245 49.9189 56.8655 49.5213 58.0153 49.336C60.3795 48.9779 66.3806 48.9369 68.7621 48.9369C68.8509 48.9359 68.937 48.9364 69.0221 48.9369H69.0237C69.4953 48.9413 69.9255 48.9725 70.33 49.0179C70.7738 49.0688 71.1867 49.1369 71.5917 49.2081C71.6184 49.2125 71.6452 49.2175 71.672 49.2219C71.9557 49.2713 72.1127 49.3874 72.2041 49.5459C72.3071 49.7248 72.3244 49.9584 72.3417 50.2128C72.3433 50.24 72.3454 50.2676 72.3475 50.2948C73.1958 50.4267 73.9994 50.5739 74.7563 50.7305C74.7558 50.73 74.7558 50.729 74.7553 50.729L74.582 50.566C74.0541 50.0696 73.3129 49.2911 72.9363 48.6929C72.7546 48.4157 72.4515 48.2122 72.0964 48.147V48.1386C70.8752 47.9109 69.6372 47.7968 68.3902 47.7968C58.3787 47.7721 57.2615 47.7968 54.8364 49.3523C54.6636 49.458 54.4902 49.5805 54.2996 49.7025C53.581 50.1911 52.8793 50.688 52.2038 51.2254C52.2027 51.2264 52.2017 51.2274 52.2006 51.2284C53.1382 50.9686 54.1782 50.7172 55.3154 50.4954Z" fill="#FAF9FA"/>
<path fill-rule="evenodd" clip-rule="evenodd" d="M59.2896 51.0839V51.0815C59.2203 50.4733 58.4993 50.2125 57.7793 50.3118L56.188 51.0728L56.0673 51.5407C57.0679 51.3586 58.1403 51.201 59.2896 51.0839Z" fill="#69BDBF"/>
<mask id="mask1" mask-type="alpha" maskUnits="userSpaceOnUse" x="44" y="126" width="49" height="8">
<path fill-rule="evenodd" clip-rule="evenodd" d="M92.0659 126.047H44.6568V134H92.0659V126.047Z" fill="white"/>
</mask>
<g mask="url(#mask1)">
<path fill-rule="evenodd" clip-rule="evenodd" d="M47.4339 126.464C45.5148 127.3 44.3502 129.272 44.7276 131.328L51.0655 165.914C54.1772 182.895 59.6435 199.438 67.3123 215.081L82.9314 246.944C84.0406 249.206 86.8857 250.193 89.2857 249.147C91.6857 248.102 92.7321 245.42 91.6234 243.158L76.0038 211.296C68.686 196.367 63.47 180.582 60.5009 164.379L54.1624 129.792C53.7121 127.336 51.2355 125.689 48.6302 126.113C48.2068 126.182 47.806 126.302 47.4339 126.464Z" fill="#FF9E8D"/>
</g>
<mask id="mask2" mask-type="alpha" maskUnits="userSpaceOnUse" x="44" y="125" width="47" height="9">
<path fill-rule="evenodd" clip-rule="evenodd" d="M90.0425 125.344H44.251V133.993H90.0425V125.344Z" fill="white"/>
</mask>
<g mask="url(#mask2)">
<path fill-rule="evenodd" clip-rule="evenodd" d="M54.8793 129.63L61.1669 164.698C64.1044 181.078 69.2641 197.036 76.4999 212.126L89.9924 240.265C90.1191 240.529 89.9966 240.85 89.7228 240.971L81.0082 244.852C80.7333 244.974 80.4014 244.856 80.2747 244.592L66.7822 216.453C59.152 200.541 53.7106 183.718 50.6155 166.455L44.3285 131.386C43.919 129.085 45.1626 126.799 47.3566 125.822C47.7796 125.634 48.2284 125.498 48.6944 125.419C51.6031 124.939 54.3814 126.827 54.8793 129.63Z" fill="#4C8890"/>
</g>
<mask id="mask3" mask-type="alpha" maskUnits="userSpaceOnUse" x="47" y="126" width="31" height="8">
<path fill-rule="evenodd" clip-rule="evenodd" d="M77.8203 126.056H47.3761V134H77.8203V126.056Z" fill="white"/>
</mask>
<g mask="url(#mask3)">
<path fill-rule="evenodd" clip-rule="evenodd" d="M73.2626 126.059C71.1759 125.985 69.2154 127.246 68.5719 129.242L57.7494 162.786C52.4356 179.255 49.4036 196.338 48.7367 213.559L47.3794 248.635C47.283 251.125 49.3207 253.219 51.9298 253.311C54.5395 253.403 56.7331 251.458 56.8296 248.968L58.1868 213.892C58.823 197.458 61.7163 181.158 66.7871 165.443L77.6097 131.898C78.3782 129.516 76.9777 126.99 74.4822 126.257C74.0771 126.138 73.6672 126.074 73.2626 126.059Z" fill="#FFA898"/>
</g>
<mask id="mask4" mask-type="alpha" maskUnits="userSpaceOnUse" x="46" y="125" width="33" height="9">
<path fill-rule="evenodd" clip-rule="evenodd" d="M78.2222 125.355H46.8032V133.993H78.2222V125.355Z" fill="white"/>
</mask>
<g mask="url(#mask4)">
<path fill-rule="evenodd" clip-rule="evenodd" d="M77.9842 132.034L67.1788 166.047C62.1328 181.934 59.2536 198.415 58.6211 215.026L57.4408 246.003C57.4293 246.293 57.1711 246.525 56.8717 246.515L47.3325 246.173C47.0321 246.163 46.7926 245.913 46.8036 245.622L47.9838 214.645C48.6518 197.128 51.6846 179.753 57.0039 163.011L67.8093 128.998C68.5216 126.767 70.6916 125.272 73.0933 125.358C73.5567 125.374 74.0174 125.449 74.4678 125.582C77.2704 126.423 78.8521 129.318 77.9842 132.034Z" fill="#54939B"/>
</g>
<path fill-rule="evenodd" clip-rule="evenodd" d="M69.2783 51.2284C69.2783 53.8161 67.1143 55.9139 64.445 55.9139C61.7756 55.9139 59.6116 53.8161 59.6116 51.2284C59.6116 48.6407 61.7756 46.5428 64.445 46.5428C67.1143 46.5428 69.2783 48.6407 69.2783 51.2284Z" fill="#FFA898"/>
<path fill-rule="evenodd" clip-rule="evenodd" d="M65.0997 60.5919C64.8755 60.6041 64.655 60.601 64.4377 60.5868C61.7353 60.4092 59.5352 58.295 59.3875 55.5992L58.3306 36.1712C58.1714 33.2596 60.471 30.7745 63.4678 30.6203C66.4917 30.459 69.0213 32.7018 69.18 35.6129L70.2374 55.0409C70.3961 57.9525 68.0959 60.4387 65.0997 60.5919Z" fill="#FFA898"/>
<path fill-rule="evenodd" clip-rule="evenodd" d="M69.6006 44.212L69.1229 35.3296C68.9645 32.4016 66.4489 30.1457 63.4409 30.308C60.4601 30.4631 58.1726 32.9627 58.3304 35.8912L59.0212 48.7295C60.8346 48.3338 62.7303 47.719 64.6995 46.8733C66.3895 46.1475 68.0336 45.2404 69.6006 44.212Z" fill="#F48989"/>
<mask id="mask5" mask-type="alpha" maskUnits="userSpaceOnUse" x="68" y="126" width="10" height="8">
<path fill-rule="evenodd" clip-rule="evenodd" d="M77.8599 126.057H68.1549V134H77.8599V126.057Z" fill="white"/>
</mask>
<g mask="url(#mask5)">
<path fill-rule="evenodd" clip-rule="evenodd" d="M77.8599 130.569C77.8599 133.061 75.6873 135.082 73.0074 135.082C70.3275 135.082 68.1549 133.061 68.1549 130.569C68.1549 128.077 70.3275 126.057 73.0074 126.057C75.6873 126.057 77.8599 128.077 77.8599 130.569Z" fill="#FFA898"/>
</g>
<mask id="mask6" mask-type="alpha" maskUnits="userSpaceOnUse" x="44" y="126" width="11" height="8">
<path fill-rule="evenodd" clip-rule="evenodd" d="M54.5146 126.057H44.9799V134H54.5146V126.057Z" fill="white"/>
</mask>
<g mask="url(#mask6)">
<path fill-rule="evenodd" clip-rule="evenodd" d="M54.5146 130.569C54.5146 133.061 52.3802 135.082 49.7473 135.082C47.1139 135.082 44.9799 133.061 44.9799 130.569C44.9799 128.077 47.1139 126.057 49.7473 126.057C52.3802 126.057 54.5146 128.077 54.5146 130.569Z" fill="#FFA898"/>
</g>
<path fill-rule="evenodd" clip-rule="evenodd" d="M84.4229 57.7881C84.4229 59.6861 82.8358 61.2242 80.8784 61.2242C78.921 61.2242 77.3339 59.6861 77.3339 57.7881C77.3339 55.8906 78.921 54.3521 80.8784 54.3521C82.8358 54.3521 84.4229 55.8906 84.4229 57.7881Z" fill="#FFA898"/>
<path fill-rule="evenodd" clip-rule="evenodd" d="M52.2007 57.7881C52.2007 59.6861 50.6136 61.2242 48.6562 61.2242C46.6988 61.2242 45.1117 59.6861 45.1117 57.7881C45.1117 55.8906 46.6988 54.3521 48.6562 54.3521C50.6136 54.3521 52.2007 55.8906 52.2007 57.7881Z" fill="#FFA898"/>
<mask id="mask7" mask-type="alpha" maskUnits="userSpaceOnUse" x="40" y="51" width="45" height="83">
<path fill-rule="evenodd" clip-rule="evenodd" d="M84.4858 51.0284H40.4314V133.996H84.4858V51.0284Z" fill="white"/>
</mask>
<g mask="url(#mask7)">
<path fill-rule="evenodd" clip-rule="evenodd" d="M84.0506 59.3349C84.9802 57.7136 84.3717 55.6716 82.6913 54.7752C82.4044 54.6215 75.5401 51.0284 64.0936 51.0284H64.0931C64.0926 51.0284 64.0921 51.0284 64.0921 51.0284C53.4697 51.0284 47.0805 54.6836 46.8132 54.8393C45.1696 55.7977 44.6429 57.8606 45.6363 59.4464C45.9648 59.9709 46.4288 60.389 46.9698 60.6688C48.0666 61.2356 48.5459 62.5099 48.0766 63.622C48.0761 63.6225 48.0761 63.6235 48.0755 63.6246C47.4343 65.1452 46.24 66.3824 44.7135 67.1083C42.1772 68.3151 40.4314 70.8318 40.4314 73.7453C40.4314 77.2413 42.9455 80.1639 46.3223 80.9418C47.2688 86.2768 50.7294 93.0404 47.7592 100.976C46.8311 103.456 46.0349 105.428 45.3679 107.218C43.6473 111.041 42.8933 115.854 42.8933 121.245C42.8933 137.223 49.6432 137.864 66.6563 137.864C66.6563 137.864 84.038 138.547 83.8065 124.534C83.759 121.666 82.7814 117.749 81.9499 115.281C79.7157 108.65 76.5667 105.709 74.7819 103.202C71.2058 98.1771 71.0597 91.5513 74.4713 86.3643C76.059 83.9509 77.6219 80.7266 79.1463 76.4161C80.6396 72.1916 81.2454 68.6615 81.1247 65.7394C81.0377 63.6322 81.8792 61.5835 83.4411 60.1082C83.6783 59.8834 83.885 59.6239 84.0506 59.3349Z" fill="#FFA898"/>
</g>
<path fill-rule="evenodd" clip-rule="evenodd" d="M65.3145 77.5837H45.3695C43.8474 77.5837 42.4333 77.1482 41.2447 76.4059C42.392 79.0472 45.0986 80.9034 48.2561 80.9034H64.579C68.7758 80.9034 72.1782 77.6254 72.1782 73.5821C72.1782 73.5227 72.1704 73.4659 72.1688 73.4066C70.9474 75.8743 68.341 77.5837 65.3145 77.5837Z" fill="#F48989"/>
<mask id="mask8" mask-type="alpha" maskUnits="userSpaceOnUse" x="67" y="125" width="12" height="9">
<path fill-rule="evenodd" clip-rule="evenodd" d="M78.2656 125.356H67.4275V133.993H78.2656V125.356Z" fill="white"/>
</mask>
<g mask="url(#mask8)">
<path fill-rule="evenodd" clip-rule="evenodd" d="M72.8463 135.673C69.8581 135.673 67.4275 133.358 67.4275 130.515C67.4275 127.671 69.8581 125.356 72.8463 125.356C75.8345 125.356 78.2656 127.671 78.2656 130.515C78.2656 133.358 75.8345 135.673 72.8463 135.673Z" fill="#73FFC4"/>
</g>
<mask id="mask9" mask-type="alpha" maskUnits="userSpaceOnUse" x="44" y="125" width="11" height="9">
<path fill-rule="evenodd" clip-rule="evenodd" d="M54.9194 125.356H44.2533V133.993H54.9194V125.356Z" fill="white"/>
</mask>
<g mask="url(#mask9)">
<path fill-rule="evenodd" clip-rule="evenodd" d="M49.5861 135.673C46.6453 135.673 44.2533 133.358 44.2533 130.515C44.2533 127.671 46.6453 125.356 49.5861 125.356C52.5269 125.356 54.9194 127.671 54.9194 130.515C54.9194 133.358 52.5269 135.673 49.5861 135.673Z" fill="#73FFC4"/>
</g>
<mask id="mask10" mask-type="alpha" maskUnits="userSpaceOnUse" x="42" y="108" width="43" height="26">
<path fill-rule="evenodd" clip-rule="evenodd" d="M84.0977 108.62H42.141V133.995H84.0977V108.62Z" fill="white"/>
</mask>
<g mask="url(#mask10)">
<path fill-rule="evenodd" clip-rule="evenodd" d="M84.0954 124.52C84.1563 128.305 82.9869 131.401 80.6155 133.734C76.1647 138.114 68.9098 138.458 66.7979 138.458C66.529 138.458 66.382 138.449 66.382 138.449H66.3652C49.5691 138.449 42.141 137.753 42.141 121.24C42.141 116.545 42.7065 112.476 43.8239 109.111C43.9216 108.818 44.2031 108.62 44.5213 108.62H78.711C79.0292 108.62 79.3243 108.785 79.4823 109.052C80.4422 110.674 81.3916 112.635 82.2171 115.089C83.0478 117.59 84.0439 121.55 84.0954 124.52Z" fill="#54939B"/>
</g>
<path fill-rule="evenodd" clip-rule="evenodd" d="M76.4548 105.268C76.5662 105.268 76.6719 105.322 76.7397 105.412C77.437 106.35 78.187 107.419 78.9453 108.704H44.7895C44.9882 108.103 45.2052 107.529 45.448 106.964C45.6304 106.439 45.829 105.907 46.0356 105.343C46.0518 105.298 46.0944 105.268 46.1412 105.268H76.4548Z" fill="#4B7D88"/>
<path fill-rule="evenodd" clip-rule="evenodd" d="M53.4195 55.5292C53.354 55.8506 53.3033 56.1695 53.2431 56.4898C53.153 56.9712 53.0577 57.453 52.9797 57.9307C52.9169 58.3163 52.8698 58.6993 52.8148 59.0839C52.7562 59.4934 52.6902 59.9044 52.6405 60.3124C52.5881 60.7433 52.5515 61.1716 52.508 61.601C52.4724 61.959 52.4285 62.3181 52.3991 62.6747C52.362 63.132 52.3405 63.5879 52.3138 64.0443C52.2944 64.3707 52.2672 64.6993 52.2536 65.0252C52.2332 65.503 52.2295 65.9797 52.2206 66.457C52.2154 66.7585 52.2018 67.0615 52.2007 67.362C52.1997 67.8902 52.2143 68.4179 52.2269 68.9456C52.2321 69.1931 52.2306 69.4417 52.2395 69.6887C52.2667 70.4624 52.3086 71.235 52.3656 72.0077C52.3829 72.2511 52.7023 73.9304 52.5641 74.0312C52.6415 73.9722 54.1179 72.8221 54.9723 72.1248C61.9241 66.4891 68.243 60.3312 72.8913 52.7936C73.2971 52.1473 73.8321 51.5676 74.5226 51.2065C74.6996 51.1164 74.8849 51.0598 75.0786 51.0334C75.0765 51.0308 75.0739 51.0288 75.0718 51.0262C74.3017 50.8551 73.4819 50.6931 72.6128 50.5485C72.0516 50.4553 71.4789 50.6575 71.1093 51.0787C70.3633 51.9283 69.8083 52.9444 69.1796 53.852C66.7164 57.4566 62.9596 62.1613 54.7911 69.0011C54.6461 63.5904 55.3487 58.0662 56.6381 52.9703C56.8883 52.0047 56.9836 50.7283 57.9762 50.2913C56.7763 50.4512 55.6628 50.661 54.6356 50.8877C54.299 51.5763 54.1524 52.3403 53.9624 53.1048C53.764 53.9172 53.5828 54.7255 53.4195 55.5292Z" fill="#69BDBF"/>
<path fill-rule="evenodd" clip-rule="evenodd" d="M61.3005 78.4044C61.6987 77.7878 62.1048 77.2146 62.4999 76.7237C64.2297 74.5592 72.7157 69.118 74.7572 67.8291C75.008 67.6774 75.0772 67.3662 74.9303 67.1384L71.7902 62.346C71.7902 62.346 76.167 60.3833 77.6549 59.7181C77.88 59.6257 78.0012 59.4065 77.975 59.196C77.7761 57.5449 76.911 55.077 76.2451 53.2997C75.9414 52.4772 75.4954 51.7283 74.9251 51.0626C74.7315 51.0887 74.5452 51.1459 74.3679 51.2363C73.6758 51.5985 73.1396 52.1799 72.733 52.8282C68.0745 60.3884 61.7417 66.5647 54.7752 72.2174C53.9184 72.9168 52.4388 74.0703 52.3612 74.1295C52.4997 74.0284 52.1796 72.3441 52.1623 72.0994C52.1057 71.3249 52.0637 70.5499 52.0359 69.7739C52.027 69.5257 52.0291 69.2769 52.0233 69.0281C52.0107 68.4988 51.996 67.9701 51.9976 67.4403C51.9986 67.1379 52.0117 66.835 52.0175 66.5325C52.0259 66.0538 52.0301 65.5757 52.05 65.096C52.0642 64.769 52.091 64.4405 52.1104 64.1126C52.1371 63.6548 52.1586 63.1976 52.1959 62.7384C52.2258 62.3808 52.2694 62.0206 52.305 61.662C52.3486 61.2313 52.3853 60.8012 52.4378 60.3695C52.4881 59.9598 52.5542 59.5475 52.6125 59.1368C52.6676 58.7516 52.7148 58.3674 52.7778 57.9807C52.8559 57.5005 52.9514 57.0177 53.0417 56.5355C53.102 56.2136 53.1529 55.8944 53.2185 55.572C53.3827 54.7643 53.5637 53.9541 53.7626 53.1398C53.953 52.3735 54.0999 51.6067 54.4373 50.916C53.4089 51.1459 52.4734 51.3983 51.6256 51.6552C50.1172 52.9181 48.7021 54.3214 47.3354 55.9868C46.3191 57.218 45.2472 58.3996 44.4193 59.2854C44.5042 59.4826 44.5877 59.6814 44.7057 59.8699C45.1213 60.5437 45.7178 61.0995 46.4272 61.4704C47.0499 61.7902 47.327 62.5228 47.0583 63.1634C47.0583 63.1634 47.0499 63.1716 47.0499 63.1797C46.5048 64.4686 45.5016 65.5215 44.2125 66.1361C43.1816 66.6306 42.298 67.3106 41.5672 68.1096C41.8489 72.2756 43.8615 76.2021 45.7834 78.4044H61.3005Z" fill="#5FA2A8"/>
<mask id="mask11" mask-type="alpha" maskUnits="userSpaceOnUse" x="48" y="81" width="12" height="53">
<path fill-rule="evenodd" clip-rule="evenodd" d="M59.5483 81.5575H48.4356V133.995H59.5483V81.5575Z" fill="white"/>
</mask>
<g mask="url(#mask11)">
<path fill-rule="evenodd" clip-rule="evenodd" d="M59.5483 81.5575H48.4356C49.1176 82.9931 49.3988 84.3787 49.4686 84.7511V94.219V140.811C51.7037 141.079 54.5928 141.255 58.2981 141.268V85.5261C58.3102 84.5866 58.8146 83.1132 59.5483 81.5575Z" fill="#5FA2A8"/>
</g>
<path fill-rule="evenodd" clip-rule="evenodd" d="M60.6981 79.2706C60.7143 79.243 60.73 79.2159 60.7462 79.1883C60.9031 78.9218 61.0616 78.6595 61.2221 78.4055C61.2221 78.4055 61.2227 78.4049 61.2227 78.4044H45.7559C45.7611 78.4107 45.7658 78.4154 45.7711 78.4211C46.044 78.7396 46.3155 79.0239 46.5785 79.2669C46.7553 79.4273 46.9174 79.6027 47.0738 79.7828C47.1093 79.8234 47.1438 79.864 47.1778 79.9051C47.329 80.0878 47.4717 80.2757 47.6041 80.4709C47.6109 80.4808 47.6166 80.4912 47.6234 80.5011C47.7552 80.6979 47.8765 80.8993 47.991 81.1034C48.0067 81.1325 48.0235 81.1607 48.0392 81.1898C48.1579 81.4058 48.2672 81.6229 48.3676 81.8399V81.8405H59.3609L59.3614 81.8399C59.7536 80.9831 60.2112 80.105 60.6981 79.2706Z" fill="#517C88"/>
<mask id="mask12" mask-type="alpha" maskUnits="userSpaceOnUse" x="58" y="50" width="30" height="84">
<path fill-rule="evenodd" clip-rule="evenodd" d="M87.1836 50.7202H58.0945V133.995H87.1836V50.7202Z" fill="white"/>
</mask>
<g mask="url(#mask12)">
<path fill-rule="evenodd" clip-rule="evenodd" d="M87.1836 179.197C87.1836 179.458 87.0793 179.71 86.888 179.895C86.6973 180.079 86.4455 180.18 86.1758 180.18H59.1033C58.5459 180.18 58.0945 179.743 58.0945 179.204V141.25V85.6479C58.1066 84.7102 58.6092 83.241 59.3404 81.6893H65.1665H65.2529C69.4886 81.6893 72.9219 78.3676 72.9219 74.2708C72.9219 74.2107 72.9146 74.1526 72.913 74.093C71.6797 76.5937 69.0498 78.3258 65.9947 78.3258H65.9078H61.2159C61.6157 77.7107 62.0235 77.1389 62.4202 76.6487C64.1572 74.4895 72.678 69.0616 74.7279 67.7763C74.9797 67.625 75.0492 67.3141 74.9017 67.0874L71.7487 62.3062C71.7487 62.3062 76.1435 60.3488 77.6375 59.6847C77.8635 59.5925 77.9852 59.3744 77.9589 59.1639C77.7592 57.5174 76.8905 55.0554 76.222 53.2825C75.9169 52.462 75.4691 51.7144 74.8965 51.0509C74.8944 51.0483 74.8917 51.0458 74.8901 51.0432C74.7964 50.9347 74.7073 50.8231 74.6062 50.7202C79.8786 51.8459 82.9016 53.4338 83.0923 53.5347C85.4029 54.7695 86.2369 57.5841 84.9599 59.8111C84.7344 60.2061 84.4562 60.5669 84.1259 60.8782C82.832 62.1049 82.1282 63.8187 82.1977 65.5662C82.3284 68.7507 81.6419 72.5066 80.1568 76.7246C78.6627 80.9595 77.0907 84.3036 75.3532 86.9581C72.2265 91.7143 72.3393 97.7889 75.6314 102.435C77.4416 104.937 80.69 108.092 82.9621 114.854C83.7961 117.333 84.5863 120.584 84.8124 123.323C85.2296 124.138 87.0619 167.619 87.1836 179.197Z" fill="#E9E3E8"/>
</g>
<path fill-rule="evenodd" clip-rule="evenodd" d="M60.5786 79.3416C60.1091 80.1531 59.6679 81.0072 59.2897 81.8405C59.6679 81.0072 60.1102 80.1521 60.5786 79.3416Z" fill="#E9E3E8"/>
<path fill-rule="evenodd" clip-rule="evenodd" d="M61.2227 78.4044C61.1234 78.6071 61.0258 78.8165 60.9291 79.0292C61.0258 78.8165 61.1234 78.6071 61.2227 78.4044Z" fill="#E9E3E8"/>
<path fill-rule="evenodd" clip-rule="evenodd" d="M51.7123 51.6321C51.8762 51.4985 52.0347 51.3589 52.2007 51.2284C48.4364 52.2883 46.2926 53.4969 46.1356 53.5883C44.0441 54.7803 43.2598 57.2803 44.2445 59.35C44.3084 59.2837 44.3851 59.2018 44.4527 59.1316C45.2868 58.2609 46.3666 57.0995 47.3904 55.8894C48.7672 54.2526 50.1927 52.8733 51.7123 51.6321Z" fill="#E9E3E8"/>
<path fill-rule="evenodd" clip-rule="evenodd" d="M41.2451 79.3415C41.0082 79.042 40.7937 78.729 40.6007 78.4044C40.7937 78.7295 41.0082 79.0415 41.2451 79.3415Z" fill="#E9E3E8"/>
<path fill-rule="evenodd" clip-rule="evenodd" d="M40.6006 78.0921C40.3585 77.7903 40.1433 77.4775 39.9561 77.155C40.1433 77.4775 40.3579 77.7893 40.6006 78.0921Z" fill="#E9E3E8"/>
<path fill-rule="evenodd" clip-rule="evenodd" d="M42.2114 79.9663C41.9784 79.7695 41.7634 79.5605 41.567 79.3416C41.7634 79.5608 41.9784 79.7691 42.2114 79.9663Z" fill="#E9E3E8"/>
<path fill-rule="evenodd" clip-rule="evenodd" d="M43.6955 78.3881H44.0898H45.7409C45.7463 78.3937 45.751 78.3988 45.7563 78.4044C45.751 78.3988 45.7463 78.3937 45.7409 78.3881C43.7943 76.1989 41.7563 72.2958 41.4704 68.1546C41.4619 68.0307 41.448 67.9078 41.4427 67.7839C39.883 69.3581 38.9896 71.4595 38.9896 73.7203C38.9896 74.9949 39.2867 76.2401 39.8474 77.3847C40.983 78.0118 42.2893 78.3881 43.6955 78.3881Z" fill="#E9E3E8"/>
<mask id="mask13" mask-type="alpha" maskUnits="userSpaceOnUse" x="37" y="80" width="13" height="54">
<path fill-rule="evenodd" clip-rule="evenodd" d="M49.5308 80.2341H37.1775V133.996H49.5308V80.2341Z" fill="white"/>
</mask>
<g mask="url(#mask13)">
<path fill-rule="evenodd" clip-rule="evenodd" d="M49.5308 85.008C49.4626 84.6375 49.1872 83.2592 48.5207 81.831H47.193H46.8097C45.5517 81.831 44.3732 81.5154 43.3312 80.9782C42.9747 80.7475 42.642 80.4984 42.3341 80.2341C42.7484 80.5904 43.1901 80.9279 43.6918 81.2211C44.7343 81.83 45.4876 82.8221 45.7852 83.9778C45.9143 84.4815 46.0461 84.9725 46.1577 85.3851C46.8985 88.1673 47.7081 91.1837 47.7081 94.4267C47.7081 96.3957 47.41 98.4403 46.6262 100.577C45.2897 104.24 44.3717 106.42 43.7166 108.233C41.959 113.095 40.1864 117.473 39.6161 122.381H41.0662C41.3984 122.381 41.6624 122.817 41.6624 123.353V126.613V138.042C41.6624 139.023 41.3302 139.919 40.8017 140.388C40.2262 140.886 39.5081 141.209 38.7388 141.369C38.6515 141.388 38.5652 141.381 38.4815 141.363C37.8817 154.96 37.2473 172.376 37.1775 179.077C37.1775 179.62 37.6162 180.057 38.1659 180.057H48.5414C49.088 180.057 49.5308 179.622 49.5308 179.084V140.776V94.4267V85.008Z" fill="#E9E3E8"/>
</g>
<path fill-rule="evenodd" clip-rule="evenodd" d="M48.0117 80.9034C47.9412 80.6919 47.8664 80.4826 47.7852 80.2786C47.8664 80.4826 47.9412 80.6919 48.0117 80.9034Z" fill="#E9E3E8"/>
<path fill-rule="evenodd" clip-rule="evenodd" d="M47.6895 80.591C47.6083 80.3755 47.52 80.168 47.4272 79.9662C47.5196 80.168 47.6083 80.3755 47.6895 80.591Z" fill="#E9E3E8"/>
<path fill-rule="evenodd" clip-rule="evenodd" d="M48.334 81.5281C48.2724 81.3197 48.2048 81.1113 48.1316 80.9034C48.2045 81.1108 48.2724 81.3197 48.334 81.5281Z" fill="#E9E3E8"/>
<path fill-rule="evenodd" clip-rule="evenodd" d="M47.3672 79.6514C47.2708 79.543 47.171 79.4381 47.062 79.3416C47.171 79.4381 47.2712 79.543 47.3672 79.6514Z" fill="#E9E3E8"/>
<path fill-rule="evenodd" clip-rule="evenodd" d="M46.6083 81.5281H46.9948H48.334C48.234 81.3155 48.1241 81.1023 48.0069 80.8907C47.9907 80.8622 47.9746 80.8346 47.9584 80.8066C47.8449 80.6067 47.7235 80.4088 47.5923 80.2161C47.5855 80.2064 47.5798 80.1967 47.5735 80.187C47.4422 79.9958 47.299 79.8112 47.149 79.6327C47.1151 79.5919 47.0802 79.5527 47.0453 79.5129C46.8901 79.3359 46.7276 79.1646 46.5521 79.007C46.2895 78.7694 46.0197 78.4905 45.7478 78.1789C45.7426 78.1728 45.7379 78.1682 45.7327 78.1626H44.1138H43.7278C42.3496 78.1626 41.0693 77.7847 39.9561 77.155C40.1192 77.4961 40.3067 77.8271 40.5177 78.1463C40.5203 78.1504 40.5234 78.1549 40.5265 78.1595C40.7369 78.4762 40.9708 78.7816 41.2292 79.0738C41.2323 79.0774 41.236 79.082 41.2396 79.0856C41.4995 79.3793 41.7839 79.6587 42.0923 79.9229C42.0938 79.9239 42.0944 79.9249 42.0959 79.9259C42.4064 80.1911 42.7418 80.441 43.1017 80.6725C44.1518 81.2115 45.34 81.5281 46.6083 81.5281Z" fill="#D3C6CF"/>
<path fill-rule="evenodd" clip-rule="evenodd" d="M61.4799 78.5216C61.3182 78.767 61.1592 79.0205 61.0017 79.278C60.9859 79.3046 60.9697 79.3308 60.9539 79.3574C60.4657 80.1627 60.0058 81.0121 59.6116 81.84V81.8405H65.4171H65.5032C69.7239 81.8405 73.145 78.5623 73.145 74.5192C73.145 74.4598 73.1377 74.4025 73.1361 74.3436C71.9072 76.8116 69.2866 78.5211 66.2423 78.5211H66.1557H61.4804C61.4799 78.5211 61.4799 78.5216 61.4799 78.5216Z" fill="#D3C6CF"/>
<path fill-rule="evenodd" clip-rule="evenodd" d="M41.5674 126.509V123.381C41.5674 122.866 41.3057 122.448 40.9764 122.448H39.539H38.4017C38.117 122.448 37.883 122.66 37.8687 122.932C37.8118 124.024 37.7591 125.215 37.7007 126.509H41.5674Z" fill="#FAF9FA"/>
<mask id="mask14" mask-type="alpha" maskUnits="userSpaceOnUse" x="37" y="126" width="5" height="8">
<path fill-rule="evenodd" clip-rule="evenodd" d="M41.5254 126.567H37.3824V133.993H41.5254V126.567Z" fill="white"/>
</mask>
<g mask="url(#mask14)">
<path fill-rule="evenodd" clip-rule="evenodd" d="M38.672 141.408C39.4228 141.247 40.1232 140.922 40.6854 140.422C41.2012 139.95 41.5254 139.048 41.5254 138.062V126.567H37.7175C37.6096 129.255 37.5017 132.373 37.3852 136.014V136.048C37.3656 137.079 37.4362 140.11 38.0231 141.119C38.1113 141.27 38.2585 141.366 38.4204 141.402C38.5026 141.42 38.5868 141.427 38.672 141.408Z" fill="#E1D9DF"/>
</g>
<path fill-rule="evenodd" clip-rule="evenodd" d="M83.5122 55.193C83.7334 55.3838 83.9326 55.605 84.1036 55.8558L101.67 81.6833C104.81 86.3002 104.369 92.4198 100.597 96.5652L79.4975 119.755C78.2358 121.142 76.0559 121.272 74.63 120.044C73.2041 118.816 73.0713 116.696 74.333 115.309L95.4323 92.1186C97.139 90.2433 97.3388 87.4747 95.9176 85.3852L78.3519 59.5582C77.3009 58.013 77.7365 55.9316 79.325 54.9092C80.6552 54.0532 82.3718 54.2114 83.5122 55.193Z" fill="#FFA898"/>
<path fill-rule="evenodd" clip-rule="evenodd" d="M66.6485 123.679C66.7879 124.698 67.1047 125.68 67.5931 126.595L69.2954 129.781C69.6196 130.389 70.3883 130.625 71.0124 130.308C71.0779 130.275 71.1391 130.237 71.1956 130.195C71.3873 130.054 71.6323 130.002 71.8667 130.052C72.1011 130.103 72.3013 130.253 72.4121 130.46L72.4475 130.526C72.7717 131.135 73.5405 131.37 74.1646 131.054C74.719 130.772 74.9724 130.149 74.7934 129.587C74.7712 129.517 74.7422 129.447 74.7052 129.38C74.6619 129.298 74.6683 129.2 74.7216 129.125C74.7755 129.05 74.8668 129.011 74.9603 129.022C75.2047 129.052 75.4597 129.013 75.6958 128.894C76.3204 128.578 76.558 127.828 76.238 127.22C76.191 127.131 76.1963 127.026 76.2517 126.943C76.3077 126.86 76.4049 126.813 76.5062 126.82C76.6968 126.832 76.8927 126.793 77.0728 126.697C77.577 126.427 77.7581 125.812 77.4836 125.318L76.2174 123.075C76.0664 122.808 76.0342 122.494 76.1266 122.203C76.219 121.913 76.4286 121.672 76.7069 121.535C79.4509 120.184 81.1927 118.087 80.8311 116.284C80.3722 114.003 76.7169 113.055 72.6666 114.169C64.9209 116.302 65.6828 116.57 66.6485 123.679Z" fill="#FFA898"/>
<path fill-rule="evenodd" clip-rule="evenodd" d="M101.225 97.354L84.4879 115.657C84.228 115.941 83.7792 115.968 83.4852 115.716L77.4197 110.521C77.1263 110.269 77.099 109.834 77.3588 109.55L94.0961 91.2472C95.4211 89.7982 95.5749 87.6593 94.473 86.0448L76.8339 60.2519C76.1315 59.2257 75.889 57.9997 76.1436 56.7855C76.3998 55.5839 77.1184 54.5445 78.1793 53.8647C79.9777 52.72 82.3535 52.877 83.9603 54.2533C84.2784 54.5257 84.5493 54.8361 84.7781 55.1668L102.413 80.9657C105.89 86.0483 105.4 92.7881 101.225 97.354Z" fill="#F2EEF1"/>
<path fill-rule="evenodd" clip-rule="evenodd" d="M88.9341 111.233L86.2615 114.014L78.9451 108.05L81.6177 105.268L88.9341 111.233Z" fill="#EDE7EB"/>
<path fill-rule="evenodd" clip-rule="evenodd" d="M41.7704 66.8468C41.6459 66.8468 41.5194 66.8195 41.4 66.7607C40.9787 66.5554 40.8038 66.0463 41.0086 65.6239C41.578 64.451 46.6127 54.1142 47.9321 52.475C49.4315 50.612 50.521 49.6666 52.3193 49.6666C52.7879 49.6666 53.1675 50.0477 53.1675 50.5171C53.1675 50.9865 52.7879 51.3676 52.3193 51.3676C51.3908 51.3676 50.7597 51.6699 49.2525 53.5432C48.2377 54.8033 44.0588 63.2286 42.5337 66.3687C42.3866 66.6714 42.0852 66.8468 41.7704 66.8468Z" fill="#5A3C55"/>
<path fill-rule="evenodd" clip-rule="evenodd" d="M43.8006 68.1287C43.6846 67.0812 43.1308 66.2506 42.3105 65.8965C42.3033 65.8935 42.2961 65.8905 42.2889 65.8875C42.2956 65.89 42.3043 65.894 42.3105 65.8965C42.3043 65.894 42.2981 65.891 42.292 65.8885L41.2809 65.463C41.2866 65.465 41.2922 65.4675 41.2979 65.47C41.019 65.3498 40.7096 65.2849 40.376 65.2849C38.7303 65.2849 37.1273 66.8717 36.7948 68.8241C36.5272 70.3934 37.1619 71.7222 38.2771 72.1827C38.2719 72.1812 38.2673 72.1792 38.2627 72.1772L39.2737 72.6032C39.4052 72.6585 39.5439 72.7014 39.6877 72.7319C39.745 72.7433 39.8032 72.7533 39.862 72.7613C39.9656 72.7743 40.0724 72.7817 40.1817 72.7817C40.4034 72.7817 40.6246 72.7528 40.8421 72.6984H40.8416H40.8421C40.9473 72.672 41.052 72.6391 41.1556 72.6012C41.6418 72.4211 42.1007 72.1143 42.4961 71.7158C42.8704 71.3386 43.1886 70.8792 43.419 70.3679C43.4953 70.1988 43.5624 70.0242 43.6186 69.8447C43.6794 69.6511 43.7273 69.4526 43.7619 69.2496C43.8067 68.9862 43.8263 68.7298 43.8222 68.4824C43.8207 68.3622 43.8129 68.2439 43.8006 68.1287Z" fill="#C5B6C1"/>
<path fill-rule="evenodd" clip-rule="evenodd" d="M38.7575 70.389C38.7622 70.3927 38.7674 70.3964 38.7721 70.4001C38.782 70.407 38.7914 70.4139 38.8007 70.4208C38.8036 70.4224 38.806 70.4246 38.8089 70.4262C38.8112 70.4283 38.8141 70.4299 38.8171 70.4315C38.827 70.4384 38.8375 70.4448 38.8486 70.4517L38.8614 70.4591C38.8772 70.4682 38.8924 70.4772 38.9087 70.4852C38.9245 70.4931 38.9403 70.5006 38.9566 70.508C38.9619 70.5101 38.9666 70.5123 38.9718 70.5144C38.9835 70.5197 38.9958 70.5245 39.0074 70.5287C39.0127 70.5309 39.0185 70.533 39.0244 70.5346C39.0372 70.5394 39.0501 70.5442 39.0629 70.5479H39.0623C39.067 70.5489 39.0717 70.5511 39.0763 70.5521C39.1114 70.5628 39.1482 70.5713 39.1855 70.5776C39.1873 70.5782 39.1891 70.5787 39.1908 70.5787C39.2107 70.5824 39.2317 70.5856 39.2521 70.5877C39.2556 70.5883 39.2585 70.5883 39.262 70.5888C39.2755 70.5899 39.2889 70.5909 39.3029 70.592C39.3088 70.5925 39.3146 70.5931 39.321 70.5936C39.3403 70.5947 39.3602 70.5952 39.38 70.5952C39.5756 70.5952 39.7701 70.5458 39.9517 70.457C40.416 70.2316 40.7961 69.7516 40.8972 69.193C40.9106 69.1202 40.9188 69.0489 40.9217 68.9788C40.9229 68.9554 40.9229 68.9325 40.9229 68.9091C40.9229 68.8884 40.9223 68.8677 40.9211 68.847V68.8416C40.9199 68.8188 40.9182 68.7965 40.9164 68.7747C40.9158 68.7709 40.9153 68.7672 40.9147 68.7635C40.9135 68.7492 40.9112 68.7353 40.91 68.721V68.7215C40.9088 68.7157 40.9083 68.7098 40.9071 68.704L40.9077 68.7045C40.9047 68.6854 40.9012 68.6668 40.8977 68.6487V68.6503L40.8972 68.6444C40.8931 68.6253 40.889 68.6062 40.8843 68.5876C40.8837 68.586 40.8837 68.5844 40.8831 68.5828C40.8779 68.562 40.8726 68.5419 40.8662 68.5222C40.865 68.5185 40.8639 68.5153 40.8627 68.5116V68.5121C40.8586 68.4988 40.8539 68.4855 40.8499 68.4733V68.4738C40.8481 68.4685 40.8464 68.4632 40.8446 68.4584V68.4589C40.8382 68.4414 40.8318 68.4249 40.8247 68.4079L40.8242 68.4058C40.8078 68.368 40.7903 68.3319 40.771 68.2973C40.7693 68.2947 40.7669 68.2915 40.7658 68.2888C40.7623 68.283 40.7588 68.2771 40.7553 68.2713C40.7523 68.266 40.7494 68.2612 40.7465 68.2564C40.7465 68.2569 40.7471 68.2569 40.7471 68.2569C40.7436 68.2516 40.7401 68.2463 40.7366 68.2405L40.7371 68.241C40.7284 68.2282 40.7202 68.2155 40.7115 68.2033L40.712 68.2038C40.7103 68.2017 40.7085 68.199 40.7074 68.1969C40.6729 68.1496 40.635 68.1049 40.5941 68.064C40.5923 68.0629 40.5906 68.0613 40.5888 68.0597H40.5894C40.5783 68.0491 40.5672 68.039 40.5561 68.0289L40.559 68.0321L40.5503 68.0236L40.5509 68.0241C40.5374 68.0124 40.5234 68.0013 40.5094 67.9901L40.51 67.9906C40.5059 67.9875 40.5018 67.9843 40.4971 67.9811C40.4977 67.9816 40.4983 67.9821 40.4989 67.9827C40.489 67.9747 40.4785 67.9667 40.4674 67.9593L40.4679 67.9598L40.4504 67.9481C40.4411 67.9417 40.4312 67.9354 40.4212 67.9295L40.4224 67.93C40.4171 67.9269 40.4113 67.9231 40.4055 67.9199L40.4066 67.9205C40.3938 67.913 40.3803 67.9056 40.3675 67.8987C40.3675 67.8987 40.3675 67.8987 40.3681 67.8987C40.3652 67.8976 40.3634 67.896 40.3605 67.895C40.2221 67.8232 40.0633 67.7839 39.8892 67.7839C39.759 67.7839 39.6288 67.8062 39.5026 67.8471C39.4606 67.8609 39.4191 67.8769 39.3777 67.895C39.3677 67.8992 39.3572 67.9045 39.3473 67.9088C39.3286 67.9178 39.3099 67.9269 39.2912 67.9364C39.2796 67.9423 39.2685 67.9481 39.2568 67.954C39.2445 67.9609 39.2317 67.9683 39.22 67.9758C39.1733 68.0029 39.1277 68.0321 39.0834 68.064C39.0273 68.1049 38.9736 68.1496 38.9216 68.1969C38.8871 68.2293 38.8544 68.2628 38.8217 68.2973C38.7902 68.3319 38.7587 68.368 38.7295 68.4058C38.6997 68.443 38.6717 68.4823 38.6454 68.5222C38.6319 68.5419 38.6191 68.562 38.6063 68.5828C38.5934 68.6035 38.5811 68.6242 38.5695 68.645C38.5554 68.6705 38.5414 68.6965 38.5286 68.7226C38.5198 68.7396 38.5117 68.7571 38.5035 68.7747C38.4935 68.7965 38.4836 68.8188 38.4743 68.8416C38.4679 68.8576 38.462 68.8735 38.4556 68.8895C38.4497 68.9049 38.4445 68.9203 38.4392 68.9357C38.434 68.9501 38.4287 68.9644 38.4241 68.9788C38.4019 69.0489 38.3838 69.1202 38.3709 69.193C38.2956 69.606 38.389 69.9759 38.5969 70.2321C38.5992 70.2343 38.6016 70.2369 38.6033 70.2396C38.6121 70.2497 38.6209 70.2598 38.6296 70.2699C38.6331 70.2736 38.6366 70.2779 38.6401 70.2816C38.6489 70.2906 38.6576 70.2997 38.6664 70.3087C38.6693 70.3113 38.6722 70.3145 38.6752 70.3172C38.6886 70.331 38.7026 70.3438 38.7172 70.3565C38.7195 70.3581 38.7213 70.3592 38.7225 70.3608C38.7341 70.3703 38.7452 70.3799 38.7575 70.389Z" fill="#9E8697"/>
<path fill-rule="evenodd" clip-rule="evenodd" d="M39.1605 70.0891C39.1633 70.0912 39.1655 70.0933 39.1683 70.0949C39.1711 70.097 39.1733 70.0985 39.1761 70.1001C39.1856 70.1064 39.1951 70.1127 39.2051 70.119C39.2096 70.1216 39.2146 70.1248 39.2191 70.1279C39.2335 70.1368 39.2486 70.1452 39.2636 70.1531C39.2787 70.161 39.2938 70.1683 39.3094 70.1757C39.3144 70.1778 39.3194 70.1799 39.3244 70.1825C39.3356 70.1872 39.3467 70.192 39.3579 70.1962C39.3634 70.1983 39.369 70.2004 39.374 70.2019C39.3857 70.2067 39.398 70.2109 39.4103 70.2151C39.4153 70.2161 39.4192 70.2182 39.4242 70.2192C39.4576 70.2297 39.4922 70.2381 39.5279 70.2444C39.5295 70.245 39.5312 70.2455 39.5329 70.2455C39.5524 70.2492 39.5719 70.2523 39.5914 70.2544C39.5948 70.2549 39.5981 70.2549 39.6009 70.2555C39.6137 70.2565 39.6265 70.2581 39.6399 70.2586C39.6455 70.2591 39.6511 70.2597 39.6572 70.2602C39.6756 70.2612 39.6945 70.2618 39.7135 70.2618C39.9008 70.2618 40.0864 70.213 40.2598 70.1253C40.7029 69.9028 41.0653 69.4288 41.1617 68.8772C41.1745 68.8053 41.1823 68.7349 41.1851 68.6657C41.1862 68.6426 41.1862 68.62 41.1862 68.5969C41.1862 68.5764 41.1857 68.556 41.1846 68.5355V68.5302C41.1834 68.5077 41.1818 68.4856 41.1801 68.4641C41.1795 68.4604 41.179 68.4568 41.179 68.4531C41.1773 68.4389 41.1756 68.4253 41.174 68.4116C41.1728 68.4058 41.1723 68.4001 41.1712 68.3943C41.1689 68.3765 41.1662 68.3586 41.1623 68.3408L41.1617 68.3355C41.1578 68.3166 41.1539 68.2977 41.1494 68.2794C41.1489 68.2778 41.1489 68.2762 41.1483 68.2746C41.1433 68.2542 41.1383 68.2342 41.1322 68.2148C41.1316 68.2111 41.1299 68.208 41.1288 68.2043C41.1249 68.1917 41.121 68.1791 41.1171 68.167C41.1149 68.1618 41.1132 68.1565 41.1115 68.1518C41.106 68.135 41.0998 68.1187 41.0926 68.102L41.092 68.0999C41.077 68.0626 41.0597 68.0269 41.0413 67.9928C41.0396 67.9896 41.0379 67.987 41.0363 67.9844C41.0329 67.9786 41.0296 67.9728 41.0262 67.9671C41.024 67.9623 41.0212 67.9576 41.0184 67.9534C41.0151 67.9476 41.0117 67.9424 41.0084 67.9366C41.0012 67.924 40.9928 67.9125 40.985 67.9004C40.9833 67.8983 40.9822 67.8957 40.9805 67.8936C40.9482 67.8469 40.912 67.8028 40.8724 67.7624C40.8707 67.7608 40.869 67.7597 40.8679 67.7582C40.8585 67.7487 40.849 67.7393 40.8395 67.7309L40.8306 67.7225C40.8183 67.7115 40.8055 67.7004 40.7927 67.6899C40.7882 67.6868 40.7843 67.6836 40.7804 67.6805C40.7709 67.6731 40.7615 67.6663 40.752 67.6595L40.7358 67.6479C40.7269 67.6416 40.718 67.6359 40.7091 67.6301C40.7035 67.627 40.6979 67.6233 40.6929 67.6201C40.6812 67.6128 40.6689 67.606 40.6567 67.5991C40.6544 67.5981 40.6522 67.5965 40.6494 67.5955C40.5179 67.5246 40.3662 67.4858 40.2001 67.4858C40.0753 67.4858 39.951 67.5078 39.8311 67.5482C39.7904 67.5619 39.7508 67.5776 39.7118 67.5955C39.6728 67.6128 39.6343 67.6322 39.5959 67.6537C39.5502 67.68 39.505 67.7088 39.461 67.7403C39.4509 67.7477 39.4404 67.755 39.4303 67.7624C39.3768 67.8028 39.3255 67.8469 39.2765 67.8936C39.243 67.9251 39.2118 67.9581 39.1812 67.9928C39.1505 68.0269 39.1209 68.0626 39.0925 68.0999C39.083 68.1125 39.0736 68.1256 39.0641 68.1387C39.0524 68.1555 39.0407 68.1728 39.029 68.1896C39.0234 68.198 39.0178 68.2064 39.0122 68.2148C38.9994 68.2342 38.9872 68.2542 38.9749 68.2746C38.9738 68.2773 38.9721 68.2799 38.9704 68.2825C38.9415 68.3318 38.9153 68.3833 38.8907 68.4358C38.8857 68.4452 38.8813 68.4541 38.8768 68.4641C38.8673 68.4856 38.8578 68.5077 38.8489 68.5302C38.8445 68.5418 38.8406 68.5533 38.8361 68.5654C38.8277 68.5875 38.8194 68.6105 38.8121 68.6331C38.8088 68.6441 38.8043 68.6552 38.801 68.6657C38.7798 68.7349 38.7631 68.8053 38.7503 68.8772C38.6789 69.285 38.7675 69.6503 38.966 69.9033C38.9682 69.9059 38.9704 69.9085 38.9727 69.9112C38.9805 69.9206 38.9883 69.93 38.9966 69.9395C39 69.9442 39.0044 69.9484 39.0083 69.9531C39.0162 69.9615 39.024 69.9699 39.0323 69.9783C39.0351 69.9815 39.0379 69.9846 39.0407 69.9873C39.0541 70.0009 39.0674 70.0135 39.0808 70.0261C39.083 70.0277 39.0853 70.0292 39.0869 70.0308C39.0975 70.0397 39.1081 70.0487 39.1187 70.0576C39.1243 70.0618 39.1293 70.066 39.1349 70.0697C39.1432 70.0765 39.1516 70.0828 39.1605 70.0891ZM37.1142 68.8772C37.4319 67.0643 38.9598 65.5973 40.5306 65.5973C42.1015 65.5973 43.1154 67.0643 42.7977 68.8772C42.4805 70.6906 40.9521 72.157 39.3812 72.157C37.8104 72.157 36.7964 70.6906 37.1142 68.8772Z" fill="#ECE6EA"/>
<path fill-rule="evenodd" clip-rule="evenodd" d="M39.3927 72.0477C40.9331 72.0477 42.4315 70.6312 42.7431 68.8807C43.0547 67.1302 42.0603 65.7137 40.5199 65.7137C38.9794 65.7137 37.4805 67.1302 37.1695 68.8807C36.8579 70.6312 37.8522 72.0477 39.3927 72.0477ZM38.4476 72.3224C38.4213 72.3133 38.3956 72.3031 38.3699 72.2935C37.1881 71.8257 36.5146 70.4751 36.7983 68.8807C37.1515 66.8976 38.851 65.2849 40.5959 65.2849C40.9496 65.2849 41.2775 65.3513 41.5727 65.4729C41.5744 65.4734 41.5755 65.474 41.5766 65.4745C41.5771 65.475 41.5777 65.475 41.5782 65.4755C41.6022 65.4856 41.6258 65.4957 41.6498 65.5064C41.6586 65.5104 41.6668 65.5145 41.675 65.5185L41.7231 65.5414C41.7329 65.5464 41.7427 65.5515 41.752 65.5561C41.7668 65.5637 41.781 65.5713 41.7958 65.5789C41.8056 65.5844 41.8149 65.5895 41.8247 65.5951C41.8395 65.6032 41.8543 65.6118 41.869 65.6204L41.8947 65.6356C41.9144 65.6478 41.9341 65.6599 41.9537 65.6726C41.9565 65.6741 41.9592 65.6762 41.9619 65.6777C41.9849 65.6924 42.0073 65.7076 42.0292 65.7233C42.0357 65.7279 42.0423 65.7324 42.0483 65.737C42.0636 65.7476 42.0789 65.7588 42.0937 65.7699C42.1024 65.7765 42.1106 65.7826 42.1188 65.7892C42.1319 65.7993 42.1456 65.81 42.1587 65.8201C42.1664 65.8272 42.1746 65.8338 42.1828 65.8404L42.2216 65.8728C42.2292 65.8799 42.2369 65.886 42.2446 65.8926C42.2593 65.9063 42.2741 65.9199 42.2888 65.9336C42.2943 65.9382 42.2992 65.9427 42.3041 65.9473C42.3238 65.9661 42.343 65.9848 42.3621 66.0041C42.3659 66.0081 42.3697 66.0122 42.3741 66.0162C42.3889 66.0314 42.4036 66.0466 42.4184 66.0624C42.4244 66.0694 42.431 66.0765 42.437 66.0831C42.449 66.0963 42.461 66.1095 42.4725 66.1232C42.4791 66.1308 42.4862 66.1389 42.4927 66.1465C42.5042 66.1602 42.5151 66.1733 42.5261 66.187C42.5326 66.1946 42.5386 66.2022 42.5452 66.2103C42.5578 66.2266 42.5704 66.2423 42.5829 66.259C42.5868 66.2641 42.5911 66.2696 42.595 66.2747C42.6119 66.297 42.6278 66.3198 42.6442 66.3431C42.6463 66.3457 42.648 66.3487 42.6496 66.3512C42.6633 66.371 42.6764 66.3903 42.6895 66.41C42.695 66.4186 42.6999 66.4267 42.7054 66.4354C42.7152 66.4511 42.7251 66.4668 42.7349 66.4825C42.7398 66.4906 42.7447 66.4987 42.7497 66.5068C42.7589 66.523 42.7688 66.5393 42.7781 66.556C42.783 66.5646 42.7874 66.5732 42.7923 66.5813C42.8021 66.5996 42.812 66.6173 42.8213 66.6355C42.8251 66.6421 42.8289 66.6492 42.8322 66.6558C42.8448 66.6812 42.8579 66.706 42.8699 66.7318C42.8721 66.7364 42.8737 66.7405 42.8759 66.745C42.8863 66.7668 42.8962 66.7886 42.906 66.8104C42.9093 66.818 42.9126 66.8256 42.9158 66.8332C42.924 66.8525 42.9322 66.8712 42.9399 66.8905C42.9437 66.9001 42.9475 66.9097 42.9514 66.9194C42.9579 66.9361 42.9645 66.9523 42.9705 66.969C42.9749 66.9802 42.9787 66.9913 42.9831 67.0025C42.9896 67.0207 42.9956 67.0385 43.0017 67.0562C43.0049 67.0658 43.0082 67.0749 43.0115 67.0851C43.0295 67.1403 43.0465 67.1966 43.0618 67.2538L43.0689 67.2812C43.0738 67.301 43.0793 67.3213 43.0842 67.3415C43.0864 67.3512 43.0886 67.3608 43.0908 67.3709C43.0951 67.3907 43.1001 67.411 43.1044 67.4312L43.1104 67.4632C43.1148 67.4834 43.1186 67.5037 43.1219 67.5245C43.1241 67.5336 43.1257 67.5427 43.1274 67.5524C43.1323 67.5812 43.1367 67.6101 43.1411 67.6395C43.1411 67.6405 43.1416 67.6421 43.1416 67.6436C43.1465 67.675 43.1503 67.7064 43.1542 67.7378C43.1553 67.747 43.1558 67.7566 43.1569 67.7657C43.1591 67.7845 43.1613 67.8032 43.1629 67.8225C43.1635 67.8336 43.1646 67.8448 43.1656 67.8559C43.1673 67.8742 43.1684 67.8929 43.17 67.9112C43.1706 67.9213 43.1711 67.9314 43.1717 67.9421C43.1728 67.9613 43.1738 67.9801 43.1744 67.9994C43.1749 68.011 43.1755 68.0227 43.176 68.0343L43.1777 68.0855C43.1777 68.0997 43.1777 68.1134 43.1782 68.1276C43.1782 68.1438 43.1782 68.16 43.1782 68.1757C43.1782 68.1909 43.1777 68.2061 43.1777 68.2218C43.1777 68.2365 43.1771 68.2517 43.1766 68.267C43.1766 68.2822 43.176 68.2974 43.1755 68.3131C43.1744 68.3293 43.1738 68.3455 43.1733 68.3617C43.1728 68.3759 43.1717 68.3901 43.1711 68.4043C43.17 68.422 43.1684 68.4398 43.1673 68.458C43.1662 68.4712 43.1651 68.4854 43.164 68.4991C43.1624 68.5163 43.1607 68.5335 43.1591 68.5513L43.1547 68.5933C43.1525 68.6121 43.1503 68.6303 43.1482 68.6491C43.1465 68.6623 43.1454 68.6754 43.1432 68.6886C43.1405 68.7089 43.1378 68.7292 43.1345 68.7499L43.1296 68.7849C43.1247 68.8168 43.1192 68.8488 43.1137 68.8807C43.1055 68.9268 43.0962 68.9729 43.0864 69.0185C43.0847 69.0272 43.0831 69.0358 43.0815 69.0444C43.0716 69.089 43.0612 69.1331 43.0503 69.1767C43.0481 69.1853 43.0459 69.1934 43.0437 69.2015C43.0208 69.2922 42.9951 69.3814 42.9667 69.4696C42.9634 69.4787 42.9607 69.4878 42.9574 69.497C42.9448 69.5365 42.9311 69.576 42.9169 69.6151C42.9142 69.6216 42.912 69.6287 42.9093 69.6353C42.8967 69.6703 42.8836 69.7048 42.8699 69.7397C42.8666 69.7473 42.8639 69.7554 42.8606 69.763C42.8448 69.8021 42.8289 69.8411 42.812 69.8796C42.8092 69.8867 42.806 69.8938 42.8027 69.9009C42.7874 69.9354 42.7721 69.9693 42.7562 70.0038C42.7529 70.0104 42.7502 70.0175 42.7469 70.024C42.7333 70.0529 42.719 70.0813 42.7054 70.1102C42.7043 70.1112 42.7037 70.1127 42.7032 70.1143C42.6879 70.1447 42.6726 70.1746 42.6567 70.2045L42.6447 70.2268C42.6327 70.2496 42.6206 70.2719 42.6081 70.2942C42.6032 70.3033 42.5977 70.3124 42.5928 70.3215C42.5813 70.3418 42.5698 70.3616 42.5583 70.3813C42.5523 70.3915 42.5463 70.4016 42.5403 70.4118C42.5294 70.4305 42.5184 70.4493 42.5069 70.4675C42.5004 70.4781 42.4938 70.4893 42.4873 70.4999C42.4752 70.5192 42.4627 70.5385 42.4501 70.5577C42.4446 70.5663 42.4392 70.5744 42.4337 70.5831C42.4157 70.6109 42.3976 70.6383 42.3785 70.6657C42.3594 70.694 42.3402 70.7214 42.3205 70.7488C42.3156 70.7559 42.3107 70.7625 42.3058 70.769C42.2916 70.7888 42.2774 70.8086 42.2626 70.8278C42.2555 70.838 42.2478 70.8476 42.2402 70.8577C42.2276 70.8745 42.215 70.8907 42.2025 70.9069C42.1943 70.917 42.1866 70.9272 42.179 70.9368C42.1658 70.953 42.1533 70.9692 42.1401 70.9849C42.1319 70.9951 42.1237 71.0052 42.115 71.0149C42.1019 71.0316 42.0882 71.0478 42.0745 71.064C42.0669 71.0721 42.0598 71.0812 42.0521 71.0894C42.0336 71.1111 42.0144 71.1329 41.9953 71.1542C41.9926 71.1573 41.9898 71.1603 41.9876 71.1628C41.9658 71.1872 41.9439 71.211 41.9215 71.2343C41.9149 71.2414 41.9084 71.2485 41.9013 71.2556C41.8854 71.2723 41.869 71.289 41.8526 71.3058C41.845 71.3139 41.8373 71.3215 41.8297 71.3291C41.8143 71.3443 41.799 71.359 41.7843 71.3737C41.7755 71.3823 41.7668 71.3909 41.758 71.399C41.7422 71.4142 41.7263 71.4294 41.7099 71.4441C41.7006 71.4527 41.6919 71.4613 41.6821 71.47C41.664 71.4867 41.6454 71.5034 41.6268 71.5196L41.6083 71.5358C41.5842 71.5571 41.5591 71.5784 41.5345 71.5992C41.5263 71.6058 41.5181 71.6129 41.5099 71.6195C41.4924 71.6337 41.4754 71.6473 41.4579 71.6615C41.4475 71.6696 41.4366 71.6783 41.4262 71.6864C41.4098 71.699 41.394 71.7112 41.3776 71.7239C41.3683 71.731 41.359 71.7381 41.3492 71.7452C41.3295 71.7599 41.3103 71.7735 41.2912 71.7877C41.283 71.7933 41.2759 71.7989 41.2682 71.8039C41.242 71.8227 41.2158 71.8409 41.1895 71.8582C41.1819 71.8637 41.1742 71.8683 41.1671 71.8734C41.1469 71.8866 41.1278 71.8997 41.1081 71.9119C41.0977 71.919 41.0868 71.9251 41.0764 71.9317C41.0594 71.9423 41.043 71.9529 41.0261 71.9631C41.0146 71.9702 41.0031 71.9768 40.9916 71.9839C40.9731 71.995 40.9545 72.0057 40.9359 72.0163C40.9271 72.0209 40.9184 72.0264 40.9091 72.031C40.8528 72.0624 40.7959 72.0928 40.738 72.1212C40.7298 72.1253 40.7211 72.1298 40.7123 72.1334C40.6921 72.1435 40.6719 72.1531 40.6516 72.1628C40.6418 72.1673 40.6314 72.1719 40.6216 72.1759C40.6008 72.1856 40.58 72.1947 40.5593 72.2038C40.5511 72.2074 40.5429 72.2109 40.5341 72.2145C40.5084 72.2251 40.4822 72.2357 40.4559 72.2459C40.4521 72.2474 40.4488 72.2489 40.445 72.2504C40.4155 72.2616 40.3865 72.2727 40.357 72.2834C40.3461 72.2874 40.3346 72.291 40.3231 72.295C40.3073 72.3006 40.2909 72.3062 40.275 72.3118C40.2652 72.3148 40.2553 72.3173 40.246 72.3209C40.2285 72.326 40.2116 72.3315 40.1941 72.3366C40.1826 72.3401 40.1706 72.3432 40.1591 72.3467C40.1444 72.3513 40.1296 72.3554 40.1148 72.3594C40.1012 72.3635 40.0875 72.3665 40.0738 72.3706C40.0607 72.3741 40.047 72.3771 40.0339 72.3807C40.0197 72.3842 40.006 72.3873 39.9918 72.3903C39.9776 72.3939 39.964 72.3969 39.9497 72.3999C39.9366 72.403 39.9235 72.4055 39.9104 72.4081C39.8945 72.4116 39.8787 72.4146 39.8628 72.4172C39.8508 72.4197 39.8393 72.4217 39.8273 72.4238C39.8114 72.4268 39.7956 72.4293 39.7797 72.4319C39.7672 72.4339 39.754 72.4359 39.7415 72.438C39.7256 72.44 39.7103 72.442 39.6945 72.444C39.6824 72.4461 39.6699 72.4476 39.6578 72.4491C39.6414 72.4506 39.6256 72.4521 39.6092 72.4542C39.5972 72.4552 39.5846 72.4567 39.572 72.4577C39.5556 72.4592 39.5392 72.4603 39.5223 72.4613C39.5108 72.4623 39.4993 72.4633 39.4878 72.4638C39.4676 72.4653 39.4474 72.4658 39.4266 72.4668C39.419 72.4674 39.4113 72.4679 39.4031 72.4679C39.3747 72.4689 39.3463 72.4694 39.3178 72.4694C39.2894 72.4694 39.2615 72.4689 39.2336 72.4679C39.226 72.4679 39.2183 72.4674 39.2107 72.4668C39.1905 72.4658 39.1702 72.4653 39.15 72.4643C39.1391 72.4633 39.1281 72.4623 39.1167 72.4618C39.1014 72.4603 39.086 72.4592 39.0707 72.4582C39.0565 72.4567 39.0418 72.4552 39.0281 72.4537C39.015 72.4521 39.0024 72.4511 38.9898 72.4496C38.9795 72.4486 38.9691 72.4471 38.9592 72.4456C38.939 72.443 38.9199 72.44 38.9002 72.4369C38.8898 72.4354 38.8794 72.4339 38.869 72.4319C38.8504 72.4288 38.8324 72.4258 38.8138 72.4222C38.804 72.4202 38.7947 72.4182 38.7848 72.4162C38.752 72.4096 38.7193 72.4025 38.687 72.3949C38.6799 72.3929 38.6728 72.3908 38.6657 72.3888C38.6383 72.3822 38.6116 72.3746 38.5848 72.367C38.5766 72.3645 38.5689 72.3624 38.5613 72.3599C38.5296 72.3503 38.4984 72.3407 38.4672 72.3295C38.4607 72.3275 38.4541 72.3249 38.4476 72.3224Z" fill="#C5B6C1"/>
<path fill-rule="evenodd" clip-rule="evenodd" d="M73.1629 86.8383C73.1487 86.8383 73.135 86.8383 73.1203 86.8378L71.0127 86.7396C69.8613 86.6861 68.7725 86.1688 68.0242 85.3207C67.2764 84.4719 66.9217 83.3498 67.048 82.242C67.9331 74.4611 70.437 61.5045 77.5196 62.1872C77.9959 62.233 78.3443 62.6444 78.2964 63.1056C78.2495 63.5674 77.8333 63.9095 77.347 63.8581C71.409 63.2864 69.2845 77.9257 68.773 82.4258C68.6988 83.0764 68.9072 83.7342 69.345 84.2316C69.7823 84.728 70.4212 85.0315 71.0953 85.0625L73.2034 85.1603C73.6823 85.1832 74.0517 85.5762 74.0291 86.039C74.0059 86.4886 73.6234 86.8383 73.1629 86.8383Z" fill="#5A3C55"/>
<path fill-rule="evenodd" clip-rule="evenodd" d="M73.2746 86.8383C73.2609 86.8383 73.2477 86.8383 73.2334 86.8379L71.1987 86.7515C70.7363 86.7318 70.8171 85.2627 71.2784 85.2766L73.3137 85.3626C73.7761 85.3827 74.1327 85.7284 74.1109 86.1354C74.0885 86.5307 73.7186 86.8383 73.2746 86.8383Z" fill="#C5B6C1"/>
<path fill-rule="evenodd" clip-rule="evenodd" d="M78.6435 87.4631C78.3812 87.4631 78.1178 87.4398 77.8576 87.3911L75.7838 87.0086C75.3129 86.9215 75.0043 86.4837 75.0943 86.0307C75.1849 85.5778 75.6448 85.2809 76.1109 85.368L78.1847 85.7511C78.8473 85.8732 79.5442 85.7257 80.0931 85.3437C80.6382 84.9632 81.0012 84.374 81.0881 83.727C81.6864 79.2587 83.1782 64.6167 77.2719 63.8243C76.7973 63.761 76.4654 63.3389 76.5318 62.8819C76.5982 62.4249 77.0354 62.1032 77.5115 62.1701C84.5308 63.1109 83.845 76.2142 82.811 83.9408C82.6625 85.0422 82.0436 86.0465 81.1118 86.6965C80.3912 87.1981 79.5221 87.4631 78.6435 87.4631Z" fill="#5A3C55"/>
<path fill-rule="evenodd" clip-rule="evenodd" d="M77.5318 63.7231C77.4741 63.7231 77.4164 63.7176 77.3576 63.706C76.8938 63.6131 76.5958 63.1723 76.691 62.7219C77.0758 60.9194 76.8813 56.6328 76.5984 53.5085C76.3717 51.0022 75.4228 51.0118 74.9793 51.0188H74.9689C74.5004 51.0188 74.1166 50.6523 74.112 50.1959C74.1068 49.7359 74.4863 49.3592 74.959 49.3542C76.9375 49.3708 78.0642 50.6801 78.306 53.3631C78.4553 55.0086 78.9003 60.571 78.3705 63.0592C78.2868 63.4525 77.9301 63.7231 77.5318 63.7231Z" fill="#5A3C55"/>
<path fill-rule="evenodd" clip-rule="evenodd" d="M78.1746 87.4631C78.1175 87.4631 78.0593 87.4577 78.0017 87.4469L75.8203 87.0392C75.325 86.947 75.0003 86.481 75.095 85.9989C75.1898 85.5163 75.6701 85.1976 76.1649 85.2936L78.3458 85.7007C78.8411 85.7935 78.6034 87.4631 78.1746 87.4631Z" fill="#C5B6C1"/>
<path fill-rule="evenodd" clip-rule="evenodd" d="M55.5968 49.1398C54.4002 49.7994 52.8618 50.9661 52.0631 51.6267C50.3799 52.9882 48.8254 54.5178 47.3224 56.3585C46.231 57.6863 45.063 58.9723 44.2217 59.8715C44.0237 60.0815 43.8435 60.2665 43.6887 60.426C43.5944 60.527 43.5173 60.6106 43.4397 60.6865C43.4246 60.7013 43.4116 60.7166 43.3996 60.7334C43.3376 60.819 43.3329 60.9327 43.3881 61.0224C43.4027 61.0459 43.4194 61.0719 43.4376 61.0994C43.6585 61.4327 43.9461 61.7116 44.2884 61.9256L46.1711 63.1067C46.1711 63.1067 43.1219 66.3592 41.8935 67.3843C41.559 67.6702 41.5674 67.9388 41.5674 68.0652V68.0821C41.7737 72.9815 44.4363 77.6118 46.6004 79.5702C48.6279 81.3853 49.289 84.6715 49.4005 85.2765C49.2031 83.0327 48.7566 81.4694 48.2414 79.9316C47.6829 78.2424 47.013 76.5786 46.4889 74.0738C45.3152 68.5271 50.3487 57.6195 52.6128 54.1733C53.8589 52.2455 54.7461 50.8025 56.4293 50.0772C56.5517 50.0246 56.646 49.9232 56.6882 49.7988C56.7299 49.674 56.7163 49.5379 56.6497 49.4237C56.4382 49.0618 55.9682 48.9349 55.5968 49.1398Z" fill="#FAF9FA"/>
<path fill-rule="evenodd" clip-rule="evenodd" d="M77.975 59.4198C77.7782 57.7729 76.9216 55.3111 76.2624 53.5383C75.6048 51.7446 74.0927 50.0595 73.2917 49.2477C73.1593 49.1137 72.9764 49.0393 72.7869 49.0419C72.5967 49.0449 72.4165 49.1249 72.2882 49.2625C72.1448 49.4169 72.1038 49.6381 72.1827 49.8322C72.2617 50.0269 72.271 50.2705 72.2887 50.5308C72.3053 51.0603 72.323 51.6147 72.3142 51.6315C72.3261 52.0417 72.2939 52.6267 72.2627 52.9926V53.0007C72.0487 55.5883 71.0124 60.0919 66.953 65.9225C60.3925 75.3745 58.1921 77.6345 58.3288 84.0107C58.3376 84.448 58.363 85.0778 58.3885 85.9013C58.4145 83.8767 60.6839 79.3731 62.6536 76.9032C64.3667 74.7442 72.7682 69.3167 74.7893 68.0311C75.0371 67.8802 75.1062 67.5704 74.9612 67.3437C74.9607 67.3426 74.9602 67.3421 74.9602 67.3416L71.8513 62.5618C71.8513 62.5618 76.185 60.6041 77.6582 59.9406C77.881 59.8484 78.001 59.6298 77.975 59.4198Z" fill="#FAF9FA"/>
<path fill-rule="evenodd" clip-rule="evenodd" d="M80.8784 19.6363C80.8784 9.99953 71.923 2.18658 60.8774 2.18658C59.2332 2.18658 57.5912 2.36882 55.9988 2.72766C51.152 3.81951 46.8447 6.53511 44.0928 10.2109C42.687 12.0893 41.8139 14.1275 41.241 16.3082C40.5212 19.0529 40.6999 21.8078 40.6999 24.6438C40.6999 27.2436 40.4488 29.954 40.7442 32.5441C41.2579 37.0661 43.8878 41.4938 48.093 44.166C52.8426 47.1833 59.0208 45.8066 63.8793 43.7556C68.6384 41.747 73.0355 38.3239 75.9169 34.5032C79.1185 30.2567 80.7796 25.1839 80.8742 20.1146C80.8768 19.9553 80.8784 19.7956 80.8784 19.6363Z" fill="#FFA898"/>
<path fill-rule="evenodd" clip-rule="evenodd" d="M74.8777 21.938C73.623 21.6227 72.4562 22.3548 72.2454 23.8542C71.9847 25.7119 73.128 25.8435 72.9032 27.5093C72.7644 28.5409 72.3548 28.9118 72.213 29.9286C72.0831 30.8459 72.3034 31.9311 73.1365 32.1408C74.5036 32.4842 76.2643 30.099 76.7827 27.7735C77.3137 25.3904 77.016 22.4762 74.8777 21.938Z" fill="#F48989"/>
<path fill-rule="evenodd" clip-rule="evenodd" d="M58.0607 35.3194C58.0498 35.3338 56.8434 36.7787 53.6519 36.7787C50.4911 36.7787 49.2968 35.3866 49.2347 35.3114C48.9506 34.9528 48.4178 34.8781 48.0383 35.1461C47.6562 35.4155 47.5759 35.9295 47.8579 36.2946C47.9252 36.3818 49.5486 38.4213 53.6519 38.4213C57.7537 38.4213 59.3765 36.3818 59.4438 36.2946C59.7258 35.9295 59.6445 35.4155 59.2624 35.1461C58.8797 34.8766 58.3427 34.9543 58.0607 35.3194Z" fill="#D63E39"/>
<path fill-rule="evenodd" clip-rule="evenodd" d="M60.3522 30.0034C59.3713 29.8769 58.4712 30.5114 58.3389 31.4063C58.2083 32.3006 58.896 33.1232 59.8763 33.2424C59.9517 33.2516 60.5502 33.4 60.6931 33.6961C60.9884 34.3084 61.6442 34.6729 62.333 34.6729C62.5736 34.6729 62.8184 34.6288 63.052 34.5347C63.958 34.1722 64.3691 33.208 63.9713 32.3815C63.0096 30.383 60.6214 30.0364 60.3522 30.0034Z" fill="#F8918C"/>
<path fill-rule="evenodd" clip-rule="evenodd" d="M48.318 31.406C48.1863 30.5118 47.2881 29.8773 46.306 30.0033C46.0369 30.0363 43.6481 30.3828 42.6856 32.3808C42.288 33.2072 42.6989 34.1712 43.604 34.5348C43.8387 34.6283 44.0828 34.6729 44.3233 34.6729C45.0113 34.6729 45.6674 34.3084 45.9626 33.6967C46.0889 33.4335 46.5906 33.2736 46.804 33.2401C47.7717 33.1097 48.448 32.2935 48.318 31.406Z" fill="#F8918C"/>
<path fill-rule="evenodd" clip-rule="evenodd" d="M64.9658 22.8521C63.1933 20.7028 59.8855 21.3149 59.7457 21.3415C59.438 21.4012 59.2394 21.6891 59.3003 21.9858C59.3617 22.2809 59.6535 22.4667 59.9692 22.4151C59.9956 22.408 62.7315 21.902 64.0771 23.5327C64.1889 23.6695 64.3541 23.74 64.5215 23.74C64.6454 23.74 64.7704 23.7007 64.8747 23.6205C65.1204 23.4326 65.1612 23.089 64.9658 22.8521Z" fill="#893327"/>
<path fill-rule="evenodd" clip-rule="evenodd" d="M47.0123 22.4148C47.3206 22.4705 47.6183 22.28 47.6781 21.9838C47.7401 21.6881 47.5415 21.4012 47.2342 21.3409C47.0949 21.3154 43.7853 20.7026 42.0128 22.8519C41.8174 23.0889 41.8587 23.4326 42.104 23.621C42.2088 23.7007 42.3333 23.74 42.4567 23.74C42.6241 23.74 42.7899 23.669 42.9012 23.5332C44.2387 21.9118 46.9842 22.4092 47.0123 22.4148Z" fill="#893327"/>
<path fill-rule="evenodd" clip-rule="evenodd" d="M44.4671 26.1684V27.561C44.4671 28.211 45.0431 28.7379 45.7534 28.7379H45.7563C46.4677 28.7379 47.0449 28.2099 47.0449 27.5584V26.1684C47.0449 25.5174 46.4677 24.9894 45.7563 24.9894C45.0437 24.9894 44.4671 25.5174 44.4671 26.1684Z" fill="#532442"/>
<path fill-rule="evenodd" clip-rule="evenodd" d="M61.2196 28.7379H61.2225C61.9345 28.7379 62.5117 28.2099 62.5117 27.5589V26.1684C62.5117 25.5174 61.9345 24.9894 61.2225 24.9894C60.5111 24.9894 59.9339 25.5174 59.9339 26.1684V27.561C59.9339 28.2115 60.5094 28.7379 61.2196 28.7379Z" fill="#532442"/>
<path fill-rule="evenodd" clip-rule="evenodd" d="M80.7731 30.6907C80.5203 31.3136 80.2421 31.911 79.91 32.4921C78.7766 34.5544 77.2154 36.2802 75.2798 37.4842C75.2798 37.4842 75.21 36.4905 75.0968 35.2447C75.0006 34.1923 74.8705 32.972 74.7393 32.0039C74.6261 31.2294 74.513 30.6233 74.3998 30.3961C72.8825 29.7645 58.3901 20.5043 59.166 9.2824C59.001 9.42588 48.4243 22.1203 40.4105 23.383C39.3818 24.0146 38.9894 20.9255 38.9894 20.9255C38.9894 20.9255 41.4655 7.9523 49.4095 4.65231C55.4084 2.1606 62.1223 -2.49501 72.6641 5.07355C81.8895 11.6985 83.9473 22.9036 80.7731 30.6907Z" fill="#9F462C"/>
<path fill-rule="evenodd" clip-rule="evenodd" d="M83.633 43.5317C81.1849 45.7655 74.2137 47.7226 69.5078 46.3783L69.3947 44.3462L69.2028 40.8103C71.5299 39.2057 73.6123 37.3162 75.276 35.2837C75.1016 33.4024 74.8321 30.9501 74.5795 30.4462C73.0631 29.8161 58.5806 20.5773 59.3554 9.3813C59.1905 9.52394 48.6206 22.1896 40.6125 23.4494C40.621 23.8697 40.6209 24.2894 40.6209 24.7173C40.6209 27.3133 40.3773 30.0173 40.6733 32.6041C41.1875 37.1145 43.81 41.5322 48.0192 44.1949C51.147 46.1771 54.8952 46.2611 58.476 45.4965L58.5283 46.4119C58.5283 46.4119 50.2057 48.5876 44.1324 45.5556C41.0564 44.0268 38.556 41.1547 38.0159 35.9806C36.4647 21.2747 40.5258 8.18876 52.5851 2.3004C57.216 0.0452042 66.2637 -1.26604 69.0205 1.80575C69.2726 2.08644 69.6494 2.23264 70.0331 2.19699C71.42 2.06861 74.7475 2.27136 77.1322 6.55047C77.5513 7.28964 78.2299 8.4236 79.0761 9.83469L79.0846 9.84284C84.1996 18.452 94.918 37.5429 83.633 43.5317Z" fill="#9F462C"/>
<path fill-rule="evenodd" clip-rule="evenodd" d="M69.4676 44.3563L69.2786 40.7C71.5772 39.0413 73.6345 37.087 75.2788 34.9852C75.2788 34.9852 76.7513 44.2177 69.4676 44.3563Z" fill="#893327"/>
<path fill-rule="evenodd" clip-rule="evenodd" d="M55.4229 8.12182C55.4229 8.12182 45.7136 7.96682 40.4503 15.6242C39.4315 18.1392 38.7475 20.8679 38.345 23.74C40.5391 23.0288 46.4821 20.0969 55.4229 8.12182Z" fill="#B55C32"/>
<path fill-rule="evenodd" clip-rule="evenodd" d="M40.2783 23.1153C40.2783 23.1153 51.761 10.0747 55.4229 8.12158C54.2742 10.2144 45.5979 21.6459 40.2783 23.1153Z" fill="#893327"/>
<path fill-rule="evenodd" clip-rule="evenodd" d="M58.645 46.0989C58.645 46.0989 50.379 48.2767 44.3471 45.2413C43.8542 44.9894 43.4122 44.6534 43.0143 44.2246C44.5287 44.2582 45.0395 42.8795 45.0395 42.8795C40.9199 42.3247 39.7519 35.1537 39.7519 35.1537C38.9986 29.395 39.4401 23.4344 39.4401 23.4344L40.8506 23.1152C40.859 23.5359 40.859 23.956 40.859 24.3843C40.859 26.9822 40.6175 29.6892 40.9115 32.2784C41.4217 36.793 44.0269 41.2147 48.2069 43.8799C51.3139 45.8639 55.0362 45.948 58.5925 45.1827L58.645 46.0989Z" fill="#893327"/>
<path fill-rule="evenodd" clip-rule="evenodd" d="M82.1675 32.1458C81.8654 32.423 80.9952 32.5071 79.9353 32.4821C78.2033 32.4566 75.9633 32.1626 74.8255 31.995C74.7136 31.222 74.6013 30.6171 74.4899 30.3903C74.4899 30.3903 76.4368 30.8352 79.4529 30.7934C76.8763 27.8532 73.3867 21.6777 73.1452 21.241C73.4556 21.6528 77.7904 27.3406 80.7882 30.6844C81.2962 31.2551 81.7619 31.7514 82.1675 32.1458Z" fill="#893327"/>
<path fill-rule="evenodd" clip-rule="evenodd" d="M72.6747 83.7147C73.2896 83.7147 73.7896 83.0239 73.7896 82.1738V74.3226C73.7896 73.4726 73.2896 72.7818 72.6747 72.7818H63.9488C63.3339 72.7818 62.8339 73.4726 62.8339 74.3226V82.1738C62.8339 83.0239 63.3339 83.7147 63.9488 83.7147H72.6747Z" fill="#D9D0D8"/>
<path fill-rule="evenodd" clip-rule="evenodd" d="M63.1561 74.2384C63.1561 73.7791 63.4221 73.4066 63.75 73.4066H72.5511C72.879 73.4066 73.145 73.7791 73.145 74.2384V82.2581C73.145 82.7174 72.879 83.09 72.5511 83.09H63.75C63.4221 83.09 63.1561 82.7174 63.1561 82.2581V74.2384Z" fill="#F0ECEF"/>
<path fill-rule="evenodd" clip-rule="evenodd" d="M72.5005 79.128C72.5005 79.2458 72.4302 79.3416 72.3438 79.3416H70.4016C70.3152 79.3416 70.2449 79.2458 70.2449 79.128V76.119C70.2449 76.0013 70.3152 75.9055 70.4016 75.9055H72.3438C72.4302 75.9055 72.5005 76.0013 72.5005 76.119V79.128Z" fill="#B3A0AE"/>
<path fill-rule="evenodd" clip-rule="evenodd" d="M68.9561 78.5372C68.9561 78.6109 68.8793 78.6706 68.7843 78.6706H66.8723C66.7773 78.6706 66.7005 78.6109 66.7005 78.5372C66.7005 78.4641 66.7773 78.4044 66.8723 78.4044H68.7843C68.8793 78.4044 68.9561 78.4641 68.9561 78.5372Z" fill="#CABAC4"/>
<path fill-rule="evenodd" clip-rule="evenodd" d="M68.6338 76.359C68.6338 76.4535 68.5616 76.5303 68.4728 76.5303H64.9281C64.8388 76.5303 64.7671 76.4535 64.7671 76.359V76.0768C64.7671 75.9823 64.8388 75.9055 64.9281 75.9055H68.4728C68.5616 75.9055 68.6338 75.9823 68.6338 76.0768V76.359Z" fill="#CABAC4"/>
<path fill-rule="evenodd" clip-rule="evenodd" d="M63.8006 78.5372C63.8006 78.4638 63.8774 78.4044 63.9719 78.4044H65.8849C65.9799 78.4044 66.0562 78.4641 66.0562 78.5372C66.0562 78.6109 65.9799 78.6706 65.8849 78.6706H63.9724C63.8774 78.6706 63.8006 78.6109 63.8006 78.5372Z" fill="#CABAC4"/>
<path fill-rule="evenodd" clip-rule="evenodd" d="M63.8004 79.1626C63.8004 79.0888 63.8712 79.0292 63.9587 79.0292H68.4761C68.563 79.0292 68.6338 79.0888 68.6338 79.1626C68.6338 79.2363 68.563 79.2953 68.4761 79.2953H63.9587C63.8712 79.2953 63.8004 79.2363 63.8004 79.1626Z" fill="#CABAC4"/>
<path fill-rule="evenodd" clip-rule="evenodd" d="M73.145 80.591V82.2303C73.145 82.705 72.879 83.0899 72.5511 83.0899H63.75C63.4221 83.0899 63.1561 82.705 63.1561 82.2303V80.591H73.145Z" fill="#54939B"/>
<path fill-rule="evenodd" clip-rule="evenodd" d="M67.847 71.22H68.4539C68.5534 71.22 68.6338 71.3 68.6338 71.3979V74.7905C68.6338 74.8884 68.5534 74.9684 68.4539 74.9684H67.847C67.7475 74.9684 67.6671 74.8884 67.6671 74.7905V71.3979C67.6671 71.3 67.7475 71.22 67.847 71.22Z" fill="#B3A0AE"/>
<path fill-rule="evenodd" clip-rule="evenodd" d="M67.8183 70.9076H68.4821C68.5655 70.9076 68.6338 71.0178 68.6338 71.1546V73.0942H67.6671V71.1546C67.6671 71.0178 67.7344 70.9076 67.8183 70.9076Z" fill="#CABAC4"/>
<path fill-rule="evenodd" clip-rule="evenodd" d="M6.0744 107.002C6.44952 106.042 6.98819 105.159 7.67827 104.378L10.082 101.659C10.5399 101.141 11.3434 101.083 11.8763 101.53C11.9322 101.577 11.9823 101.628 12.0277 101.681C12.1807 101.861 12.4071 101.967 12.6471 101.969C12.8872 101.971 13.1167 101.872 13.2734 101.694L13.3235 101.638C13.7814 101.119 14.5844 101.061 15.1173 101.508C15.5905 101.906 15.6902 102.568 15.3842 103.074C15.3463 103.138 15.3014 103.199 15.2502 103.256C15.1885 103.326 15.1716 103.422 15.2064 103.507C15.2407 103.592 15.3204 103.651 15.4138 103.661C15.6586 103.686 15.8981 103.781 16.0991 103.95C16.632 104.396 16.6874 105.178 16.2331 105.698C16.1667 105.773 16.1471 105.877 16.182 105.97C16.2168 106.063 16.3001 106.131 16.4004 106.147C16.5887 106.177 16.7702 106.259 16.9227 106.393C17.3495 106.767 17.3812 107.405 16.9981 107.825L15.2397 109.723C15.0308 109.949 14.9247 110.248 14.9469 110.55C14.9685 110.853 15.1157 111.134 15.3542 111.329C17.7056 113.255 18.908 115.681 18.1324 117.353C17.1501 119.47 13.3725 119.575 9.69472 117.588C2.66143 113.788 3.46601 113.697 6.0744 107.002Z" fill="#FFA898"/>
<path fill-rule="evenodd" clip-rule="evenodd" d="M78.3008 126.509V122.957C78.3008 122.676 78.0508 122.448 77.7422 122.448H72.0439H65.3259C65.0173 122.448 64.7674 122.676 64.7674 122.957V126.509H64.8292H78.3008Z" fill="#FAF9FA"/>
<mask id="mask15" mask-type="alpha" maskUnits="userSpaceOnUse" x="64" y="126" width="15" height="8">
<path fill-rule="evenodd" clip-rule="evenodd" d="M78.1689 126.567H64.4882V133.993H78.1689V126.567Z" fill="white"/>
</mask>
<g mask="url(#mask15)">
<path fill-rule="evenodd" clip-rule="evenodd" d="M78.1689 126.567H64.6997H64.6378L64.4886 138.037C64.471 139.04 65.0423 139.967 65.9648 140.43C68.8201 141.897 73.8636 141.888 76.7018 140.422C77.6067 139.95 78.1689 139.048 78.1689 138.062V126.567Z" fill="#E1D9DF"/>
</g>
</svg>
