<?xml version="1.0" encoding="UTF-8"?>
<svg width="408px" height="418px" viewBox="0 0 408 418" version="1.1" xmlns="http://www.w3.org/2000/svg" xmlns:xlink="http://www.w3.org/1999/xlink">
    <defs>
        <polygon id="path-1" points="0 417.976364 406.501455 417.976364 406.501455 0 0 0"></polygon>
    </defs>
    <g id="Page-1" stroke="none" stroke-width="1" fill="none" fill-rule="evenodd">
        <g id="frontpage-ui" transform="translate(-193.000000, -1101.000000)">
            <g id="block-1" transform="translate(0.000000, 1037.000000)">
                <g id="illustration" transform="translate(396.636364, 274.000000) scale(-1, 1) translate(-396.636364, -274.000000) translate(193.000000, 64.000000)">
                    <path d="M107.729236,257.789127 C105.232145,254.561491 105.820145,249.921127 109.047782,247.421491 L157.887418,209.585855 C165.108873,203.990945 169.718691,195.921855 170.869236,186.862582 L178.648145,125.573127 C179.159782,121.523309 182.863418,118.657127 186.908145,119.171309 C190.957964,119.685491 193.824145,123.384036 193.309964,127.433855 L185.528509,188.723309 C183.8816,201.700036 177.278691,213.258945 166.939055,221.266945 L118.096873,259.107673 C114.871782,261.604764 110.228873,261.016764 107.729236,257.789127" id="Fill-1" fill="#FFA898"></path>
                    <path d="M102.775018,272.984982 C102.436473,272.506436 102.283745,271.961709 102.296473,271.427164 C102.299018,271.274436 102.2252,271.131891 102.105564,271.045345 C101.983382,270.956255 101.828109,270.933345 101.685564,270.984255 C100.420473,271.419527 98.9721091,270.996982 98.1575636,269.854073 C97.6790182,269.174436 97.5135636,268.375164 97.6230182,267.624255 C97.6459273,267.463891 97.5848364,267.306073 97.4601091,267.201709 C97.3353818,267.097345 97.1699273,267.069345 97.0172,267.1228 C95.5357455,267.636982 93.8913818,267.115164 92.9750182,265.832255 C92.1299273,264.646073 92.0382909,262.9508 93.0615636,261.632255 C93.1633818,261.499891 93.1837455,261.324255 93.1201091,261.171527 C93.0564727,261.0188 92.9164727,260.914436 92.7510182,260.894073 C91.9135636,260.797345 91.1219273,260.364618 90.5950182,259.623891 C89.5997455,258.211164 89.9255636,256.294436 91.3179273,255.304255 C91.3179273,255.304255 93.8048364,253.474073 94.7848364,252.7308 C94.9935636,252.572982 95.0419273,252.277709 94.8892,252.063891 C92.8935636,249.210436 96.0041091,245.837709 100.967745,243.775891 C106.799382,241.355164 118.892836,239.970436 123.090291,246.563164 C126.587745,252.056255 124.9052,260.451164 117.811018,265.702436 C116.548473,266.636618 118.8852,264.992255 106.471018,273.644255 C105.269564,274.481709 103.615018,274.186436 102.775018,272.984982" id="Fill-3" fill="#FFA898"></path>
                    <path d="M167.945273,222.567927 C178.557273,214.348655 185.468182,202.250109 187.158364,188.932291 L194.896545,127.981382 C195.174,125.7872 194.794727,123.514109 193.600909,121.650836 C192.127091,119.354836 189.785273,117.881018 187.117636,117.542473 C184.724909,117.237018 182.355091,117.883564 180.448545,119.362473 C178.539455,120.838836 177.322727,122.971927 177.019818,125.364655 L169.238364,186.654109 C168.151455,195.219564 163.707091,203.001018 156.880182,208.287927 L126.416182,231.889382 C126.057273,232.166836 125.991091,232.683564 126.268545,233.039927 L136.325636,246.024291 C136.603091,246.380655 137.119818,246.449382 137.476182,246.169382 L167.945273,222.567927 Z" id="Fill-5" fill="#CADCEC"></path>
                    <path d="M126.273382,233.040691 L136.327927,246.022509 L126.749382,253.445055 C126.390473,253.722509 125.873745,253.658873 125.596291,253.299964 L116.544655,241.613782 C116.2672,241.257418 116.333382,240.740691 116.689745,240.463236 L126.273382,233.040691 Z" id="Fill-7" fill="#B3CAE2"></path>
                    <path d="M161.864945,142.716764 L166.164218,142.716764 C167.3504,142.716764 168.383855,143.5364 168.663855,144.702218 L177.338764,180.781491 L181.032218,196.143309 C181.429309,197.782582 180.2024,199.363309 178.537673,199.363309 L168.080945,199.363309 L151.370036,199.363309 C150.183855,199.363309 149.152945,198.543673 148.872945,197.377855 L144.237673,178.101127 L136.502036,145.934218 C136.107491,144.294945 137.331855,142.716764 138.999127,142.716764 L161.864945,142.716764 Z" id="Fill-9" fill="#9E8697"></path>
                    <path d="M291.223164,349.032727 L277.536255,349.032727 C275.739164,349.032727 274.288255,350.488727 274.288255,352.283273 L274.288255,371.567636 L294.473709,371.567636 L294.473709,352.283273 C294.473709,350.488727 293.020255,349.032727 291.223164,349.032727" id="Fill-11" fill="#614255"></path>
                    <mask id="mask-2" fill="white">
                        <use xlink:href="#path-1"></use>
                    </mask>
                    <g id="Clip-14"></g>
                    <polygon id="Fill-13" fill="#BEB4BF" mask="url(#mask-2)" points="276.988727 349.032727 291.770182 349.032727 291.770182 313.437091 276.988727 313.437091"></polygon>
                    <path d="M404.821709,172.230545 C406.532255,174.628364 406.964982,177.710909 405.990073,180.493091 C401.143527,194.358182 392.914073,216.974545 386.153345,230.959273 C381.212618,241.214909 372.112618,260.738545 364.015527,278.215636 C354.072982,299.663636 332.540982,313.432 308.893709,313.432 L303.596618,313.432 L216.399527,313.432 C207.151891,313.432 197.848255,311.894545 189.099527,308.908727 C181.213709,306.218182 172.938436,302.206545 169.295891,296.581091 C167.531891,293.854909 164.622436,288.165818 161.376982,281.468727 C165.584618,290.057091 171.535891,291.604727 183.364618,291.648 C183.596255,291.658182 183.843164,291.658182 184.079891,291.658182 L233.497345,291.658182 C242.961345,291.658182 251.702436,286.554545 256.319891,278.289455 L259.389709,272.786182 L259.402436,272.786182 L262.314436,267.560364 C269.871891,254.054182 283.619891,245.142545 299.040255,243.755273 L374.581709,236.981818 C377.900982,236.691636 380.790073,234.573818 382.072982,231.488727 C386.166073,221.681091 394.968255,200.513091 396.612618,196.078909 C398.776255,190.270182 404.724982,178.914909 403.373345,174.048 C402.019164,169.178545 396.612618,168.409818 396.612618,168.409818 L397.424618,168.409818 C400.367164,168.409818 403.123891,169.840364 404.821709,172.230545" id="Fill-15" fill="#574561" mask="url(#mask-2)"></path>
                    <path d="M403.372327,174.047745 C404.723964,178.914655 398.775236,190.269927 396.614145,196.078655 C394.967236,200.512836 386.165055,221.680836 382.074509,231.488473 C380.789055,234.573564 377.899964,236.691382 374.580691,236.984109 L299.041782,243.755018 C283.618873,245.142291 269.873418,254.053927 262.313418,267.560109 L259.401418,272.785927 L259.391236,272.785927 L178.651964,272.785927 C171.349055,272.785927 163.605782,273.412109 166.665418,281.437927 C169.630873,289.204109 177.939236,291.507745 183.3636,291.637564 L183.3636,291.647745 C171.534873,291.607018 165.5836,290.056836 161.378509,281.468473 C161.335236,281.374291 161.281782,281.275018 161.238509,281.180836 C155.865055,270.072473 149.610873,256.271018 146.149055,248.568473 C145.499964,247.130291 145.555964,245.465564 146.301782,244.057927 C147.037418,242.663018 148.389055,241.667745 149.944327,241.397927 C156.045782,240.303382 166.275964,238.771018 179.754145,237.806291 C188.4596,237.192836 205.918873,236.917927 230.337418,233.099745 C268.852691,227.089927 268.295236,210.939018 284.255236,190.669564 C295.809055,176.015382 314.271236,168.409564 332.929418,168.409564 L348.482145,168.409564 L352.267236,168.409564 L381.198873,168.409564 L384.983964,168.409564 L396.614145,168.409564 C396.614145,168.409564 402.020691,169.178291 403.372327,174.047745" id="Fill-16" fill="#61506B" mask="url(#mask-2)"></path>
                    <path d="M183.364618,291.638327 C177.937709,291.505964 169.629345,289.204873 166.663891,281.438691 C163.604255,273.412873 171.347527,272.786691 178.650436,272.786691 L259.389709,272.786691 L256.319891,278.289964 C251.702436,286.555055 242.961345,291.658691 233.497345,291.658691 L184.079891,291.658691 C183.840618,291.658691 183.596255,291.658691 183.364618,291.648509 L183.364618,291.638327 Z" id="Fill-17" fill="#6F617B" mask="url(#mask-2)"></path>
                    <path d="M284.379964,371.566618 L267.198145,371.566618 C265.584327,371.566618 263.906873,371.620073 262.298145,371.724436 C231.566873,373.712436 201.189418,378.994255 171.501782,388.000073 C171.033418,388.142618 170.7356,388.610982 170.806873,389.102255 C170.880691,389.590982 171.298145,389.954982 171.794509,389.954982 L189.095964,389.954982 C191.794145,389.954982 194.471964,389.629164 197.096327,388.9928 C224.368327,382.359345 254.501418,378.1008 284.379964,377.334618 L284.379964,371.566618 Z" id="Fill-18" fill="#725564" mask="url(#mask-2)"></path>
                    <path d="M284.379964,371.566618 L301.561782,371.566618 C303.1756,371.566618 304.853055,371.620073 306.461782,371.724436 C337.190509,373.712436 367.567964,378.994255 397.2556,388.000073 C397.729055,388.142618 398.026873,388.610982 397.953055,389.102255 C397.881782,389.590982 397.461782,389.954982 396.965418,389.954982 L379.663964,389.954982 C376.963236,389.954982 374.287964,389.629164 371.666145,388.9928 C344.389055,382.359345 314.261055,378.1008 284.379964,377.334618 L284.379964,371.566618 Z" id="Fill-19" fill="#725564" mask="url(#mask-2)"></path>
                    <path d="M291.297745,371.566618 L277.4632,371.566618 L277.4632,387.796436 C277.4632,388.987709 278.427927,389.952436 279.6192,389.952436 L289.141745,389.952436 C290.333018,389.952436 291.297745,388.987709 291.297745,387.796436 L291.297745,371.566618 Z" id="Fill-20" fill="#725564" mask="url(#mask-2)"></path>
                    <path d="M341.786836,303.746545 C332.172655,309.944727 320.794473,313.437091 308.894473,313.437091 L303.597382,313.437091 L216.397745,313.437091 C207.150109,313.437091 197.849018,311.899636 189.100291,308.913818 C185.086109,307.541818 180.977745,305.831273 177.431927,303.746545 L341.786836,303.746545 Z" id="Fill-21" fill="#DED4DB" mask="url(#mask-2)"></path>
                    <path d="M244.107564,112.807673 C243.542473,109.401855 240.991927,100.039673 239.388291,99.0418545 C238.237745,98.3265818 235.641382,97.3287636 231.225018,97.3287636 C215.112291,97.3287636 207.053382,102.078582 205.001745,106.2124 C204.039564,108.152036 204.154109,109.559673 204.113382,111.422945 C206.523927,115.727309 211.416291,117.290218 214.985018,117.290218 C235.570109,117.290218 244.107564,112.807673 244.107564,112.807673" id="Fill-22" fill="#93ABCF" mask="url(#mask-2)"></path>
                    <path d="M48.9776,384.758691 C53.3608727,391.567782 48.3921455,399.316145 45.0143273,403.327782 C41.6416,407.336873 32.4270545,419.045964 27.7663273,411.804145 C23.1056,404.562327 3.86450909,374.671055 3.86450909,374.671055 C3.86450909,374.671055 2.64269091,372.046691 6.78669091,369.376509 C10.9332364,366.708873 13.9419636,370.374327 15.9401455,371.888873 C17.9383273,373.403418 22.8332364,376.816873 31.0219636,378.550327 C39.2081455,380.281236 45.7117818,379.6856 48.9776,384.758691" id="Fill-23" fill="#341731" mask="url(#mask-2)"></path>
                    <path d="M29.2327636,399.651127 C26.6414909,395.626764 27.3058545,390.204945 31.0044,386.939127 L82.4734909,341.502764 C107.810945,319.135855 136.001855,300.167127 166.264764,285.1184 L227.740036,254.552582 C232.614582,252.131855 238.530218,254.117309 240.953491,258.989309 C243.374218,263.861309 241.388764,269.776945 236.516764,272.200218 L175.038945,302.763491 C146.318582,317.046036 119.563309,335.050036 95.5164,356.279127 L44.0447636,401.715491 C39.9669455,405.317309 33.7407636,404.927855 30.1364,400.850036 C29.8029455,400.465673 29.4974909,400.066036 29.2327636,399.651127" id="Fill-24" fill="#341731" mask="url(#mask-2)"></path>
                    <path d="M32.3499273,415.351491 L3.7212,370.872218 C3.37501818,370.337673 2.66483636,370.184945 2.13029091,370.531127 L1.12992727,371.175127 C-0.0129818182,371.910764 -0.343890909,373.432945 0.391745455,374.575855 L27.6001091,416.845673 C28.3357455,417.988582 29.8579273,418.319491 31.0033818,417.583855 L32.0037455,416.939855 C32.5382909,416.596218 32.6935636,415.883491 32.3499273,415.351491" id="Fill-25" fill="#D1C1BD" mask="url(#mask-2)"></path>
                    <path d="M17.0996,388.654 C23.9596,384.240182 22.0657818,379.019455 18.7337818,373.839455 L17.5934182,372.067818 C17.2014182,371.798 16.8145091,371.518 16.4326909,371.230364 C16.1450545,371.011455 15.8370545,370.746727 15.5036,370.464182 C13.5868727,368.827455 10.3770545,366.083455 6.33741818,368.682364 C6.32214545,368.695091 6.30432727,368.705273 6.28650909,368.718 C4.65996364,369.761636 3.72069091,370.874 3.72069091,370.874 L15.7326909,389.534727 C16.1705091,389.252182 16.6236,388.959455 17.0996,388.654" id="Fill-26" fill="#905557" mask="url(#mask-2)"></path>
                    <path d="M17.0996,388.654 C16.6236,388.959455 16.1705091,389.252182 15.7326909,389.534727 L31.4457818,413.948182 C38.8912364,410.578 45.0996,402.185636 46.9908727,399.019091 C45.2243273,398.606727 43.5214182,397.611455 42.2436,395.623455 C39.6243273,391.553273 40.6985091,388.603091 40.6170545,385.344909 C37.9010545,385.080182 30.5421455,384.507455 23.8068727,381.799091 C22.8497818,381.412182 21.8112364,382.000182 21.6025091,383.010727 C21.1901455,384.986 19.8486909,386.884909 17.0996,388.654" id="Fill-27" fill="#9E6463" mask="url(#mask-2)"></path>
                    <path d="M17.5944364,372.068582 L18.7322545,373.837673 C20.7278909,376.938036 22.2068,380.053673 21.6009818,383.001309 C21.8148,381.995855 22.8508,381.415491 23.8053455,381.797309 C30.5431636,384.508218 37.9020727,385.0784 40.6180727,385.345673 C40.5748,383.675855 40.2311636,381.922036 38.9253455,379.893309 C38.9126182,379.878036 38.9024364,379.862764 38.8922545,379.847491 C38.4977091,379.241673 37.8511636,378.854764 37.1384364,378.7504 C37.0926182,378.742764 37.0468,378.735127 37.0009818,378.727491 C35.1478909,378.455127 33.2362545,378.172582 31.1897091,377.7424 C26.0377091,376.652945 21.4711636,374.7464 17.5944364,372.068582" id="Fill-28" fill="#7F444B" mask="url(#mask-2)"></path>
                    <path d="M46.9913818,399.0196 C45.1001091,402.186145 38.8892,410.578509 31.4462909,413.946145 L32.0648364,414.905782 C36.8019273,414.442509 42.1524727,408.033055 45.1052,404.494873 L45.6422909,403.850873 C46.4950182,402.840327 47.4444727,401.598145 48.3252,400.193055 C48.5873818,399.780691 48.3302909,399.241055 47.8466545,399.177418 C47.5615636,399.139236 47.2739273,399.085782 46.9913818,399.0196" id="Fill-29" fill="#905557" mask="url(#mask-2)"></path>
                    <path d="M25.5960727,386.108545 C27.3778909,383.603818 27.2175273,379.207818 25.9448,376.677636 C25.6953455,376.178727 25.0284364,374.852545 23.6360727,374.669273 C23.2262545,374.610727 22.8037091,374.661636 22.3658909,374.811818 C22.6204364,374.931455 22.8775273,375.048545 23.1320727,375.163091 C23.1371636,375.165636 23.1397091,375.165636 23.1422545,375.168182 C23.5826182,375.366727 24.4684364,376.858364 24.8298909,377.797636 C25.6877091,379.961273 25.7055273,383.405273 24.3895273,385.250727 C24.2113455,385.505273 24.2138909,385.833636 24.3742545,386.078 C24.4200727,386.156909 24.4862545,386.225636 24.5651636,386.279091 C24.8960727,386.518364 25.3593455,386.439455 25.5960727,386.108545" id="Fill-30" fill="#69323D" mask="url(#mask-2)"></path>
                    <path d="M29.7996364,387.448473 C31.5101818,385.144836 31.528,380.346655 30.3443636,378.177927 C30.0898182,377.719745 29.3389091,376.347745 27.8141818,376.151745 C27.3101818,376.085564 26.7832727,376.161927 26.2385455,376.378291 C26.4549091,376.454655 26.6712727,376.528473 26.8876364,376.5972 C28.392,377.055382 29.1607273,378.992473 29.316,379.524473 C29.9574545,381.474291 29.7945455,384.976836 28.6134545,386.567745 C28.4250909,386.822291 28.4225455,387.158291 28.5829091,387.407745 C28.6312727,387.481564 28.6923636,387.547745 28.7661818,387.6012 C29.0945455,387.845564 29.5552727,387.776836 29.7996364,387.448473" id="Fill-31" fill="#69323D" mask="url(#mask-2)"></path>
                    <path d="M34.0054909,388.788145 C35.8076727,386.4336 35.6956727,381.3096 34.6418545,379.291055 C34.3440364,378.720873 33.6516727,377.387055 32.2033091,377.201236 C31.6254909,377.129964 31.0222182,377.247055 30.3858545,377.562691 C30.5640364,377.600873 30.7473091,377.644145 30.9254909,377.684873 L30.9280364,377.684873 C32.1040364,377.926691 33.1120364,379.252873 33.4887636,380.319418 C34.1124,381.979055 34.2193091,386.079782 32.8294909,387.887055 C32.6360364,388.1416 32.6334909,388.482691 32.7964,388.737236 C32.8422182,388.808509 32.8982182,388.8696 32.9694909,388.9256 C33.2927636,389.169964 33.7560364,389.111418 34.0054909,388.788145" id="Fill-32" fill="#69323D" mask="url(#mask-2)"></path>
                    <path d="M94.0896727,357.9296 C118.029673,336.797236 144.665309,318.872145 173.260945,304.655782 L234.736218,274.089964 C240.410036,271.267055 242.734036,264.3536 239.911127,258.679782 C239.717673,258.290327 239.5064,257.921236 239.277309,257.564873 C236.105673,252.639418 229.752218,250.890691 224.4984,253.502327 L163.020582,284.068145 C132.6304,299.183055 104.319855,318.233236 78.8729455,340.694327 L36.8653091,377.779055 C36.2544,378.316145 36.1296727,379.214691 36.5700364,379.899418 L47.3627636,396.661236 C47.9049455,397.508873 49.0733091,397.669236 49.8267636,397.004873 L94.0896727,357.9296 Z" id="Fill-33" fill="#A48883" mask="url(#mask-2)"></path>
                    <path d="M233.801273,111.813418 C233.801273,117.2556 229.392545,121.666873 223.947818,121.666873 C218.505636,121.666873 214.096909,117.2556 214.096909,111.813418 C214.096909,106.371236 218.505636,101.959964 223.947818,101.959964 C229.392545,101.959964 233.801273,106.371236 233.801273,111.813418" id="Fill-34" fill="#FFA898" mask="url(#mask-2)"></path>
                    <path d="M222.682473,133.549055 C217.181745,132.576691 212.747564,128.086509 212.101018,122.252327 L206.862473,74.9832364 C206.073382,67.8916 211.184655,61.5076 218.273745,60.7210545 C225.375564,59.9294182 231.746836,65.0457818 232.530836,72.1374182 L237.771927,119.403964 C238.561018,126.4956 233.4472,132.8796 226.360655,133.666145 C225.100655,133.806145 223.866109,133.757782 222.682473,133.549055" id="Fill-35" fill="#FFA898" mask="url(#mask-2)"></path>
                    <path d="M235.178618,96.0160727 L232.531345,72.1371636 C231.7448,65.0455273 225.373527,59.9291636 218.271709,60.7208 C211.185164,61.5073455 206.071345,67.8913455 206.862982,74.9829818 L210.250982,105.543709 C215.1968,104.787709 220.430255,103.2528 225.902982,100.905891 C229.082255,99.5440727 232.185164,97.8768 235.178618,96.0160727" id="Fill-36" fill="#F48989" mask="url(#mask-2)"></path>
                    <path d="M206.626764,276.037491 C206.626764,281.479673 202.215491,285.8884 196.773309,285.8884 C191.331127,285.8884 186.919855,281.479673 186.919855,276.037491 C186.919855,270.592764 191.331127,266.184036 196.773309,266.184036 C202.215491,266.184036 206.626764,270.592764 206.626764,276.037491" id="Fill-37" fill="#FFA898" mask="url(#mask-2)"></path>
                    <path d="M253.041345,276.037491 C253.041345,281.479673 248.630073,285.8884 243.187891,285.8884 C237.743164,285.8884 233.334436,281.479673 233.334436,276.037491 C233.334436,270.592764 237.743164,266.184036 243.187891,266.184036 C248.630073,266.184036 253.041345,270.592764 253.041345,276.037491" id="Fill-38" fill="#FFA898" mask="url(#mask-2)"></path>
                    <path d="M190.846727,127.491382 C190.846727,131.574291 187.535091,134.880836 183.457273,134.880836 C179.374364,134.880836 176.065273,131.574291 176.065273,127.491382 C176.065273,123.408473 179.374364,120.101927 183.457273,120.101927 C187.535091,120.101927 190.846727,123.408473 190.846727,127.491382" id="Fill-39" fill="#FFA898" mask="url(#mask-2)"></path>
                    <path d="M276.0996,127.491382 C276.0996,131.574291 272.790509,134.880836 268.710145,134.880836 C264.627236,134.880836 261.318145,131.574291 261.318145,127.491382 C261.318145,123.408473 264.627236,120.101927 268.710145,120.101927 C272.790509,120.101927 276.0996,123.408473 276.0996,127.491382" id="Fill-40" fill="#FFA898" mask="url(#mask-2)"></path>
                    <path d="M273.290691,121.664582 C263.768145,113.328218 237.491418,111.678764 225.425964,111.831491 C212.405964,111.688945 183.278327,112.485673 176.952873,123.955491 C176.947782,123.965673 176.942691,123.975855 176.935055,123.986036 C176.263055,125.220582 176.219782,126.040218 176.219782,126.040218 L176.222327,126.040218 C175.896509,127.638764 176.061964,129.349309 176.871418,130.909673 C177.082691,131.322036 177.3296,131.701309 177.604509,132.055127 C180.806691,136.153309 182.405236,141.256945 182.120145,146.449673 C181.407418,159.355127 182.280509,177.908945 185.854327,192.955127 C190.000873,210.404218 190.354691,228.693309 186.798691,246.272218 C186.276873,248.840582 185.9816,251.671127 185.9816,254.399855 C185.9816,256.672945 185.9816,258.900218 186.024873,261.0664 C186.057964,282.7944 184.433964,291.314036 221.704509,291.316582 C221.714691,291.316582 221.722327,291.319127 221.732509,291.319127 C221.735055,291.319127 221.740145,291.316582 221.742691,291.316582 C249.984509,291.316582 254.339782,285.604582 254.571418,263.326764 C254.823418,253.570036 252.3136,246.931491 249.521236,240.5984 C242.875055,225.511491 242.976873,208.288945 249.816509,193.255491 C253.204509,185.807491 255.823782,178.336582 258.440509,172.525309 C261.321964,166.131127 265.058691,156.565309 266.216873,146.907855 C266.858327,141.552218 269.490327,136.6344 273.591055,133.1344 C274.301236,132.526036 274.907055,131.777673 275.3576,130.909673 C276.167055,129.349309 276.329964,127.638764 276.0016,126.040218 C275.421236,124.217673 274.856145,122.868582 273.290691,121.664582" id="Fill-41" fill="#FFA898" mask="url(#mask-2)"></path>
                    <path d="M277.611091,125.709055 L277.565273,125.541055 C276.974727,123.680327 276.279818,121.888327 274.373273,120.427236 C265.339455,112.518509 243.056545,110.708691 232.424182,110.298873 C227.129636,114.165418 220.432545,116.929782 214.712909,117.370145 C214.616182,117.408327 214.552545,117.433782 214.552545,117.433782 C214.552545,117.433782 214.514364,117.410873 214.458364,117.380327 C214.018,117.408327 213.580182,117.433782 213.152545,117.433782 C207.488909,117.433782 204.559091,114.862873 204.874727,111.049782 C191.712182,112.447236 179.560182,115.825055 175.495091,123.201782 C174.782364,124.510145 174.622,125.495236 174.586364,125.846509 C174.204545,127.872691 174.487091,129.881055 175.413636,131.662873 C175.668182,132.161782 175.971091,132.635236 176.309636,133.065418 C179.262364,136.845418 180.741273,141.567236 180.479091,146.360327 C179.837636,157.993055 180.440909,177.274873 184.256545,193.334145 C187.196545,205.710145 188.189273,218.5876 187.222,231.2436 C187.150727,232.1956 187.888909,233.005055 188.846,233.005055 L246.363091,233.005055 C247.439818,233.005055 248.203455,231.986873 247.943818,230.940691 C244.874,218.676691 245.999091,205.608327 251.311455,193.934873 C253.162,189.869782 254.752909,185.878509 256.287818,182.0196 C257.555455,178.837782 258.751818,175.8316 259.938,173.1996 C264.313636,163.486145 266.988909,154.602509 267.882364,146.803236 C268.437273,141.931236 271.010727,137.547964 274.714364,134.3356 C275.579818,133.582145 276.284909,132.6836 276.814364,131.665418 C277.761273,129.840327 278.036182,127.778509 277.611091,125.709055" id="Fill-42" fill="#CADCEC" mask="url(#mask-2)"></path>
                    <path d="M214.551273,117.433782 L214.548727,117.433782 L214.551273,117.433782 Z" id="Fill-43" fill="#A7C3DF" mask="url(#mask-2)"></path>
                    <path d="M185.114618,246.307345 C184.567345,248.967345 184.3408,251.683345 184.3408,254.401891 L184.3408,254.633527 C184.3408,256.835345 184.3408,258.993891 184.384073,261.065891 L184.381527,263.697891 C184.366255,273.823709 184.353527,281.141891 189.258618,286.052073 C194.156073,290.957164 203.553891,292.957891 221.733527,292.960436 L221.743709,292.960436 C251.423709,292.957891 255.974982,286.2888 256.214255,263.369527 C256.473891,253.208073 253.790982,246.2208 251.024073,239.936073 C250.189164,238.042255 249.463709,236.1128 248.850255,234.157891 C248.633891,233.473164 248.0128,233.0048 247.297527,233.0048 L188.556073,233.0048 C187.713527,233.0048 187.018618,233.641164 186.932073,234.478618 C186.522255,238.457164 185.913891,242.407709 185.114618,246.307345" id="Fill-44" fill="#C39F92" mask="url(#mask-2)"></path>
                    <polygon id="Fill-45" fill="#9E6463" mask="url(#mask-2)" points="233.110436 235.126182 193.083164 235.126182 193.085709 235.128727 192.197345 244.345818 234.001345 244.345818 233.110436 235.128727"></polygon>
                    <path d="M188.982436,235.126182 L186.864618,235.126182 C186.526073,238.221455 186.070436,241.298909 185.500255,244.345818 L188.091527,244.345818 L188.979891,235.128727 L188.982436,235.126182 Z" id="Fill-46" fill="#9E6463" mask="url(#mask-2)"></path>
                    <path d="M251.023055,239.936327 C250.328145,238.3556 249.707055,236.749418 249.167418,235.125418 L237.213964,235.125418 L237.216509,235.127964 L238.104873,244.345055 L252.860873,244.345055 C252.272873,242.822873 251.651782,241.361782 251.023055,239.936327" id="Fill-47" fill="#9E6463" mask="url(#mask-2)"></path>
                    <path d="M213.345745,244.346073 L201.371927,244.346073 C200.916291,244.346073 200.549745,243.976982 200.549745,243.526436 L200.549745,235.948618 C200.549745,235.492982 200.916291,235.126436 201.371927,235.126436 L213.345745,235.126436 C213.798836,235.126436 214.165382,235.492982 214.165382,235.948618 L214.165382,243.526436 C214.165382,243.976982 213.798836,244.346073 213.345745,244.346073" id="Fill-48" fill="#D1C1BD" mask="url(#mask-2)"></path>
                    <path d="M243.742036,110.973164 C242.886764,107.157527 241.066764,100.944073 239.712582,99.3429818 C240.516945,103.466618 225.445309,113.467709 214.484582,114.623345 C213.321309,114.745527 212.399855,115.621164 212.285309,116.753891 L212.135127,118.169164 C212.135127,118.169164 213.1024,121.381527 212.931855,124.945164 C212.880945,126.080436 214.028945,126.894982 215.131127,126.510618 C221.4184,124.318982 237.011855,117.013527 243.742036,110.973164" id="Fill-49" fill="#B3CAE2" mask="url(#mask-2)"></path>
                    <path d="M212.301855,116.590982 L212.1364,118.169164 C212.1364,118.169164 209.158218,122.168073 205.943309,124.688073 C204.767309,125.612073 203.0364,124.606618 203.303673,123.1608 C203.7924,120.488073 204.3524,116.865891 204.232764,114.7328 C203.9324,109.349164 204.260764,108.371709 204.461855,107.585164 C204.461855,107.585164 204.5764,111.670618 210.761855,114.134618 C211.7724,114.539345 212.411309,115.532073 212.301855,116.590982" id="Fill-50" fill="#B3CAE2" mask="url(#mask-2)"></path>
                    <path d="M209.656873,8.78716364 C206.327418,9.42352727 203.076873,10.4366182 199.991782,11.7908 C190.606691,15.9144364 182.952509,23.1664364 178.826327,31.7929818 C176.718691,36.1991636 175.751418,40.7275273 175.451055,45.4340727 C175.071782,51.3573455 176.5176,56.9497091 177.632509,62.7788 C178.655782,68.1268 179.215782,73.7980727 180.832145,79.0060727 C183.652509,88.1035273 190.718691,96.1904364 200.284509,100.051891 C211.092509,104.4148 223.061236,99.1940727 232.092509,93.0926182 C240.940509,87.1158909 248.497964,78.3748 252.827782,69.4046182 C257.643782,59.4315273 259.010691,48.3588 257.208509,37.8995273 C257.149964,37.5711636 257.091418,37.2428 257.027782,36.9144364 C253.235055,17.1006182 232.028873,4.50570909 209.656873,8.78716364" id="Fill-51" fill="#FFA898" mask="url(#mask-2)"></path>
                    <path d="M218.459055,76.3857818 C217.799782,76.1134182 217.043782,76.4239636 216.768873,77.0806909 C216.7536,77.1239636 214.936145,81.3061455 208.071055,82.6196 C201.307782,83.9126909 198.082691,80.8250545 197.935055,80.6799636 C197.436145,80.1759636 196.624145,80.1657818 196.115055,80.6621455 C195.603418,81.1610545 195.593236,81.9781455 196.092145,82.4872364 C196.260145,82.6628727 200.340509,86.7279636 208.557236,85.1548727 C216.768873,83.5843273 219.059782,78.2999636 219.153964,78.0759636 C219.428873,77.4166909 219.118327,76.6606909 218.459055,76.3857818" id="Fill-52" fill="#DD7D80" mask="url(#mask-2)"></path>
                    <path d="M226.035855,49.6338182 C221.907127,47.5669091 215.742036,49.4454545 215.054764,49.6669091 C214.191855,49.9443636 213.713309,50.8683636 213.993309,51.7338182 C214.268218,52.5967273 215.192218,53.0752727 216.057673,52.7952727 C217.577309,52.3065455 222.0624,51.3189091 224.567127,52.5712727 C224.903127,52.7392727 225.267127,52.7825455 225.608218,52.7163636 C226.0944,52.6247273 226.532218,52.3141818 226.768945,51.8381818 C227.176218,51.0261818 226.847855,50.0410909 226.035855,49.6338182" id="Fill-53" fill="#5F3140" mask="url(#mask-2)"></path>
                    <path d="M189.638655,57.8492727 C190.567745,57.7881818 191.224473,57.0016364 191.163382,56.098 C191.099745,55.1943636 190.318291,54.5121818 189.412109,54.5732727 C188.691745,54.6241818 182.267018,55.1510909 179.192109,58.5976364 C178.591382,59.2747273 178.649927,60.3132727 179.324473,60.9165455 C179.721564,61.2703636 180.245927,61.3976364 180.729564,61.3034545 C181.0732,61.2398182 181.396473,61.0641818 181.643382,60.7841818 C183.501564,58.7070909 188.042655,57.9638182 189.638655,57.8492727" id="Fill-54" fill="#5F3140" mask="url(#mask-2)"></path>
                    <path d="M185.706182,66.0970545 L186.037091,67.8305091 C186.329818,69.3654182 187.676364,70.3963273 189.045818,70.1341455 L189.048364,70.1341455 C190.417818,69.8719636 191.288364,68.4159636 190.995636,66.8836 L190.662182,65.1501455 C190.369455,63.6152364 189.022909,62.5843273 187.653455,62.8465091 C186.284,63.1086909 185.413455,64.5621455 185.706182,66.0970545" id="Fill-55" fill="#532442" mask="url(#mask-2)"></path>
                    <path d="M221.133818,63.9942545 C222.503273,63.7320727 223.373818,62.2760727 223.081091,60.7437091 L222.750182,59.0102545 C222.457455,57.4753455 221.105818,56.4444364 219.738909,56.7066182 C218.369455,56.9688 217.498909,58.4222545 217.794182,59.9571636 L218.122545,61.6906182 C218.417818,63.2229818 219.764364,64.2564364 221.133818,63.9942545" id="Fill-56" fill="#532442" mask="url(#mask-2)"></path>
                    <path d="M219.520509,67.3649455 C218.112873,67.1689455 216.814691,68.1311273 216.603418,69.5387636 C216.3896,70.9438545 217.359418,72.2573091 218.764509,72.4762182 C219.881964,72.6467636 221.760509,73.3467636 222.251782,74.2936727 C222.694691,75.1438545 223.544873,75.6453091 224.438327,75.6834909 C224.876145,75.7013091 225.319055,75.6071273 225.736509,75.3933091 C227.0016,74.7340364 227.495418,73.1736727 226.836145,71.9085818 C224.9296,68.2482182 220.067782,67.4438545 219.520509,67.3649455" id="Fill-57" fill="#F8918C" mask="url(#mask-2)"></path>
                    <path d="M195.3112,73.6117455 C194.595927,72.3848364 193.030473,71.9699273 191.795927,72.6699273 C191.317382,72.9448364 187.091927,75.4877455 186.674473,79.5935636 C186.529382,81.0139273 187.562836,82.2815636 188.9832,82.4266545 C189.449018,82.4724727 189.899564,82.3935636 190.296655,82.2153818 C191.113745,81.8513818 191.717018,81.0724727 191.813745,80.1179273 C191.9232,79.0564727 193.412291,77.7124727 194.384655,77.1422909 C195.609018,76.4193818 196.026473,74.8386545 195.3112,73.6117455" id="Fill-58" fill="#F8918C" mask="url(#mask-2)"></path>
                    <path d="M197.879055,0.575272727 C202.835055,-0.371636364 206.4496,0.0330909091 214.900509,0.506545455 C223.351418,0.98 230.738327,1.74109091 240.6096,4.88727273 C248.676145,7.45818182 255.098327,20.6334545 257.541964,34.0938182 C259.382327,44.2170909 259.043782,51.4690909 255.604873,62.3738182 C255.149236,46.6861818 250.758327,41.7658182 243.384145,39.2585455 C235.0096,36.4152727 226.691055,37.1763636 225.830691,33.0043636 C223.605964,22.1963636 216.412509,18.9229091 210.448509,20.0632727 C202.427782,21.5981818 190.133236,23.9527273 186.200509,24.7036364 C182.349236,25.4418182 180.083782,29.3974545 179.113964,31.2149091 C175.494327,28.1450909 171.597236,21.0509091 176.021236,15.2243636 C180.442691,9.39781818 181.178327,10.5127273 185.8416,6.48327273 C190.507418,2.45636364 192.014327,1.69781818 197.879055,0.575272727" id="Fill-59" fill="#5F3140" mask="url(#mask-2)"></path>
                    <path d="M234.340909,35.9741455 L236.868545,49.1774182 C236.962727,49.6686909 237.270727,50.0886909 237.711091,50.3203273 C238.749636,50.8676 240.750364,51.9494182 242.214,52.9319636 C240.847091,50.9796 238.294,39.0057818 246.910364,39.9425091 L246.505636,37.8272364 L234.340909,35.9741455 Z" id="Fill-60" fill="#5F3140" mask="url(#mask-2)"></path>
                    <path d="M210.449782,20.0640364 C216.413782,18.9236727 223.607236,22.1945818 225.831964,33.0025818 C226.689782,37.1771273 235.010873,36.4134909 243.382873,39.2593091 C250.7596,41.7665818 255.150509,46.6844 255.6036,62.3745818 C257.377782,56.7542182 258.327236,52.1036727 258.576691,47.5320364 C257.245418,20.6469455 220.356691,17.8825818 210.449782,20.0640364" id="Fill-61" fill="#6B3B47" mask="url(#mask-2)"></path>
                    <path d="M247.028218,44.2904 C243.994036,44.1325818 241.611491,46.3038545 241.7744,49.7936727 C241.975491,54.1107636 244.673673,53.9045818 244.877309,57.7736727 C245.002036,60.1714909 244.218036,61.1922182 244.327491,63.5544 C244.429309,65.6900364 245.406764,68.0496727 247.422764,68.1540364 C250.731855,68.3271273 253.771127,62.1518545 253.962036,56.6536727 C254.158036,51.0256727 252.205673,44.5602182 247.028218,44.2904" id="Fill-62" fill="#F8918C" mask="url(#mask-2)"></path>
                    <path d="M212.768945,90.2465455 C210.299855,90.72 209.411491,87.6298182 205.646764,88.3476364 C201.884582,89.068 203.335491,91.7381818 201.418764,92.1047273 C198.865673,92.5934545 194.960945,90.0301818 194.484945,87.5432727 C194.008945,85.0589091 196.213309,81.9890909 204.106764,80.4796364 C209.683855,79.4105455 219.124945,78.6850909 219.891127,82.684 C220.377309,85.2370909 216.261309,89.5770909 212.768945,90.2465455 M203.080945,74.9458182 C198.746036,75.7730909 189.338036,79.2985455 190.959491,87.7672727 C192.5784,96.236 198.511855,108.405818 211.6184,105.896 C223.783127,103.569455 229.7344,99.3643636 228.461673,87.8003636 C227.216945,76.4756364 217.248945,72.2323636 203.080945,74.9458182" id="Fill-63" fill="#6B3B47" mask="url(#mask-2)"></path>
                    <path d="M170.152691,189.504509 C170.895964,185.490327 174.749782,182.837964 178.763964,183.581236 L242.591236,195.371782 C246.231236,196.043782 249.736327,193.630691 250.405782,189.995782 L262.198873,126.165964 C262.9396,122.154327 266.795964,119.499418 270.8076,120.242691 C274.821782,120.983418 277.474145,124.839782 276.733418,128.851418 L264.940327,192.681236 C262.789418,204.331782 251.556327,212.057236 239.905782,209.906327 L176.078509,198.113236 C172.064327,197.372509 169.411964,193.518691 170.152691,189.504509" id="Fill-64" fill="#FFA898" mask="url(#mask-2)"></path>
                    <path d="M239.608218,211.521164 C252.172582,213.840073 264.235491,205.5368 266.556945,192.977527 L278.273673,129.547345 C279.131491,124.909527 276.517309,120.139345 271.9864,118.836073 C266.788582,117.339345 261.5424,120.678982 260.582764,125.869164 L248.789673,189.696436 C248.283127,192.448073 245.640945,194.265527 242.891855,193.756436 L201.915127,186.186255 C201.472218,186.1048 201.044582,186.400073 200.960582,186.845527 L197.977309,202.993891 C197.893309,203.439345 198.191127,203.866982 198.634036,203.948436 L239.608218,211.521164 Z" id="Fill-65" fill="#CADCEC" mask="url(#mask-2)"></path>
                    <path d="M197.981127,202.994909 L186.060764,200.795636 C185.617855,200.714182 185.320036,200.284 185.406582,199.838545 L188.089491,185.304 C188.170945,184.858545 188.598582,184.563273 189.046582,184.644727 L200.9644,186.846545 L197.981127,202.994909 Z" id="Fill-66" fill="#B3CAE2" mask="url(#mask-2)"></path>
                    <path d="M160.975055,143.942145 L165.236145,143.942145 C166.4096,143.942145 167.430327,144.743964 167.710327,145.886873 L176.301236,181.184691 L179.9616,196.213055 C180.351055,197.816691 179.139418,199.361782 177.487418,199.361782 L167.135055,199.361782 L150.576873,199.361782 C149.403418,199.361782 148.382691,198.559964 148.102691,197.4196 L143.513236,178.562873 L135.851418,147.088327 C135.461964,145.487236 136.6736,143.942145 138.3256,143.942145 L160.975055,143.942145 Z" id="Fill-67" fill="#64455E" mask="url(#mask-2)"></path>
                    <path d="M173.694945,167.9328 C171.4804,167.558618 169.232764,167.563709 167.018218,167.968436 L159.3004,169.365891 C157.829127,169.633164 156.851673,171.043345 157.118945,172.517164 C157.146945,172.669891 157.190218,172.820073 157.238582,172.962618 C157.414218,173.441164 157.3684,173.975709 157.111309,174.418618 C156.859309,174.861527 156.421491,175.172073 155.920036,175.263709 L155.759673,175.294255 C154.285855,175.556436 153.3084,176.969164 153.578218,178.442982 C153.814945,179.751345 154.955309,180.667709 156.240764,180.667709 C156.401127,180.667709 156.566582,180.654982 156.726945,180.621891 C156.925491,180.5888 157.124036,180.662618 157.248764,180.820436 C157.370945,180.978255 157.3964,181.189527 157.3124,181.370255 C157.096036,181.8488 157.014582,182.396073 157.1164,182.948436 C157.383673,184.4248 158.7964,185.389527 160.267673,185.134982 C160.481491,185.094255 160.697855,185.173164 160.835309,185.341164 C160.972764,185.506618 161.010945,185.735709 160.932036,185.9368 C160.786945,186.318618 160.743673,186.741164 160.830218,187.171345 C161.077127,188.367709 162.245491,189.133891 163.449491,188.894618 L168.924764,187.772073 C169.5764,187.637164 170.250945,187.774618 170.798218,188.1488 C171.345491,188.528073 171.717127,189.105891 171.829127,189.760073 C172.916036,196.2128 176.189491,201.110255 180.178218,201.537891 C185.225855,202.082618 189.504764,195.263345 189.733855,186.310982 C190.166582,169.187709 189.125491,170.562255 173.694945,167.9328" id="Fill-68" fill="#FFA898" mask="url(#mask-2)"></path>
                    <path d="M242.422218,269.4328 L145.236764,269.4328 C128.1644,269.4328 114.2764,283.323345 114.2764,300.395709 L114.2764,397.581164 C114.2764,403.0208 118.690218,407.434618 124.129855,407.434618 C129.572036,407.434618 133.983309,403.0208 133.983309,397.581164 L133.983309,300.395709 C133.983309,294.189891 139.033491,289.139709 145.236764,289.139709 L242.422218,289.139709 C247.8644,289.139709 252.275673,284.728436 252.275673,279.286255 C252.275673,273.844073 247.8644,269.4328 242.422218,269.4328" id="Fill-69" fill="#341731" mask="url(#mask-2)"></path>
                    <path d="M123.1188,382.541345 C131.215891,382.541345 135.044255,390.913345 136.5868,395.9228 C138.131891,400.929709 142.991164,415.013709 134.379891,415.013709 L90.2188,415.013709 C90.2188,415.013709 87.3475273,414.624255 87.3475273,409.693709 C87.3475273,404.763164 92.0591636,404.215891 94.4162545,403.355527 C96.7682545,402.495164 102.289345,400.224618 108.179527,394.278436 C114.064618,388.329709 117.083527,382.541345 123.1188,382.541345" id="Fill-70" fill="#341731" mask="url(#mask-2)"></path>
                    <path d="M139.8432,413.081964 L86.9486545,413.081964 C86.3122909,413.081964 85.7981091,413.596145 85.7981091,414.229964 L85.7981091,415.421236 C85.7981091,416.780509 86.9002909,417.885236 88.2595636,417.885236 L138.5272,417.885236 C139.889018,417.885236 140.9912,416.780509 140.9912,415.421236 L140.9912,414.229964 C140.9912,413.596145 140.477018,413.081964 139.8432,413.081964" id="Fill-71" fill="#D1C1BD" mask="url(#mask-2)"></path>
                    <path d="M109.1412,411.456182 C109.1412,403.295455 103.727018,402.063455 97.5670182,402.063455 L95.4619273,402.063455 C95.0215636,402.246727 94.5761091,402.419818 94.1306545,402.585273 C93.7895636,402.707455 93.3975636,402.824545 92.9801091,402.949273 C90.5670182,403.674727 86.5222909,404.891455 86.5222909,409.694727 L86.5222909,409.755818 C86.5222909,411.687818 86.9473818,413.082727 86.9473818,413.082727 L109.1412,413.082727 L109.1412,411.456182 Z" id="Fill-72" fill="#905557" mask="url(#mask-2)"></path>
                    <path d="M109.1412,411.456182 L109.1412,413.082727 L138.172109,413.082727 C139.368473,404.998364 135.675018,395.236545 134.035745,391.93 C132.729927,393.192545 130.971018,394.086 128.608836,394.086 C123.767382,394.086 121.871018,391.581273 119.086291,389.888545 C117.393564,392.029273 112.928836,397.906727 107.005564,402.104182 C106.163018,402.702364 106.094291,403.891091 106.832473,404.614 C108.270655,406.026727 109.1412,408.185273 109.1412,411.456182" id="Fill-73" fill="#9E6463" mask="url(#mask-2)"></path>
                    <path d="M95.4619273,402.062436 L97.5670182,402.062436 C101.252836,402.062436 104.673927,402.505345 106.824836,404.607891 C106.096836,403.887527 106.165564,402.6988 107.005564,402.105709 C112.928836,397.905709 117.393564,392.0308 119.086291,389.890073 C117.660836,389.019527 115.998655,388.3628 113.588109,388.3628 L113.529564,388.3628 C112.806655,388.367891 112.132109,388.701345 111.656109,389.243527 C111.628109,389.279164 111.597564,389.312255 111.564473,389.347891 C110.335018,390.758073 109.062291,392.214073 107.591018,393.700618 C103.887382,397.442436 99.8121091,400.247527 95.4619273,402.062436" id="Fill-74" fill="#7F444B" mask="url(#mask-2)"></path>
                    <path d="M134.036509,391.930255 C135.675782,395.2368 139.369236,404.998618 138.172873,413.082982 L139.313236,413.082982 C141.4896,408.8448 138.995055,400.877527 137.617964,396.481527 L137.368509,395.679709 C136.976509,394.417164 136.447055,392.943345 135.744509,391.444073 C135.538327,390.998618 134.945236,390.922255 134.6296,391.296436 C134.441236,391.515345 134.245236,391.726618 134.036509,391.930255" id="Fill-75" fill="#905557" mask="url(#mask-2)"></path>
                    <path d="M111.597309,402.932473 C110.456945,400.076473 106.671855,397.833927 103.856582,397.533564 C103.301673,397.472473 101.827855,397.314655 100.919127,398.386291 C100.649309,398.701927 100.460945,399.0812 100.351491,399.531745 C100.590764,399.384109 100.827491,399.233927 101.061673,399.078655 C101.064218,399.076109 101.069309,399.073564 101.071855,399.071018 C101.474036,398.811382 103.210036,398.872473 104.197673,399.078655 C106.4784,399.5292 109.385309,401.379745 110.225309,403.482291 C110.339855,403.769927 110.617309,403.945564 110.910036,403.945564 C111.004218,403.945564 111.095855,403.927745 111.184945,403.892109 C111.561673,403.741927 111.750036,403.3092 111.597309,402.932473" id="Fill-76" fill="#69323D" mask="url(#mask-2)"></path>
                    <path d="M115.000327,400.123309 C113.989782,397.437855 109.962873,394.826218 107.501418,394.650582 C106.977055,394.6124 105.414145,394.5004 104.426509,395.6764 C104.098145,396.065855 103.879236,396.552036 103.764691,397.127309 C103.945418,396.987309 104.1236,396.842218 104.301782,396.697127 C105.500691,395.678945 107.542145,396.081127 108.074145,396.241491 L108.074145,396.244036 C110.064691,396.758218 112.920691,398.789491 113.618145,400.642582 C113.7276,400.9404 114.010145,401.123673 114.310509,401.123673 C114.397055,401.123673 114.4836,401.1084 114.5676,401.075309 C114.951964,400.930218 115.145418,400.505127 115.000327,400.123309" id="Fill-77" fill="#69323D" mask="url(#mask-2)"></path>
                    <path d="M118.4008,397.312109 C117.397891,394.522291 113.032436,391.844473 110.761891,391.635745 C110.120436,391.5772 108.623709,391.434655 107.684436,392.5572 C107.3128,393.002655 107.086255,393.572836 107.002255,394.280473 C107.137164,394.150655 107.269527,394.020836 107.399345,393.888473 L107.401891,393.888473 C108.241891,393.030655 109.901527,392.903382 111.001164,393.163018 C112.734618,393.5372 116.239709,395.667745 117.008436,397.811018 C117.117891,398.111382 117.400436,398.302291 117.705891,398.302291 C117.789891,398.302291 117.873891,398.287018 117.955345,398.256473 C118.339709,398.119018 118.5408,397.693927 118.4008,397.312109" id="Fill-78" fill="#69323D" mask="url(#mask-2)"></path>
                    <path d="M135.624873,300.395709 C135.624873,295.085891 139.929236,290.784073 145.236509,290.784073 L242.022327,290.784073 C247.864145,290.784073 253.077236,286.594255 253.823055,280.8008 C254.7216,273.790618 249.259055,267.790982 242.421964,267.790982 L145.236509,267.790982 C127.229964,267.790982 112.634327,282.389164 112.634327,300.395709 L112.634327,384.520436 C112.634327,385.426618 113.369964,386.162255 114.276145,386.162255 L133.983055,386.162255 C134.891782,386.162255 135.624873,385.426618 135.624873,384.520436 L135.624873,300.395709 Z" id="Fill-79" fill="#C39F92" mask="url(#mask-2)"></path>
                </g>
            </g>
        </g>
    </g>
</svg>