<svg width="126" height="126" viewBox="0 0 126 126" fill="none" xmlns="http://www.w3.org/2000/svg">
<path d="M63 126C97.7939 126 126 97.7939 126 63C126 28.2061 97.7939 0 63 0C28.2061 0 0 28.2061 0 63C0 97.7939 28.2061 126 63 126Z" fill="#43007E"/>
<mask id="mask0" mask-type="alpha" maskUnits="userSpaceOnUse" x="0" y="0" width="126" height="126">
<path fill-rule="evenodd" clip-rule="evenodd" d="M63 126C97.7939 126 126 97.7939 126 63C126 28.2061 97.7939 0 63 0C28.2061 0 0 28.2061 0 63C0 97.7939 28.2061 126 63 126Z" fill="white"/>
</mask>
<g mask="url(#mask0)">
<mask id="mask1" mask-type="alpha" maskUnits="userSpaceOnUse" x="0" y="0" width="123" height="134">
<path fill-rule="evenodd" clip-rule="evenodd" d="M3.23546 0.179382C1.60058 0.179382 0.273193 1.50814 0.273193 3.14471V130.281C0.273193 131.919 1.60058 133.248 3.23546 133.248H119.313C120.948 133.248 122.275 131.919 122.275 130.281V3.14471C122.275 1.50814 120.948 0.179382 119.313 0.179382" fill="white"/>
</mask>
<g mask="url(#mask1)">
<path d="M88.0829 103.733C89.2085 104.249 90.4686 104.476 91.7397 104.355C94.2792 104.114 96.518 102.522 97.5791 100.197L111.572 69.5759C112.386 67.7951 111.604 65.69 109.825 64.8765C108.046 64.0616 105.944 64.8449 105.13 66.6257L91.1371 97.2463L90.9971 97.2601L71.5022 69.8178C70.3669 68.2224 68.1555 67.8487 66.5618 68.9823C64.9682 70.1187 64.5948 72.3324 65.7286 73.9291L85.2236 101.37C85.9621 102.412 86.9573 103.218 88.0829 103.733Z" fill="#FFA898"/>
</g>
<mask id="mask2" mask-type="alpha" maskUnits="userSpaceOnUse" x="0" y="0" width="123" height="134">
<path fill-rule="evenodd" clip-rule="evenodd" d="M3.23546 0.179382C1.60058 0.179382 0.273193 1.50814 0.273193 3.14471V130.281C0.273193 131.919 1.60058 133.248 3.23546 133.248H119.313C120.948 133.248 122.275 131.919 122.275 130.281V3.14471C122.275 1.50814 120.948 0.179382 119.313 0.179382" fill="white"/>
</mask>
<g mask="url(#mask2)">
<path d="M117.117 63.1754C117.404 62.5461 117.127 61.8013 116.498 61.5141C116.247 61.3959 115.982 61.3712 115.734 61.422C115.664 61.4358 115.592 61.4152 115.541 61.3657C115.489 61.3176 115.466 61.2461 115.477 61.1761C115.572 60.5522 115.254 59.9146 114.653 59.6329C114.298 59.4681 113.913 59.4584 113.573 59.5739C113.5 59.5986 113.422 59.5835 113.364 59.534C113.307 59.4845 113.278 59.4103 113.289 59.3348C113.404 58.6024 113.022 57.881 112.348 57.5649C111.725 57.275 110.93 57.3753 110.405 57.962C110.353 58.0197 110.274 58.0459 110.197 58.028C110.121 58.0115 110.059 57.9552 110.037 57.8796C109.922 57.5003 109.654 57.1678 109.264 56.9864C108.524 56.6443 107.662 56.9576 107.32 57.6886C107.32 57.6886 106.681 58.9981 106.42 59.5175C106.365 59.6274 106.23 59.6755 106.119 59.6233C104.626 58.9376 103.323 60.669 102.788 63.1493C102.159 66.0651 102.539 71.802 105.954 73.194C108.8 74.3524 112.554 72.8587 114.391 69.1184C114.718 68.452 114.152 69.6763 117.117 63.1754Z" fill="#FFA898"/>
</g>
<mask id="mask3" mask-type="alpha" maskUnits="userSpaceOnUse" x="0" y="0" width="123" height="134">
<path fill-rule="evenodd" clip-rule="evenodd" d="M3.23546 0.179382C1.60058 0.179382 0.273193 1.50814 0.273193 3.14471V130.281C0.273193 131.919 1.60058 133.248 3.23546 133.248H119.313C120.948 133.248 122.275 131.919 122.275 130.281V3.14471C122.275 1.50814 120.948 0.179382 119.313 0.179382" fill="white"/>
</mask>
<g mask="url(#mask3)">
<path d="M98.7845 100.754L109.924 76.3759C110.091 76.0104 109.931 75.5789 109.566 75.4127L102.028 71.9595C101.664 71.7933 101.232 71.954 101.066 72.3196L90.8284 94.7216L72.5854 69.0451C72.0871 68.3484 71.4145 67.796 70.6403 67.4415C69.063 66.7187 67.2099 66.8946 65.7947 67.9032C63.6052 69.4559 63.0877 72.5037 64.6457 74.6995L84.1461 102.142C85.0041 103.354 86.1709 104.317 87.5312 104.939C88.8915 105.563 90.3836 105.818 91.8689 105.677C94.8737 105.387 97.5285 103.502 98.7845 100.754Z" fill="#E9E3E8"/>
</g>
<mask id="mask4" mask-type="alpha" maskUnits="userSpaceOnUse" x="0" y="0" width="123" height="134">
<path fill-rule="evenodd" clip-rule="evenodd" d="M3.23546 0.179382C1.60058 0.179382 0.273193 1.50814 0.273193 3.14471V130.281C0.273193 131.919 1.60058 133.248 3.23546 133.248H119.313C120.948 133.248 122.275 131.919 122.275 130.281V3.14471C122.275 1.50814 120.948 0.179382 119.313 0.179382H3.23546Z" fill="white"/>
</mask>
<g mask="url(#mask4)">
<path d="M107.261 82.204L108.934 78.5434L100.076 74.4871L98.4026 78.1463L107.261 82.204Z" fill="#E1D9DF"/>
</g>
<mask id="mask5" mask-type="alpha" maskUnits="userSpaceOnUse" x="0" y="0" width="123" height="134">
<path fill-rule="evenodd" clip-rule="evenodd" d="M3.23546 0.179382C1.60058 0.179382 0.273193 1.50814 0.273193 3.14471V130.281C0.273193 131.919 1.60058 133.248 3.23546 133.248H119.313C120.948 133.248 122.275 131.919 122.275 130.281V3.14471C122.275 1.50814 120.948 0.179382 119.313 0.179382" fill="white"/>
</mask>
<g mask="url(#mask5)">
<path d="M31.9165 67.2856C30.3585 67.1495 28.843 68.0661 28.283 69.6078L20.3708 91.4025C16.4696 102.149 13.9878 113.375 12.9995 124.767L10.9912 147.869C10.8224 149.82 12.2651 151.539 14.2143 151.709C16.1621 151.88 17.8794 150.434 18.0496 148.483L20.0565 125.381C20.994 114.607 23.3399 103.989 27.0283 93.8251L34.9419 72.0304C35.609 70.1891 34.6605 68.1554 32.8225 67.4862C32.5232 67.3776 32.2199 67.3117 31.9165 67.2856Z" fill="#FFA898"/>
</g>
<mask id="mask6" mask-type="alpha" maskUnits="userSpaceOnUse" x="0" y="0" width="123" height="134">
<path fill-rule="evenodd" clip-rule="evenodd" d="M3.23546 0.179382C1.60058 0.179382 0.273193 1.50814 0.273193 3.14471V130.281C0.273193 131.919 1.60058 133.248 3.23546 133.248H119.313C120.948 133.248 122.275 131.919 122.275 130.281V3.14471C122.275 1.50814 120.948 0.179382 119.313 0.179382H3.23546Z" fill="white"/>
</mask>
<g mask="url(#mask6)">
<path d="M19.1324 90.9533C15.1928 101.803 12.6862 113.145 11.6842 124.653L10.2703 140.912C10.236 141.312 10.5311 141.665 10.9319 141.699L19.1887 142.419C19.5881 142.453 19.9409 142.158 19.9752 141.758L21.3904 125.5C22.317 114.839 24.6355 104.336 28.2923 94.2883L36.1976 72.4894C36.6424 71.2651 36.5889 69.9432 36.0412 68.7574C35.4866 67.5784 34.5161 66.6838 33.2917 66.24C32.8881 66.0971 32.4694 65.9982 32.0453 65.9611C29.8558 65.7701 27.7968 67.0851 27.0473 69.1559L19.1324 90.9533Z" fill="#E9E3E8"/>
</g>
<mask id="mask7" mask-type="alpha" maskUnits="userSpaceOnUse" x="0" y="0" width="123" height="134">
<path fill-rule="evenodd" clip-rule="evenodd" d="M3.23546 0.179382C1.60058 0.179382 0.273193 1.50814 0.273193 3.14471V130.281C0.273193 131.919 1.60058 133.248 3.23546 133.248H119.313C120.948 133.248 122.275 131.919 122.275 130.281V3.14471C122.275 1.50814 120.948 0.179382 119.313 0.179382" fill="white"/>
</mask>
<g mask="url(#mask7)">
<path d="M60.1505 63.3322C59.5863 62.7359 59.1402 62.1917 58.7984 61.7355C58.156 60.8781 57.1443 60.371 56.0722 60.371H55.1553H44.0049H43.088C42.0173 60.371 41.0056 60.8781 40.3632 61.7355C40.0214 62.1917 39.5753 62.7359 39.0111 63.3322C38.9782 63.3666 38.9452 63.4023 38.9109 63.4366C40.0269 63.2182 41.2294 63.0203 42.5156 62.8595C42.5966 62.663 42.6666 62.5091 42.7256 62.4033C42.7448 62.3676 42.7627 62.3374 42.7805 62.3126C42.8354 62.2329 42.8958 62.1587 42.9617 62.0914C43.2376 61.807 43.6055 61.6228 44.0049 61.5775H55.1553C55.4202 61.6077 55.6591 61.6613 55.8911 61.8276C56.0544 61.943 56.2123 62.112 56.3756 62.3648C56.4635 62.5036 56.5541 62.6671 56.646 62.8595C57.9336 63.0203 59.1361 63.2182 60.2493 63.438C60.2164 63.4023 60.1821 63.3666 60.1505 63.3322Z" fill="#FAF9FA"/>
</g>
<mask id="mask8" mask-type="alpha" maskUnits="userSpaceOnUse" x="0" y="0" width="123" height="134">
<path fill-rule="evenodd" clip-rule="evenodd" d="M3.23546 0.179382C1.60058 0.179382 0.273193 1.50814 0.273193 3.14471V130.281C0.273193 131.919 1.60058 133.248 3.23546 133.248H119.313C120.948 133.248 122.275 131.919 122.275 130.281V3.14471C122.275 1.50814 120.948 0.179382 119.313 0.179382" fill="white"/>
</mask>
<g mask="url(#mask8)">
<path d="M54.4545 63.7551C54.4545 66.447 52.2733 68.6304 49.5828 68.6304C46.8924 68.6304 44.7125 66.447 44.7125 63.7551C44.7125 61.0618 46.8924 58.8798 49.5828 58.8798C52.2733 58.8798 54.4545 61.0618 54.4545 63.7551Z" fill="#FFA898"/>
</g>
<mask id="mask9" mask-type="alpha" maskUnits="userSpaceOnUse" x="0" y="0" width="123" height="134">
<path fill-rule="evenodd" clip-rule="evenodd" d="M3.23546 0.179382C1.60058 0.179382 0.273193 1.50814 0.273193 3.14471V130.281C0.273193 131.919 1.60058 133.248 3.23546 133.248H119.313C120.948 133.248 122.275 131.919 122.275 130.281V3.14471C122.275 1.50814 120.948 0.179382 119.313 0.179382" fill="white"/>
</mask>
<g mask="url(#mask9)">
<path d="M49.5791 73.6394C46.5015 73.6394 44.006 71.1427 44.006 68.0619V52.2116C44.006 49.1308 46.5015 46.6341 49.5791 46.6341C52.6553 46.6341 55.1522 49.1308 55.1522 52.2116V68.0619C55.1522 71.1427 52.6553 73.6394 49.5791 73.6394Z" fill="#FFA898"/>
</g>
<mask id="mask10" mask-type="alpha" maskUnits="userSpaceOnUse" x="0" y="0" width="123" height="134">
<path fill-rule="evenodd" clip-rule="evenodd" d="M3.23546 0.179382C1.60058 0.179382 0.273193 1.50814 0.273193 3.14471V130.281C0.273193 131.919 1.60058 133.248 3.23546 133.248H119.313C120.948 133.248 122.275 131.919 122.275 130.281V3.14471C122.275 1.50814 120.948 0.179382 119.313 0.179382" fill="white"/>
</mask>
<g mask="url(#mask10)">
<path d="M49.5791 46.6337C46.5015 46.6337 44.0073 49.1304 44.0073 52.2112V60.3692C45.7808 60.9807 47.6491 61.316 49.5791 61.316C51.5091 61.316 53.3773 60.9807 55.1522 60.3692V52.2112C55.1522 49.1304 52.6553 46.6337 49.5791 46.6337Z" fill="#F48989"/>
</g>
<mask id="mask11" mask-type="alpha" maskUnits="userSpaceOnUse" x="0" y="0" width="123" height="134">
<path fill-rule="evenodd" clip-rule="evenodd" d="M3.23546 0.179382C1.60058 0.179382 0.273193 1.50814 0.273193 3.14471V130.281C0.273193 131.919 1.60058 133.248 3.23546 133.248H119.313C120.948 133.248 122.275 131.919 122.275 130.281V3.14471C122.275 1.50814 120.948 0.179382 119.313 0.179382" fill="white"/>
</mask>
<g mask="url(#mask11)">
<path d="M71.0864 70.8182C71.0864 72.7763 69.5009 74.3647 67.5449 74.3647C65.5874 74.3647 64.002 72.7763 64.002 70.8182C64.002 68.8601 65.5874 67.2716 67.5449 67.2716C69.5009 67.2716 71.0864 68.8601 71.0864 70.8182Z" fill="#FFA898"/>
</g>
<mask id="mask12" mask-type="alpha" maskUnits="userSpaceOnUse" x="0" y="0" width="123" height="134">
<path fill-rule="evenodd" clip-rule="evenodd" d="M3.23546 0.179382C1.60058 0.179382 0.273193 1.50814 0.273193 3.14471V130.281C0.273193 131.919 1.60058 133.248 3.23546 133.248H119.313C120.948 133.248 122.275 131.919 122.275 130.281V3.14471C122.275 1.50814 120.948 0.179382 119.313 0.179382" fill="white"/>
</mask>
<g mask="url(#mask12)">
<path d="M35.1515 70.8182C35.1515 72.7763 33.566 74.3647 31.6099 74.3647C29.6525 74.3647 28.067 72.7763 28.067 70.8182C28.067 68.8601 29.6525 67.2716 31.6099 67.2716C33.566 67.2716 35.1515 68.8601 35.1515 70.8182Z" fill="#FFA898"/>
</g>
<mask id="mask13" mask-type="alpha" maskUnits="userSpaceOnUse" x="0" y="0" width="123" height="134">
<path fill-rule="evenodd" clip-rule="evenodd" d="M3.23546 0.179382C1.60058 0.179382 0.273193 1.50814 0.273193 3.14471V130.281C0.273193 131.919 1.60058 133.248 3.23546 133.248H119.313C120.948 133.248 122.275 131.919 122.275 130.281V3.14471C122.275 1.50814 120.948 0.179382 119.313 0.179382" fill="white"/>
</mask>
<g mask="url(#mask13)">
<path d="M67.0352 79.5968C67.016 77.2526 68.0427 75.0156 69.8314 73.5027C70.1718 73.2141 70.4628 72.8582 70.6811 72.4391C71.5829 70.7091 70.9268 68.5793 69.2027 67.6682C68.9007 67.5074 61.6652 63.7548 49.5787 63.7548C37.4936 63.7548 30.2567 67.5074 29.9547 67.6682C28.2306 68.5793 27.5759 70.7091 28.4777 72.4391C28.6946 72.8582 28.9856 73.2141 29.3261 73.5027C31.1147 75.0156 32.1428 77.2526 32.1222 79.5968C32.1085 81.2966 32.1428 83.0816 32.1428 84.9201C32.1428 88.4626 32.8635 91.7975 34.1332 94.7299H34.1318C36.8196 103.468 37.7049 110.448 32.788 121.425C31.6692 123.921 28.5848 127.608 28.5848 134.545C28.5848 153.311 29.7955 155.566 49.5787 155.567C69.3633 155.566 70.5726 153.311 70.5726 134.545C70.5726 127.608 67.4882 123.921 66.3708 121.425C61.4552 110.448 62.3379 103.468 65.0256 94.7299C66.2939 91.7975 67.0146 88.4626 67.0146 84.9201C67.0146 83.0816 67.0503 81.2966 67.0352 79.5968Z" fill="#FFA898"/>
</g>
<mask id="mask14" mask-type="alpha" maskUnits="userSpaceOnUse" x="0" y="0" width="123" height="134">
<path fill-rule="evenodd" clip-rule="evenodd" d="M3.23546 0.179382C1.60058 0.179382 0.273193 1.50814 0.273193 3.14471V130.281C0.273193 131.919 1.60058 133.248 3.23546 133.248H119.313C120.948 133.248 122.275 131.919 122.275 130.281V3.14471C122.275 1.50814 120.948 0.179382 119.313 0.179382" fill="white"/>
</mask>
<g mask="url(#mask14)">
<path d="M68.1574 87.7911C68.1574 92.114 64.657 95.618 60.3385 95.618H38.8285C34.5086 95.618 31.0096 92.114 31.0096 87.7911C31.0096 83.4681 34.5086 79.9642 38.8285 79.9642H60.3385C64.657 79.9642 68.1574 83.4681 68.1574 87.7911Z" fill="#FFA898"/>
</g>
<mask id="mask15" mask-type="alpha" maskUnits="userSpaceOnUse" x="0" y="0" width="123" height="134">
<path fill-rule="evenodd" clip-rule="evenodd" d="M3.23546 0.179382C1.60058 0.179382 0.273193 1.50814 0.273193 3.14471V130.281C0.273193 131.919 1.60058 133.248 3.23546 133.248H119.313C120.948 133.248 122.275 131.919 122.275 130.281V3.14471C122.275 1.50814 120.948 0.179382 119.313 0.179382" fill="white"/>
</mask>
<g mask="url(#mask15)">
<path d="M62.2796 92.0726H36.8876C34.6652 92.0726 32.6638 91.1396 31.2404 89.6501C32.075 93.0744 35.1511 95.6192 38.8286 95.6192H60.3386C64.0174 95.6192 67.0922 93.0744 67.9268 89.6501C66.5034 91.1396 64.502 92.0726 62.2796 92.0726Z" fill="#F48989"/>
</g>
<mask id="mask16" mask-type="alpha" maskUnits="userSpaceOnUse" x="0" y="0" width="123" height="134">
<path fill-rule="evenodd" clip-rule="evenodd" d="M3.23546 0.179382C1.60058 0.179382 0.273193 1.50814 0.273193 3.14471V130.281C0.273193 131.919 1.60058 133.248 3.23546 133.248H119.313C120.948 133.248 122.275 131.919 122.275 130.281V3.14471C122.275 1.50814 120.948 0.179382 119.313 0.179382" fill="white"/>
</mask>
<g mask="url(#mask16)">
<path d="M71.1938 134.547C71.1938 153.466 69.8554 156.186 49.5753 156.186C29.3034 156.186 27.9678 153.466 27.9678 134.547C27.9678 130.433 29.0371 127.399 30.1394 125.123C30.2739 124.842 30.5594 124.662 30.8738 124.662H68.2878C68.5994 124.662 68.8849 124.842 69.0222 125.122C70.1244 127.392 71.1938 130.442 71.1938 134.547Z" fill="#54939B"/>
</g>
<mask id="mask17" mask-type="alpha" maskUnits="userSpaceOnUse" x="0" y="0" width="123" height="134">
<path fill-rule="evenodd" clip-rule="evenodd" d="M3.23546 0.179382C1.60058 0.179382 0.273193 1.50814 0.273193 3.14471V130.281C0.273193 131.919 1.60058 133.248 3.23546 133.248H119.313C120.948 133.248 122.275 131.919 122.275 130.281V3.14471C122.275 1.50814 120.948 0.179382 119.313 0.179382" fill="white"/>
</mask>
<g mask="url(#mask17)">
<path d="M68.2258 124.663H30.934C31.6203 123.313 32.2915 122.229 32.7281 121.3C32.7514 121.248 32.8036 121.214 32.8612 121.214H66.2889C66.348 121.214 66.4001 121.248 66.4248 121.3C66.86 122.229 67.5395 123.313 68.2258 124.663Z" fill="#4B7D88"/>
</g>
<mask id="mask18" mask-type="alpha" maskUnits="userSpaceOnUse" x="0" y="0" width="123" height="134">
<path fill-rule="evenodd" clip-rule="evenodd" d="M3.23546 0.179382C1.60058 0.179382 0.273193 1.50814 0.273193 3.14471V130.281C0.273193 131.919 1.60058 133.248 3.23546 133.248H119.313C120.948 133.248 122.275 131.919 122.275 130.281V3.14471C122.275 1.50814 120.948 0.179382 119.313 0.179382H3.23546Z" fill="white"/>
</mask>
<g mask="url(#mask18)">
<path d="M55.1587 97.0381C55.1752 96.7468 55.1903 96.5022 55.2095 96.2838H43.9274C43.9452 96.5022 43.9631 96.7468 43.9782 97.0381H43.9727C44.2788 102.713 44.3694 122.65 44.4284 158.953C47.7984 159.155 51.3385 159.156 54.7098 158.954C54.7689 122.651 54.8581 102.713 55.1656 97.0381H55.1587Z" fill="#5FA2A8"/>
</g>
<mask id="mask19" mask-type="alpha" maskUnits="userSpaceOnUse" x="0" y="0" width="123" height="134">
<path fill-rule="evenodd" clip-rule="evenodd" d="M3.23546 0.179382C1.60058 0.179382 0.273193 1.50814 0.273193 3.14471V130.281C0.273193 131.919 1.60058 133.248 3.23546 133.248H119.313C120.948 133.248 122.275 131.919 122.275 130.281V3.14471C122.275 1.50814 120.948 0.179382 119.313 0.179382" fill="white"/>
</mask>
<g mask="url(#mask19)">
<path d="M60.0383 78.5454H60.0411C59.9038 76.869 59.6416 75.0841 59.3067 73.2771C59.1708 73.6014 59.0253 73.9298 58.8798 74.2582C58.8592 74.3091 58.8372 74.3571 58.8153 74.4066C58.6464 74.7831 58.4707 75.161 58.2895 75.5389C58.2058 75.7134 58.1234 75.8865 58.0383 76.061C57.9971 76.1421 57.9601 76.2232 57.9203 76.3056C57.8242 76.4966 57.7185 76.6876 57.6183 76.88C57.4934 77.1205 57.3712 77.3596 57.2394 77.6014C57.0925 77.8694 56.9388 78.1359 56.7864 78.4039C56.6505 78.6416 56.5187 78.878 56.3774 79.1143C56.2154 79.385 56.0438 79.6543 55.875 79.9223C55.7294 80.1531 55.5881 80.384 55.4371 80.6135C55.2586 80.8855 55.0692 81.1535 54.8811 81.4228C54.7288 81.6427 54.5778 81.8653 54.4199 82.0824C54.2222 82.3558 54.0108 82.621 53.8049 82.8904C53.6457 83.0965 53.4892 83.3067 53.3259 83.5101C53.1021 83.7849 52.8674 84.0501 52.6354 84.3194C52.4748 84.5049 52.3197 84.6973 52.155 84.8787C51.8887 85.1727 51.6086 85.4544 51.3314 85.7361C51.1886 85.8832 51.0513 86.0357 50.9072 86.1786C50.4762 86.5977 50.0355 87.0031 49.5798 87.3919L49.5784 87.4029C49.5771 87.3961 49.5729 87.3906 49.5688 87.3864C49.4617 87.2957 49.3561 87.2037 49.2517 87.1102C48.5448 86.485 47.8694 85.8131 47.2188 85.1095C47.1405 85.0243 47.0623 84.935 46.9827 84.8485C46.6889 84.5242 46.4007 84.1916 46.1206 83.8536C46.0547 83.7753 45.9902 83.6983 45.9257 83.6186C45.2421 82.7818 44.5956 81.9106 43.9888 81.0161C43.9257 80.924 43.8653 80.8319 43.8035 80.7385C43.5674 80.3854 43.3396 80.0308 43.1158 79.6722C43.0417 79.5526 42.9662 79.4331 42.8934 79.3136C42.8509 79.2448 42.8056 79.1761 42.7644 79.1061C42.7562 79.0923 42.7479 79.08 42.7397 79.0662C42.6889 78.981 42.6381 78.8944 42.5873 78.8079L42.4789 78.6238C42.4555 78.5853 42.435 78.5468 42.413 78.5097C42.3677 78.4314 42.3293 78.3531 42.2826 78.2747C42.0767 77.9133 41.879 77.5506 41.6855 77.1864C41.5894 77.0064 41.4905 76.8292 41.3986 76.6505C41.1762 76.2191 40.9648 75.789 40.7589 75.3575C40.7054 75.2448 40.6477 75.1335 40.5956 75.0208C40.3389 74.4726 40.0986 73.9243 39.8721 73.3815C39.8584 73.3472 39.8447 73.3142 39.831 73.2798C39.496 75.0868 39.2338 76.8704 39.0966 78.5454H39.0993C38.3828 87.1611 41.0897 89.9959 42.7315 92.7372H56.4062C58.0479 89.9959 60.7549 87.1611 60.0383 78.5454Z" fill="#5FA2A8"/>
</g>
<mask id="mask20" mask-type="alpha" maskUnits="userSpaceOnUse" x="0" y="0" width="123" height="134">
<path fill-rule="evenodd" clip-rule="evenodd" d="M3.23546 0.179382C1.60058 0.179382 0.273193 1.50814 0.273193 3.14471V130.281C0.273193 131.919 1.60058 133.248 3.23546 133.248H119.313C120.948 133.248 122.275 131.919 122.275 130.281V3.14471C122.275 1.50814 120.948 0.179382 119.313 0.179382" fill="white"/>
</mask>
<g mask="url(#mask20)">
<path d="M39.8712 73.3812C40.0977 73.9253 40.3393 74.4722 40.5946 75.0205C40.6468 75.1332 40.7045 75.2445 40.758 75.3571C40.9653 75.7886 41.1753 76.2187 41.3977 76.6502C41.491 76.8302 41.5885 77.0074 41.6846 77.1861C41.8795 77.5502 42.0758 77.913 42.283 78.2757C42.4821 78.6234 42.6839 78.9697 42.8925 79.3132C42.9666 79.4341 43.0421 79.5523 43.1149 79.6718C43.3386 80.0305 43.5665 80.3864 43.8026 80.7381C43.8644 80.8316 43.9248 80.9236 43.9879 81.0171C44.596 81.9116 45.2426 82.7842 45.9248 83.6196C45.9893 83.698 46.0552 83.7749 46.1211 83.8546C46.4011 84.1926 46.6894 84.5238 46.9831 84.8481C47.0614 84.936 47.1396 85.024 47.2192 85.1106C47.966 85.9199 48.7498 86.6867 49.5679 87.3861C49.572 87.3902 49.5761 87.3957 49.5775 87.4026L49.5789 87.3929C50.0346 87.0041 50.4766 86.5973 50.9063 86.1782C51.0518 86.0353 51.1877 85.8828 51.3318 85.7371C51.6091 85.4541 51.8878 85.1738 52.1541 84.8797C52.3188 84.6969 52.4753 84.5059 52.6359 84.3191C52.8679 84.0511 53.1026 83.7845 53.3263 83.5097C53.4897 83.3064 53.6448 83.0961 53.804 82.89C54.0113 82.622 54.2213 82.3555 54.4204 82.0834C54.5782 81.8649 54.7278 81.6437 54.8816 81.4224C55.0683 81.1531 55.2577 80.8852 55.4375 80.6131C55.5871 80.385 55.7299 80.1541 55.874 79.9233C56.0429 79.654 56.2145 79.386 56.3764 79.1139C56.5178 78.8776 56.651 78.6413 56.7855 78.4035C56.9392 78.1356 57.093 77.869 57.2385 77.6011C57.3703 77.3606 57.4924 77.1201 57.6187 76.8797C57.7587 76.6062 57.9029 76.3328 58.0374 76.0607C58.1239 75.8862 58.2049 75.713 58.2886 75.5399C58.4698 75.1606 58.6496 74.7814 58.8157 74.4076C58.8363 74.3568 58.8583 74.3087 58.8802 74.2592C59.0285 73.9212 59.1657 73.5887 59.3016 73.2561C58.8871 71.0205 58.3572 68.7449 57.7725 66.5711C56.7004 72.2379 53.6942 78.4585 49.5775 82.7224C45.4498 78.4489 42.4409 72.2091 41.3757 66.5312C40.7841 68.7243 40.2487 71.0218 39.8314 73.2781C39.8438 73.3125 39.8561 73.3468 39.8712 73.3812Z" fill="#69BDBF"/>
</g>
<mask id="mask21" mask-type="alpha" maskUnits="userSpaceOnUse" x="0" y="0" width="123" height="134">
<path fill-rule="evenodd" clip-rule="evenodd" d="M3.23546 0.179382C1.60058 0.179382 0.273193 1.50814 0.273193 3.14471V130.281C0.273193 131.919 1.60058 133.248 3.23546 133.248H119.313C120.948 133.248 122.275 131.919 122.275 130.281V3.14471C122.275 1.50814 120.948 0.179382 119.313 0.179382" fill="white"/>
</mask>
<g mask="url(#mask21)">
<path d="M55.2496 95.8507C55.2538 95.8177 55.2579 95.7833 55.2606 95.7517C55.2661 95.7119 55.2716 95.6748 55.2771 95.6391C55.2867 95.5649 55.2977 95.4989 55.3087 95.4508C55.3183 95.411 55.3279 95.3752 55.3361 95.3368C55.38 95.1087 55.4363 94.8902 55.5022 94.6758C55.5063 94.6593 55.5104 94.6415 55.5159 94.625C55.5805 94.4189 55.6573 94.2182 55.7397 94.0204C55.7493 94.0011 55.7562 93.9805 55.7658 93.9613C55.8509 93.7634 55.9456 93.5683 56.0458 93.3759C56.054 93.3622 56.0609 93.3484 56.0691 93.3333C56.1748 93.1341 56.2874 92.9362 56.4068 92.7369H42.7307C42.8501 92.9362 42.9627 93.1341 43.0684 93.3333C43.0753 93.3484 43.0835 93.3622 43.0904 93.3759C43.1919 93.5683 43.2853 93.7634 43.3718 93.9613C43.38 93.9805 43.3869 94.0011 43.3965 94.0204C43.4802 94.2182 43.5557 94.4189 43.6202 94.625C43.6257 94.6415 43.6298 94.6593 43.6353 94.6758C43.7012 94.8902 43.7575 95.1087 43.8 95.3368C43.8096 95.3752 43.8193 95.411 43.8289 95.4508C43.8385 95.4989 43.8495 95.5649 43.8604 95.6404C43.8659 95.6748 43.8714 95.7105 43.8755 95.7504C43.8797 95.782 43.8838 95.8177 43.8879 95.852C43.9002 95.9743 43.914 96.1186 43.9277 96.2835H55.2098V96.2821C55.2222 96.1172 55.2359 95.973 55.2496 95.8507Z" fill="#517C88"/>
</g>
<mask id="mask22" mask-type="alpha" maskUnits="userSpaceOnUse" x="0" y="0" width="123" height="134">
<path fill-rule="evenodd" clip-rule="evenodd" d="M3.23546 0.179382C1.60058 0.179382 0.273193 1.50814 0.273193 3.14471V130.281C0.273193 131.919 1.60058 133.248 3.23546 133.248H119.313C120.948 133.248 122.275 131.919 122.275 130.281V3.14471C122.275 1.50814 120.948 0.179382 119.313 0.179382" fill="white"/>
</mask>
<g mask="url(#mask22)">
<path d="M31.7342 93.7181C31.4377 93.3194 31.1586 92.9151 30.8941 92.4997C31.1586 92.9151 31.4377 93.3221 31.7342 93.7181Z" fill="#E9E3E8"/>
</g>
<mask id="mask23" mask-type="alpha" maskUnits="userSpaceOnUse" x="0" y="0" width="123" height="134">
<path fill-rule="evenodd" clip-rule="evenodd" d="M3.23546 0.179382C1.60058 0.179382 0.273193 1.50814 0.273193 3.14471V130.281C0.273193 131.919 1.60058 133.248 3.23546 133.248H119.313C120.948 133.248 122.275 131.919 122.275 130.281V3.14471C122.275 1.50814 120.948 0.179382 119.313 0.179382" fill="white"/>
</mask>
<g mask="url(#mask23)">
<path d="M32.6627 94.7885C32.2273 94.3205 31.8198 93.8248 31.4374 93.3126C31.8198 93.8248 32.2273 94.3205 32.6627 94.7885Z" fill="#E9E3E8"/>
</g>
<mask id="mask24" mask-type="alpha" maskUnits="userSpaceOnUse" x="0" y="0" width="123" height="134">
<path fill-rule="evenodd" clip-rule="evenodd" d="M3.23546 0.179382C1.60058 0.179382 0.273193 1.50814 0.273193 3.14471V130.281C0.273193 131.919 1.60058 133.248 3.23546 133.248H119.313C120.948 133.248 122.275 131.919 122.275 130.281V3.14471C122.275 1.50814 120.948 0.179382 119.313 0.179382" fill="white"/>
</mask>
<g mask="url(#mask24)">
<path d="M31.2591 92.9788C30.9581 92.5247 30.6737 92.0623 30.419 91.5888C30.677 92.0623 30.9548 92.5247 31.2591 92.9788Z" fill="#E9E3E8"/>
</g>
<mask id="mask25" mask-type="alpha" maskUnits="userSpaceOnUse" x="0" y="0" width="123" height="134">
<path fill-rule="evenodd" clip-rule="evenodd" d="M3.23546 0.179382C1.60058 0.179382 0.273193 1.50814 0.273193 3.14471V130.281C0.273193 131.919 1.60058 133.248 3.23546 133.248H119.313C120.948 133.248 122.275 131.919 122.275 130.281V3.14471C122.275 1.50814 120.948 0.179382 119.313 0.179382" fill="white"/>
</mask>
<g mask="url(#mask25)">
<path d="M35.4452 92.7373H35.728H42.7315C42.8509 92.9365 42.9634 93.1344 43.0691 93.3337C42.9634 93.1344 42.8509 92.9365 42.7315 92.7373C41.0897 89.9946 38.3828 87.1612 39.0993 78.5455H39.0966C39.2339 76.8705 39.496 75.0869 39.831 73.2799V73.2786C40.2496 71.0209 40.785 68.7234 41.3752 66.5303C41.7239 65.2332 42.0904 63.9731 42.4556 62.7831C41.2339 62.9343 40.0822 63.128 39.0115 63.3328C32.9799 64.4939 29.5962 66.3022 29.3848 66.4177C26.984 67.686 26.0547 70.6815 27.312 73.0834C28.2016 74.8657 30.7397 75.7314 30.704 79.5912C30.6944 80.5215 30.704 81.4875 30.7136 82.4727C30.7191 83.0127 30.6092 83.539 30.3869 84.0323C29.8735 85.1811 29.588 86.4535 29.588 87.7919C29.588 89.0808 29.8625 90.3038 30.3416 91.4182C30.2139 91.1227 30.0986 90.8204 30.0025 90.5099C31.4123 91.8812 33.3244 92.7373 35.4452 92.7373Z" fill="#E9E3E8"/>
</g>
<mask id="mask26" mask-type="alpha" maskUnits="userSpaceOnUse" x="0" y="0" width="123" height="134">
<path fill-rule="evenodd" clip-rule="evenodd" d="M3.23546 0.179382C1.60058 0.179382 0.273193 1.50814 0.273193 3.14471V130.281C0.273193 131.919 1.60058 133.248 3.23546 133.248H119.313C120.948 133.248 122.275 131.919 122.275 130.281V3.14471C122.275 1.50814 120.948 0.179382 119.313 0.179382H3.23546Z" fill="white"/>
</mask>
<g mask="url(#mask26)">
<path d="M43.9784 97.0382C43.9619 96.7468 43.9455 96.5023 43.9276 96.2838C43.9139 96.1189 43.9002 95.9746 43.8878 95.8523C43.9002 95.9773 43.9139 96.1189 43.9276 96.2838H37.6682H37.384C35.4472 96.2838 33.6819 95.5734 32.3188 94.404C32.2282 94.2817 32.1431 94.1567 32.0401 94.0453C32.3572 94.3889 32.618 94.7901 32.802 95.2202C33.8905 98.7846 34.9008 102.658 34.9008 106.852C34.9008 111.205 33.8219 115.655 31.5089 120.806C30.6839 122.733 28.2529 125.783 27.4389 131.04H27.4348C27.0106 132.953 26.6414 135.774 26.3215 139.183H30.9392H35.8795C36.1884 139.183 36.4369 139.432 36.4369 139.741V143.66V155.752C36.4369 156.79 35.8178 157.738 34.8157 158.234C32.3188 159.467 28.2721 159.715 25.1355 158.988C25.1341 158.986 25.1328 158.982 25.1328 158.979C24.5219 174.497 24.3435 191.604 24.3284 199.171C24.3284 199.443 24.4354 199.706 24.629 199.9C24.8212 200.093 25.0833 200.203 25.3579 200.203C31.6626 200.202 37.1369 200.202 43.4527 200.202C43.7258 200.202 43.988 200.093 44.1802 199.9C44.3737 199.707 44.4822 199.445 44.4822 199.171C44.463 184.015 44.4465 170.642 44.4273 158.953C44.3683 122.65 44.279 102.713 43.9715 97.0382H43.9784Z" fill="#E9E3E8"/>
</g>
<mask id="mask27" mask-type="alpha" maskUnits="userSpaceOnUse" x="0" y="0" width="123" height="134">
<path fill-rule="evenodd" clip-rule="evenodd" d="M3.23546 0.179382C1.60058 0.179382 0.273193 1.50814 0.273193 3.14471V130.281C0.273193 131.919 1.60058 133.248 3.23546 133.248H119.313C120.948 133.248 122.275 131.919 122.275 130.281V3.14471C122.275 1.50814 120.948 0.179382 119.313 0.179382" fill="white"/>
</mask>
<g mask="url(#mask27)">
<path d="M43.8092 94.5535C43.5917 94.1547 43.3496 93.7643 43.0901 93.3766C43.3496 93.7643 43.5917 94.1547 43.8092 94.5535Z" fill="#E9E3E8"/>
</g>
<mask id="mask28" mask-type="alpha" maskUnits="userSpaceOnUse" x="0" y="0" width="123" height="134">
<path fill-rule="evenodd" clip-rule="evenodd" d="M3.23546 0.179382C1.60058 0.179382 0.273193 1.50814 0.273193 3.14471V130.281C0.273193 131.919 1.60058 133.248 3.23546 133.248H119.313C120.948 133.248 122.275 131.919 122.275 130.281V3.14471C122.275 1.50814 120.948 0.179382 119.313 0.179382" fill="white"/>
</mask>
<g mask="url(#mask28)">
<path d="M44.0568 96.0076C43.9481 95.5479 43.8043 95.1077 43.6359 94.6757C43.8043 95.1049 43.9481 95.5479 44.0568 96.0076Z" fill="#E9E3E8"/>
</g>
<mask id="mask29" mask-type="alpha" maskUnits="userSpaceOnUse" x="0" y="0" width="123" height="134">
<path fill-rule="evenodd" clip-rule="evenodd" d="M3.23546 0.179382C1.60058 0.179382 0.273193 1.50814 0.273193 3.14471V130.281C0.273193 131.919 1.60058 133.248 3.23546 133.248H119.313C120.948 133.248 122.275 131.919 122.275 130.281V3.14471C122.275 1.50814 120.948 0.179382 119.313 0.179382" fill="white"/>
</mask>
<g mask="url(#mask29)">
<path d="M43.8991 95.9221C43.8886 95.8208 43.8745 95.7266 43.8605 95.6393C43.8745 95.7301 43.8886 95.8208 43.8991 95.9221Z" fill="#E9E3E8"/>
</g>
<mask id="mask30" mask-type="alpha" maskUnits="userSpaceOnUse" x="0" y="0" width="123" height="134">
<path fill-rule="evenodd" clip-rule="evenodd" d="M3.23546 0.179382C1.60058 0.179382 0.273193 1.50814 0.273193 3.14471V130.281C0.273193 131.919 1.60058 133.248 3.23546 133.248H119.313C120.948 133.248 122.275 131.919 122.275 130.281V3.14471C122.275 1.50814 120.948 0.179382 119.313 0.179382" fill="white"/>
</mask>
<g mask="url(#mask30)">
<path d="M43.9688 95.2386C43.8039 94.8232 43.6075 94.4189 43.397 94.0202C43.6075 94.4189 43.8039 94.8232 43.9688 95.2386Z" fill="#E9E3E8"/>
</g>
<mask id="mask31" mask-type="alpha" maskUnits="userSpaceOnUse" x="0" y="0" width="123" height="134">
<path fill-rule="evenodd" clip-rule="evenodd" d="M3.23546 0.179382C1.60058 0.179382 0.273193 1.50814 0.273193 3.14471V130.281C0.273193 131.919 1.60058 133.248 3.23546 133.248H119.313C120.948 133.248 122.275 131.919 122.275 130.281V3.14471C122.275 1.50814 120.948 0.179382 119.313 0.179382H3.23546Z" fill="white"/>
</mask>
<g mask="url(#mask31)">
<path d="M59.3064 73.2765C59.6413 75.0848 59.9049 76.8684 60.0408 78.5448H60.038C60.7559 87.1604 58.0476 89.9952 56.4073 92.7379C56.2878 92.9358 56.1753 93.1337 56.0696 93.3343C56.1753 93.1337 56.2878 92.9358 56.4073 92.7379H63.4231H63.7155C65.8184 92.7379 67.7182 91.8942 69.1239 90.5407C69.397 89.6723 69.5494 88.7503 69.5494 87.7912C69.5494 86.4528 69.2639 85.1817 68.7491 84.0316C68.5295 83.5383 68.4197 83.012 68.4252 82.472C68.4334 81.4881 68.4416 80.5221 68.4334 79.5905C68.3977 75.7306 70.9358 74.8649 71.8253 73.0841C73.0827 70.6822 72.1534 67.6852 69.7525 66.4169C69.5398 66.3029 66.1575 64.4932 60.1272 63.3321C59.0552 63.1287 57.9049 62.9336 56.6818 62.7824C57.0511 63.9861 57.4217 65.2599 57.7731 66.5708C58.3579 68.7447 58.8863 71.0202 59.3023 73.2559L59.3064 73.2765Z" fill="#E9E3E8"/>
</g>
<mask id="mask32" mask-type="alpha" maskUnits="userSpaceOnUse" x="0" y="0" width="123" height="134">
<path fill-rule="evenodd" clip-rule="evenodd" d="M3.23546 0.179382C1.60058 0.179382 0.273193 1.50814 0.273193 3.14471V130.281C0.273193 131.919 1.60058 133.248 3.23546 133.248H119.313C120.948 133.248 122.275 131.919 122.275 130.281V3.14471C122.275 1.50814 120.948 0.179382 119.313 0.179382" fill="white"/>
</mask>
<g mask="url(#mask32)">
<path d="M69.1969 91.5941C68.9394 92.0787 68.6594 92.5522 68.3568 93.0146C68.6594 92.5522 68.9394 92.0787 69.1969 91.5941Z" fill="#E9E3E8"/>
</g>
<mask id="mask33" mask-type="alpha" maskUnits="userSpaceOnUse" x="0" y="0" width="123" height="134">
<path fill-rule="evenodd" clip-rule="evenodd" d="M3.23546 0.179382C1.60058 0.179382 0.273193 1.50814 0.273193 3.14471V130.281C0.273193 131.919 1.60058 133.248 3.23546 133.248H119.313C120.948 133.248 122.275 131.919 122.275 130.281V3.14471C122.275 1.50814 120.948 0.179382 119.313 0.179382" fill="white"/>
</mask>
<g mask="url(#mask33)">
<path d="M68.3205 93.3152C67.9353 93.8274 67.5306 94.3203 67.098 94.7855C67.5306 94.3203 67.9353 93.8247 68.3205 93.3152Z" fill="#E9E3E8"/>
</g>
<mask id="mask34" mask-type="alpha" maskUnits="userSpaceOnUse" x="0" y="0" width="123" height="134">
<path fill-rule="evenodd" clip-rule="evenodd" d="M3.23546 0.179382C1.60058 0.179382 0.273193 1.50814 0.273193 3.14471V130.281C0.273193 131.919 1.60058 133.248 3.23546 133.248H119.313C120.948 133.248 122.275 131.919 122.275 130.281V3.14471C122.275 1.50814 120.948 0.179382 119.313 0.179382" fill="white"/>
</mask>
<g mask="url(#mask34)">
<path d="M68.6785 92.5026C68.4147 92.9262 68.1337 93.3388 67.8384 93.7403C68.1337 93.3388 68.4147 92.9262 68.6785 92.5026Z" fill="#E9E3E8"/>
</g>
<mask id="mask35" mask-type="alpha" maskUnits="userSpaceOnUse" x="0" y="0" width="123" height="134">
<path fill-rule="evenodd" clip-rule="evenodd" d="M3.23546 0.179382C1.60058 0.179382 0.273193 1.50814 0.273193 3.14471V130.281C0.273193 131.919 1.60058 133.248 3.23546 133.248H119.313C120.948 133.248 122.275 131.919 122.275 130.281V3.14471C122.275 1.50814 120.948 0.179382 119.313 0.179382" fill="white"/>
</mask>
<g mask="url(#mask35)">
<path d="M69.6239 90.5413C69.3859 91.1643 69.1002 91.7707 68.7839 92.3633C69.1002 91.7707 69.3859 91.1643 69.6239 90.5413Z" fill="#E9E3E8"/>
</g>
<mask id="mask36" mask-type="alpha" maskUnits="userSpaceOnUse" x="0" y="0" width="123" height="134">
<path fill-rule="evenodd" clip-rule="evenodd" d="M3.23546 0.179382C1.60058 0.179382 0.273193 1.50814 0.273193 3.14471V130.281C0.273193 131.919 1.60058 133.248 3.23546 133.248H119.313C120.948 133.248 122.275 131.919 122.275 130.281V3.14471C122.275 1.50814 120.948 0.179382 119.313 0.179382" fill="white"/>
</mask>
<g mask="url(#mask36)">
<path d="M74.0009 158.989C70.8656 159.715 66.8189 159.467 64.3207 158.234C63.32 157.738 62.7009 156.79 62.7009 155.753V143.66V139.741C62.7009 139.432 62.948 139.184 63.2582 139.184H68.215H72.8162C72.495 135.774 72.1271 132.953 71.7016 131.041H71.6975C70.8835 125.783 68.4524 122.733 67.6275 120.806C65.3159 115.655 64.2355 111.205 64.2355 106.852C64.2355 102.658 65.2458 98.7848 66.3344 95.2203C66.4497 94.951 66.6034 94.7009 66.7723 94.4632C65.4188 95.5968 63.6782 96.2839 61.7743 96.2839H61.4819H55.2101C55.1909 96.5024 55.1744 96.747 55.158 97.0383H55.1648C54.8587 102.713 54.7681 122.652 54.7091 158.954C54.6899 170.642 54.6748 184.015 54.6542 199.172C54.6542 199.445 54.7626 199.707 54.9562 199.9C55.1497 200.094 55.4105 200.202 55.6837 200.202C62.0008 200.202 67.4723 200.202 73.7799 200.203C74.053 200.203 74.3152 200.094 74.5074 199.9C74.7009 199.706 74.8094 199.444 74.8094 199.172C74.7929 191.604 74.6144 174.497 74.005 158.979C74.0036 158.982 74.0022 158.986 74.0009 158.989Z" fill="#E9E3E8"/>
</g>
<mask id="mask37" mask-type="alpha" maskUnits="userSpaceOnUse" x="0" y="0" width="123" height="134">
<path fill-rule="evenodd" clip-rule="evenodd" d="M3.23546 0.179382C1.60058 0.179382 0.273193 1.50814 0.273193 3.14471V130.281C0.273193 131.919 1.60058 133.248 3.23546 133.248H119.313C120.948 133.248 122.275 131.919 122.275 130.281V3.14471C122.275 1.50814 120.948 0.179382 119.313 0.179382" fill="white"/>
</mask>
<g mask="url(#mask37)">
<path d="M56.4816 93.3762C56.2255 93.7639 55.9835 94.1571 55.766 94.5531C55.9835 94.1571 56.2255 93.7639 56.4816 93.3762Z" fill="#E9E3E8"/>
</g>
<mask id="mask38" mask-type="alpha" maskUnits="userSpaceOnUse" x="0" y="0" width="123" height="134">
<path fill-rule="evenodd" clip-rule="evenodd" d="M3.23546 0.179382C1.60058 0.179382 0.273193 1.50814 0.273193 3.14471V130.281C0.273193 131.919 1.60058 133.248 3.23546 133.248H119.313C120.948 133.248 122.275 131.919 122.275 130.281V3.14471C122.275 1.50814 120.948 0.179382 119.313 0.179382" fill="white"/>
</mask>
<g mask="url(#mask38)">
<path d="M55.3021 95.6394C55.2881 95.7266 55.274 95.8244 55.26 95.9257C55.274 95.8209 55.2881 95.7301 55.3021 95.6394Z" fill="#E9E3E8"/>
</g>
<mask id="mask39" mask-type="alpha" maskUnits="userSpaceOnUse" x="0" y="0" width="123" height="134">
<path fill-rule="evenodd" clip-rule="evenodd" d="M3.23546 0.179382C1.60058 0.179382 0.273193 1.50814 0.273193 3.14471V130.281C0.273193 131.919 1.60058 133.248 3.23546 133.248H119.313C120.948 133.248 122.275 131.919 122.275 130.281V3.14471C122.275 1.50814 120.948 0.179382 119.313 0.179382" fill="white"/>
</mask>
<g mask="url(#mask39)">
<path d="M55.3115 95.8506C55.2764 96.0971 55.2414 96.3878 55.2098 96.7173C55.2379 96.3878 55.2764 96.1026 55.3115 95.8506Z" fill="#E9E3E8"/>
</g>
<mask id="mask40" mask-type="alpha" maskUnits="userSpaceOnUse" x="0" y="0" width="123" height="134">
<path fill-rule="evenodd" clip-rule="evenodd" d="M3.23546 0.179382C1.60058 0.179382 0.273193 1.50814 0.273193 3.14471V130.281C0.273193 131.919 1.60058 133.248 3.23546 133.248H119.313C120.948 133.248 122.275 131.919 122.275 130.281V3.14471C122.275 1.50814 120.948 0.179382 119.313 0.179382" fill="white"/>
</mask>
<g mask="url(#mask40)">
<path d="M56.0885 94.0202C55.8746 94.4189 55.6816 94.8232 55.5168 95.2386C55.6816 94.8232 55.8746 94.4189 56.0885 94.0202Z" fill="#E9E3E8"/>
</g>
<mask id="mask41" mask-type="alpha" maskUnits="userSpaceOnUse" x="0" y="0" width="123" height="134">
<path fill-rule="evenodd" clip-rule="evenodd" d="M3.23546 0.179382C1.60058 0.179382 0.273193 1.50814 0.273193 3.14471V130.281C0.273193 131.919 1.60058 133.248 3.23546 133.248H119.313C120.948 133.248 122.275 131.919 122.275 130.281V3.14471C122.275 1.50814 120.948 0.179382 119.313 0.179382" fill="white"/>
</mask>
<g mask="url(#mask41)">
<path d="M55.758 94.6757C55.5896 95.1077 55.4458 95.5479 55.3371 96.0076C55.4458 95.5479 55.5896 95.1049 55.758 94.6757Z" fill="#E9E3E8"/>
</g>
<mask id="mask42" mask-type="alpha" maskUnits="userSpaceOnUse" x="0" y="0" width="123" height="134">
<path fill-rule="evenodd" clip-rule="evenodd" d="M3.23546 0.179382C1.60058 0.179382 0.273193 1.50814 0.273193 3.14471V130.281C0.273193 131.919 1.60058 133.248 3.23546 133.248H119.313C120.948 133.248 122.275 131.919 122.275 130.281V3.14471C122.275 1.50814 120.948 0.179382 119.313 0.179382" fill="white"/>
</mask>
<g mask="url(#mask42)">
<path d="M37.3844 96.2833H37.6685H43.928C43.9143 96.1184 43.9006 95.9769 43.8868 95.8519C43.8827 95.8175 43.8786 95.7818 43.8758 95.7502C43.8717 95.7103 43.8662 95.6746 43.8607 95.6403C43.8498 95.5647 43.8388 95.4987 43.8278 95.4506C43.8182 95.4108 43.81 95.3751 43.8003 95.3366C43.7578 95.1085 43.7015 94.8886 43.6356 94.6756C43.6301 94.6591 43.626 94.6413 43.6205 94.6248C43.556 94.4187 43.4791 94.2181 43.3968 94.0202C43.3872 94.0009 43.3789 93.9803 43.3707 93.9611C43.2856 93.7632 43.1909 93.5681 43.0893 93.3757C43.0824 93.362 43.0756 93.3482 43.0687 93.3345C42.9616 93.1339 42.8491 92.936 42.731 92.7368H35.7276H35.4448C33.324 92.7368 31.4105 91.8821 30.0021 90.5093C30.0982 90.8199 30.2135 91.1222 30.3411 91.4176C30.3658 91.4753 30.3933 91.5317 30.4194 91.588C30.5251 91.8244 30.6431 92.0538 30.768 92.2778C30.8092 92.352 30.8504 92.4262 30.893 92.499C31.0179 92.7065 31.151 92.9072 31.291 93.105C31.3391 93.1737 31.3857 93.2452 31.4365 93.3125C31.626 93.5667 31.825 93.8127 32.0391 94.0449C32.1435 94.1562 32.2286 94.2813 32.3192 94.4036C33.6823 95.5729 35.4475 96.2833 37.3844 96.2833Z" fill="#D3C6CF"/>
</g>
<mask id="mask43" mask-type="alpha" maskUnits="userSpaceOnUse" x="0" y="0" width="123" height="134">
<path fill-rule="evenodd" clip-rule="evenodd" d="M3.23546 0.179382C1.60058 0.179382 0.273193 1.50814 0.273193 3.14471V130.281C0.273193 131.919 1.60058 133.248 3.23546 133.248H119.313C120.948 133.248 122.275 131.919 122.275 130.281V3.14471C122.275 1.50814 120.948 0.179382 119.313 0.179382" fill="white"/>
</mask>
<g mask="url(#mask43)">
<path d="M63.7153 92.7373H63.4229H56.4071C56.2876 92.9365 56.1751 93.1344 56.0694 93.3337C56.0612 93.3474 56.0543 93.3625 56.0461 93.3763C55.9458 93.5686 55.8511 93.7638 55.766 93.9603C55.7564 93.9809 55.7495 94.0001 55.7399 94.0207C55.6576 94.2172 55.5807 94.4178 55.5162 94.6253C55.5107 94.6418 55.5066 94.6583 55.5025 94.6762C55.4366 94.8891 55.3803 95.109 55.3364 95.3371C55.3281 95.3756 55.3185 95.4113 55.3089 95.4512C55.2979 95.4979 55.287 95.5652 55.2773 95.6394C55.2719 95.6751 55.2664 95.7109 55.2609 95.7521C55.2581 95.7823 55.254 95.8167 55.2499 95.851C55.2362 95.9747 55.2224 96.1162 55.2101 96.2811V96.2839H61.4819H61.7743C63.6796 96.2839 65.4188 95.5968 66.7736 94.4618C66.8766 94.3175 66.9781 94.1746 67.0976 94.0454C67.3103 93.8132 67.5107 93.5686 67.6988 93.3144C67.7482 93.2512 67.7922 93.1825 67.8388 93.1166C67.9788 92.9173 68.1147 92.7126 68.241 92.5023C68.2808 92.435 68.3193 92.3677 68.3577 92.299C68.4867 92.0695 68.6062 91.8345 68.716 91.594C68.7379 91.5446 68.7626 91.4951 68.7832 91.4456C68.9109 91.1516 69.0262 90.8493 69.1223 90.5415L69.1237 90.5401C67.718 91.895 65.8182 92.7373 63.7153 92.7373Z" fill="#D3C6CF"/>
</g>
<mask id="mask44" mask-type="alpha" maskUnits="userSpaceOnUse" x="0" y="0" width="123" height="134">
<path fill-rule="evenodd" clip-rule="evenodd" d="M3.23546 0.179382C1.60058 0.179382 0.273193 1.50814 0.273193 3.14471V130.281C0.273193 131.919 1.60058 133.248 3.23546 133.248H119.313C120.948 133.248 122.275 131.919 122.275 130.281V3.14471C122.275 1.50814 120.948 0.179382 119.313 0.179382" fill="white"/>
</mask>
<g mask="url(#mask44)">
<path d="M32.9622 79.7862C32.9485 79.7862 32.9334 79.7862 32.921 79.7862C32.4324 79.7628 32.0549 79.3478 32.0768 78.8586C32.081 78.7748 32.4832 70.3667 33.6733 66.9781C34.873 63.5566 36.7097 61.817 39.0927 61.8788L40.9636 61.7565C41.4454 61.7208 41.8723 62.0959 41.9039 62.5851C41.9341 63.0729 41.5649 63.4948 41.0762 63.5264L39.1352 63.6487C37.4866 63.5841 36.2759 64.9073 35.3425 67.5662C34.4269 70.1757 33.9519 76.6628 33.8476 78.9411C33.8243 79.4165 33.4331 79.7862 32.9622 79.7862Z" fill="#5A3C55"/>
</g>
<mask id="mask45" mask-type="alpha" maskUnits="userSpaceOnUse" x="0" y="0" width="123" height="134">
<path fill-rule="evenodd" clip-rule="evenodd" d="M3.23546 0.179382C1.60058 0.179382 0.273193 1.50814 0.273193 3.14471V130.281C0.273193 131.919 1.60058 133.248 3.23546 133.248H119.313C120.948 133.248 122.275 131.919 122.275 130.281V3.14471C122.275 1.50814 120.948 0.179382 119.313 0.179382" fill="white"/>
</mask>
<g mask="url(#mask45)">
<path d="M33.0641 78.8923C30.8802 78.8923 29.119 80.603 29.119 82.7068V83.1657C29.119 83.5876 29.1904 83.9916 29.3194 84.3708C29.3373 84.4203 29.3551 84.4684 29.3743 84.5179C29.5802 85.0414 29.9001 85.5086 30.3078 85.892C30.7292 86.2891 31.2426 86.5941 31.8136 86.7783C32.003 86.8387 32.198 86.8868 32.3984 86.9198C32.4766 86.9322 32.5562 86.9418 32.6358 86.9514C32.7772 86.9652 32.92 86.9734 33.0641 86.9734C33.3579 86.9734 33.6434 86.9418 33.9179 86.8827C34.0525 86.8539 34.1829 86.8195 34.3105 86.7783C34.9145 86.5845 35.4512 86.2534 35.885 85.8233C36.257 85.4536 36.5535 85.0098 36.7471 84.5165C36.7649 84.4684 36.7841 84.4203 36.8006 84.3708C36.931 83.9916 37.001 83.5876 37.001 83.1657V82.7068C37.001 80.603 35.2398 78.8923 33.0641 78.8923Z" fill="#C5B6C1"/>
</g>
<mask id="mask46" mask-type="alpha" maskUnits="userSpaceOnUse" x="0" y="0" width="123" height="134">
<path fill-rule="evenodd" clip-rule="evenodd" d="M3.23546 0.179382C1.60058 0.179382 0.273193 1.50814 0.273193 3.14471V130.281C0.273193 131.919 1.60058 133.248 3.23546 133.248H119.313C120.948 133.248 122.275 131.919 122.275 130.281V3.14471C122.275 1.50814 120.948 0.179382 119.313 0.179382" fill="white"/>
</mask>
<g mask="url(#mask46)">
<path fill-rule="evenodd" clip-rule="evenodd" d="M29.5815 82.7071C29.5815 80.8493 31.1437 79.346 33.0641 79.346C34.9844 79.346 36.5397 80.8493 36.5397 82.7071C36.5397 84.5649 34.9844 86.0668 33.0641 86.0668C31.1437 86.0668 29.5815 84.5649 29.5815 82.7071ZM31.5897 82.707C31.5897 83.493 32.2513 84.1251 33.064 84.1251C33.878 84.1251 34.53 83.493 34.53 82.707C34.53 82.6341 34.5245 82.5613 34.5149 82.4899C34.5067 82.4431 34.4971 82.3964 34.4847 82.3511C34.4818 82.3413 34.4792 82.3317 34.4766 82.3223C34.473 82.3093 34.4695 82.2965 34.4655 82.2838C34.4435 82.2164 34.4174 82.1518 34.3872 82.09C34.3763 82.068 34.3653 82.0474 34.3543 82.0282C34.3323 81.9869 34.3076 81.9485 34.2815 81.91C34.2541 81.8729 34.2266 81.8358 34.1964 81.8001C34.1676 81.7657 34.1347 81.7314 34.1031 81.6998C34.0537 81.6503 34.0001 81.6063 33.9439 81.5651C33.8876 81.5239 33.8272 81.4868 33.7654 81.4538C33.7229 81.4318 33.6803 81.4112 33.6364 81.3933C33.4607 81.3205 33.2671 81.282 33.064 81.282C33.0132 81.282 32.9638 81.2834 32.9144 81.2889C32.8636 81.293 32.8155 81.3013 32.7675 81.3109C32.6714 81.3287 32.578 81.3576 32.4916 81.3933C32.4476 81.4112 32.4051 81.4318 32.3612 81.4538C32.3117 81.4799 32.2637 81.5101 32.217 81.5417C32.206 81.5486 32.1937 81.5568 32.1827 81.5651C32.1251 81.6063 32.0715 81.6503 32.0221 81.6998C31.9892 81.7314 31.9562 81.7657 31.9274 81.8001C31.8958 81.8358 31.8684 81.8729 31.8409 81.91C31.834 81.9224 31.8258 81.9361 31.8162 81.9485C31.8128 81.954 31.809 81.9598 31.8052 81.9656C31.8014 81.9715 31.7977 81.9773 31.7942 81.9828C31.7894 81.9904 31.7853 81.9979 31.7812 82.0055C31.7771 82.0131 31.773 82.0206 31.7682 82.0282C31.7572 82.0474 31.7462 82.068 31.7352 82.09C31.7078 82.145 31.6844 82.2013 31.6638 82.2604C31.6625 82.2673 31.6597 82.2755 31.657 82.2837L31.657 82.2838C31.6487 82.3057 31.6419 82.3277 31.6364 82.3511C31.6254 82.3896 31.6172 82.4294 31.6103 82.4679L31.6062 82.4899C31.5966 82.5613 31.5897 82.6341 31.5897 82.707Z" fill="#ECE6EA"/>
</g>
<mask id="mask47" mask-type="alpha" maskUnits="userSpaceOnUse" x="0" y="0" width="123" height="134">
<path fill-rule="evenodd" clip-rule="evenodd" d="M3.23546 0.179382C1.60058 0.179382 0.273193 1.50814 0.273193 3.14471V130.281C0.273193 131.919 1.60058 133.248 3.23546 133.248H119.313C120.948 133.248 122.275 131.919 122.275 130.281V3.14471C122.275 1.50814 120.948 0.179382 119.313 0.179382" fill="white"/>
</mask>
<g mask="url(#mask47)">
<path d="M34.4852 82.3511C34.4783 82.3277 34.4728 82.3057 34.4646 82.2837C34.444 82.2164 34.4179 82.1518 34.3877 82.09C34.3767 82.068 34.3658 82.0474 34.3548 82.0282C34.3328 81.9869 34.3081 81.9485 34.282 81.91C34.2546 81.8729 34.2271 81.8358 34.1969 81.8001C34.1681 81.7657 34.1352 81.7313 34.1036 81.6997C34.0542 81.6503 33.9993 81.6063 33.943 81.5651C33.8867 81.5239 33.8277 81.4868 33.7659 81.4538C33.7233 81.4318 33.6808 81.4112 33.6369 81.3933C33.4612 81.3205 33.2676 81.282 33.0645 81.282C33.0137 81.282 32.9643 81.2834 32.9135 81.2889C32.864 81.293 32.816 81.3013 32.768 81.3109C32.6719 81.3287 32.5785 81.3576 32.492 81.3933C32.4481 81.4112 32.4042 81.4318 32.3616 81.4538C32.2999 81.4868 32.2395 81.5239 32.1832 81.5651C32.1255 81.6063 32.072 81.6503 32.0226 81.6997C31.9896 81.7313 31.9567 81.7657 31.9279 81.8001C31.8963 81.8358 31.8688 81.8729 31.8414 81.91C31.8167 81.9485 31.7906 81.9869 31.7686 82.0282C31.7577 82.0474 31.7467 82.068 31.7357 82.09C31.711 82.1408 31.689 82.193 31.6684 82.248C31.6643 82.2604 31.6602 82.2714 31.6561 82.2837C31.6492 82.3057 31.6424 82.3277 31.6369 82.3511C31.6273 82.3882 31.619 82.4253 31.6122 82.4637C31.6094 82.472 31.608 82.4816 31.6067 82.4899C31.5971 82.5613 31.5902 82.6341 31.5902 82.707C31.5902 83.493 32.2518 84.125 33.0645 84.125C33.8785 84.125 34.5305 83.493 34.5305 82.707C34.5305 82.6341 34.525 82.5613 34.514 82.4899C34.5072 82.4431 34.4975 82.3964 34.4852 82.3511Z" fill="#9E8697"/>
</g>
<mask id="mask48" mask-type="alpha" maskUnits="userSpaceOnUse" x="0" y="0" width="123" height="134">
<path fill-rule="evenodd" clip-rule="evenodd" d="M3.23546 0.179382C1.60058 0.179382 0.273193 1.50814 0.273193 3.14471V130.281C0.273193 131.919 1.60058 133.248 3.23546 133.248H119.313C120.948 133.248 122.275 131.919 122.275 130.281V3.14471C122.275 1.50814 120.948 0.179382 119.313 0.179382" fill="white"/>
</mask>
<g mask="url(#mask48)">
<path fill-rule="evenodd" clip-rule="evenodd" d="M29.119 82.7072C29.119 80.6035 30.8802 78.8927 33.0641 78.8927C35.2398 78.8927 37.001 80.6035 37.001 82.7072V82.7072C37.001 82.754 37.001 82.8007 36.9983 82.8474C36.9983 82.857 36.9983 82.868 36.9969 82.8776C36.9955 82.923 36.9928 82.9683 36.9886 83.0136C36.9886 83.0205 36.9873 83.0274 36.9859 83.0343C36.9832 83.0769 36.9804 83.1181 36.9749 83.1579C36.9742 83.1621 36.9739 83.1658 36.9735 83.1696C36.9732 83.1734 36.9729 83.1772 36.9722 83.1813C36.9667 83.2253 36.9598 83.2679 36.9516 83.3118C36.9514 83.313 36.9512 83.3142 36.9511 83.3154C36.9499 83.3242 36.9485 83.3338 36.9461 83.3434C36.9392 83.3874 36.931 83.4314 36.9228 83.4753L36.9228 83.4753C36.9228 83.476 36.9224 83.4767 36.9221 83.4774C36.9217 83.4781 36.9214 83.4788 36.9214 83.4795C36.9205 83.4834 36.9196 83.4873 36.9187 83.4913C36.91 83.5301 36.901 83.57 36.8898 83.6086C36.8884 83.6169 36.8857 83.6265 36.8829 83.6347C36.872 83.6787 36.861 83.7213 36.8486 83.7639C36.8479 83.7667 36.8469 83.7697 36.8459 83.7728C36.8449 83.7759 36.8438 83.779 36.8431 83.7818C36.8308 83.8216 36.8184 83.8601 36.8061 83.8986C36.8047 83.902 36.8037 83.9054 36.8026 83.9089C36.8016 83.9123 36.8006 83.9157 36.7992 83.9192C36.7841 83.9618 36.7676 84.0044 36.7512 84.047C36.7492 84.0539 36.7465 84.0608 36.7436 84.0683C36.7425 84.0712 36.7413 84.0741 36.7402 84.0772C36.7361 84.0861 36.7323 84.0951 36.7285 84.104C36.7247 84.1129 36.721 84.1219 36.7169 84.1308C36.7141 84.137 36.7117 84.1428 36.7093 84.1487C36.7069 84.1545 36.7045 84.1603 36.7018 84.1665C36.7002 84.1702 36.6987 84.174 36.6971 84.1778C36.6917 84.191 36.6862 84.2046 36.6798 84.2174C36.677 84.2242 36.674 84.2308 36.6709 84.2373C36.6678 84.2438 36.6647 84.2503 36.6619 84.2572C36.6556 84.2688 36.6502 84.2811 36.6449 84.2931C36.6432 84.2967 36.6416 84.3004 36.64 84.3039C36.6359 84.3142 36.631 84.3237 36.626 84.3336C36.6242 84.3369 36.6225 84.3403 36.6208 84.3438L36.6208 84.3438C36.6125 84.3603 36.6043 84.3768 36.5961 84.3919C36.5892 84.4042 36.5837 84.4166 36.5782 84.429L36.5782 84.429C36.5741 84.4365 36.5696 84.4444 36.5652 84.4523C36.5607 84.4602 36.5562 84.4681 36.5521 84.4757C36.5453 84.4894 36.5384 84.5018 36.5302 84.5142C36.5233 84.5307 36.5137 84.5472 36.5041 84.5623C36.5007 84.5684 36.4972 84.5739 36.4938 84.5794C36.4904 84.5849 36.4869 84.5904 36.4835 84.5966C36.4768 84.6072 36.4707 84.6178 36.4644 84.6289C36.4617 84.6336 36.4589 84.6384 36.456 84.6433C36.4522 84.6502 36.448 84.6567 36.4435 84.6635C36.44 84.6688 36.4364 84.6744 36.4327 84.6804C36.4286 84.6869 36.4246 84.6933 36.4207 84.6997C36.4127 84.7125 36.4048 84.7253 36.3956 84.7382L36.3833 84.7588L36.3298 84.8371C36.327 84.8408 36.3243 84.8446 36.3215 84.8484C36.316 84.856 36.3105 84.8637 36.305 84.8701C36.2954 84.8852 36.2845 84.9003 36.2735 84.914C36.2639 84.9278 36.2529 84.9415 36.2419 84.9553C36.2362 84.9644 36.2285 84.9746 36.2214 84.9841C36.2199 84.986 36.2185 84.9878 36.2172 84.9896C36.2124 84.9958 36.2072 85.002 36.2021 85.0082C36.1969 85.0143 36.1918 85.0205 36.187 85.0267C36.1774 85.0391 36.1664 85.0528 36.1555 85.0665L36.1554 85.0666L36.1266 85.0995C36.117 85.1133 36.106 85.1256 36.095 85.138L36.095 85.138C36.0902 85.1442 36.0851 85.15 36.0799 85.1559C36.0748 85.1617 36.0696 85.1676 36.0648 85.1737L36.0305 85.2122C36.0209 85.2218 36.0113 85.2328 36.0031 85.2424C35.9907 85.2562 35.9784 85.2685 35.966 85.2809L35.966 85.2809C35.9605 85.2871 35.955 85.2929 35.9495 85.2988C35.944 85.3046 35.9385 85.3105 35.933 85.3167C35.9257 85.3231 35.9184 85.3307 35.9111 85.3383C35.9074 85.3421 35.9038 85.346 35.9001 85.3496L35.8699 85.3799C35.8534 85.395 35.837 85.4115 35.8205 85.428L35.7917 85.4541C35.7833 85.4618 35.7743 85.4698 35.7652 85.478C35.7548 85.4873 35.7442 85.4968 35.734 85.5063L35.7148 85.5241C35.6887 85.5475 35.6626 85.5695 35.6365 85.5901C35.6269 85.5983 35.6187 85.6052 35.6091 85.6121C35.5912 85.6286 35.572 85.6437 35.5514 85.6588C35.5432 85.6657 35.5322 85.6739 35.5212 85.6822C35.5153 85.6867 35.5095 85.6913 35.5037 85.6959C35.4921 85.7051 35.4805 85.7142 35.4677 85.7234C35.4655 85.7251 35.4633 85.7267 35.4611 85.7283C35.4528 85.7345 35.4452 85.7402 35.4375 85.7467C35.4254 85.7557 35.4132 85.7641 35.4013 85.7724C35.3931 85.7781 35.385 85.7837 35.3771 85.7893C35.3675 85.7962 35.3579 85.8031 35.3497 85.8086C35.3208 85.8292 35.292 85.8484 35.2632 85.8663C35.2563 85.8704 35.2494 85.8745 35.2426 85.88C35.2192 85.8952 35.1973 85.9089 35.1726 85.924C35.1647 85.928 35.1575 85.9326 35.15 85.9375C35.1471 85.9394 35.1441 85.9413 35.141 85.9432C35.1323 85.9485 35.1233 85.9535 35.1144 85.9584C35.1023 85.9652 35.0903 85.9718 35.0792 85.979C35.0683 85.9845 35.0573 85.9913 35.0463 85.9982L35.0395 86.0019C35.0206 86.0119 35 86.0229 34.9804 86.0339C34.9722 86.0394 34.9612 86.0449 34.9516 86.049C34.9314 86.061 34.9101 86.0716 34.8887 86.0823C34.8781 86.0877 34.8674 86.093 34.8569 86.0985L34.8473 86.1026C34.8184 86.1178 34.7896 86.1315 34.7594 86.1452C34.7555 86.1469 34.7514 86.1486 34.747 86.1503C34.7407 86.1529 34.7338 86.1557 34.7265 86.159C34.7191 86.1622 34.712 86.1655 34.7048 86.1689C34.6905 86.1756 34.6761 86.1823 34.6606 86.1878C34.6544 86.1906 34.6486 86.1933 34.6427 86.1961C34.6369 86.1988 34.6311 86.2016 34.6249 86.2043L34.5562 86.2318L34.5233 86.2442C34.4958 86.2552 34.4656 86.2662 34.4368 86.2758C34.4345 86.2773 34.4314 86.2784 34.4281 86.2796C34.4255 86.2805 34.4228 86.2814 34.4203 86.2826C34.3874 86.295 34.3531 86.306 34.3188 86.317C34.3119 86.3191 34.3054 86.3211 34.2989 86.3232C34.2923 86.3252 34.2858 86.3273 34.279 86.3294C34.268 86.3325 34.2574 86.3361 34.247 86.3396C34.2393 86.3423 34.2317 86.3449 34.224 86.3472L34.187 86.3568C34.1678 86.3623 34.1486 86.3678 34.128 86.3733C34.1142 86.3775 34.0991 86.3816 34.0854 86.3843C34.0676 86.3898 34.0525 86.394 34.0346 86.3981L33.9852 86.4104C33.9687 86.4132 33.9536 86.4159 33.9385 86.4201C33.933 86.4214 33.9279 86.4225 33.9227 86.4235C33.9176 86.4245 33.9124 86.4256 33.907 86.4269C33.9001 86.4283 33.8946 86.4297 33.8891 86.4311L33.8356 86.4407C33.8264 86.4425 33.816 86.4443 33.8057 86.4462C33.8005 86.4471 33.7953 86.448 33.7903 86.4489C33.7798 86.4513 33.7688 86.4533 33.7573 86.4553C33.7493 86.4567 33.7411 86.4582 33.7326 86.4599C33.7189 86.4613 33.7038 86.464 33.6887 86.4668L33.6324 86.475C33.6253 86.4757 33.6183 86.4766 33.6111 86.4776C33.6029 86.4787 33.5945 86.4798 33.5857 86.4805C33.5836 86.4808 33.5815 86.4811 33.5794 86.4814C33.5625 86.4839 33.5465 86.4862 33.5295 86.4874C33.5166 86.4897 33.5028 86.4911 33.4905 86.4923C33.4884 86.4925 33.4862 86.4927 33.4842 86.4929C33.4747 86.4942 33.4649 86.4949 33.4553 86.4956C33.4454 86.4963 33.4356 86.497 33.4265 86.4984L33.3785 86.5025L33.3194 86.5066C33.3055 86.5066 33.2928 86.5078 33.279 86.5091L33.2755 86.5094C33.2633 86.5101 33.2508 86.5104 33.2384 86.5107C33.2257 86.5111 33.2132 86.5114 33.2014 86.5121C33.1904 86.5121 33.1808 86.5121 33.1712 86.5135C33.1534 86.5135 33.1355 86.5138 33.1177 86.5142C33.0998 86.5145 33.082 86.5149 33.0641 86.5149C33.0471 86.5149 33.0298 86.5145 33.0123 86.5142C32.9945 86.5138 32.9764 86.5135 32.9584 86.5135C32.9502 86.5121 32.9406 86.5121 32.931 86.5121C32.9186 86.5114 32.9056 86.5111 32.8925 86.5107C32.8795 86.5104 32.8665 86.5101 32.8541 86.5094L32.8541 86.5094C32.8417 86.508 32.8294 86.5066 32.817 86.5066L32.7512 86.5025L32.7017 86.4984C32.6907 86.4965 32.679 86.4959 32.6671 86.4953C32.6613 86.495 32.6554 86.4947 32.6496 86.4943C32.6422 86.4935 32.6352 86.4924 32.6284 86.4913C32.6226 86.4903 32.6169 86.4894 32.6111 86.4888L32.5356 86.4805C32.5219 86.4778 32.5082 86.4764 32.4945 86.475C32.4821 86.473 32.4701 86.4712 32.4581 86.4695C32.4461 86.4678 32.4341 86.4661 32.4217 86.464C32.4167 86.4634 32.4116 86.4625 32.4065 86.4615C32.4004 86.4604 32.3941 86.4593 32.3874 86.4585C32.3654 86.4544 32.3435 86.4506 32.3215 86.4469C32.2995 86.4431 32.2776 86.4393 32.2556 86.4352L32.2391 86.4311C32.2375 86.4311 32.2364 86.4306 32.2355 86.4302C32.2348 86.4299 32.2342 86.4297 32.2337 86.4297C32.1952 86.4214 32.1582 86.4132 32.1211 86.4049C32.1163 86.4036 32.1115 86.4025 32.1067 86.4015C32.1019 86.4005 32.0971 86.3994 32.0923 86.3981C32.0781 86.3944 32.0637 86.3907 32.0494 86.3871C32.0207 86.3797 31.9921 86.3724 31.9646 86.3651C31.9625 86.3644 31.9604 86.3637 31.9585 86.363C31.9528 86.361 31.9477 86.3592 31.9426 86.3582C31.9028 86.3472 31.8658 86.3362 31.8301 86.3239C31.8218 86.3225 31.8136 86.3197 31.8054 86.317C31.7903 86.3115 31.7745 86.3064 31.7587 86.3012C31.7429 86.296 31.7271 86.2909 31.712 86.2854C31.7115 86.2854 31.7109 86.2852 31.7102 86.2849C31.7093 86.2845 31.7081 86.284 31.7065 86.284C31.6894 86.2778 31.6729 86.2717 31.6564 86.2655C31.64 86.2593 31.6235 86.2531 31.6063 86.2469C31.6016 86.2445 31.5964 86.2426 31.5909 86.2406C31.587 86.2392 31.5829 86.2377 31.5789 86.2359C31.5555 86.2277 31.5336 86.2181 31.5116 86.2084C31.5022 86.2056 31.4941 86.2022 31.4855 86.1985C31.4816 86.1968 31.4775 86.1951 31.4732 86.1933L31.4732 86.1933C31.454 86.1851 31.4347 86.1768 31.4169 86.1686L31.3771 86.1507L31.3194 86.1246C31.3122 86.1201 31.3038 86.1162 31.2949 86.112C31.2904 86.1099 31.2857 86.1077 31.281 86.1054L31.2206 86.0752L31.2206 86.0751C31.2096 86.0697 31.2014 86.0655 31.1918 86.06C31.1781 86.0532 31.1647 86.046 31.1513 86.0387C31.1379 86.0315 31.1245 86.0243 31.1108 86.0174C31.1067 86.0147 31.1026 86.0119 31.0984 86.0106L31.0106 85.9597C31.0051 85.9563 30.9996 85.9532 30.9941 85.9501C30.9886 85.947 30.9831 85.9439 30.9776 85.9405C30.9612 85.9295 30.9419 85.9185 30.9227 85.9075C30.9159 85.9024 30.9086 85.8978 30.9011 85.8931C30.8965 85.8902 30.8917 85.8873 30.887 85.8842L30.8376 85.8512C30.8239 85.8429 30.8115 85.8347 30.7992 85.8264L30.7992 85.8264C30.791 85.821 30.7831 85.8155 30.7752 85.81C30.7673 85.8045 30.7594 85.799 30.7511 85.7935C30.7457 85.7893 30.7398 85.7852 30.734 85.7811C30.7282 85.777 30.7223 85.7729 30.7168 85.7687C30.699 85.7564 30.6825 85.744 30.666 85.7316C30.6624 85.7289 30.6586 85.7261 30.6548 85.7234C30.6471 85.7179 30.6395 85.7124 30.6331 85.7069C30.6084 85.689 30.5823 85.6684 30.559 85.6492C30.5576 85.6492 30.5562 85.6478 30.5549 85.6464C30.5274 85.6258 30.5027 85.6052 30.4766 85.5832L30.4492 85.5585C30.4313 85.5448 30.4135 85.5296 30.3984 85.5145C30.3953 85.5119 30.3923 85.5092 30.3894 85.5066C30.3833 85.5011 30.3774 85.4958 30.3709 85.4912L30.3229 85.4458C30.3133 85.4376 30.3036 85.4293 30.2954 85.4211L30.2954 85.4211C30.2803 85.406 30.2638 85.3895 30.2474 85.3744C30.2446 85.3716 30.2419 85.3688 30.2393 85.366C30.2343 85.3607 30.2295 85.3555 30.224 85.351C30.2185 85.3455 30.213 85.3401 30.2075 85.3347C30.1966 85.3242 30.186 85.3139 30.176 85.3029L30.1527 85.2782C30.1362 85.2617 30.1197 85.2438 30.1046 85.226L30.1046 85.226C30.0977 85.2191 30.0909 85.2122 30.0854 85.2053C30.0751 85.1944 30.0655 85.1834 30.0559 85.1724C30.0463 85.1614 30.0367 85.1504 30.0264 85.1394C30.025 85.138 30.0236 85.1363 30.0222 85.1346C30.0209 85.1329 30.0195 85.1311 30.0181 85.1298C30.0117 85.1221 30.0053 85.1143 29.9989 85.1064C29.9846 85.089 29.9701 85.0713 29.955 85.0542C29.9516 85.0501 29.9488 85.046 29.9461 85.0418C29.9433 85.0377 29.9406 85.0336 29.9371 85.0295C29.922 85.0116 29.9083 84.9951 29.8946 84.9772C29.89 84.9699 29.8842 84.9626 29.8784 84.9553C29.8755 84.9516 29.8726 84.9479 29.8699 84.9443C29.8622 84.9328 29.8539 84.9219 29.8454 84.9109C29.8417 84.906 29.8379 84.9012 29.8342 84.8962C29.8327 84.894 29.8311 84.8917 29.8294 84.8894C29.8237 84.8812 29.8173 84.872 29.8109 84.8646C29.8054 84.8556 29.7995 84.8474 29.7937 84.8391C29.7879 84.8309 29.782 84.8227 29.7765 84.8137C29.7738 84.8098 29.771 84.8057 29.7681 84.8015C29.7639 84.7952 29.7595 84.7887 29.7546 84.7821L29.7546 84.7821C29.7436 84.7656 29.7326 84.7491 29.7203 84.7313C29.7172 84.7252 29.7134 84.7192 29.7094 84.7129C29.7061 84.7078 29.7028 84.7025 29.6997 84.6969L29.6667 84.6447C29.6612 84.6351 29.6544 84.6241 29.6475 84.6131L29.6475 84.6131C29.6387 84.5994 29.6306 84.5858 29.6223 84.5716C29.6189 84.5659 29.6154 84.56 29.6118 84.554C29.6091 84.5499 29.607 84.5454 29.605 84.541C29.6029 84.5365 29.6008 84.532 29.5981 84.5279C29.5937 84.5202 29.5893 84.5125 29.5849 84.5049C29.5729 84.4842 29.5611 84.4638 29.55 84.4427C29.5487 84.4386 29.5473 84.4358 29.5459 84.4331C29.5366 84.4144 29.5266 84.3956 29.5168 84.3773C29.5122 84.3688 29.5077 84.3603 29.5034 84.352C29.5013 84.3472 29.4989 84.3424 29.4965 84.3376C29.4941 84.3328 29.4917 84.328 29.4896 84.3232C29.4855 84.3129 29.4807 84.3029 29.4759 84.2929C29.4711 84.283 29.4663 84.273 29.4622 84.2627C29.4553 84.2503 29.4498 84.2394 29.4443 84.227C29.4413 84.2199 29.4384 84.2129 29.4356 84.2061C29.4308 84.1945 29.4262 84.1833 29.421 84.172C29.4183 84.1651 29.4155 84.1586 29.4128 84.1521C29.41 84.1456 29.4073 84.139 29.4045 84.1322C29.3963 84.1157 29.3894 84.0978 29.3826 84.08C29.3798 84.0738 29.3778 84.0679 29.3757 84.0621C29.3737 84.0563 29.3716 84.0504 29.3688 84.0442C29.3524 84.003 29.3373 83.9604 29.3222 83.9178C29.3199 83.9132 29.3185 83.9076 29.3174 83.9027C29.3171 83.9018 29.3169 83.9008 29.3167 83.8999C29.303 83.8615 29.2906 83.8216 29.2783 83.7804C29.2766 83.7771 29.2754 83.7737 29.2742 83.7701C29.2733 83.7677 29.2725 83.7652 29.2714 83.7625C29.2659 83.7412 29.2601 83.7199 29.2542 83.6986C29.2484 83.6773 29.2426 83.656 29.2371 83.6347C29.2357 83.6306 29.2347 83.6262 29.2336 83.6217C29.2326 83.6172 29.2316 83.6128 29.2302 83.6086C29.2192 83.5647 29.2082 83.5207 29.2 83.4767V83.4753C29.1904 83.4314 29.1822 83.386 29.1739 83.3407C29.1733 83.3371 29.1725 83.3332 29.1716 83.3292C29.1704 83.324 29.1692 83.3186 29.1684 83.3132C29.1616 83.2692 29.1547 83.2253 29.1492 83.1799C29.1478 83.173 29.1465 83.1662 29.1465 83.1593L29.1341 83.0329C29.1327 83.0274 29.1327 83.0205 29.1327 83.0136C29.1286 82.9683 29.1259 82.923 29.1231 82.8776C29.1231 82.8719 29.1228 82.8666 29.1224 82.8615C29.1221 82.8567 29.1218 82.852 29.1218 82.8474L29.1218 82.8474C29.1204 82.8006 29.119 82.7539 29.119 82.7072ZM29.582 82.7073C29.582 84.5651 31.1441 86.067 33.0645 86.067C34.9849 86.067 36.5401 84.5651 36.5401 82.7073C36.5401 80.8495 34.9849 79.3462 33.0645 79.3462C31.1441 79.3462 29.582 80.8495 29.582 82.7073Z" fill="#C5B6C1"/>
</g>
<mask id="mask49" mask-type="alpha" maskUnits="userSpaceOnUse" x="0" y="0" width="123" height="134">
<path fill-rule="evenodd" clip-rule="evenodd" d="M3.23546 0.179382C1.60058 0.179382 0.273193 1.50814 0.273193 3.14471V130.281C0.273193 131.919 1.60058 133.248 3.23546 133.248H119.313C120.948 133.248 122.275 131.919 122.275 130.281V3.14471C122.275 1.50814 120.948 0.179382 119.313 0.179382" fill="white"/>
</mask>
<g mask="url(#mask49)">
<path d="M66.7019 78.1153C66.2311 78.1153 65.8399 77.7457 65.8166 77.2703C65.7205 75.183 64.7829 70.2953 63.8234 67.5663C62.8982 64.9321 61.6971 63.6501 60.146 63.6501C60.1309 63.6501 60.1158 63.6501 60.102 63.6515L58.0924 63.5264C57.6024 63.4948 57.2331 63.073 57.2633 62.5852C57.2935 62.096 57.7232 61.7222 58.2036 61.7566L60.1446 61.8803C62.4699 61.8555 64.2942 63.5567 65.494 66.9782C66.5276 69.9215 67.4844 74.97 67.5873 77.1878C67.6093 77.677 67.2332 78.092 66.7431 78.1153C66.7308 78.1153 66.7157 78.1153 66.7019 78.1153Z" fill="#5A3C55"/>
</g>
<mask id="mask50" mask-type="alpha" maskUnits="userSpaceOnUse" x="0" y="0" width="123" height="134">
<path fill-rule="evenodd" clip-rule="evenodd" d="M3.23546 0.179382C1.60058 0.179382 0.273193 1.50814 0.273193 3.14471V130.281C0.273193 131.919 1.60058 133.248 3.23546 133.248H119.313C120.948 133.248 122.275 131.919 122.275 130.281V3.14471C122.275 1.50814 120.948 0.179382 119.313 0.179382" fill="white"/>
</mask>
<g mask="url(#mask50)">
<path d="M65.8144 103.401C64.9359 103.401 64.0697 103.132 63.3436 102.62C62.384 101.942 61.7375 100.884 61.5728 99.7174C60.4156 91.5305 59.5412 77.6341 66.686 76.5458C67.1637 76.473 67.6209 76.8055 67.695 77.2892C67.7691 77.7729 67.4369 78.225 66.9524 78.2992C60.9413 79.2143 62.6572 94.7335 63.3271 99.4687C63.4245 100.153 63.8007 100.773 64.3635 101.17C64.9276 101.568 65.6346 101.715 66.3127 101.578L68.4225 101.144C68.9057 101.046 69.371 101.355 69.4685 101.835C69.5673 102.314 69.2598 102.783 68.7794 102.882L66.6696 103.315C66.3868 103.373 66.0999 103.401 65.8144 103.401Z" fill="#5A3C55"/>
</g>
<mask id="mask51" mask-type="alpha" maskUnits="userSpaceOnUse" x="0" y="0" width="123" height="134">
<path fill-rule="evenodd" clip-rule="evenodd" d="M3.23546 0.179382C1.60058 0.179382 0.273193 1.50814 0.273193 3.14471V130.281C0.273193 131.919 1.60058 133.248 3.23546 133.248H119.313C120.948 133.248 122.275 131.919 122.275 130.281V3.14471C122.275 1.50814 120.948 0.179382 119.313 0.179382" fill="white"/>
</mask>
<g mask="url(#mask51)">
<path d="M66.4901 103.333C66.0783 103.333 65.834 101.676 66.313 101.578L68.4228 101.144C68.906 101.045 69.3714 101.356 69.4688 101.835C69.5677 102.315 69.2602 102.783 68.7797 102.881L66.6699 103.315C66.6095 103.328 66.5491 103.333 66.4901 103.333Z" fill="#C5B6C1"/>
</g>
<mask id="mask52" mask-type="alpha" maskUnits="userSpaceOnUse" x="0" y="0" width="123" height="134">
<path fill-rule="evenodd" clip-rule="evenodd" d="M3.23546 0.179382C1.60058 0.179382 0.273193 1.50814 0.273193 3.14471V130.281C0.273193 131.919 1.60058 133.248 3.23546 133.248H119.313C120.948 133.248 122.275 131.919 122.275 130.281V3.14471C122.275 1.50814 120.948 0.179382 119.313 0.179382" fill="white"/>
</mask>
<g mask="url(#mask52)">
<path d="M71.4833 102.519C71.018 102.519 70.6281 102.156 70.5993 101.686C70.5705 101.197 70.9411 100.776 71.4298 100.746L73.5794 100.617C74.2671 100.574 74.9164 100.246 75.357 99.714C75.7963 99.1863 75.9995 98.4883 75.9157 97.8012C75.3337 93.0564 72.9644 77.617 66.9191 78.3027C66.4346 78.3576 65.9939 78.0086 65.939 77.5222C65.8855 77.0357 66.2341 76.596 66.7201 76.541C73.9171 75.7344 76.6652 89.3793 77.6755 97.5855C77.8169 98.7549 77.4682 99.9435 76.7187 100.849C75.9665 101.755 74.8615 102.315 73.6865 102.387L71.5368 102.517C71.519 102.519 71.5012 102.519 71.4833 102.519Z" fill="#5A3C55"/>
</g>
<mask id="mask53" mask-type="alpha" maskUnits="userSpaceOnUse" x="0" y="0" width="123" height="134">
<path fill-rule="evenodd" clip-rule="evenodd" d="M3.23546 0.179382C1.60058 0.179382 0.273193 1.50814 0.273193 3.14471V130.281C0.273193 131.919 1.60058 133.248 3.23546 133.248H119.313C120.948 133.248 122.275 131.919 122.275 130.281V3.14471C122.275 1.50814 120.948 0.179382 119.313 0.179382" fill="white"/>
</mask>
<g mask="url(#mask53)">
<path d="M71.4834 102.638C71.0181 102.638 70.6282 102.252 70.5994 101.753C70.5706 101.233 70.9412 100.786 71.4299 100.754L73.5795 100.617C74.0627 100.582 74.1753 102.465 73.6866 102.498L71.5369 102.636C71.5191 102.638 71.5013 102.638 71.4834 102.638Z" fill="#C5B6C1"/>
</g>
<mask id="mask54" mask-type="alpha" maskUnits="userSpaceOnUse" x="0" y="0" width="123" height="134">
<path fill-rule="evenodd" clip-rule="evenodd" d="M3.23546 0.179382C1.60058 0.179382 0.273193 1.50814 0.273193 3.14471V130.281C0.273193 131.919 1.60058 133.248 3.23546 133.248H119.313C120.948 133.248 122.275 131.919 122.275 130.281V3.14471C122.275 1.50814 120.948 0.179382 119.313 0.179382" fill="white"/>
</mask>
<g mask="url(#mask54)">
<path d="M39.5602 85.5488C37.4971 79.2128 41.9089 63.5755 42.7805 62.3127C42.8917 62.1505 42.9288 61.9485 42.8821 61.7575C42.8341 61.5665 42.7078 61.4044 42.5335 61.3137L42.4401 61.2656C41.7263 60.8918 40.8464 61.0911 40.3632 61.7355C40.0214 62.1918 39.5753 62.7359 39.0111 63.3323C38.8986 63.4532 38.7805 63.5755 38.657 63.7005C38.3221 64.0372 38.0324 64.4274 37.8073 64.8465V64.8493L37.7977 64.8575C37.7085 65.0348 37.6028 65.2203 37.4957 65.4072C37.0619 66.1877 36.5746 67.0286 36.0516 67.827C35.2157 69.1351 34.3083 70.3498 33.4545 71.0987C33.1964 71.3241 33.0441 71.6484 33.0303 71.9905C33.0166 72.334 33.1456 72.6666 33.3859 72.9125C34.9013 74.4667 36.9288 76.5773 36.9288 76.5773L33.3584 80.3973C33.0248 80.7546 32.9301 81.2767 33.1182 81.7288C33.8512 83.5055 35.8993 87.948 38.7531 89.9721C42.3756 92.5334 43.1827 93.6066 43.8279 95.4506C42.8464 91.1689 41.9336 92.8618 39.5602 85.5488Z" fill="#FAF9FA"/>
</g>
<mask id="mask55" mask-type="alpha" maskUnits="userSpaceOnUse" x="0" y="0" width="123" height="134">
<path fill-rule="evenodd" clip-rule="evenodd" d="M3.23546 0.179382C1.60058 0.179382 0.273193 1.50814 0.273193 3.14471V130.281C0.273193 131.919 1.60058 133.248 3.23546 133.248H119.313C120.948 133.248 122.275 131.919 122.275 130.281V3.14471C122.275 1.50814 120.948 0.179382 119.313 0.179382" fill="white"/>
</mask>
<g mask="url(#mask55)">
<path d="M59.5769 85.5488C61.64 79.2128 57.2269 63.5755 56.3566 62.3127C56.2454 62.1505 56.2083 61.9485 56.255 61.7575C56.3017 61.5665 56.4293 61.4044 56.6036 61.3137L56.6956 61.2656C57.4108 60.8918 58.2907 61.0911 58.7739 61.7355C59.1157 62.1918 59.5618 62.7359 60.126 63.3323C60.2385 63.4532 60.3566 63.5755 60.4801 63.7005C60.8137 64.0372 61.1047 64.4274 61.3284 64.8465L61.3298 64.8493L61.3394 64.8575C61.4287 65.0348 61.5343 65.2203 61.6414 65.4072C62.0738 66.1877 62.5625 67.0286 63.0841 67.827C63.9215 69.1351 64.8274 70.3498 65.6812 71.0987C65.9407 71.3241 66.093 71.6484 66.1068 71.9905C66.1205 72.334 65.9915 72.6666 65.7513 72.9125C64.2358 74.4667 62.207 76.5773 62.207 76.5773L65.7787 80.3973C66.1123 80.7546 66.207 81.2767 66.0189 81.7288C65.2859 83.5055 63.2379 87.948 60.3827 89.9721C56.7615 92.5334 55.9544 93.6066 55.3092 95.4506C56.2907 91.1689 57.2035 92.8618 59.5769 85.5488Z" fill="#FAF9FA"/>
</g>
<mask id="mask56" mask-type="alpha" maskUnits="userSpaceOnUse" x="0" y="0" width="123" height="134">
<path fill-rule="evenodd" clip-rule="evenodd" d="M3.23546 0.179382C1.60058 0.179382 0.273193 1.50814 0.273193 3.14471V130.281C0.273193 131.919 1.60058 133.248 3.23546 133.248H119.313C120.948 133.248 122.275 131.919 122.275 130.281V3.14471C122.275 1.50814 120.948 0.179382 119.313 0.179382" fill="white"/>
</mask>
<g mask="url(#mask56)">
<path d="M68.3933 32.9637C67.0042 32.7137 65.4489 34.9026 64.9218 37.8501C64.3919 40.7975 65.0893 43.3891 66.477 43.6392C67.8662 43.8893 69.4215 41.7017 69.9513 38.7529C70.4798 35.8054 69.7825 33.2138 68.3933 32.9637Z" fill="#F48989"/>
</g>
<mask id="mask57" mask-type="alpha" maskUnits="userSpaceOnUse" x="0" y="0" width="123" height="134">
<path fill-rule="evenodd" clip-rule="evenodd" d="M3.23546 0.179382C1.60058 0.179382 0.273193 1.50814 0.273193 3.14471V130.281C0.273193 131.919 1.60058 133.248 3.23546 133.248H119.313C120.948 133.248 122.275 131.919 122.275 130.281V3.14471C122.275 1.50814 120.948 0.179382 119.313 0.179382" fill="white"/>
</mask>
<g mask="url(#mask57)">
<path d="M30.7731 32.9637C32.1636 32.7137 33.7189 34.9026 34.246 37.8501C34.7745 40.7975 34.0771 43.3891 32.6894 43.6392C31.3002 43.8893 29.7449 41.7017 29.2165 38.7529C28.6866 35.8054 29.3839 33.2138 30.7731 32.9637Z" fill="#F48989"/>
</g>
<mask id="mask58" mask-type="alpha" maskUnits="userSpaceOnUse" x="0" y="0" width="123" height="134">
<path fill-rule="evenodd" clip-rule="evenodd" d="M3.23546 0.179382C1.60058 0.179382 0.273193 1.50814 0.273193 3.14471V130.281C0.273193 131.919 1.60058 133.248 3.23546 133.248H119.313C120.948 133.248 122.275 131.919 122.275 130.281V3.14471C122.275 1.50814 120.948 0.179382 119.313 0.179382" fill="white"/>
</mask>
<g mask="url(#mask58)">
<path d="M67.6926 35.2752C67.6926 22.5482 64.4284 12.2314 49.5841 12.2314C34.7385 12.2314 31.4742 22.5482 31.4742 35.2752C31.4742 48.0021 39.5827 58.3203 49.5841 58.3203C59.5842 58.3203 67.6926 48.0021 67.6926 35.2752Z" fill="#FFA898"/>
</g>
<mask id="mask59" mask-type="alpha" maskUnits="userSpaceOnUse" x="0" y="0" width="123" height="134">
<path fill-rule="evenodd" clip-rule="evenodd" d="M3.23546 0.179382C1.60058 0.179382 0.273193 1.50814 0.273193 3.14471V130.281C0.273193 131.919 1.60058 133.248 3.23546 133.248H119.313C120.948 133.248 122.275 131.919 122.275 130.281V3.14471C122.275 1.50814 120.948 0.179382 119.313 0.179382" fill="white"/>
</mask>
<g mask="url(#mask59)">
<path d="M67.6926 35.2752C67.6926 22.5482 64.4284 12.2314 49.5841 12.2314C34.7385 12.2314 31.4742 22.5482 31.4742 35.2752C31.4742 48.0021 39.5827 58.3203 49.5841 58.3203C59.5842 58.3203 67.6926 48.0021 67.6926 35.2752Z" fill="#FFA898"/>
</g>
<mask id="mask60" mask-type="alpha" maskUnits="userSpaceOnUse" x="0" y="0" width="123" height="134">
<path fill-rule="evenodd" clip-rule="evenodd" d="M3.23546 0.179382C1.60058 0.179382 0.273193 1.50814 0.273193 3.14471V130.281C0.273193 131.919 1.60058 133.248 3.23546 133.248H119.313C120.948 133.248 122.275 131.919 122.275 130.281V3.14471C122.275 1.50814 120.948 0.179382 119.313 0.179382" fill="white"/>
</mask>
<g mask="url(#mask60)">
<path d="M47.8497 58.2089C48.4247 58.2543 49.0583 58.345 49.7421 58.4323C49.0917 58.3869 48.4442 58.3206 47.8134 58.2298C47.8302 58.2089 47.8302 58.2089 47.8497 58.2089Z" fill="#FFA898"/>
</g>
<mask id="mask61" mask-type="alpha" maskUnits="userSpaceOnUse" x="0" y="0" width="123" height="134">
<path fill-rule="evenodd" clip-rule="evenodd" d="M3.23546 0.179382C1.60058 0.179382 0.273193 1.50814 0.273193 3.14471V130.281C0.273193 131.919 1.60058 133.248 3.23546 133.248H119.313C120.948 133.248 122.275 131.919 122.275 130.281V3.14471C122.275 1.50814 120.948 0.179382 119.313 0.179382" fill="white"/>
</mask>
<g mask="url(#mask61)">
<path d="M69.9538 38.7494C69.9264 38.9088 69.8921 39.0599 69.8564 39.2097C69.9978 31.5861 67.2085 37.9689 66.6141 40.0355C66.9874 31.3828 58.5646 18.1735 58.5646 18.1735C46.8309 40.0438 34.069 35.31 32.9626 34.4058C32.2268 37.0304 32.9626 42.8895 33.5021 45.8686C33.4664 45.8054 33.4389 45.7339 33.4225 45.6735C33.3772 45.5759 33.3332 45.4687 33.2989 45.3629C33.2797 45.2915 33.255 45.22 33.2179 45.15C32.3682 42.8799 31.8013 40.3983 31.5899 37.7834C31.5803 37.7298 31.5803 37.6762 31.5721 37.6322C31.5089 36.8517 31.4746 36.0712 31.4746 35.2742C31.4746 33.2873 31.5529 31.3567 31.7491 29.5112V29.503C32.7842 19.5655 37.0615 12.2332 49.5845 12.2332C63.5502 12.2332 67.2702 21.3655 67.6601 33.0496C67.8989 32.9506 68.1474 32.9163 68.3945 32.9602C69.785 33.2172 70.4768 35.806 69.9538 38.7494Z" fill="#FFA898"/>
</g>
<mask id="mask62" mask-type="alpha" maskUnits="userSpaceOnUse" x="0" y="0" width="123" height="134">
<path fill-rule="evenodd" clip-rule="evenodd" d="M3.23546 0.179382C1.60058 0.179382 0.273193 1.50814 0.273193 3.14471V130.281C0.273193 131.919 1.60058 133.248 3.23546 133.248H119.313C120.948 133.248 122.275 131.919 122.275 130.281V3.14471C122.275 1.50814 120.948 0.179382 119.313 0.179382" fill="white"/>
</mask>
<g mask="url(#mask62)">
<path d="M56.9792 46.7463C56.6086 46.4303 56.0527 46.4756 55.7342 46.8411C55.6656 46.9195 54.0128 48.7553 49.5887 48.7553C49.5873 48.7553 49.5859 48.7553 49.5845 48.7553C49.5818 48.7553 49.5804 48.7553 49.5791 48.7553C45.181 48.7553 43.52 46.9373 43.4363 46.8411C43.1205 46.4729 42.5674 46.4234 42.194 46.7367C41.8179 47.05 41.7685 47.6079 42.0814 47.9844C42.1679 48.0888 44.2626 50.5279 49.5791 50.5279C49.5804 50.5279 49.5818 50.5265 49.5845 50.5265C49.5859 50.5265 49.5873 50.5279 49.5887 50.5279C54.9092 50.5279 57.0026 48.0875 57.0877 47.983C57.3979 47.6106 57.3485 47.061 56.9792 46.7463Z" fill="#D63E39"/>
</g>
<mask id="mask63" mask-type="alpha" maskUnits="userSpaceOnUse" x="0" y="0" width="123" height="134">
<path fill-rule="evenodd" clip-rule="evenodd" d="M3.23546 0.179382C1.60058 0.179382 0.273193 1.50814 0.273193 3.14471V130.281C0.273193 131.919 1.60058 133.248 3.23546 133.248H119.313C120.948 133.248 122.275 131.919 122.275 130.281V3.14471C122.275 1.50814 120.948 0.179382 119.313 0.179382" fill="white"/>
</mask>
<g mask="url(#mask63)">
<path d="M60.0112 40.0314H60.014C60.8129 40.0314 61.4621 39.3828 61.4621 38.5817V37.6734C61.4621 36.8723 60.8129 36.2238 60.014 36.2238C59.2137 36.2238 58.5658 36.8723 58.5658 37.6734V38.5845C58.5658 39.3842 59.2123 40.0314 60.0112 40.0314Z" fill="#532442"/>
</g>
<mask id="mask64" mask-type="alpha" maskUnits="userSpaceOnUse" x="0" y="0" width="123" height="134">
<path fill-rule="evenodd" clip-rule="evenodd" d="M3.23546 0.179382C1.60058 0.179382 0.273193 1.50814 0.273193 3.14471V130.281C0.273193 131.919 1.60058 133.248 3.23546 133.248H119.313C120.948 133.248 122.275 131.919 122.275 130.281V3.14471C122.275 1.50814 120.948 0.179382 119.313 0.179382" fill="white"/>
</mask>
<g mask="url(#mask64)">
<path d="M37.7064 37.6746V38.5815C37.7064 39.3826 38.3557 40.0312 39.1559 40.0312C39.9549 40.0312 40.6028 39.3826 40.6028 38.5815V37.6746C40.6028 36.8735 39.9549 36.2249 39.1559 36.2249C38.3557 36.2249 37.7064 36.8735 37.7064 37.6746Z" fill="#532442"/>
</g>
<mask id="mask65" mask-type="alpha" maskUnits="userSpaceOnUse" x="0" y="0" width="123" height="134">
<path fill-rule="evenodd" clip-rule="evenodd" d="M3.23546 0.179382C1.60058 0.179382 0.273193 1.50814 0.273193 3.14471V130.281C0.273193 131.919 1.60058 133.248 3.23546 133.248H119.313C120.948 133.248 122.275 131.919 122.275 130.281V3.14471C122.275 1.50814 120.948 0.179382 119.313 0.179382" fill="white"/>
</mask>
<g mask="url(#mask65)">
<path d="M63.7809 34.0004C61.4885 31.4569 57.2222 32.1577 57.0396 32.1893C56.7253 32.2429 56.5166 32.5411 56.5701 32.8544C56.6223 33.1677 56.9229 33.3752 57.2331 33.3243C57.273 33.3175 61.0616 32.7032 62.9271 34.7726C63.041 34.8991 63.1975 34.9636 63.354 34.9636C63.4912 34.9636 63.6299 34.9142 63.7397 34.8139C63.9772 34.6009 63.9936 34.2367 63.7809 34.0004Z" fill="#893327"/>
</g>
<mask id="mask66" mask-type="alpha" maskUnits="userSpaceOnUse" x="0" y="0" width="123" height="134">
<path fill-rule="evenodd" clip-rule="evenodd" d="M3.23546 0.179382C1.60058 0.179382 0.273193 1.50814 0.273193 3.14471V130.281C0.273193 131.919 1.60058 133.248 3.23546 133.248H119.313C120.948 133.248 122.275 131.919 122.275 130.281V3.14471C122.275 1.50814 120.948 0.179382 119.313 0.179382" fill="white"/>
</mask>
<g mask="url(#mask66)">
<path d="M41.9345 33.3247C42.2488 33.3755 42.5453 33.168 42.5975 32.8533C42.651 32.54 42.4424 32.2432 42.1294 32.1883C41.9496 32.158 37.6819 31.4572 35.3854 34.0007C35.1726 34.2357 35.1918 34.5998 35.4279 34.8142C35.5378 34.9131 35.675 34.9626 35.8137 34.9626C35.9702 34.9626 36.128 34.8994 36.242 34.773C38.1088 32.7036 41.8974 33.3178 41.9345 33.3247Z" fill="#893327"/>
</g>
<mask id="mask67" mask-type="alpha" maskUnits="userSpaceOnUse" x="0" y="0" width="123" height="134">
<path fill-rule="evenodd" clip-rule="evenodd" d="M3.23546 0.179382C1.60058 0.179382 0.273193 1.50814 0.273193 3.14471V130.281C0.273193 131.919 1.60058 133.248 3.23546 133.248H119.313C120.948 133.248 122.275 131.919 122.275 130.281V3.14471C122.275 1.50814 120.948 0.179382 119.313 0.179382" fill="white"/>
</mask>
<g mask="url(#mask67)">
<path d="M58.4912 41.5111C57.5344 41.2418 56.5406 41.7846 56.2578 42.7396C55.975 43.6946 56.5214 44.7018 57.474 44.9917C58.0574 45.1676 58.7987 45.6156 58.9181 45.9481C59.1432 46.583 59.684 47.0131 60.3017 47.1244C60.6024 47.1793 60.9222 47.1587 61.2311 47.0474C62.1727 46.7121 62.6641 45.6747 62.3292 44.732C61.5138 42.4442 58.7973 41.6005 58.4912 41.5111Z" fill="#F8918C"/>
</g>
<mask id="mask68" mask-type="alpha" maskUnits="userSpaceOnUse" x="0" y="0" width="123" height="134">
<path fill-rule="evenodd" clip-rule="evenodd" d="M3.23546 0.179382C1.60058 0.179382 0.273193 1.50814 0.273193 3.14471V130.281C0.273193 131.919 1.60058 133.248 3.23546 133.248H119.313C120.948 133.248 122.275 131.919 122.275 130.281V3.14471C122.275 1.50814 120.948 0.179382 119.313 0.179382" fill="white"/>
</mask>
<g mask="url(#mask68)">
<path d="M40.6771 41.5111C41.6338 41.2418 42.6277 41.7846 42.9104 42.7396C43.1918 43.6946 42.6455 44.7018 41.6929 44.9917C41.1095 45.1676 40.3696 45.6156 40.2502 45.9481C40.0237 46.583 39.4828 47.0131 38.8665 47.1244C38.5645 47.1793 38.246 47.1587 37.9372 47.0474C36.9941 46.7121 36.5027 45.6747 36.839 44.732C37.653 42.4442 40.3696 41.6005 40.6771 41.5111Z" fill="#F8918C"/>
</g>
<mask id="mask69" mask-type="alpha" maskUnits="userSpaceOnUse" x="0" y="0" width="123" height="134">
<path fill-rule="evenodd" clip-rule="evenodd" d="M3.23546 0.179382C1.60058 0.179382 0.273193 1.50814 0.273193 3.14471V130.281C0.273193 131.919 1.60058 133.248 3.23546 133.248H119.313C120.948 133.248 122.275 131.919 122.275 130.281V3.14471C122.275 1.50814 120.948 0.179382 119.313 0.179382" fill="white"/>
</mask>
<g mask="url(#mask69)">
<path d="M70.7703 50.8372C70.3942 51.2041 70.1252 51.6699 70.0003 52.1811C69.4484 54.4222 67.2865 56.416 65.2974 57.0413C64.9515 57.1498 64.6248 57.3271 64.3448 57.5593C63.3235 58.4071 61.8575 58.8468 60.1951 59.0323C58.6179 59.2192 56.8732 59.1739 55.156 59.042V57.2062C60.3352 55.079 64.4903 50.0526 66.4546 43.6341C66.4642 43.6341 66.4725 43.6341 66.4821 43.6437C66.784 43.6959 67.0929 43.6341 67.3949 43.483C68.4217 42.9416 69.3963 41.3022 69.8561 39.2191V39.2109C69.9989 31.5859 67.2082 37.9687 66.6152 40.0353C66.9872 31.3826 58.5644 18.1733 58.5644 18.1733C46.832 40.0436 34.0701 35.3098 32.9624 34.4056C32.2266 37.0301 32.9624 42.8893 33.5032 45.8684C33.5032 45.8766 33.5101 45.8849 33.5101 45.8945C35.6817 51.2219 39.4538 55.336 44.0056 57.2062V58.9884C42.2788 59.1038 40.6041 58.9444 39.1532 58.6242C37.3975 58.2436 35.9823 57.6418 35.2369 57.0289C14.2677 42.4015 31.5787 15.8455 44.714 11.414C53.9261 8.30443 57.6392 10.9963 58.8334 12.3457C59.1423 12.6961 59.6282 12.8349 60.0771 12.703C67.1066 10.6335 72.0881 28.1603 72.6729 33.1689C72.7649 33.9576 72.931 34.7395 73.1671 35.4966C75.2631 42.2188 72.6248 49.0316 70.7703 50.8372Z" fill="#9F462C"/>
</g>
<mask id="mask70" mask-type="alpha" maskUnits="userSpaceOnUse" x="0" y="0" width="123" height="134">
<path fill-rule="evenodd" clip-rule="evenodd" d="M3.23546 0.179382C1.60058 0.179382 0.273193 1.50814 0.273193 3.14471V130.281C0.273193 131.919 1.60058 133.248 3.23546 133.248H119.313C120.948 133.248 122.275 131.919 122.275 130.281V3.14471C122.275 1.50814 120.948 0.179382 119.313 0.179382" fill="white"/>
</mask>
<g mask="url(#mask70)">
<path d="M67.3947 43.4828C67.164 46.3918 65.9149 57.3475 60.1949 59.0322C58.6177 59.2191 56.873 59.1737 55.1558 59.0418V57.206C60.3349 55.0789 64.49 50.0524 66.4544 43.6339C66.464 43.6339 66.4722 43.6339 66.4818 43.6436C66.7838 43.6958 67.0927 43.6339 67.3947 43.4828Z" fill="#893327"/>
</g>
<mask id="mask71" mask-type="alpha" maskUnits="userSpaceOnUse" x="0" y="0" width="123" height="134">
<path fill-rule="evenodd" clip-rule="evenodd" d="M3.23546 0.179382C1.60058 0.179382 0.273193 1.50814 0.273193 3.14471V130.281C0.273193 131.919 1.60058 133.248 3.23546 133.248H119.313C120.948 133.248 122.275 131.919 122.275 130.281V3.14471C122.275 1.50814 120.948 0.179382 119.313 0.179382" fill="white"/>
</mask>
<g mask="url(#mask71)">
<path d="M44.0056 57.2065V58.9887C42.2788 59.1041 40.6041 58.9447 39.1532 58.6245C33.9548 56.3903 33.5032 45.8687 33.5032 45.8687C33.5032 45.877 33.51 45.8852 33.51 45.8948C35.6816 51.2222 39.4538 55.3363 44.0056 57.2065Z" fill="#893327"/>
</g>
<mask id="mask72" mask-type="alpha" maskUnits="userSpaceOnUse" x="0" y="0" width="123" height="134">
<path fill-rule="evenodd" clip-rule="evenodd" d="M3.23546 0.179382C1.60058 0.179382 0.273193 1.50814 0.273193 3.14471V130.281C0.273193 131.919 1.60058 133.248 3.23546 133.248H119.313C120.948 133.248 122.275 131.919 122.275 130.281V3.14471C122.275 1.50814 120.948 0.179382 119.313 0.179382" fill="white"/>
</mask>
<g mask="url(#mask72)">
<path d="M55.5444 16.4711C49.2342 36.2239 29.9424 34.4087 29.9424 34.4087C37.5402 19.4612 55.473 16.3997 55.5444 16.4711Z" fill="#B55C32"/>
</g>
<mask id="mask73" mask-type="alpha" maskUnits="userSpaceOnUse" x="0" y="0" width="123" height="134">
<path fill-rule="evenodd" clip-rule="evenodd" d="M3.23546 0.179382C1.60058 0.179382 0.273193 1.50814 0.273193 3.14471V130.281C0.273193 131.919 1.60058 133.248 3.23546 133.248H119.313C120.948 133.248 122.275 131.919 122.275 130.281V3.14471C122.275 1.50814 120.948 0.179382 119.313 0.179382" fill="white"/>
</mask>
<g mask="url(#mask73)">
<path d="M55.5446 16.4711C49.7176 35.0875 32.9625 34.4059 32.9625 34.4059C44.6963 32.0919 55.5446 16.4711 55.5446 16.4711Z" fill="#893327"/>
</g>
<mask id="mask74" mask-type="alpha" maskUnits="userSpaceOnUse" x="0" y="0" width="123" height="134">
<path fill-rule="evenodd" clip-rule="evenodd" d="M3.23546 0.179382C1.60058 0.179382 0.273193 1.50814 0.273193 3.14471V130.281C0.273193 131.919 1.60058 133.248 3.23546 133.248H119.313C120.948 133.248 122.275 131.919 122.275 130.281V3.14471C122.275 1.50814 120.948 0.179382 119.313 0.179382H3.23546Z" fill="white"/>
</mask>
<g mask="url(#mask74)">
<path d="M56.8209 98.3893C55.9231 98.3893 55.1929 97.6583 55.1929 96.7596V88.4614C55.1929 87.5641 55.9231 86.8331 56.8209 86.8331H69.5608C70.4585 86.8331 71.1888 87.5641 71.1888 88.4614V96.7596C71.1888 97.6583 70.4585 98.3893 69.5608 98.3893H56.8209Z" fill="#D9D0D8"/>
</g>
<mask id="mask75" mask-type="alpha" maskUnits="userSpaceOnUse" x="0" y="0" width="123" height="134">
<path fill-rule="evenodd" clip-rule="evenodd" d="M3.23546 0.179382C1.60058 0.179382 0.273193 1.50814 0.273193 3.14471V130.281C0.273193 131.919 1.60058 133.248 3.23546 133.248H119.313C120.948 133.248 122.275 131.919 122.275 130.281V3.14471C122.275 1.50814 120.948 0.179382 119.313 0.179382H3.23546Z" fill="white"/>
</mask>
<g mask="url(#mask75)">
<path d="M70.4205 88.4614C70.4205 87.986 70.0361 87.5999 69.5612 87.5999H56.8212C56.3463 87.5999 55.9606 87.986 55.9606 88.4614V96.761C55.9606 97.2365 56.3463 97.6212 56.8212 97.6212H69.5612C70.0361 97.6212 70.4205 97.2365 70.4205 96.761V88.4614Z" fill="#F0ECEF"/>
</g>
<mask id="mask76" mask-type="alpha" maskUnits="userSpaceOnUse" x="0" y="0" width="123" height="134">
<path fill-rule="evenodd" clip-rule="evenodd" d="M3.23546 0.179382C1.60058 0.179382 0.273193 1.50814 0.273193 3.14471V130.281C0.273193 131.919 1.60058 133.248 3.23546 133.248H119.313C120.948 133.248 122.275 131.919 122.275 130.281V3.14471C122.275 1.50814 120.948 0.179382 119.313 0.179382H3.23546Z" fill="white"/>
</mask>
<g mask="url(#mask76)">
<path d="M57.1455 93.6256C57.1455 93.752 57.2485 93.8551 57.3748 93.8551H60.2066C60.3343 93.8551 60.4359 93.752 60.4359 93.6256V90.3978C60.4359 90.2714 60.3343 90.1683 60.2066 90.1683H57.3748C57.2485 90.1683 57.1455 90.2714 57.1455 90.3978V93.6256Z" fill="#B3A0AE"/>
</g>
<mask id="mask77" mask-type="alpha" maskUnits="userSpaceOnUse" x="0" y="0" width="123" height="134">
<path fill-rule="evenodd" clip-rule="evenodd" d="M3.23546 0.179382C1.60058 0.179382 0.273193 1.50814 0.273193 3.14471V130.281C0.273193 131.919 1.60058 133.248 3.23546 133.248H119.313C120.948 133.248 122.275 131.919 122.275 130.281V3.14471C122.275 1.50814 120.948 0.179382 119.313 0.179382" fill="white"/>
</mask>
<g mask="url(#mask77)">
<path d="M62.2404 92.8979C62.2404 93.1526 62.3419 93.3603 62.4696 93.3603H65.0214C65.1491 93.3603 65.2507 93.1526 65.2507 92.8979C65.2507 92.6459 65.1491 92.4354 65.0214 92.4354H62.4696C62.3419 92.4354 62.2404 92.6459 62.2404 92.8979Z" fill="#CABAC4"/>
</g>
<mask id="mask78" mask-type="alpha" maskUnits="userSpaceOnUse" x="0" y="0" width="123" height="134">
<path fill-rule="evenodd" clip-rule="evenodd" d="M3.23546 0.179382C1.60058 0.179382 0.273193 1.50814 0.273193 3.14471V130.281C0.273193 131.919 1.60058 133.248 3.23546 133.248H119.313C120.948 133.248 122.275 131.919 122.275 130.281V3.14471C122.275 1.50814 120.948 0.179382 119.313 0.179382H3.23546Z" fill="white"/>
</mask>
<g mask="url(#mask78)">
<path d="M62.2404 91.39C62.2404 91.6447 62.3419 91.8524 62.4682 91.8524H67.5032C67.6295 91.8524 67.7325 91.6447 67.7325 91.39V90.6312C67.7325 90.3737 67.6295 90.1688 67.5032 90.1688H62.4682C62.3419 90.1688 62.2404 90.3737 62.2404 90.6312V91.39Z" fill="#CABAC4"/>
</g>
<mask id="mask79" mask-type="alpha" maskUnits="userSpaceOnUse" x="0" y="0" width="123" height="134">
<path fill-rule="evenodd" clip-rule="evenodd" d="M3.23546 0.179382C1.60058 0.179382 0.273193 1.50814 0.273193 3.14471V130.281C0.273193 131.919 1.60058 133.248 3.23546 133.248H119.313C120.948 133.248 122.275 131.919 122.275 130.281V3.14471C122.275 1.50814 120.948 0.179382 119.313 0.179382" fill="white"/>
</mask>
<g mask="url(#mask79)">
<path d="M69.2352 92.8979C69.2352 92.6431 69.1336 92.4354 69.0073 92.4354H66.4541C66.3264 92.4354 66.2249 92.6459 66.2249 92.8979C66.2249 93.1526 66.3264 93.3603 66.4541 93.3603H69.0059C69.1336 93.3603 69.2352 93.1526 69.2352 92.8979Z" fill="#CABAC4"/>
</g>
<mask id="mask80" mask-type="alpha" maskUnits="userSpaceOnUse" x="0" y="0" width="123" height="134">
<path fill-rule="evenodd" clip-rule="evenodd" d="M3.23546 0.179382C1.60058 0.179382 0.273193 1.50814 0.273193 3.14471V130.281C0.273193 131.919 1.60058 133.248 3.23546 133.248H119.313C120.948 133.248 122.275 131.919 122.275 130.281V3.14471C122.275 1.50814 120.948 0.179382 119.313 0.179382" fill="white"/>
</mask>
<g mask="url(#mask80)">
<path d="M69.2353 93.8586C69.2353 93.6038 69.1338 93.3961 69.0061 93.3961H62.4584C62.3321 93.3961 62.2291 93.6038 62.2291 93.8586C62.2291 94.1133 62.3321 94.321 62.4584 94.321H69.0061C69.1338 94.321 69.2353 94.1133 69.2353 93.8586Z" fill="#CABAC4"/>
</g>
<mask id="mask81" mask-type="alpha" maskUnits="userSpaceOnUse" x="0" y="0" width="123" height="134">
<path fill-rule="evenodd" clip-rule="evenodd" d="M3.23546 0.179382C1.60058 0.179382 0.273193 1.50814 0.273193 3.14471V130.281C0.273193 131.919 1.60058 133.248 3.23546 133.248H119.313C120.948 133.248 122.275 131.919 122.275 130.281V3.14471C122.275 1.50814 120.948 0.179382 119.313 0.179382H3.23546Z" fill="white"/>
</mask>
<g mask="url(#mask81)">
<path d="M55.9601 95.1185V96.7606C55.9601 97.236 56.3458 97.6208 56.8208 97.6208H69.5607C70.0356 97.6208 70.42 97.236 70.42 96.7606V95.1185H55.9601Z" fill="#54939B"/>
</g>
<mask id="mask82" mask-type="alpha" maskUnits="userSpaceOnUse" x="0" y="0" width="123" height="134">
<path fill-rule="evenodd" clip-rule="evenodd" d="M3.23546 0.179382C1.60058 0.179382 0.273193 1.50814 0.273193 3.14471V130.281C0.273193 131.919 1.60058 133.248 3.23546 133.248H119.313C120.948 133.248 122.275 131.919 122.275 130.281V3.14471C122.275 1.50814 120.948 0.179382 119.313 0.179382H3.23546Z" fill="white"/>
</mask>
<g mask="url(#mask82)">
<path d="M64.4978 85.3595C64.4978 85.2331 64.3543 85.1301 64.1782 85.1301H62.7792C62.6031 85.1301 62.4596 85.2331 62.4596 85.3595V88.957C62.4596 89.0834 62.6031 89.1864 62.7792 89.1864H64.1782C64.3543 89.1864 64.4978 89.0834 64.4978 88.957V85.3595Z" fill="#B3A0AE"/>
</g>
<mask id="mask83" mask-type="alpha" maskUnits="userSpaceOnUse" x="0" y="0" width="123" height="134">
<path fill-rule="evenodd" clip-rule="evenodd" d="M3.23546 0.179382C1.60058 0.179382 0.273193 1.50814 0.273193 3.14471V130.281C0.273193 131.919 1.60058 133.248 3.23546 133.248H119.313C120.948 133.248 122.275 131.919 122.275 130.281V3.14471C122.275 1.50814 120.948 0.179382 119.313 0.179382" fill="white"/>
</mask>
<g mask="url(#mask83)">
<path d="M64.1782 85.1307H62.7792C62.6031 85.1307 62.4596 85.2323 62.4596 85.3601V87.1588H64.4978V85.3601C64.4978 85.2323 64.3562 85.1307 64.1782 85.1307Z" fill="#CABAC4"/>
</g>
<mask id="mask84" mask-type="alpha" maskUnits="userSpaceOnUse" x="0" y="0" width="123" height="134">
<path fill-rule="evenodd" clip-rule="evenodd" d="M3.23546 0.179382C1.60058 0.179382 0.273193 1.50814 0.273193 3.14471V130.281C0.273193 131.919 1.60058 133.248 3.23546 133.248H119.313C120.948 133.248 122.275 131.919 122.275 130.281V3.14471C122.275 1.50814 120.948 0.179382 119.313 0.179382" fill="white"/>
</mask>
<g mask="url(#mask84)">
<path d="M105.653 72.3511C108.464 74.0523 112.456 72.4061 114.57 68.6726C115.83 66.4466 120.198 61.258 112.04 58.081C111.729 57.9601 111.481 57.7141 111.358 57.4022C111.234 57.0917 111.245 56.7426 111.39 56.439L114.646 49.6096C114.958 48.9514 114.681 48.1641 114.024 47.8508C113.366 47.5361 112.581 47.8151 112.267 48.4733L110.829 51.4867C109.558 54.1552 108.011 56.7949 106.3 59.2037C105.645 60.1257 105.075 61.3019 104.39 62.5098C102.278 66.2432 102.842 70.65 105.653 72.3511Z" fill="#FFA898"/>
</g>
</g>
</svg>
