<svg enable-background="new 0 0 244.3 326.5" viewBox="0 0 244.3 326.5" xmlns="http://www.w3.org/2000/svg" xmlns:xlink="http://www.w3.org/1999/xlink"><clipPath id="a"><path d="m0-11.8h244.3v294h-244.3z"/></clipPath><path d="m197.7 0h-151.2c-10.7 0-19.4 8.7-19.4 19.4v287.7c0 10.7 8.7 19.4 19.4 19.4h151.2c10.7 0 19.4-8.7 19.4-19.4v-287.7c0-10.7-8.7-19.4-19.4-19.4z" fill="#4c3045"/><g fill="#a0d6d7" opacity=".9"><path d="m197.8 14.5h-151.3c-4.2 0-7.5 3.4-7.5 7.5v252.9c0 4.2 3.4 7.5 7.5 7.5h151.3c4.2 0 7.5-3.4 7.5-7.5v-252.9c0-4.1-3.4-7.5-7.5-7.5z"/><path d="m205.3 101.5-166.3 166.3v7.1c0 4.2 3.4 7.5 7.5 7.5h73.2l85.6-85.6z"/><path d="m39 203.8 166.3-166.3v-15.5c0-4.2-3.4-7.5-7.5-7.5h-37.6l-121.2 121.2z"/></g><g clip-path="url(#a)"><path d="m98.4 120.3c6.4 0 12.2-1.6 17.7-3.2 4.7-1.3 9.1-2.6 13.3-2.6 1 0 1.8-.8 1.8-1.8s-.8-1.8-1.8-1.8c-4.7 0-9.4 1.3-14.3 2.7-5.3 1.5-10.8 3.1-16.7 3.1-7.8 0-9.9-2.5-11.4-4.3-1-1.2-2.1-2.5-4.1-2.5-1 0-1.8.8-1.8 1.8s.8 1.8 1.8 1.8c.3 0 .5.2 1.4 1.2 1.8 2.1 4.7 5.6 14.1 5.6z" fill="#5a3c55"/><path d="m131.2 124.2c-.6 1-1 2.3-1 3.6l-1 66.5c-.2 11.5 5.9 22.3 15.7 28.2l57 34.1c3.4 2 7.8.9 9.9-2.5 2-3.4.9-7.8-2.5-9.9l-57-34.1c-5.5-3.3-8.8-9.3-8.7-15.7l1-66.5c.1-4-3.1-7.2-7.1-7.3-2.6.1-5 1.5-6.3 3.6z" fill="#ffa898"/><path d="m143.6 224.8 45.1 27c.7.4 1.6.2 2-.5l8.6-14.4c.4-.7.2-1.6-.5-2l-45.1-27c-4.7-2.8-7.5-7.9-7.4-13.3l1-66.4c0-2.6-1-5.1-2.8-7s-4.3-3-7-3c-3.5 0-6.8 1.8-8.6 4.8-.9 1.5-1.4 3.2-1.4 4.9l-1 66.5c-.2 12.3 6.4 24 17.1 30.4z" fill="#e1d9df"/><path d="m176.2 234.6h19.8v8.2h-19.8z" fill="#d6cbd3" transform="matrix(.513 -.8584 .8584 .513 -114.222 275.9944)"/><path d="m235.2 190-49-45.6c-2.4-2.2-6.2-2.1-8.4.3l-65.9 70.8c-2.2 2.4-2.1 6.2.3 8.4l49 45.6c2.4 2.2 6.2 2.1 8.4-.3l65.9-70.8c2.2-2.4 2.1-6.2-.3-8.4zm-68.1 76.6c-1 1.1-2.7 1.1-3.8.1l-48.5-45.2c-1.1-1-1.1-2.7-.1-3.8l65.5-70.4c1-1.1 2.7-1.1 3.8-.1l48.5 45.2c1.1 1 1.1 2.7.1 3.8z" fill="#b6664c"/><path d="m232.5 192.4-48.5-45.2c-1.1-1-2.8-.9-3.8.1l-65.5 70.4c-1 1.1-.9 2.8.1 3.8l48.5 45.2c1.1 1 2.8.9 3.8-.1l65.5-70.4c1-1.1 1-2.8-.1-3.8z" fill="#f0ecef"/><path d="m174.5 243.2-37.1-34.5c-.5-.4-1.2-.4-1.7.1-.4.5-.4 1.2.1 1.7l37.1 34.5c.5.4 1.2.4 1.7-.1.4-.5.4-1.2-.1-1.7z" fill="#cabac4"/><path d="m178.8 238.6-37.1-34.5c-.5-.4-1.2-.4-1.7.1-.4.5-.4 1.2.1 1.7l37.1 34.5c.5.4 1.2.4 1.7-.1.4-.4.4-1.2-.1-1.7z" fill="#cabac4"/><path d="m183 234.1-37-34.5c-.5-.4-1.2-.4-1.7.1-.4.5-.4 1.2.1 1.7l37.1 34.5c.5.4 1.2.4 1.7-.1.4-.5.3-1.3-.2-1.7z" fill="#cabac4"/><path d="m187.3 229.5-37.1-34.5c-.5-.4-1.2-.4-1.7.1s-.4 1.2.1 1.7l37.1 34.5c.5.4 1.2.4 1.7-.1.4-.5.4-1.3-.1-1.7z" fill="#cabac4"/><path d="m191.6 224.9-37.1-34.5c-.5-.4-1.2-.4-1.7.1-.4.5-.4 1.2.1 1.7l37.1 34.5c.5.4 1.2.4 1.7-.1.4-.5.4-1.2-.1-1.7z" fill="#cabac4"/><path d="m195.8 220.3-37.1-34.5c-.5-.4-1.2-.4-1.7.1-.4.5-.4 1.2.1 1.7l37.1 34.5c.5.4 1.2.4 1.7-.1.4-.5.4-1.2-.1-1.7z" fill="#cabac4"/><path d="m200.1 215.8-37.1-34.5c-.5-.4-1.2-.4-1.7.1-.4.5-.4 1.2.1 1.7l37.1 34.5c.5.4 1.2.4 1.7-.1.4-.5.4-1.3-.1-1.7z" fill="#cabac4"/><path d="m204.3 211.2-37.1-34.5c-.5-.4-1.2-.4-1.7.1-.4.5-.4 1.2.1 1.7l37.1 34.5c.5.4 1.2.4 1.7-.1s.4-1.3-.1-1.7z" fill="#cabac4"/><path d="m208.6 206.6-37.1-34.5c-.5-.4-1.2-.4-1.7.1-.4.5-.4 1.2.1 1.7l37.1 34.5c.5.4 1.2.4 1.7-.1.4-.5.4-1.2-.1-1.7z" fill="#cabac4"/><path d="m212.9 202-37.1-34.5c-.5-.4-1.2-.4-1.7.1-.4.5-.4 1.2.1 1.7l37.1 34.5c.5.4 1.2.4 1.7-.1.4-.5.4-1.2-.1-1.7z" fill="#cabac4"/><path d="m220.7 193.5.2-1.6c.2-1.5-.2-2.9-1-4.2l-3.6-5.4c-.5-.8-.4-1.9.2-2.6l4.4-4.8c.8-.8.7-2.2-.1-2.9l-2.4-2.2c-.6-.6-.6-1.5-.1-2.1l3-3.2c2.2-2.4 2.1-6.2-.3-8.4s-6.2-2.1-8.4.3l-3 3.2c-.6.6-1.5.6-2.1.1l-2.4-2.2c-.8-.8-2.2-.7-2.9.1l-4.4 4.8c-.7.7-1.7.9-2.5.4l-5.6-3.2c-1.3-.7-2.8-1-4.2-.7l-1.6.3c-.4.1-.7.4-.8.8s0 .8.3 1.1l35.7 33.2c.3.3.7.4 1.1.2.2-.3.5-.6.5-1zm-6-30.6c-1.4-1.3-1.4-3.4-.2-4.8 1.3-1.4 3.4-1.4 4.8-.2 1.4 1.3 1.4 3.4.2 4.8s-3.5 1.5-4.8.2z" fill="#b8a5b2"/><path d="m193.8 162.9-78.1 75.7-9-9.2c-.5-.6-.5-1.4 0-2l76.2-73.8c.5-.5 1.4-.5 2 0z" fill="#54939b"/><path d="m171.2 276.6-7.1 6.8c-1.5 1.4-3.8 1.4-5.2-.1l-6.8-7.1z" fill="#54939b"/><path d="m229.9 219.7-58.7 56.9-19.1-.3-36.5-37.6 78.2-75.8 36.5 37.7z" fill="#5fa2a8"/><path d="m237 212.8-7.1 6.8.3-19.1 6.8 7.1c1.5 1.5 1.4 3.8 0 5.2z" fill="#54939b"/><path d="m191 230.2c-.3.3-.9.3-1.3 0l-22.2-22.9c-.3-.3-.3-.9 0-1.3l15-14.6c.4-.4.9-.3 1.3 0l22.2 22.9c.3.4.3.9 0 1.3z" fill="#f0ecef"/><path d="m88.2 112.4c0-.1 0-.1 0-.2 0-.3 0-.6 0-.6 0-.4.1-.6.3-.8.1-.2.3-.3.5-.4 0 0 .1 0 .1-.1.2-.1.4-.2.6-.2h.1c.5-.1 1-.2 1.5-.3.2 0 .4 0 .6-.1.2 0 .3-.1.4-.1s.3 0 .4 0c.6-.1 1.1-.1 1.7-.1h.6.5c4.9 0 17.4.1 22.3.9.6.1 1.2.3 1.8.4.2.1.4.1.5.2.4.1.7.3 1 .4.2.1.4.2.5.3.3.2.6.3.8.5.2.1.3.2.5.4.1.1.2.1.3.2 0 0 0 0-.1 0 2 1.7 3.5 4.1 5.4 7.1.5.8 1 1.5 1.3 2.2 8.3 15.5 13.3 31.6 11.5 40.3 0 .1-.1.3-.1.4-1.3 6.3-2 12.7-2 19.1v208.3h-4-18.2-4.6v-215.9c0-6.1-1.8-12-5.2-17.1-2.3-3.3-5-7.2-8.2-11.9-8.5-12.5-10.7-22.1-11.1-27.6 0-.2 0-.4 0-.7-.1-.9-.1-1.6-.1-2.2.3-.1.4-1.5.4-2.4z" fill="#c7b8c3"/><path d="m123.5 112.9c-1.5-1.3-3.2-2.1-5.6-2.6-4.9-.8-17.4-.9-22.3-.9-.2 0-.4 0-.5 0-1 0-1.9.1-2.7.2-.9.1-1.8.3-2.6.4-.1 0-.1 0-.2 0-.6.1-.9.4-1.1.7-.2.4-.2.9-.3 1.5v.2c-1.8.3-3.4.6-5 1 .1-.1.2-.2.4-.4 1.1-1.1 2.6-2.8 3.4-4.1.4-.6 1-1.1 1.7-1.2 2.5-.5 5.1-.8 7.7-.8 20.8-.1 23.1 0 28.1 3.4.4.2.7.5 1.1.8 1.5 1.1 2.9 2.2 4.3 3.4-1.9-.6-4-1.1-6.4-1.6z" fill="#faf9fa"/><path d="m115 114.2c.1-1.4 1.7-2 3.2-1.7l3.4 1.7.3 1.1c-2.2-.4-4.5-.8-6.9-1.1z" fill="#69bdbf"/><path d="m61.8 521.2c-7.6-2.2-13.4 4.7-16.2 9s-11.1 16.3-3 18.6 41.6 11.7 41.6 11.7 2.8.4 4.1-4.2-3-6.4-5-7.8-6.6-5-10.5-12.2c-4-7.3-5.3-13.5-11-15.1z" fill="#ff9e8d"/><path d="m139.4 274.9c4 1.8 6.4 6.1 5.6 10.6l-13.1 75.7c-6.4 37.2-17.7 73.4-33.5 107.7l-32.2 69.8c-2.3 5-8.2 7.1-13.1 4.8-5-2.3-7.1-8.2-4.8-13.1l32.2-69.8c15.1-32.7 25.9-67.2 32-102.7l13.1-75.7c.9-5.4 6-9 11.4-8.1.8.2 1.6.5 2.4.8z" fill="#ff9e8d"/><path d="m38.6 543.3-.6 5.5-.3 3.1c-.1 1.2.6 2.3 1.8 2.6l43 12.1c1.3.4 2.6-.4 3-1.7l.7-2.5h.2c.6-.1 2.2-.8 4.1-5.7.3-.7.3-1.4.3-2.1 0-3.6-3.1-5.6-4.8-6.7-.3-.2-.7-.4-1-.6-3.4-2.4-6.3-5.6-8.7-9.4s0-.1-.1-.1c-.1-.1-.2-.3-.3-.4 0-.1-.1-.2-.2-.3-.9-1.2-2.9-3.3-6.6-4.4-5.3-1.5-8.6 0-10.7 2.4-6.6 9-8.5-4.4-11.7-5.3-.3-.1-.7-.3-1-.2-.3 0-.6.2-.7.4-.9 1.3-3 4.6-3.8 6.2-1.3 2.4-2.3 4.9-2.6 7.1z" fill="#71536a"/><path d="m58.3 535.1 6.9 9.3c1.9 2.6 4.7 4.5 7.8 5.4l17.8 5c0-3.6-3.1-5.6-4.8-6.7-.3-.2-.7-.4-1-.6-3.4-2.4-6.3-5.6-8.7-9.4s0-.1-.1-.1c-.1-.1-.2-.3-.3-.4 0-.1-.1-.2-.2-.3-.9-1.2-2.9-3.3-6.6-4.4-5.4-1.6-8.8-.1-10.8 2.2z" fill="#81657a"/><path d="m38 548.9-.3 3.1c-.1 1.2.6 2.3 1.8 2.6l43 12.1c1.3.4 2.6-.4 3-1.7l.7-2.5h.2z" fill="#53344d"/><path d="m124.3 282-13.1 75.7c-6.1 35.4-16.9 69.8-31.9 102.4l-28.1 60.8c-.3.6 0 1.3.6 1.5l18.1 8.4c.6.3 1.3 0 1.5-.6l28.1-60.8c15.9-34.4 27.2-70.7 33.6-108l13.1-75.7c.9-5-1.7-9.9-6.3-12-.9-.4-1.8-.7-2.8-.9-6-.9-11.8 3.2-12.8 9.2z" fill="#4c8890"/><path d="m75.9 520.5-20.2-9.3-4.5 9.8c-.3.6 0 1.3.6 1.5l18.1 8.4c.6.3 1.3 0 1.5-.6z" fill="#60b5b7"/><path d="m86.4 274c4.4-.2 8.5 2.6 9.8 7l22.6 73.4c11.1 36.1 17.4 73.5 18.8 111.2l2.8 76.8c.2 5.5-4.1 10-9.5 10.2-5.5.2-10-4.1-10.2-9.5l-2.8-76.8c-1.3-36-7.4-71.7-18-106.1l-22.6-73.4c-1.6-5.2 1.3-10.7 6.5-12.4.9-.2 1.7-.3 2.6-.4z" fill="#ffa898"/><path d="m130.7 528.6c-7.9 0-11.7 8.2-13.2 13.1s-6.3 18.7 2.2 18.7h43.2s2.8-.4 2.8-5.2-4.6-5.4-6.9-6.2-7.7-3.1-13.5-8.9c-5.7-5.8-8.7-11.5-14.6-11.5z" fill="#ffa898"/><path d="m114.4 556.2.9 5.5.5 3c.2 1.2 1.2 2 2.4 2h44.7c1.3 0 2.4-1.1 2.4-2.4v-2.6s.1 0 .2-.1c.5-.3 1.9-1.4 2.4-6.6.1-.8-.1-1.5-.3-2.1-1-3.5-4.5-4.5-6.5-5.1-.4-.1-.8-.2-1.1-.4-3.9-1.4-7.6-3.7-11-6.7l-.1-.1c-.1-.1-.3-.2-.4-.3s-.2-.1-.3-.2c-1.2-.9-3.7-2.4-7.6-2.4-5.5 0-8.3 2.4-9.6 5.2-3.9 10.5-9.3-1.9-12.7-1.9-.3 0-.8-.1-1 .1-.3.1-.5.3-.6.6-.5 1.5-1.6 5.3-2 7-.3 2.6-.6 5.3-.3 7.5z" fill="#7b5e74"/><path d="m131.2 543 9.1 7c2.6 2 5.7 3.1 8.9 3.1h18.5c-1-3.5-4.5-4.5-6.5-5.1-.4-.1-.8-.2-1.1-.4-3.9-1.4-7.6-3.7-11-6.7l-.1-.1c-.1-.1-.3-.2-.4-.3s-.2-.1-.3-.2c-1.2-.9-3.7-2.4-7.6-2.4-5.4-.1-8.2 2.3-9.5 5.1z" fill="#8c7185"/><path d="m115.4 561.7.5 3c.2 1.2 1.2 2 2.4 2h44.7c1.3 0 2.4-1.1 2.4-2.4v-2.6s.1 0 .2-.1z" fill="#5a3c55"/><path d="m76.1 287.2 22.6 73.4c10.6 34.3 16.6 69.9 17.9 105.8l2.5 66.9c0 .6.6 1.1 1.2 1.1l20-.7c.6 0 1.1-.6 1.1-1.2l-2.5-66.9c-1.4-37.8-7.7-75.3-18.9-111.5l-22.6-73.4c-1.5-4.8-6-8-11.1-7.9-1 0-1.9.2-2.9.5-5.8 1.8-9.1 8-7.3 13.9z" fill="#54939b"/><path d="m140.9 521.7-22.3.8.4 10.7c0 .6.6 1.1 1.2 1.1l20-.7c.6 0 1.1-.6 1.1-1.2z" fill="#69bdbf"/><circle cx="86.6" cy="283.9" fill="#ffa898" r="9.9"/><circle cx="135.2" cy="283.9" fill="#ffa898" r="9.9"/><path d="m63.2 128c0 4 3.2 7.2 7.2 7.2s7.2-3.2 7.2-7.2-3.2-7.2-7.2-7.2-7.2 3.2-7.2 7.2z" fill="#ffa898"/><path d="m130.2 128c0 4 3.2 7.2 7.2 7.2s7.2-3.2 7.2-7.2-3.2-7.2-7.2-7.2-7.2 3.2-7.2 7.2z" fill="#ffa898"/><path d="m64.1 131.5c-1.9-3.5-.7-7.8 2.8-9.8.6-.3 14.8-8 38.4-8 22 0 35.2 7.8 35.7 8.2 3.4 2.1 4.5 6.5 2.4 9.9-.7 1.1-1.6 2-2.8 2.6-2.3 1.2-3.3 3.9-2.3 6.3 1.3 3.3 3.8 5.9 6.9 7.5 5.2 2.6 8.8 8 8.8 14.2 0 7.5-5.2 13.7-12.2 15.4-2 11.4-9.1 25.9-3 42.9 1.9 5.3 3.6 9.5 4.9 13.4 3.6 8.2 5.1 18.5 5.1 30 0 34.2-13.9 35.6-49.1 35.6 0 0-35.9 1.5-35.4-28.6.1-6.1 2.1-14.5 3.8-19.8 4.6-14.2 11.1-20.5 14.8-25.9 7.4-10.8 7.7-25 .6-36.1-3.3-5.2-6.5-12.1-9.7-21.3-3.1-9-4.3-16.6-4.1-22.9.2-4.5-1.6-8.9-4.8-12.1 0-.3-.4-.9-.8-1.5z" fill="#ffa898"/><path d="m102.8 171.1h41.6c3.2 0 6.1-.9 8.6-2.6-2.4 5.7-8 9.7-14.6 9.7h-34.1c-8.8 0-15.9-7.1-15.9-15.9 0-.1 0-.3 0-.4 2.6 5.5 8.1 9.2 14.4 9.2z" fill="#f48989"/><path d="m86.6 295.1c6.1 0 11.1-5 11.1-11.1s-5-11.1-11.1-11.1-11.1 5-11.1 11.1 5 11.1 11.1 11.1z" fill="#73ffc4"/><ellipse cx="135.2" cy="283.9" fill="#73ffc4" rx="11.1" ry="11.1"/><path d="m63.4 271.1c-.1 8.1 2.3 14.7 7.2 19.7 9.2 9.4 24.3 10.1 28.7 10.1h.9c34.9 0 50.3-1.5 50.3-36.8 0-10.1-1.2-18.8-3.5-26-.2-.6-.8-1.1-1.4-1.1h-71.1c-.7 0-1.3.4-1.6.9-2 3.5-4 7.7-5.7 12.9-1.7 5.5-3.7 14-3.8 20.3z" fill="#54939b"/><path d="m79.8 230.1c-.2 0-.5.1-.6.3-1.4 1.9-3 4.1-4.6 6.7h70.8c-.4-1.2-.9-2.4-1.4-3.5-.4-1.1-.8-2.2-1.2-3.3 0-.1-.1-.2-.2-.2z" fill="#4b7d88"/><path d="m127.7 123.7c.1.7.2 1.4.4 2.1.2 1 .4 2.1.5 3.1.1.8.2 1.6.3 2.5s.3 1.8.4 2.6c.1.9.2 1.8.3 2.8.1.8.2 1.5.2 2.3.1 1 .1 2 .2 2.9 0 .7.1 1.4.1 2.1 0 1 .1 2 .1 3.1v1.9c0 1.1 0 2.3-.1 3.4v1.6c-.1 1.7-.1 3.3-.3 5 0 .5-.7 4.1-.4 4.3-.2-.1-3.2-2.6-5-4.1-14.5-12.1-27.6-25.2-37.3-41.4-.8-1.4-2-2.6-3.4-3.4-.4-.2-.8-.3-1.2-.4 1.6-.4 3.3-.7 5.1-1 1.2-.2 2.4.2 3.1 1.1 1.6 1.8 2.7 4 4 5.9 5.1 7.7 12.9 17.8 29.9 32.4.3-11.6-1.2-23.4-3.8-34.3-.5-2.1-.7-4.8-2.8-5.7 2.5.3 4.8.8 7 1.3.7 1.5 1 3.1 1.4 4.7.5 1.8.9 3.5 1.3 5.2z" fill="#69bdbf"/><path d="m110.9 172.4c-.8-1.3-1.7-2.5-2.5-3.6-3.6-4.6-21.2-16.2-25.5-19-.5-.3-.7-1-.4-1.5l6.5-10.2s-9.1-4.2-12.2-5.6c-.5-.2-.7-.7-.7-1.1.4-3.5 2.2-8.8 3.6-12.6.6-1.8 1.6-3.4 2.7-4.8.4.1.8.2 1.2.4 1.4.8 2.6 2 3.4 3.4 9.7 16.1 22.8 29.3 37.3 41.4 1.8 1.5 4.9 4 5 4.1-.3-.2.4-3.8.4-4.3.1-1.7.2-3.3.3-5 0-.5 0-1.1 0-1.6 0-1.1.1-2.3.1-3.4 0-.6 0-1.3 0-1.9 0-1 0-2-.1-3.1 0-.7-.1-1.4-.1-2.1-.1-1-.1-2-.2-2.9-.1-.8-.2-1.5-.2-2.3-.1-.9-.2-1.8-.3-2.8-.1-.9-.2-1.8-.4-2.6-.1-.8-.2-1.6-.3-2.5-.2-1-.4-2.1-.5-3.1-.1-.7-.2-1.4-.4-2.1-.3-1.7-.7-3.5-1.1-5.2-.4-1.6-.7-3.3-1.4-4.7 2.1.5 4.1 1 5.8 1.6 3.1 2.7 6.1 5.7 8.9 9.2 2.1 2.6 4.3 5.1 6.1 7-.2.4-.4.8-.6 1.2-.9 1.4-2.1 2.6-3.6 3.4-1.3.7-1.9 2.2-1.3 3.6 1.1 2.7 3.2 5 5.9 6.3 2.1 1.1 4 2.5 5.5 4.2-.6 8.9-4.8 17.3-8.8 22h-32.1z" fill="#5fa2a8"/><path d="m114.8 179.6h22.9c-1.4 3.1-2 6-2.1 6.8v20.2 99.4c-4.6.6-10.6.9-18.2 1v-118.9c-.1-2-1.1-5.2-2.6-8.5z" fill="#5fa2a8"/><path d="m112 174.2c0-.1-.1-.1-.1-.2-.3-.6-.7-1.1-1-1.6h32.2c-.6.7-1.1 1.3-1.7 1.8-.4.3-.7.7-1 1.1-.1.1-.1.2-.2.3-.3.4-.6.8-.9 1.2v.1c-.3.4-.5.8-.8 1.3 0 .1-.1.1-.1.2-.2.5-.5.9-.7 1.4h-22.9c-.9-2-1.8-3.8-2.8-5.6z" fill="#517c88"/><g fill="#e9e3e8"><path d="m57.2 388.1c0 .6.2 1.1.6 1.5s.9.6 1.5.6h56c1.2 0 2.1-.9 2.1-2.1v-81.2-118.8c0-2-1.1-5.1-2.6-8.5h-12-.2c-8.8 0-15.9-7.1-15.9-15.9 0-.1 0-.3 0-.4 2.6 5.3 8 9 14.3 9h.2 9.7c-.8-1.3-1.7-2.5-2.5-3.6-3.6-4.6-21.2-16.2-25.5-19-.5-.3-.7-1-.4-1.5l6.5-10.2s-9.1-4.2-12.2-5.6c-.5-.2-.7-.7-.7-1.1.4-3.5 2.2-8.8 3.6-12.6.6-1.8 1.6-3.4 2.7-4.8.2-.2.4-.5.6-.7-10.9 2.4-17.2 5.8-17.6 6-4.8 2.6-6.5 8.7-3.9 13.4.5.8 1 1.6 1.7 2.3 2.7 2.6 4.1 6.3 4 10-.3 6.8 1.1 14.8 4.2 23.9s6.3 16.2 9.9 21.9c6.5 10.2 6.2 23.2-.6 33.1-3.7 5.3-10.5 12.1-15.2 26.6-1.7 5.3-3.4 12.3-3.8 18.1-.5 1.9-4.3 94.8-4.5 119.6z"/><path d="m112 174.2c1 1.7 2 3.6 2.8 5.4-.9-1.8-1.8-3.6-2.8-5.4z"/><path d="m110.9 172.4c.3.5.7 1.1 1 1.6-.4-.5-.7-1.1-1-1.6z"/><path d="m131 115.4c-.3-.3-.7-.6-1-.9 7.8 2.3 12.2 4.9 12.5 5.1 4.3 2.6 5.9 8 3.9 12.5-.1-.1-.3-.3-.4-.5-1.7-1.9-3.9-4.4-6.1-7-2.9-3.6-5.8-6.6-8.9-9.2z"/><path d="m152.5 174.4c.5-.6 1-1.3 1.5-2-.4.7-.9 1.3-1.5 2z"/><path d="m154 172.4c.4-.7.8-1.4 1.2-2.1-.4.7-.7 1.4-1.2 2.1z"/><path d="m150.7 176.2 1.8-1.8c-.5.6-1.1 1.2-1.8 1.8z"/><path d="m147.3 172.4h-.8-3.4c4-4.7 8.2-13.1 8.8-22 0-.3 0-.5.1-.8 3.2 3.4 5 7.9 5 12.7 0 2.7-.6 5.4-1.8 7.9-2.3 1.4-5 2.2-7.9 2.2z"/><path d="m135.5 186.4c.1-.8.7-3.7 2.1-6.8h2.8.8c2.7 0 5.1-.7 7.3-1.8.8-.5 1.5-1 2.1-1.6-.9.8-1.8 1.5-2.9 2.1-2.2 1.3-3.8 3.4-4.4 5.9-.3 1.1-.6 2.1-.8 3-1.6 6-3.3 12.4-3.3 19.4 0 4.2.6 8.6 2.3 13.2 2.8 7.9 4.8 12.5 6.1 16.4 3.7 10.4 7.4 19.8 8.6 30.3-1.4 0-3 0-3.1 0-.7 0-1.3.9-1.3 2.1v7 24.5c0 2.1.7 4 1.8 5 1.2 1.1 2.7 1.8 4.4 2.1h.5c1.3 29.2 2.6 66.5 2.7 80.9 0 1.2-.9 2.1-2.1 2.1-7.5 0-13.3 0-21.9 0-1.2 0-2.1-.9-2.1-2.1v-82.1-99.4-20.2z"/><path d="m138.5 178.1c.2-.4.5-.8.8-1.3-.4.4-.6.8-.8 1.3z"/><path d="m139.3 176.7c.3-.4.6-.8.9-1.2-.4.4-.7.8-.9 1.2z"/><path d="m137.7 179.6c.2-.5.4-.9.7-1.4-.3.5-.5.9-.7 1.4z"/><path d="m140.4 175.3c.3-.4.7-.7 1-1.1-.4.3-.7.7-1 1.1z"/></g><path d="m141.3 179.6h-.8-2.8c.2-.5.4-.9.7-1.4 0-.1.1-.1.1-.2.2-.4.5-.8.8-1.3 0 0 0 0 0-.1.3-.4.6-.8.9-1.2.1-.1.1-.2.2-.3.3-.4.7-.7 1-1.1.5-.5 1.1-1.1 1.7-1.8h3.4.8c2.9 0 5.6-.8 7.9-2.2-.3.7-.7 1.4-1.2 2.1-.4.7-.9 1.3-1.5 2-.5.6-1.1 1.2-1.8 1.8-.7.6-1.4 1.1-2.1 1.6-2.2 1.4-4.7 2.1-7.3 2.1z" fill="#d3c6cf"/><path d="m110.9 172.4c.3.5.7 1.1 1 1.6 0 .1.1.1.1.2 1 1.7 2 3.6 2.8 5.4h-12-.2c-8.8 0-15.9-7.1-15.9-15.9 0-.1 0-.3 0-.4 2.6 5.3 8 9 14.3 9h.2z" fill="#d3c6cf"/><path d="m152.1 275.6v-7c0-1.1.6-2.1 1.3-2.1h3.1c1.3 0 2.5 0 2.4 0 .6 0 1.1.5 1.1 1.1.1 2.4.2 5.1.4 8-3 0-1.5 0-8.3 0z" fill="#faf9fa"/><path d="m158.3 307.2c-1.6-.3-3.1-1-4.4-2.1-1.1-1-1.8-2.9-1.8-5v-24.5h8.2c.2 5.7.5 12.4.7 20.1v.1c0 2.2-.1 8.7-1.4 10.8-.2.3-.5.5-.9.6 0 .1-.2.1-.4 0z" fill="#e1d9df"/><path d="m65.7 122.7c-.5.4-.9.9-1.2 1.4l-36.6 55.3c-6.5 9.9-5.6 23 2.2 31.9l43.9 49.7c2.6 3 7.2 3.2 10.1.6 3-2.6 3.2-7.2.6-10.1l-44-49.7c-3.6-4-4-9.9-1-14.4l36.6-55.3c2.2-3.3 1.3-7.8-2-10-2.7-1.8-6.3-1.5-8.6.6z" fill="#ffa898"/><path d="m100 269.6c-.3 2.2-.9 4.2-1.9 6.2l-3.5 6.7c-.7 1.3-2.3 1.8-3.5 1.1-.1-.1-.3-.2-.4-.2-.4-.3-.9-.4-1.4-.3s-.9.4-1.1.9l-.1.1c-.7 1.3-2.3 1.8-3.5 1.1-1.1-.6-1.7-1.9-1.3-3.1 0-.1.1-.3.2-.4.1-.2.1-.4 0-.5-.1-.2-.3-.2-.5-.2-.5.1-1 0-1.5-.3-1.3-.7-1.8-2.3-1.1-3.5.1-.2.1-.4 0-.6s-.3-.3-.5-.3c-.4 0-.8-.1-1.2-.3-1-.6-1.4-1.9-.8-2.9l2.6-4.7c.3-.6.4-1.2.2-1.8s-.6-1.1-1.2-1.4c-5.7-2.9-9.3-7.3-8.5-11.1.9-4.8 8.5-6.8 16.8-4.5 15.8 4.4 14.2 4.9 12.2 20z" fill="#ffa898"/><path d="m28 213.1 34.7 39.3c.5.6 1.5.7 2.1.1l12.6-11.1c.6-.5.7-1.5.1-2.1l-34.7-39.3c-2.7-3.1-3.1-7.7-.8-11.2l36.6-55.3c1.5-2.2 2-4.8 1.4-7.4-.5-2.6-2-4.8-4.2-6.3-3.7-2.5-8.7-2.1-12 .8-.7.6-1.2 1.3-1.7 2l-36.5 55.4c-7.3 10.9-6.2 25.3 2.4 35.1z" fill="#f2eef1"/><path d="m54.4 235.1h19.8v8.2h-19.8z" fill="#ede7eb" transform="matrix(.7488 -.6628 .6628 .7488 -142.3592 102.7078)"/><path d="m151.8 147.2c.3 0 .5-.1.8-.2.9-.4 1.3-1.5.8-2.4-1.2-2.5-11.9-24.3-14.7-27.8-3.2-3.9-5.5-5.9-9.3-5.9-1 0-1.8.8-1.8 1.8s.8 1.8 1.8 1.8c2 0 3.3.6 6.5 4.6 2.1 2.7 11 20.5 14.2 27.1.4.6 1.1 1 1.7 1z" fill="#5a3c55"/><path d="m147.1 150.6c.2-2.3 1.4-4.1 3.1-4.9l2.1-.9c.6-.3 1.2-.4 1.9-.4 3.5 0 6.9 3.5 7.6 7.7.6 3.4-.8 6.3-3.1 7.3l-2.1.9c-.3.1-.6.2-.9.3-.1 0-.2 0-.4.1-.2 0-.4 0-.7 0-.5 0-.9-.1-1.4-.2-.2-.1-.4-.1-.7-.2-1-.4-2-1.1-2.8-1.9s-1.5-1.8-2-2.9c-.2-.4-.3-.8-.4-1.1-.1-.4-.2-.9-.3-1.3-.1-.6-.1-1.1-.1-1.7.2-.3.2-.6.2-.8z" fill="#c5b6c1"/><path d="m157.3 154.5s0 .1 0 0c-.1.1-.1.1 0 0-.1.1-.1.1-.1.1s0 0-.1 0-.1 0-.1.1h-.1s0 0-.1 0 0 0-.1 0c-.1 0-.1 0-.2.1h-.1-.1-.1c-.4 0-.7-.1-1.1-.3-.9-.5-1.6-1.4-1.8-2.6 0-.1 0-.3 0-.4v-.1-.1-.1-.1-.1-.1-.1-.1-.1c0-.1.1-.2.1-.2v-.1c.1-.1.1-.2.2-.3s0 0 .1-.1.1 0 .1-.1h.1.1.1c.3-.1.6-.2.9-.2.2 0 .5 0 .7.1.1 0 .2.1.2.1s0 0 .1 0c0 0 .1 0 .1.1h.1.1c.1.1.2.1.3.2l.3.3s.1.1.2.2l.2.2c.1.1.1.2.2.2 0 0 0 .1.1.1 0 0 0 .1.1.1 0 .1.1.1.1.2v.1s0 .1.1.1v.1.1.1c0 .1.1.3.1.4.1.8 0 1.6-.4 2.1v.1.1c-.2-.2-.2-.2-.3-.1.1 0 .1 0 0 0z" fill="#9e8697"/><path d="m161.2 152.1c-.6-3.8-3.6-6.8-6.7-6.8s-5.1 3-4.4 6.8c.6 3.8 3.6 6.8 6.7 6.8 3 0 5-3.1 4.4-6.8zm-4 2.5c-.1.1-.1.1-.1.1s-.1 0-.1.1h-.1s0 0-.1 0 0 0-.1 0c-.1 0-.1 0-.2.1h-.1-.1-.1c-.4 0-.7-.1-1.1-.3-.9-.5-1.6-1.4-1.8-2.6 0-.1 0-.3 0-.4v-.1-.1-.1-.1-.1-.1-.1-.1-.1c0-.1.1-.2.1-.2v-.1c.1-.1.1-.2.2-.3s0 0 .1-.1 0 0 .1-.1h.1.1.1c.3-.1.6-.2.9-.2.2 0 .5 0 .7.1.1 0 .2.1.2.1.1 0 .2.1.2.1.1.1.2.1.3.2h.1l.3.3s.1.1.2.2l.2.2s0 .1.1.1c0 0 0 .1.1.1v.1s0 .1.1.1c.1.1.1.2.2.3v.1s0 .1.1.1v.1.1.1s.1.3.1.4c.1.8 0 1.6-.4 2.1v.1.1l-.1.1c-.1-.4-.1-.4-.2-.3.1-.1.1 0 0 0z" fill="#ece6ea"/><path d="m158.7 159.5c.1 0 .1 0 .2-.1 2.4-1 3.7-3.9 3.1-7.3-.7-4.3-4.1-7.7-7.6-7.7-.7 0-1.4.1-1.9.4s-.1 0-.1.1c0 0 0 0-.1 0h-.1s0 0-.1 0h-.1s0 0-.1 0c0 0-.1 0-.1.1 0 0 0 0-.1 0l-.1.1-.1.1s-.1 0-.1.1-.1 0-.1.1-.1 0-.1.1l-.1.1-.1.1-.1.1s0 .1-.1.1v.1s0 .1-.1.1l-.1.1-.1.1-.1.1v.1s0 .1-.1.1v.1s0 .1-.1.1v.1s0 .1-.1.1c0 .1-.1.1-.1.2s0 .1-.1.1v.1.1.1.1.1.1s-.1.2-.1.4v.1.1.1.1.1.1.1s0 .1 0 .2v.2.1.1.1.1.1.1.1.1.1.1.1.1.1.1.1.1.1.1.1.1.1.1.1.2c0 .1 0 .2.1.3v.1s0 .2.1.3v.1c0 .2.1.4.2.6v.1s.1.2.1.3c0 .1.1.2.1.2s0 0 0 .1.1.2.1.3c0 .1.1.1.1.2 0 .1.1.1.1.2 0 .1.1.1.1.2s0 .1.1.1v.1s0 .1.1.1v.1s0 .1.1.1v.1s0 .1.1.1v.1s.1.1.1.2c0 .1.1.1.1.2l.1.1v.1l.1.1v.1l.1.1v.1l.1.1v.1l.1.1c0 .1.1.1.1.2l.1.1.1.1s0 0 .1.1l.1.1s0 0 .1.1l.1.1.1.1.1.1s0 0 .1.1l.1.1h.1l.1.1c.1 0 .1.1.2.1l.1.1h.1s.1 0 .1.1h.1s.1 0 .1.1h.1c.1.1.2.1.3.2h.1s.1 0 .1.1h.1s.1 0 .1.1c.1 0 .1 0 .2.1.1 0 .1 0 .2.1h.1.1.1.1.1.1.1.1.1.1.1.1.1.1.1.1.1.1.1.1.1.1.2.2.1.1.1.1.1.1.1.1.1.1s.1 0 .2 0h.2c-.6.2-.5.2-.4.2-.1 0-.1 0 0 0zm-1.9-.6c-3.1 0-6.1-3-6.7-6.8s1.4-6.8 4.4-6.8c3.1 0 6.1 3 6.7 6.8.6 3.7-1.4 6.8-4.4 6.8z" fill="#c5b6c1"/><path d="m86.3 190.5s.1 0 0 0l4.5-.2c2.4-.1 4.6-1.2 6.2-3 1.5-1.8 2.3-4.2 2-6.6-1.8-16.7-7-44.4-21.7-42.9-1 .1-1.7 1-1.6 2s1 1.7 2 1.6c12.3-1.2 16.7 30.1 17.8 39.7.2 1.4-.3 2.8-1.2 3.9s-2.2 1.7-3.6 1.8l-4.4.2c-1 0-1.8.9-1.7 1.9-.1.9.7 1.6 1.7 1.6z" fill="#5a3c55"/><path d="m86.3 190.5s.1 0 0 0l4.5-.2c1 0 .8-3.6-.2-3.6l-4.4.2c-1 0-1.8.9-1.7 1.9 0 1 .8 1.7 1.8 1.7z" fill="#c5b6c1"/><path d="m74.9 192.2c.5 0 1.1-.1 1.6-.2l4.3-.8c1-.2 1.6-1.1 1.4-2.1s-1.1-1.6-2.1-1.4l-4.3.8c-1.4.3-2.8-.1-3.9-.9s-1.9-2.1-2.1-3.5c-1.2-9.6-4.3-41.1 7.9-42.8 1-.1 1.7-1 1.5-2-.1-1-1-1.7-2-1.5-14.5 2-13.1 30.2-11 46.8.3 2.4 1.6 4.5 3.5 5.9 1.5 1.1 3.3 1.7 5.2 1.7z" fill="#5a3c55"/><path d="m77.6 140.9h.4c1-.2 1.6-1.2 1.4-2.1-.8-3.9-.4-13.1.2-19.9.5-5.4 2.5-5.4 3.4-5.4 1 0 1.8-.8 1.8-1.8s-.8-1.8-1.8-1.8c-4.1 0-6.5 2.9-7 8.7-.3 3.6-1.2 15.6-.1 20.9.1.8.8 1.4 1.7 1.4z" fill="#5a3c55"/><path d="m76.1 192h.3l4.3-.8c1-.2 1.6-1.1 1.4-2.1s-1.1-1.6-2.1-1.4l-4.3.8c-.9.2-.4 3.5.4 3.5z" fill="#c5b6c1"/><path d="m122.6 109.2c2.5 1.4 5.7 3.9 7.4 5.3 3.5 2.9 6.8 6.2 9.9 10.1 2.3 2.8 4.7 5.6 6.5 7.5.4.4.8.8 1.1 1.2.2.2.4.4.5.6l.1.1c.1.2.1.4 0 .6 0 .1-.1.1-.1.2-.5.7-1.1 1.3-1.8 1.8l-3.9 2.5s6.4 7 8.9 9.1c.7.6.7 1.2.7 1.5-.4 10.5-6 20.4-10.5 24.6-4.2 3.9-5.6 10.9-5.9 12.2.4-4.8 1.3-8.1 2.4-11.4 1.2-3.6 2.6-7.2 3.7-12.5 2.5-11.9-8.1-35.2-12.8-42.5-2.6-4.1-4.5-7.2-8-8.8-.3-.1-.5-.3-.5-.6-.1-.3-.1-.6.1-.8.4-.9 1.4-1.2 2.2-.7z" fill="#faf9fa"/><path d="m76.3 131.4c.4-3.5 2.2-8.8 3.6-12.6s4.6-7.4 6.2-9.2c.3-.3.7-.4 1.1-.4s.8.2 1 .5c.3.3.4.8.2 1.2s-.2.9-.2 1.5c0 1.1-.1 2.3-.1 2.4 0 .9 0 2.1.1 2.9.4 5.5 2.6 15.2 11.1 27.6 13.8 20.2 18.4 25 18.1 38.7 0 .9-.1 2.3-.1 4-.1-4.3-4.8-14-8.9-19.2-3.6-4.6-21.2-16.2-25.5-19-.5-.3-.7-1-.4-1.5l6.5-10.2s-9.1-4.2-12.2-5.6c-.4-.1-.6-.6-.5-1.1z" fill="#faf9fa"/><path d="m87.7 183.9c-1.3 0-2.3-1.5-2.3-3.3v-16.8c0-1.8 1-3.3 2.3-3.3h18.3c1.3 0 2.3 1.5 2.3 3.3v16.8c0 1.8-1 3.3-2.3 3.3z" fill="#d9d0d8"/><path d="m107.2 163.7c0-1-.6-1.7-1.2-1.7h-18.3c-.7 0-1.2.8-1.2 1.7v16.8c0 1 .6 1.7 1.2 1.7h18.3c.7 0 1.2-.8 1.2-1.7z" fill="#f0ecef"/><path d="m88.2 174.2c0 .3.1.5.3.5h4.1c.2 0 .3-.2.3-.5v-6.5c0-.3-.1-.5-.3-.5h-4.1c-.2 0-.3.2-.3.5z" fill="#b3a0ae"/><path d="m95.5 172.3c0 .3.1.5.3.5h3.7c.2 0 .3-.2.3-.5s-.1-.5-.3-.5h-3.7c-.2 0-.3.2-.3.5z" fill="#cabac4"/><path d="m95.5 168.4c0 .3.1.5.3.5h7.2c.2 0 .3-.2.3-.5v-.8c0-.3-.1-.5-.3-.5h-7.2c-.2 0-.3.2-.3.5z" fill="#cabac4"/><path d="m105.5 172.3c0-.3-.1-.5-.3-.5h-3.7c-.2 0-.3.2-.3.5s.1.5.3.5h3.7c.2-.1.3-.3.3-.5z" fill="#cabac4"/><path d="m105.5 174.2c0-.3-.1-.5-.3-.5h-9.4c-.2 0-.3.2-.3.5s.1.5.3.5h9.4c.2 0 .3-.2.3-.5z" fill="#cabac4"/><path d="m86.5 177.2v3.3c0 1 .6 1.7 1.2 1.7h18.3c.7 0 1.2-.8 1.2-1.7v-3.3z" fill="#54939b"/><path d="m97.5 157h-1.3c-.2 0-.4.2-.4.4v7.4c0 .2.2.4.4.4h1.3c.2 0 .4-.2.4-.4v-7.4c0-.2-.2-.4-.4-.4z" fill="#b3a0ae"/><path d="m97.6 157h-1.4c-.2 0-.3.2-.3.5v3.6h2.1v-3.6c-.1-.3-.3-.5-.4-.5z" fill="#cabac4"/><path d="m225.8 233.1c-.8-2-1.9-3.9-3.3-5.6l-5-5.8c-.9-1.1-2.6-1.2-3.7-.3-.1.1-.2.2-.3.3-.3.4-.8.6-1.3.6s-1-.2-1.3-.6l-.1-.1c-.9-1.1-2.6-1.2-3.7-.3-1 .8-1.2 2.2-.6 3.3.1.1.2.3.3.4s.2.4.1.5c-.1.2-.2.3-.4.3-.5.1-1 .3-1.4.6-1.1.9-1.2 2.6-.3 3.7.1.2.2.4.1.6s-.2.3-.5.4c-.4.1-.8.2-1.1.5-.9.8-.9 2.1-.2 3l3.6 4c.4.5.6 1.1.6 1.8 0 .6-.3 1.2-.8 1.7-4.9 4.1-7.3 9.2-5.7 12.8 2 4.5 9.8 4.7 17.4.5 14.7-7.9 13-8.1 7.6-22.3z" fill="#ffa898"/><path d="m76 275.6v-7.9c0-.6.5-1.1 1.1-1.1h11.6 13.7c.6 0 1.1.5 1.1 1.1v7.9h-.1z" fill="#faf9fa"/><path d="m76 275.6h27.5.1l.3 24.4c0 2.1-1.1 4.1-3 5.1-5.8 3.1-16.2 3.1-22 0-1.9-1-3-2.9-3-5z" fill="#e1d9df"/><path d="m116.5 113.2c0 5.6-4.5 10.1-10.1 10.1s-10.1-4.5-10.1-10.1 4.5-10.1 10.1-10.1 10.1 4.5 10.1 10.1z" fill="#ffa898"/><path d="m106.4 126.1c-6.4 0-11.6-5.2-11.6-11.6v-25.3c0-6.4 5.2-11.6 11.6-11.6s11.6 5.2 11.6 11.6v25.3c0 6.4-5.2 11.6-11.6 11.6z" fill="#ffa898"/><path d="m106.4 77.6c-6.4 0-11.6 5.2-11.6 11.6v16.9c3.7 1.3 7.6 2 11.6 2s7.9-.7 11.6-2v-16.9c0-6.4-5.2-11.6-11.6-11.6z" fill="#f48989"/><path d="m145.5 49.2c-2.9-.5-6.1 4-7.2 10.1s.4 11.5 3.2 12c2.9.5 6.1-4 7.2-10.1s-.3-11.5-3.2-12z" fill="#f48989"/><path d="m67.3 49.2c2.9-.5 6.1 4 7.2 10.1s-.4 11.5-3.2 12c-2.9.5-6.1-4-7.2-10.1-1.2-6.1.3-11.5 3.2-12z" fill="#f48989"/><path d="m144 54c0-26.4-6.8-47.9-37.7-47.9s-37.7 21.4-37.7 47.9c0 26.4 16.9 47.9 37.7 47.9 20.9 0 37.7-21.4 37.7-47.9z" fill="#ffa898"/><path d="m144 54c0-26.4-6.8-47.9-37.7-47.9s-37.7 21.4-37.7 47.9c0 26.4 16.9 47.9 37.7 47.9 20.9 0 37.7-21.4 37.7-47.9z" fill="#ffa898"/><path d="m102.7 101.7c.6 0 1.2.1 1.9.2-.6-.1-1.3-.1-1.9-.2z" fill="#ffa898"/><path d="m148.7 61.2c-.1.3-.1.6-.2 1 .3-15.8-5.5-2.6-6.7 1.7.8-18-16.7-45.4-16.7-45.4-24.4 45.4-50.9 35.6-53.2 33.7-1.5 5.5 0 17.6 1.1 23.8-.1-.1-.1-.3-.2-.4-.1-.2-.2-.4-.3-.6 0-.1-.1-.3-.2-.4-1.8-4.7-2.9-9.9-3.4-15.3 0-.1 0-.2 0-.3-.1-1.6-.2-3.2-.2-4.9 0-4.1.2-8.1.6-12 2.2-20.6 11-35.9 37.1-35.9 29 0 36.8 19 37.6 43.2.5-.2 1-.3 1.5-.2 2.9.6 4.3 5.9 3.2 12z" fill="#ffa898"/><path d="m121.7 77.9c-.8-.7-1.9-.6-2.6.2-.1.2-3.6 4-12.8 4-9.1 0-12.6-3.8-12.8-4-.7-.8-1.8-.9-2.6-.2s-.9 1.8-.2 2.6c.2.2 4.5 5.3 15.6 5.3 11.1 0 15.4-5.1 15.6-5.3.7-.9.6-2-.2-2.6z" fill="#d63e39"/><path d="m128.1 63.9c1.7 0 3-1.3 3-3v-1.9c0-1.7-1.3-3-3-3s-3 1.3-3 3v1.9c-.1 1.7 1.3 3 3 3z" fill="#532442"/><path d="m81.7 59v1.9c0 1.7 1.3 3 3 3s3-1.3 3-3v-1.9c0-1.7-1.3-3-3-3s-3 1.3-3 3z" fill="#532442"/><path d="m135.9 51.4c-4.8-5.3-13.6-3.8-14-3.8-.6.1-1.1.7-1 1.4s.7 1.1 1.4 1c.1 0 8-1.3 11.8 3 .2.3.6.4.9.4s.6-.1.8-.3c.5-.5.5-1.2.1-1.7z" fill="#893327"/><path d="m90.5 50c.7.1 1.3-.3 1.4-1s-.3-1.3-1-1.4c-.4-.1-9.2-1.5-14 3.8-.4.5-.4 1.2.1 1.7.2.2.5.3.8.3s.7-.1.9-.4c3.8-4.3 11.7-3 11.8-3z" fill="#893327"/><path d="m124.9 67c-2-.6-4.1.6-4.6 2.6s.5 4.1 2.5 4.7c1.2.4 2.8 1.3 3 2 .5 1.3 1.6 2.2 2.9 2.4.6.1 1.3.1 1.9-.2 2-.7 3-2.9 2.3-4.8-1.7-4.8-7.4-6.5-8-6.7z" fill="#f8918c"/><path d="m87.9 67c2-.6 4.1.6 4.6 2.6.6 2-.5 4.1-2.5 4.7-1.2.4-2.8 1.3-3 2-.5 1.3-1.6 2.2-2.9 2.4-.6.1-1.3.1-1.9-.2-2-.7-3-2.9-2.3-4.8 1.7-4.8 7.3-6.5 8-6.7z" fill="#f8918c"/><path d="m150.4 86.3c-.8.8-1.3 1.7-1.6 2.8-1.1 4.7-5.6 8.8-9.8 10.1-.7.2-1.4.6-2 1.1-2.1 1.8-5.2 2.7-8.6 3.1-3.3.4-6.9.3-10.5 0v-3.8c10.8-4.4 19.4-14.9 23.5-28.2h.1c.6.1 1.3 0 1.9-.3 2.1-1.1 4.2-4.5 5.1-8.9.3-15.8-5.5-2.6-6.7 1.7.8-18-16.7-45.4-16.7-45.4-24.4 45.4-50.9 35.6-53.2 33.7-1.5 5.5 0 17.6 1.1 23.8v.1c4.5 11.1 12.4 19.6 21.8 23.5v3.7c-3.6.2-7.1-.1-10.1-.8-3.6-.8-6.6-2-8.1-3.3-43.6-30.4-7.6-85.5 19.7-94.7 19.2-6.5 26.9-.9 29.4 1.9.6.7 1.7 1 2.6.7 14.6-4.3 25 32.1 26.2 42.5.2 1.6.5 3.3 1 4.8 4.3 14-1.2 28.2-5.1 31.9z" fill="#9f462c"/><path d="m143.4 71.1c-.5 6-3.1 28.8-15 32.3-3.3.4-6.9.3-10.5 0v-3.8c10.8-4.4 19.4-14.9 23.5-28.2h.1c.6.1 1.3 0 1.9-.3z" fill="#893327"/><path d="m94.8 99.6v3.7c-3.6.2-7.1-.1-10.1-.8-10.8-4.6-11.8-26.5-11.8-26.5s0 0 0 .1c4.6 11 12.4 19.6 21.9 23.5z" fill="#893327"/><path d="m118.8 15c-13.1 41-53.2 37.3-53.2 37.3 15.7-31.1 53-37.5 53.2-37.3z" fill="#b55c32"/><path d="m118.8 15c-12.1 38.7-47 37.2-47 37.2 24.4-4.8 47-37.2 47-37.2z" fill="#893327"/></g><path d="m135.2 295.7h-26.1c-2.4 0-4.3 1.9-4.3 4.3v6.1c0 2.4 1.9 4.3 4.3 4.3h26.1c2.4 0 4.3-1.9 4.3-4.3v-6.1c0-2.4-1.9-4.3-4.3-4.3z" fill="#9e8697"/></svg>