<svg width="106" height="80" viewBox="0 0 106 80" fill="none" xmlns="http://www.w3.org/2000/svg">
<path d="M55.1468 62.665C53.8929 62.665 53.0525 63.5054 52.8457 64.8981H57.3276C57.2255 63.3509 56.4349 62.665 55.1468 62.665Z" fill="#4D4557"/>
<path d="M39.7243 62.7852C38.1954 62.7852 37.3027 63.8506 37.3027 65.7905V65.9266C37.3027 67.9005 38.2975 68.8456 39.6379 68.8456C41.0804 68.8456 42.1459 67.8848 42.1459 65.8743V65.7382C42.1459 63.7643 41.2348 62.7852 39.7243 62.7852Z" fill="#4D4557"/>
<path d="M65.2088 62.7852C63.6642 62.7852 62.7715 63.9004 62.7715 65.534V65.6701C62.7715 67.3351 63.8029 68.3665 65.1407 68.3665C66.5832 68.3665 67.6303 67.3351 67.6303 65.6177V65.4973C67.6303 63.7983 66.7036 62.7852 65.2088 62.7852Z" fill="#4D4557"/>
<path d="M75.9769 62.665C74.7229 62.665 73.8826 63.5054 73.6758 64.8981H78.1576C78.0555 63.3509 77.2649 62.665 75.9769 62.665Z" fill="#4D4557"/>
<path d="M77.9926 49.6016H15.1995C6.80393 49.6016 0 56.4081 0 64.8011C0 73.1967 6.80655 80.0007 15.1995 80.0007H77.9926C86.3882 80.0007 93.1921 73.1941 93.1921 64.8011C93.1921 56.4055 86.3856 49.6016 77.9926 49.6016ZM22.8255 70.3223H20.5244V65.1022H15.0111V70.3223H12.7282V58.0443H15.0111V63.2644H20.5244V58.0443H22.8255V70.3223ZM33.3023 70.3223H31.2237V68.9138C30.7761 69.7908 29.8336 70.4924 28.3728 70.4924C26.6031 70.4924 25.2811 69.4793 25.2811 67.0918V61.3376H27.3597V66.8509C27.3597 68.207 27.9252 68.8248 29.1294 68.8248C30.2446 68.8248 31.2237 68.1049 31.2237 66.6782V61.3376H33.3023V70.3223ZM44.1536 70.3223H42.0749V68.8117C41.5933 69.7044 40.444 70.4951 39.1219 70.4951C36.8732 70.4951 35.1715 68.8981 35.1715 65.9792V65.843C35.1715 62.9764 36.8705 61.1544 39.2083 61.1544C40.6691 61.1544 41.5775 61.8246 42.0749 62.7173V57.1883H44.1536V70.3223ZM48.7584 70.3223H46.6798V57.1856H48.7584V70.3223ZM59.3871 66.2881H52.811C52.879 67.9871 53.7377 68.9505 55.2849 68.9505C56.5389 68.9505 57.1907 68.4531 57.3452 67.5761H59.3531C59.0599 69.4662 57.5337 70.4951 55.2325 70.4951C52.5884 70.4951 50.6826 68.762 50.6826 65.9268V65.7907C50.6826 63.0078 52.5884 61.1544 55.1488 61.1544C57.3818 61.1544 59.3898 62.4764 59.3898 65.6886V66.2881H59.3871ZM69.6388 69.6547C69.6205 72.2988 67.8534 73.6208 65.0706 73.6208C62.2537 73.6208 60.9841 72.3511 60.7432 70.6338H62.8375C63.0103 71.5265 63.6962 72.0422 65.0523 72.0422C66.6675 72.0422 67.5602 71.2359 67.5602 69.6207V68.2986C67.0628 69.1573 65.945 69.9636 64.6229 69.9636C62.3742 69.9636 60.6385 68.2803 60.6385 65.6886V65.5682C60.6385 63.0445 62.3558 61.1544 64.6753 61.1544C66.1518 61.1544 67.0445 61.8246 67.5602 62.7173V61.3429H69.6388V69.6547ZM80.2178 66.2881H73.6416C73.7097 67.9871 74.5684 68.9505 76.1155 68.9505C77.3695 68.9505 78.0214 68.4531 78.1758 67.5761H80.1838C79.8905 69.4662 78.3643 70.4951 76.0632 70.4951C73.4191 70.4951 71.5133 68.762 71.5133 65.9268V65.7907C71.5133 63.0078 73.4191 61.1544 75.9794 61.1544C78.2125 61.1544 80.2204 62.4764 80.2204 65.6886V66.2881H80.2178Z" fill="#4D4557"/>
<path d="M105.052 12.8008C104.596 12.8008 104.227 13.1699 104.227 13.6254C104.227 15.6674 102.565 17.3298 100.523 17.3298H96.7791C96.3236 17.3298 95.9544 17.6989 95.9544 18.1544V21.898C95.9544 23.94 94.2921 25.6023 92.2501 25.6023C90.2081 25.6023 88.5458 23.94 88.5458 21.898V18.1544C88.5458 17.6989 88.1766 17.3298 87.7211 17.3298C87.2656 17.3298 86.8965 17.6989 86.8965 18.1544V21.898C86.8965 24.851 89.2997 27.2516 92.2501 27.2516C95.2031 27.2516 97.6037 24.8484 97.6037 21.898V18.979H100.523C103.476 18.979 105.876 16.5758 105.876 13.6254C105.876 13.1699 105.507 12.8008 105.052 12.8008Z" fill="#AC94CE"/>
<path d="M92.2473 0C89.2943 0 86.8937 2.40324 86.8937 5.35362V8.27258H83.9747C81.0217 8.27258 78.6211 10.6758 78.6211 13.6262C78.6211 14.0817 78.9902 14.4508 79.4457 14.4508C79.9012 14.4508 80.2704 14.0817 80.2704 13.6262C80.2704 11.5842 81.9327 9.92185 83.9747 9.92185H87.7183C88.1738 9.92185 88.5429 9.55273 88.5429 9.09722V5.35362C88.5429 3.31165 90.2053 1.64928 92.2473 1.64928C94.2893 1.64928 95.9516 3.31165 95.9516 5.35362V9.09722C95.9516 9.55273 96.3207 9.92185 96.7763 9.92185C97.2318 9.92185 97.6009 9.55273 97.6009 9.09722V5.35362C97.6009 2.40062 95.2003 0 92.2473 0Z" fill="#4D4557"/>
<path d="M3.69386 22.2705H0.793225C0.356035 22.2705 0 22.6265 0 23.0637V35.1794C0 35.6166 0.356035 35.9726 0.793225 35.9726H3.65721C8.02388 35.9726 10.6287 33.428 10.6287 29.1687V29.0011C10.6287 24.7863 8.03434 22.2705 3.69386 22.2705ZM3.59962 23.8884C7.76209 23.8884 8.63385 26.6686 8.63385 28.9985V29.1477C8.63385 32.4908 6.85106 34.3338 3.61795 34.3338H1.93463V23.8884H3.59962Z" fill="#4D4557"/>
<path d="M16.7836 25.797C15.6658 26.0247 15.0244 26.6321 14.6003 27.2421V26.7996C14.6003 26.2865 14.1814 25.8677 13.6683 25.8677C13.1552 25.8677 12.7363 26.2865 12.7363 26.7996V35.0408C12.7363 35.5539 13.1552 35.9728 13.6683 35.9728C14.1814 35.9728 14.6003 35.5539 14.6003 35.0408V30.4411C14.6003 28.5824 15.3123 27.7369 17.0585 27.517C17.4931 27.462 17.8229 27.0928 17.8229 26.64C17.8229 26.3808 17.7077 26.1373 17.5061 25.9724C17.302 25.8101 17.0402 25.7446 16.7836 25.797Z" fill="#4D4557"/>
<path d="M19.6933 33.3604C18.9472 33.3604 18.3398 33.9677 18.3398 34.7138C18.3398 35.4599 18.9472 36.0673 19.6933 36.0673C20.4394 36.0673 21.0468 35.4599 21.0468 34.7138C21.0441 33.9677 20.4394 33.3604 19.6933 33.3604Z" fill="#4D4557"/>
<path d="M27.3696 22.2705H24.469C24.0318 22.2705 23.6758 22.6265 23.6758 23.0637V35.1794C23.6758 35.6166 24.0318 35.9726 24.469 35.9726H27.333C31.6997 35.9726 34.3045 33.428 34.3045 29.1687V29.0011C34.3071 24.7863 31.7127 22.2705 27.3696 22.2705ZM27.278 23.8884C31.4405 23.8884 32.3122 26.6686 32.3122 28.9985V29.1477C32.3122 32.4908 30.5295 34.3338 27.2963 34.3338H25.613V23.8884H27.278Z" fill="#4D4557"/>
<path d="M40.4633 25.7973C39.3454 26.0251 38.7041 26.6324 38.28 27.2424V26.8C38.28 26.2868 37.8611 25.868 37.348 25.868C36.8349 25.868 36.416 26.2868 36.416 26.8V35.0411C36.416 35.5542 36.8349 35.9731 37.348 35.9731C37.8611 35.9731 38.28 35.5542 38.28 35.0411V30.4415C38.28 28.5827 38.992 27.7372 40.7382 27.5173C41.1727 27.4623 41.5026 27.0932 41.5026 26.6403C41.5026 26.3811 41.3874 26.1376 41.1858 25.9727C40.9816 25.8078 40.7198 25.7449 40.4633 25.7973Z" fill="#4D4557"/>
<path d="M47.2286 25.6973C44.3489 25.6973 42.2598 27.8649 42.2598 30.8519V31.0011C42.2598 33.9777 44.341 36.1375 47.2102 36.1375C50.1004 36.1375 52.1973 33.9698 52.1973 30.9828V30.8336C52.1947 27.8597 50.1056 25.6973 47.2286 25.6973ZM50.2758 30.8729V31.0038C50.2758 33.1531 49.0794 34.5405 47.2259 34.5405C45.3437 34.5405 44.1761 33.1845 44.1761 31.0038V30.8545C44.1761 28.6607 45.3437 27.2994 47.2259 27.2994C49.0794 27.2994 50.2758 28.7 50.2758 30.8729Z" fill="#4D4557"/>
<path d="M59.1436 25.6973C57.8294 25.6973 56.6435 26.3962 55.9811 27.1869V26.7968C55.9811 26.2837 55.5623 25.8648 55.0492 25.8648C54.5361 25.8648 54.1172 26.2837 54.1172 26.7968V38.4491C54.1172 38.9622 54.5361 39.381 55.0492 39.381C55.5623 39.381 55.9811 38.9622 55.9811 38.4491V34.7055C56.6984 35.6113 57.8451 36.1401 59.1436 36.1401C61.9028 36.1401 63.7563 34.0458 63.7563 30.9278V30.7786C63.7537 27.7392 61.9002 25.6973 59.1436 25.6973ZM61.8374 30.8545V31.0038C61.8374 32.6164 61.3452 34.5405 58.9943 34.5405C57.0152 34.5405 55.9262 33.2839 55.9262 31.0038V30.8545C55.9262 28.6293 57.0649 27.2994 58.976 27.2994C60.7117 27.2994 61.8374 28.6948 61.8374 30.8545Z" fill="#4D4557"/>
<path d="M66.6449 25.8682C66.1318 25.8682 65.7129 26.287 65.7129 26.8001V35.0413C65.7129 35.5544 66.1318 35.9733 66.6449 35.9733C67.158 35.9733 67.5769 35.5544 67.5769 35.0413V26.8001C67.5743 26.2844 67.158 25.8682 66.6449 25.8682Z" fill="#4D4557"/>
<path d="M66.6169 21.7646C65.9755 21.7646 65.4336 22.3066 65.4336 22.9479C65.4336 23.5893 65.9755 24.1312 66.6169 24.1312C67.2583 24.1312 67.8002 23.5893 67.8002 22.9479C67.8002 22.3066 67.2583 21.7646 66.6169 21.7646Z" fill="#4D4557"/>
<path d="M75.1218 25.6973C73.6689 25.6973 72.6741 26.3282 72.1296 27.0403V26.7968C72.1296 26.2837 71.7107 25.8648 71.1976 25.8648C70.6845 25.8648 70.2656 26.2837 70.2656 26.7968V35.0379C70.2656 35.5511 70.6845 35.9699 71.1976 35.9699C71.7107 35.9699 72.1296 35.5511 72.1296 35.0379V29.8781C72.1296 28.1345 73.4254 27.3518 74.7108 27.3518C76.2187 27.3518 76.8601 28.0508 76.8601 29.6896V35.0379C76.8601 35.5511 77.279 35.9699 77.7921 35.9699C78.3052 35.9699 78.724 35.5511 78.724 35.0379V29.8021C78.724 26.4093 76.7659 25.6973 75.1218 25.6973Z" fill="#4D4557"/>
</svg>
