<svg width="129" height="52" viewBox="0 0 129 52" fill="none" xmlns="http://www.w3.org/2000/svg">
<path fill-rule="evenodd" clip-rule="evenodd" d="M116.01 30.7072C115.565 31.0678 115.103 31.2481 114.622 31.2481C113.421 31.2481 112.82 30.3709 112.82 28.6156C112.82 26.9567 113.253 25.4423 114.118 24.072C114.983 22.7016 116.076 21.8242 117.397 21.4395C117.373 21.8486 117.361 25.3345 118.262 27.8588C117.565 28.8927 116.454 30.3466 116.01 30.7072ZM123.032 9.68269C123.645 6.125 124.299 4.3457 124.996 4.3457C125.213 4.3457 125.399 4.59796 125.555 5.10282C125.711 5.60787 125.79 6.31703 125.79 7.23066C125.79 10.8369 124.456 15.5249 121.789 21.2948C122.005 17.1116 122.42 13.2411 123.032 9.68269ZM99.1602 26.7404C99.1602 25.2745 99.4665 24.024 100.079 22.9901C100.692 21.9566 101.443 21.4395 102.332 21.4395C102.764 21.4395 103.107 21.5781 103.359 21.8542C103.611 22.1308 103.737 22.4975 103.737 22.9539C103.737 23.8437 103.328 24.6253 102.512 25.2979C101.695 25.9714 100.577 26.4762 99.1602 26.8125V26.7404ZM62.4688 27.1902C62.0364 28.3082 61.4536 29.2458 60.7209 30.0033C59.9877 30.7606 59.1892 31.2355 58.3242 31.4275C58.3478 30.8269 58.3603 29.9733 58.3603 28.8673C58.3603 26.824 58.3722 25.2736 58.3963 24.2151C59.6217 22.3886 60.6668 21.4746 61.5318 21.4746C62.0122 21.4746 62.3968 21.661 62.6851 22.0336C62.9734 22.4065 63.1176 22.953 63.1176 23.6742C63.1176 24.9005 62.9013 26.0725 62.4688 27.1902ZM51.444 47.6534C51.2041 47.6534 50.9935 47.449 50.8133 47.0406C50.6331 46.6314 50.543 46.0425 50.543 45.2735C50.543 43.7824 50.8437 41.9434 51.444 39.7559C52.0219 37.6497 52.8029 35.4418 53.7823 33.1353C53.8179 33.1051 53.8536 33.0754 53.8891 33.0449C53.766 37.1731 53.4921 40.6311 53.0658 43.4162C52.6333 46.2409 52.0927 47.6534 51.444 47.6534ZM45.4246 27.8208C45.2084 28.8547 44.8599 29.6843 44.3795 30.3092C43.8985 30.9347 43.3939 31.2466 42.8658 31.2466C42.3371 31.2466 41.9226 31.0663 41.6224 30.7057C41.3216 30.3451 41.1719 29.7924 41.1719 29.047C41.1719 27.7009 41.4242 26.427 41.9287 25.2245C42.4333 24.0225 43.1119 23.055 43.965 22.3213C44.8175 21.5884 45.749 21.2097 46.7581 21.1855L45.4246 27.8208ZM126.161 33.1399L126.099 33.1339C125.264 33.0539 124.58 32.6283 124.009 31.9645C123.443 31.2937 123.009 30.4156 122.689 29.4693C122.371 28.5238 122.151 27.513 122.006 26.4776C124.094 22.7941 125.778 19.2146 127.054 15.7402C128.351 12.2063 129 9.11741 129 6.47245C129 4.57343 128.657 3.15457 127.973 2.21696C127.288 1.27953 126.429 0.810547 125.396 0.810547C123.257 0.810547 121.545 2.49374 120.26 5.85922C118.974 9.22542 118.103 13.18 117.647 17.7236C115.893 17.9401 114.307 18.5712 112.89 19.6168C111.472 20.6628 110.355 22.0032 109.538 23.6379C108.721 25.2732 108.313 27.0517 108.313 28.9749C108.313 29.304 108.33 29.621 108.363 29.9268C108.129 30.0622 107.864 30.2072 107.546 30.3817C106.164 31.139 104.24 31.2829 103.159 31.2829C101.477 31.2829 100.335 30.7302 99.7351 29.624C102.57 28.9271 104.583 27.9832 105.772 26.7934C106.961 25.6033 107.556 24.1789 107.556 22.52C107.556 21.1017 107.135 19.9775 106.294 19.1482C105.453 18.3188 104.336 17.9039 102.943 17.9039C101.381 17.9039 99.9811 18.3249 98.744 19.1661C97.5062 20.0079 96.5394 21.1439 95.8428 22.5741C95.1456 24.0047 94.7976 25.5492 94.7976 27.2081C94.7976 28.2465 94.9304 29.1888 95.1957 30.035C94.4907 30.5285 93.4162 30.9223 92.996 30.9223C92.2989 30.9223 91.9508 30.4417 91.9508 29.4798C91.9508 28.807 92.1789 27.4244 92.6356 25.3328C93.1637 22.8806 93.4285 21.1857 93.4285 20.2479C93.4285 18.6855 92.6475 17.9039 91.0858 17.9039C89.8122 17.9039 88.4425 18.5774 86.9772 19.9236C85.5115 21.2701 84.178 23.4216 82.9768 26.3785C83.049 25.9459 83.1806 25.2966 83.3732 24.4313C83.8295 22.4116 84.058 21.0179 84.058 20.2479C84.058 19.4547 83.8834 18.8659 83.5354 18.4811C83.1869 18.0967 82.592 17.9039 81.7514 17.9039C80.91 17.9039 80.0153 18.2231 79.0664 18.8597C78.1169 19.4969 77.1925 20.4645 76.2915 21.7627C75.3905 23.0609 74.6154 24.6477 73.9667 26.5229C74.0624 25.4652 74.183 24.5817 74.3271 23.8723C74.4713 23.1634 74.6632 22.3278 74.9038 21.366C75.2642 20.0198 75.4444 19.1544 75.4444 18.7696C75.4444 18.4331 75.3481 18.2048 75.156 18.0842C74.9634 17.9643 74.6273 17.9039 74.1469 17.9039C73.2578 17.9039 72.5669 18.0664 72.0746 18.3909C71.5819 18.7153 71.2277 19.2265 71.0114 19.9236C70.1223 22.7364 69.6779 25.7059 69.6779 28.8309C69.6779 29.4203 69.6929 29.9636 69.7219 30.4634C69.0096 31.0187 68.1363 31.3784 67.1807 31.3509C66.0737 31.3189 65.55 31.0081 65.3176 30.7059C66.0384 29.7205 66.6026 28.6267 67.0115 27.4244C67.4196 26.2225 67.6242 24.9847 67.6242 23.7101C67.6242 21.9553 67.1973 20.5366 66.3447 19.4547C65.4917 18.3729 64.3924 17.832 63.0471 17.832C62.2059 17.832 61.4128 18.0427 60.6684 18.463C59.9234 18.8839 59.1666 19.5754 58.3979 20.5366C58.3737 20.2479 58.3618 19.8035 58.3618 19.2023C58.3377 18.6017 58.2115 18.1987 57.9834 17.9941C57.7547 17.7903 57.3887 17.6877 56.8842 17.6877C56.0192 17.6877 55.2984 17.8922 54.7218 18.3008C54.1451 18.7097 53.8687 19.2625 53.8928 19.9596C53.9408 21.3298 53.9649 23.7703 53.9649 27.28C53.0722 28.7719 52.2728 30.2135 51.5641 31.6056C51.3347 31.751 51.1285 31.8238 50.902 31.8238C50.6137 31.8238 50.3794 31.7158 50.1992 31.4993C50.019 31.2829 49.7313 30.5921 49.7487 29.7324C49.7707 28.6507 50.0246 26.7274 50.5777 23.9625C50.9381 22.0635 51.1183 20.8612 51.1183 20.3563C51.1183 19.515 50.5292 19.0941 49.3523 19.0941C48.7993 19.0941 48.2711 19.1426 47.7665 19.2384C47.646 18.7097 47.4962 18.343 47.316 18.1385C47.1358 17.9344 46.781 17.832 46.2528 17.832C44.595 17.832 43.0272 18.3547 41.5496 19.4007C40.0719 20.4464 38.8882 21.8292 37.9996 23.5478C37.1105 25.2668 36.6661 27.088 36.6661 29.0112C36.6661 29.4219 36.6915 29.8134 36.7402 30.1871C36.079 30.7762 34.9124 30.9223 34.4322 30.9223C33.735 30.9223 33.387 30.4417 33.387 29.4798C33.387 28.807 33.615 27.4244 34.0718 25.3328C34.5999 22.8806 34.8647 21.1857 34.8647 20.2479C34.8647 18.6855 34.0835 17.9039 32.522 17.9039C31.7292 17.9039 30.8581 18.1807 29.9091 18.7335C28.9596 19.2867 27.9927 20.212 27.0079 21.5101C26.0224 22.8085 25.1338 24.4915 24.3409 26.5588C24.4366 25.5013 24.5571 24.6116 24.7013 23.8904C24.8455 23.1691 25.0374 22.3278 25.2779 21.366C25.6384 20.0198 25.8186 19.1544 25.8186 18.7696C25.8186 18.4331 25.7223 18.2048 25.5302 18.0842C25.3376 17.9643 25.0015 17.9039 24.5211 17.9039C23.6318 17.9039 22.9409 18.0664 22.4488 18.3909C22.2644 18.5123 22.0996 18.6598 21.954 18.8334C20.8304 19.2788 19.6486 19.6136 18.4344 19.8673L17.8893 19.9822L17.3365 20.0766L16.7829 20.1704L16.6277 20.1931C16.2484 19.4205 15.8132 18.6924 15.3426 18.0078C14.933 17.4149 14.4961 16.8522 14.0383 16.3179C13.8085 16.0519 13.5755 15.7903 13.3371 15.5364C13.1034 15.2882 12.8314 15.0117 12.6729 14.8493C11.9411 14.0949 11.3042 13.2977 10.8215 12.4946C10.5802 12.092 10.3804 11.6895 10.2218 11.2939C10.0664 10.8976 9.96247 10.5089 9.89831 10.136C9.78551 9.38968 9.85128 8.70775 10.1273 8.0846C10.4004 7.46469 10.8959 6.90105 11.5405 6.51068C11.8616 6.31594 12.2162 6.1661 12.5851 6.07108C12.7695 6.0233 12.9574 5.98958 13.1466 5.96975L13.2886 5.95785L13.445 5.95244L13.6036 5.94577L13.7548 5.94973C14.1572 5.96091 14.519 6.01717 14.8313 6.12301C15.146 6.22885 15.4229 6.38175 15.6894 6.60191C15.9484 6.82856 16.2012 7.12157 16.412 7.48669C16.5191 7.66718 16.6175 7.863 16.6998 8.06711C16.7418 8.1688 16.7784 8.27248 16.8144 8.374L16.8644 8.52131L16.8858 8.58766C16.8917 8.59974 16.8997 8.64158 16.9009 8.60786C16.9748 9.60587 17.843 10.3549 18.8404 10.281C19.8377 10.207 20.5862 9.33811 20.5123 8.34028L20.5026 8.13148L20.492 7.96956C20.4842 7.86462 20.4741 7.76347 20.4632 7.66267C20.4395 7.46271 20.4062 7.26689 20.3678 7.0718C20.2911 6.68215 20.1851 6.29665 20.0492 5.91277C19.7748 5.14844 19.3601 4.38897 18.786 3.71137C18.4964 3.37491 18.171 3.06027 17.8156 2.77736C17.4542 2.50492 17.07 2.25609 16.6663 2.05901C15.8608 1.64953 15.0054 1.43568 14.1876 1.32948C14.0853 1.31686 13.9819 1.30243 13.88 1.29251L13.578 1.27178C13.4766 1.26583 13.3775 1.25808 13.2738 1.25447L12.9552 1.25231C12.5305 1.25735 12.1065 1.29396 11.6874 1.36175C10.8492 1.49735 10.0313 1.75555 9.26238 2.12843C8.49382 2.50131 7.77338 2.98941 7.13457 3.58317C6.49701 4.17747 5.94235 4.87851 5.50915 5.65637C5.07487 6.43332 4.7651 7.28565 4.59229 8.15564C4.41569 9.02618 4.39443 9.90987 4.47011 10.7584C4.54994 11.6069 4.74275 12.4191 5.00423 13.1789C5.26624 13.9387 5.59583 14.6508 5.97515 15.3092C6.72497 16.6358 7.6467 17.7642 8.62123 18.7759L9.24166 19.4109C9.42583 19.6033 9.60296 19.7993 9.77722 19.9966C10.0437 20.3018 10.2951 20.614 10.5306 20.9315L10.471 20.9398L9.88264 21.0251L9.29031 21.1259C7.71409 21.4035 6.10796 21.8301 4.57931 22.5544L4.57427 22.5568C4.54543 22.5705 4.51714 22.5856 4.48921 22.6021C3.96374 22.9111 3.78823 23.5878 4.09709 24.1134C4.40596 24.6392 5.08225 24.8148 5.60754 24.5058C6.80696 23.8002 8.19631 23.3891 9.64243 23.1439L10.1863 23.0521C10.3692 23.0254 10.5555 23.0076 10.7399 22.9847L11.2945 22.9196L11.7189 22.8812C11.8632 23.181 11.9923 23.482 12.1027 23.7822C12.4105 24.6484 12.5714 25.5099 12.5368 26.3065C12.5141 27.1055 12.2972 27.8298 11.9225 28.4652C11.5427 29.0966 10.9788 29.6385 10.2515 30.0337C9.52656 30.4289 8.64231 30.6774 7.68796 30.7398C6.7502 30.7991 5.87586 30.6907 5.11685 30.3831C4.35983 30.0817 3.69272 29.558 3.24654 28.8492C2.80018 28.1486 2.61854 27.2755 2.85244 26.689L2.95786 26.4248C3.08364 26.1066 3.0458 25.7324 2.82487 25.4392C2.48754 24.9913 1.85143 24.9021 1.40381 25.2394C1.02917 25.522 0.72751 25.895 0.515053 26.2934C0.302596 26.6929 0.157173 27.1154 0.0829303 27.5382C-0.0733043 28.386 0.00129906 29.2306 0.222226 30.0252C0.666782 31.6163 1.76331 33.0072 3.1532 33.8954C3.84715 34.3395 4.60166 34.6704 5.36841 34.8864C6.13463 35.1083 6.91202 35.2142 7.67139 35.2517C9.17066 35.3206 10.7608 35.1251 12.2766 34.501C13.0326 34.1924 13.7642 33.7764 14.4365 33.2627C15.1096 32.7492 15.7123 32.1264 16.2198 31.4311C17.246 30.042 17.8223 28.3478 17.9679 26.6954C18.0915 25.2421 17.9093 23.8264 17.5338 22.5198C17.9612 22.4877 18.3899 22.4522 18.8204 22.4102C19.4704 22.3462 20.1233 22.266 20.7785 22.17C20.2947 24.3054 20.0521 26.5256 20.0521 28.8309C20.0521 30.9466 20.2379 32.4854 20.6107 33.4466C20.9829 34.4086 21.6255 34.8891 22.5389 34.8891C23.2833 34.8891 23.8302 34.6909 24.1787 34.2941C24.5267 33.8974 24.833 33.1345 25.0977 32.0041C25.4582 30.538 25.9323 29.1435 26.5213 27.8209C27.1097 26.4991 27.6863 25.4354 28.2513 24.6296C28.8155 23.8244 29.2541 23.4216 29.5667 23.4216C29.8307 23.4216 29.9632 23.6141 29.9632 23.9986C29.9632 24.5754 29.8066 25.6213 29.4947 27.1358C29.1579 28.8669 28.9901 30.0692 28.9901 30.742C28.9901 32.0887 29.302 33.1164 29.9271 33.8254C30.5515 34.5346 31.4769 34.8891 32.7022 34.8891C34.2159 34.8891 35.5674 34.1201 36.7568 33.3023C37.0305 33.1143 37.2999 32.8941 37.5653 32.6523C37.696 32.8676 37.8403 33.0726 37.9996 33.2663C38.8882 34.3481 40.0775 34.8891 41.5676 34.8891C43.4653 34.8891 45.0394 33.8795 46.2889 31.8599C46.6251 32.7977 47.1234 33.5368 47.7845 34.0777C48.4452 34.6186 49.1721 34.8891 49.965 34.8891C49.985 34.8891 50.0052 34.8866 50.0252 34.8862C49.6213 35.8323 49.2636 36.7535 48.9553 37.6478C47.8741 40.7852 47.3335 43.5317 47.3335 45.888C47.3335 47.5468 47.6462 48.8452 48.2705 49.7828C48.8957 50.7203 49.8563 51.1892 51.1538 51.1892C53.292 51.1892 54.9139 49.6323 56.0192 46.519C57.124 43.4055 57.8331 39.5288 58.1456 34.8891C59.6351 34.8649 61.0648 34.4085 62.4344 33.5189C63.2273 34.4327 65.5929 34.5876 66.8653 34.5288C68.1341 34.4702 69.2112 33.9414 70.1259 33.1231C70.1609 33.2369 70.1974 33.3458 70.2365 33.4466C70.6087 34.4086 71.2514 34.8891 72.1647 34.8891C72.9091 34.8891 73.456 34.6909 73.8045 34.2941C74.1525 33.8974 74.459 33.1345 74.7236 32.0041C75.0357 30.7059 75.4501 29.384 75.9669 28.0373C76.4834 26.6911 77.0179 25.5853 77.5707 24.7198C78.1232 23.8541 78.5799 23.4216 78.9403 23.4216C79.2044 23.4216 79.3367 23.6141 79.3367 23.9986C79.3367 24.4796 79.2405 25.4893 79.0484 27.0278C78.8078 28.7585 78.688 30.0811 78.688 30.9946C78.688 32.0764 78.8862 32.9958 79.2826 33.7531C79.6791 34.5106 80.2738 34.8891 81.0668 34.8891C81.8354 34.8891 82.394 34.697 82.7425 34.3121C83.0905 33.9278 83.3968 33.1583 83.6615 32.0041C84.0219 30.538 84.4906 29.1435 85.0671 27.8209C85.6438 26.4991 86.2204 25.4354 86.797 24.6296C87.3739 23.8244 87.8179 23.4216 88.1305 23.4216C88.3947 23.4216 88.527 23.6141 88.527 23.9986C88.527 24.5754 88.3706 25.6213 88.0584 27.1358C87.7216 28.8669 87.5541 30.0692 87.5541 30.742C87.5541 32.0887 87.8658 33.1164 88.4909 33.8254C89.1155 34.5346 90.0407 34.8891 91.266 34.8891C92.7799 34.8891 94.1314 34.4807 95.3206 33.663C95.7822 33.346 96.2318 32.9933 96.6699 32.6073C96.7409 32.6839 96.8128 32.76 96.888 32.8337C98.2811 34.2039 100.24 34.8891 102.763 34.8891C104.612 34.8891 106.349 34.4327 107.97 33.5189C108.45 33.2484 108.894 32.9699 109.31 32.6846C109.44 32.881 109.581 33.0696 109.736 33.2484C110.685 34.3426 111.893 34.8891 113.359 34.8891C114.319 34.8891 115.166 34.697 115.899 34.3121C116.632 33.9278 117.455 33.1705 118.368 32.0402L119.522 30.2841C119.594 30.4374 119.668 30.5901 119.745 30.7421C120.322 31.8725 121.054 32.9915 122.105 33.9197C122.636 34.3755 123.249 34.7803 123.941 35.0418C124.283 35.1792 124.647 35.2666 125.009 35.3283C125.373 35.3869 125.739 35.3974 126.099 35.3831C126.652 35.3618 127.119 34.9336 127.173 34.3665C127.232 33.7481 126.779 33.199 126.161 33.1399Z" fill="white"/>
</svg>
