<svg width="129" height="51" viewBox="0 0 129 51" fill="none" xmlns="http://www.w3.org/2000/svg">
<path fill-rule="evenodd" clip-rule="evenodd" d="M116.008 29.8952C115.563 30.2558 115.1 30.4361 114.62 30.4361C113.418 30.4361 112.818 29.5589 112.818 27.8036C112.818 26.1448 113.25 24.6303 114.115 23.26C114.98 21.8896 116.073 21.0122 117.395 20.6275C117.371 21.0366 117.359 24.5225 118.26 27.0468C117.563 28.0807 116.452 29.5346 116.008 29.8952ZM123.036 8.87114C123.648 5.31345 124.303 3.53416 125 3.53416C125.216 3.53416 125.402 3.78641 125.558 4.29128C125.714 4.79632 125.793 5.50548 125.793 6.41911C125.793 10.0253 124.459 14.7134 121.792 20.4833C122.008 16.3001 122.423 12.4296 123.036 8.87114ZM99.1585 25.9284C99.1585 24.4625 99.4648 23.212 100.077 22.1781C100.69 21.1446 101.441 20.6275 102.33 20.6275C102.762 20.6275 103.105 20.7661 103.357 21.0422C103.609 21.3188 103.736 21.6855 103.736 22.1419C103.736 23.0317 103.327 23.8134 102.51 24.4859C101.693 25.1594 100.576 25.6642 99.1585 26.0005V25.9284ZM62.4703 26.3796C62.0378 27.4975 61.455 28.4352 60.7223 29.1926C59.9891 29.9499 59.1906 30.4249 58.3257 30.6169C58.3493 30.0163 58.3617 29.1627 58.3617 28.0567C58.3617 26.0134 58.3736 24.4629 58.3977 23.4045C59.6231 21.578 60.6683 20.664 61.5332 20.664C62.0137 20.664 62.3982 20.8504 62.6865 21.2229C62.9748 21.5958 63.119 22.1423 63.119 22.8636C63.119 24.0899 62.9028 25.2619 62.4703 26.3796ZM51.4422 46.8444C51.2024 46.8444 50.9917 46.64 50.8115 46.2316C50.6313 45.8225 50.5412 45.2336 50.5412 44.4645C50.5412 42.9734 50.842 41.1344 51.4422 38.9469C52.0201 36.8407 52.8011 34.6328 53.7805 32.3263C53.8162 32.2962 53.8519 32.2664 53.8874 32.2359C53.7643 36.3641 53.4904 39.8221 53.064 42.6072C52.6315 45.4319 52.0909 46.8444 51.4422 46.8444ZM45.424 27.0107C45.2077 28.0446 44.8592 28.8742 44.3788 29.4992C43.8979 30.1247 43.3933 30.4366 42.8651 30.4366C42.3364 30.4366 41.9219 30.2563 41.6217 29.8957C41.321 29.5351 41.1712 28.9824 41.1712 28.237C41.1712 26.8908 41.4235 25.6169 41.9281 24.4144C42.4326 23.2125 43.1113 22.245 43.9643 21.5113C44.8169 20.7783 45.7483 20.3997 46.7575 20.3755L45.424 27.0107ZM126.161 32.3293L126.099 32.3234C125.264 32.2433 124.58 31.8178 124.009 31.1539C123.443 30.4831 123.009 29.605 122.689 28.6588C122.371 27.7132 122.151 26.7024 122.006 25.6671C124.094 21.9835 125.778 18.404 127.054 14.9296C128.351 11.3958 129 8.30687 129 5.6619C129 3.76288 128.657 2.34403 127.973 1.40642C127.288 0.468985 126.429 0 125.396 0C123.257 0 121.545 1.68319 120.26 5.04867C118.974 8.41487 118.103 12.3694 117.647 16.913C115.893 17.1296 114.307 17.7607 112.89 18.8063C111.472 19.8523 110.355 21.1927 109.538 22.8274C108.721 24.4626 108.313 26.2412 108.313 28.1644C108.313 28.4934 108.33 28.8104 108.363 29.1162C108.129 29.2516 107.864 29.3966 107.546 29.5711C106.164 30.3284 104.24 30.4723 103.159 30.4723C101.477 30.4723 100.335 29.9197 99.7351 28.8135C102.57 28.1166 104.583 27.1727 105.772 25.9828C106.961 24.7928 107.556 23.3683 107.556 21.7095C107.556 20.2911 107.135 19.1669 106.294 18.3377C105.453 17.5082 104.336 17.0934 102.943 17.0934C101.381 17.0934 99.9811 17.5144 98.744 18.3555C97.5062 19.1974 96.5394 20.3333 95.8428 21.7636C95.1456 23.1941 94.7976 24.7387 94.7976 26.3975C94.7976 27.4359 94.9304 28.3782 95.1957 29.2244C94.4907 29.7179 93.4162 30.1117 92.996 30.1117C92.2989 30.1117 91.9508 29.6312 91.9508 28.6692C91.9508 27.9965 92.1789 26.6139 92.6356 24.5223C93.1637 22.0701 93.4285 20.3752 93.4285 19.4374C93.4285 17.875 92.6475 17.0934 91.0858 17.0934C89.8122 17.0934 88.4425 17.7668 86.9772 19.113C85.5115 20.4596 84.178 22.611 82.9768 25.5679C83.049 25.1353 83.1806 24.4861 83.3732 23.6207C83.8295 21.6011 84.058 20.2073 84.058 19.4374C84.058 18.6442 83.8834 18.0553 83.5354 17.6705C83.1869 17.2861 82.592 17.0934 81.7514 17.0934C80.91 17.0934 80.0153 17.4125 79.0664 18.0492C78.1169 18.6864 77.1925 19.6539 76.2915 20.9522C75.3905 22.2504 74.6154 23.8371 73.9667 25.7123C74.0624 24.6546 74.183 23.7711 74.3271 23.0618C74.4713 22.3528 74.6632 21.5173 74.9038 20.5555C75.2642 19.2093 75.4444 18.3438 75.4444 17.959C75.4444 17.6226 75.3481 17.3943 75.156 17.2737C74.9634 17.1538 74.6273 17.0934 74.1469 17.0934C73.2578 17.0934 72.5669 17.2558 72.0746 17.5804C71.5819 17.9047 71.2277 18.4159 71.0114 19.113C70.1223 21.9258 69.6779 24.8954 69.6779 28.0203C69.6779 28.6097 69.6929 29.153 69.7219 29.6528C69.0096 30.2082 68.1363 30.5679 67.1807 30.5403C66.0737 30.5084 65.55 30.1975 65.3176 29.8953C66.0384 28.9099 66.6026 27.8162 67.0115 26.6139C67.4196 25.4119 67.6242 24.1741 67.6242 22.8995C67.6242 21.1447 67.1973 19.7261 66.3447 18.6442C65.4917 17.5623 64.3924 17.0214 63.0471 17.0214C62.2059 17.0214 61.4128 17.2322 60.6684 17.6525C59.9234 18.0733 59.1666 18.7648 58.3979 19.7261C58.3737 19.4374 58.3618 18.9929 58.3618 18.3918C58.3377 17.7912 58.2115 17.3882 57.9834 17.1835C57.7547 16.9798 57.3887 16.8772 56.8842 16.8772C56.0192 16.8772 55.2984 17.0816 54.7218 17.4902C54.1451 17.8992 53.8687 18.452 53.8928 19.1491C53.9408 20.5192 53.9649 22.9597 53.9649 26.4695C53.0722 27.9613 52.2728 29.4029 51.5641 30.7951C51.3347 30.9404 51.1285 31.0133 50.902 31.0133C50.6137 31.0133 50.3794 30.9053 50.1992 30.6887C50.019 30.4723 49.7313 29.7816 49.7487 28.9219C49.7707 27.8402 50.0246 25.9168 50.5777 23.1519C50.9381 21.2529 51.1183 20.0506 51.1183 19.5457C51.1183 18.7044 50.5292 18.2836 49.3523 18.2836C48.7993 18.2836 48.2711 18.3321 47.7665 18.4278C47.646 17.8992 47.4962 17.5324 47.316 17.3279C47.1358 17.1238 46.781 17.0214 46.2528 17.0214C44.595 17.0214 43.0272 17.5441 41.5496 18.5901C40.0719 19.6359 38.8882 21.0187 37.9996 22.7372C37.1105 24.4563 36.6661 26.2774 36.6661 28.2006C36.6661 28.6114 36.6915 29.0028 36.7402 29.3766C36.079 29.9657 34.9124 30.1117 34.4322 30.1117C33.735 30.1117 33.387 29.6312 33.387 28.6692C33.387 27.9965 33.615 26.6139 34.0718 24.5223C34.5999 22.0701 34.8647 20.3752 34.8647 19.4374C34.8647 17.875 34.0835 17.0934 32.522 17.0934C31.7292 17.0934 30.8581 17.3701 29.9091 17.923C28.9596 18.4761 27.9927 19.4015 27.0079 20.6995C26.0224 21.998 25.1338 23.681 24.3409 25.7482C24.4366 24.6907 24.5571 23.8011 24.7013 23.0798C24.8455 22.3586 25.0374 21.5173 25.2779 20.5555C25.6384 19.2093 25.8186 18.3438 25.8186 17.959C25.8186 17.6226 25.7223 17.3943 25.5302 17.2737C25.3376 17.1538 25.0015 17.0934 24.5211 17.0934C23.6318 17.0934 22.9409 17.2558 22.4488 17.5804C22.2644 17.7017 22.0996 17.8492 21.954 18.0229C20.8304 18.4682 19.6486 18.8031 18.4344 19.0567L17.8893 19.1716L17.3365 19.2661L16.7829 19.3598L16.6277 19.3826C16.2484 18.6099 15.8132 17.8818 15.3426 17.1972C14.933 16.6044 14.4961 16.0416 14.0383 15.5074C13.8085 15.2414 13.5755 14.9798 13.3371 14.7259C13.1034 14.4776 12.8314 14.2012 12.6729 14.0387C11.9411 13.2843 11.3042 12.4872 10.8215 11.6841C10.5802 11.2814 10.3804 10.879 10.2218 10.4834C10.0664 10.0871 9.96247 9.69832 9.89831 9.32543C9.78551 8.57913 9.85128 7.8972 10.1273 7.27405C10.4004 6.65415 10.8959 6.0905 11.5405 5.70013C11.8616 5.50539 12.2162 5.35556 12.5851 5.26053C12.7695 5.21275 12.9574 5.17903 13.1466 5.1592L13.2886 5.1473L13.445 5.14189L13.6036 5.13522L13.7548 5.13919C14.1572 5.15036 14.519 5.20662 14.8313 5.31246C15.146 5.4183 15.4229 5.57121 15.6894 5.79137C15.9484 6.01801 16.2012 6.31102 16.412 6.67615C16.5191 6.85664 16.6175 7.05245 16.6998 7.25656C16.7418 7.35826 16.7784 7.46193 16.8144 7.56345L16.8644 7.71076L16.8858 7.77712C16.8917 7.7892 16.8997 7.83103 16.9009 7.79731C16.9748 8.79532 17.843 9.54433 18.8404 9.4704C19.8377 9.39648 20.5862 8.52757 20.5123 7.52973L20.5026 7.32093L20.492 7.15901C20.4842 7.05407 20.4741 6.95292 20.4632 6.85213C20.4395 6.65216 20.4062 6.45635 20.3678 6.26125C20.2911 5.8716 20.1851 5.4861 20.0492 5.10222C19.7748 4.33789 19.3601 3.57843 18.786 2.90082C18.4964 2.56436 18.171 2.24972 17.8156 1.96682C17.4542 1.69437 17.07 1.44554 16.6663 1.24846C15.8608 0.838981 15.0054 0.625134 14.1876 0.518931C14.0853 0.50631 13.9819 0.491885 13.88 0.481968L13.578 0.461232C13.4766 0.455282 13.3775 0.447529 13.2738 0.443922L12.9552 0.441759C12.5305 0.446807 12.1065 0.48341 11.6874 0.551207C10.8492 0.686799 10.0313 0.945003 9.26238 1.31788C8.49382 1.69076 7.77338 2.17886 7.13457 2.77262C6.49701 3.36692 5.94235 4.06797 5.50915 4.84582C5.07487 5.62278 4.7651 6.4751 4.59229 7.34509C4.41569 8.21563 4.39443 9.09933 4.47011 9.94786C4.54994 10.7964 4.74275 11.6085 5.00423 12.3683C5.26624 13.1282 5.59583 13.8402 5.97515 14.4987C6.72497 15.8252 7.6467 16.9536 8.62123 17.9653L9.24166 18.6004C9.42583 18.7928 9.60296 18.9888 9.77722 19.186C10.0437 19.4913 10.2951 19.8034 10.5306 20.1209L10.471 20.1292L9.88264 20.2145L9.29031 20.3153C7.71409 20.593 6.10796 21.0196 4.57931 21.7439L4.57427 21.7462C4.54543 21.7599 4.51714 21.7751 4.48921 21.7915C3.96374 22.1006 3.78823 22.7773 4.09709 23.3029C4.40596 23.8286 5.08225 24.0043 5.60754 23.6952C6.80696 22.9897 8.19631 22.5786 9.64243 22.3333L10.1863 22.2416C10.3692 22.2149 10.5555 22.197 10.7399 22.1741L11.2945 22.109L11.7189 22.0706C11.8632 22.3705 11.9923 22.6714 12.1027 22.9716C12.4105 23.8378 12.5714 24.6994 12.5368 25.496C12.5141 26.2949 12.2972 27.0192 11.9225 27.6546C11.5427 28.2861 10.9788 28.8279 10.2515 29.2231C9.52656 29.6184 8.64231 29.8669 7.68796 29.9292C6.7502 29.9886 5.87586 29.8802 5.11685 29.5726C4.35983 29.2711 3.69272 28.7475 3.24654 28.0387C2.80018 27.338 2.61854 26.4649 2.85244 25.8784L2.95786 25.6142C3.08364 25.296 3.0458 24.9219 2.82487 24.6287C2.48754 24.1808 1.85143 24.0915 1.40381 24.4289C1.02917 24.7114 0.72751 25.0845 0.515053 25.4828C0.302596 25.8824 0.157173 26.3048 0.0829303 26.7277C-0.0733043 27.5755 0.00129906 28.42 0.222226 29.2147C0.666782 30.8057 1.76331 32.1966 3.1532 33.0848C3.84715 33.5289 4.60166 33.8598 5.36841 34.0758C6.13463 34.2978 6.91202 34.4036 7.67139 34.4411C9.17066 34.51 10.7608 34.3145 12.2766 33.6905C13.0326 33.3818 13.7642 32.9658 14.4365 32.4521C15.1096 31.9386 15.7123 31.3158 16.2198 30.6205C17.246 29.2314 17.8223 27.5373 17.9679 25.8849C18.0915 24.4316 17.9093 23.0158 17.5338 21.7093C17.9612 21.6772 18.3899 21.6417 18.8204 21.5997C19.4704 21.5356 20.1233 21.4554 20.7785 21.3595C20.2947 23.4949 20.0521 25.715 20.0521 28.0203C20.0521 30.1361 20.2379 31.6748 20.6107 32.636C20.9829 33.598 21.6255 34.0785 22.5389 34.0785C23.2833 34.0785 23.8302 33.8804 24.1787 33.4835C24.5267 33.0868 24.833 32.3239 25.0977 31.1936C25.4582 29.7275 25.9323 28.333 26.5213 27.0104C27.1097 25.6885 27.6863 24.6249 28.2513 23.8191C28.8155 23.0138 29.2541 22.611 29.5667 22.611C29.8307 22.611 29.9632 22.8036 29.9632 23.188C29.9632 23.7648 29.8066 24.8108 29.4947 26.3252C29.1579 28.0564 28.9901 29.2587 28.9901 29.9314C28.9901 31.2781 29.302 32.3059 29.9271 33.0149C30.5515 33.724 31.4769 34.0785 32.7022 34.0785C34.2159 34.0785 35.5674 33.3095 36.7568 32.4918C37.0305 32.3037 37.2999 32.0836 37.5653 31.8418C37.696 32.0571 37.8403 32.2621 37.9996 32.4557C38.8882 33.5376 40.0775 34.0785 41.5676 34.0785C43.4653 34.0785 45.0394 33.069 46.2889 31.0493C46.6251 31.9871 47.1234 32.7262 47.7845 33.2671C48.4452 33.8081 49.1721 34.0785 49.965 34.0785C49.985 34.0785 50.0052 34.076 50.0252 34.0756C49.6213 35.0217 49.2636 35.9429 48.9553 36.8373C47.8741 39.9747 47.3335 42.7211 47.3335 45.0774C47.3335 46.7363 47.6462 48.0347 48.2705 48.9723C48.8957 49.9097 49.8563 50.3787 51.1538 50.3787C53.292 50.3787 54.9139 48.8217 56.0192 45.7085C57.124 42.5949 57.8331 38.7183 58.1456 34.0785C59.6351 34.0544 61.0648 33.598 62.4344 32.7084C63.2273 33.6222 65.5929 33.777 66.8653 33.7183C68.1341 33.6597 69.2112 33.1308 70.1259 32.3126C70.1609 32.4263 70.1974 32.5353 70.2365 32.636C70.6087 33.598 71.2514 34.0785 72.1647 34.0785C72.9091 34.0785 73.456 33.8804 73.8045 33.4835C74.1525 33.0868 74.459 32.3239 74.7236 31.1936C75.0357 29.8953 75.4501 28.5735 75.9669 27.2268C76.4834 25.8806 77.0179 24.7747 77.5707 23.9092C78.1232 23.0436 78.5799 22.611 78.9403 22.611C79.2044 22.611 79.3367 22.8036 79.3367 23.188C79.3367 23.6691 79.2405 24.6788 79.0484 26.2172C78.8078 27.948 78.688 29.2706 78.688 30.184C78.688 31.2659 78.8862 32.1853 79.2826 32.9426C79.6791 33.7001 80.2738 34.0785 81.0668 34.0785C81.8354 34.0785 82.394 33.8865 82.7425 33.5015C83.0905 33.1173 83.3968 32.3477 83.6615 31.1936C84.0219 29.7275 84.4906 28.333 85.0671 27.0104C85.6438 25.6885 86.2204 24.6249 86.797 23.8191C87.3739 23.0138 87.8179 22.611 88.1305 22.611C88.3947 22.611 88.527 22.8036 88.527 23.188C88.527 23.7648 88.3706 24.8108 88.0584 26.3252C87.7216 28.0564 87.5541 29.2587 87.5541 29.9314C87.5541 31.2781 87.8658 32.3059 88.4909 33.0149C89.1155 33.724 90.0407 34.0785 91.266 34.0785C92.7799 34.0785 94.1314 33.6701 95.3206 32.8524C95.7822 32.5354 96.2318 32.1828 96.6699 31.7967C96.7409 31.8733 96.8128 31.9494 96.888 32.0232C98.2811 33.3933 100.24 34.0785 102.763 34.0785C104.612 34.0785 106.349 33.6222 107.97 32.7084C108.45 32.4379 108.894 32.1593 109.31 31.8741C109.44 32.0704 109.581 32.259 109.736 32.4379C110.685 33.532 111.893 34.0785 113.359 34.0785C114.319 34.0785 115.166 33.8865 115.899 33.5015C116.632 33.1173 117.455 32.36 118.368 31.2296L119.522 29.4736C119.594 29.6269 119.668 29.7796 119.745 29.9316C120.322 31.0619 121.054 32.1809 122.105 33.1092C122.636 33.565 123.249 33.9698 123.941 34.2312C124.283 34.3686 124.647 34.4561 125.009 34.5178C125.373 34.5764 125.739 34.5868 126.099 34.5726C126.652 34.5513 127.119 34.1231 127.173 33.556C127.232 32.9375 126.779 32.3885 126.161 32.3293Z" fill="#43007E"/>
</svg>
