<svg width="62" height="40" viewBox="0 0 62 40" fill="none" xmlns="http://www.w3.org/2000/svg">
<rect x="0.5" y="0.5" width="61" height="39" rx="7.5" fill="white" stroke="#D9D9D9"/>
<path fill-rule="evenodd" clip-rule="evenodd" d="M20.9655 26.8749H17.5158L14.929 16.8088C14.8062 16.3458 14.5455 15.9364 14.162 15.7435C13.205 15.2587 12.1504 14.8728 11 14.6782V14.2906H16.5571C17.3241 14.2906 17.8993 14.8728 17.9952 15.5489L19.3374 22.8099L22.7853 14.2906H26.1391L20.9655 26.8749ZM28.0566 26.8749H24.7987L27.4814 14.2906H30.7393L28.0566 26.8749ZM34.9541 17.7764C35.05 17.0987 35.6252 16.7111 36.2963 16.7111C37.3509 16.6138 38.4996 16.8084 39.4583 17.2916L40.0336 14.5822C39.0749 14.1946 38.0203 14 37.0633 14C33.9012 14 31.6003 15.7431 31.6003 18.1623C31.6003 20.0027 33.2301 20.9691 34.3806 21.5512C35.6252 22.1317 36.1045 22.5192 36.0087 23.0997C36.0087 23.9704 35.05 24.358 34.0929 24.358C32.9425 24.358 31.7921 24.0677 30.7392 23.5829L30.1639 26.294C31.3144 26.7772 32.559 26.9718 33.7095 26.9718C37.255 27.0674 39.4583 25.326 39.4583 22.7122C39.4583 19.4206 34.9541 19.2276 34.9541 17.7764V17.7764ZM50.8599 26.8749L48.2731 14.2906H45.4945C44.9193 14.2906 44.3441 14.6782 44.1523 15.2587L39.3622 26.8749H42.716L43.3854 25.0361H47.5061L47.8896 26.8749H50.8599ZM45.9745 17.6787L46.9315 22.4215H44.2488L45.9745 17.6787Z" fill="#172B85"/>
</svg>
