<svg width="60" height="60" viewBox="0 0 60 60" fill="none" xmlns="http://www.w3.org/2000/svg">
<circle cx="30" cy="30" r="30" fill="#F4E7FF"/>
<path d="M30.8876 27.8C32.4236 27.8 33.6316 28.256 34.5116 29.168C35.4076 30.064 35.8556 31.248 35.8556 32.72C35.8556 34.496 35.3116 35.864 34.2236 36.824C33.1516 37.768 31.7356 38.24 29.9756 38.24C28.5516 38.24 27.3516 37.976 26.3756 37.448C25.4156 36.904 24.6316 36.056 24.0236 34.904L26.9996 33.248C27.2076 34.032 27.5276 34.624 27.9596 35.024C28.4076 35.408 29.0716 35.6 29.9516 35.6C30.8316 35.6 31.5196 35.368 32.0156 34.904C32.5276 34.44 32.7836 33.784 32.7836 32.936C32.7676 32.072 32.5276 31.416 32.0636 30.968C31.5996 30.504 30.9196 30.272 30.0236 30.272C28.6956 30.272 27.7276 30.656 27.1196 31.424L24.5276 31.136L25.5116 22.16H35.0396V24.824H28.0076L27.5516 28.544L27.4796 29H27.5036C27.8556 28.616 28.3196 28.32 28.8956 28.112C29.4876 27.904 30.1516 27.8 30.8876 27.8Z" fill="#5E4098"/>
</svg>
