<svg width="60" height="60" viewBox="0 0 60 60" fill="none" xmlns="http://www.w3.org/2000/svg">
<circle cx="30" cy="30" r="29.5" stroke="#5E4098" stroke-opacity="0.3"/>
<path d="M30.0376 21.92C31.7336 21.92 33.0536 22.32 33.9976 23.12C34.9576 23.92 35.4376 24.96 35.4376 26.24C35.4376 27.024 35.2776 27.704 34.9576 28.28C34.6376 28.84 34.2456 29.264 33.7816 29.552C33.3176 29.84 32.8776 29.984 32.4616 29.984V30.056C32.9896 30.056 33.5016 30.192 33.9976 30.464C34.5096 30.736 34.9256 31.152 35.2456 31.712C35.5816 32.256 35.7496 32.92 35.7496 33.704C35.7496 34.584 35.4936 35.368 34.9816 36.056C34.4856 36.744 33.7896 37.28 32.8936 37.664C31.9976 38.048 30.9736 38.24 29.8216 38.24C28.2696 38.24 26.9976 37.928 26.0056 37.304C25.0296 36.664 24.3176 35.68 23.8696 34.352L26.8696 33.008C27.0456 33.888 27.3656 34.536 27.8296 34.952C28.3096 35.368 28.9816 35.576 29.8456 35.576C30.6616 35.576 31.3096 35.376 31.7896 34.976C32.2696 34.56 32.5096 34.008 32.5096 33.32C32.5096 32.584 32.2776 32.056 31.8136 31.736C31.3656 31.4 30.6536 31.232 29.6776 31.232H28.8856V28.928H29.5576C31.2856 28.928 32.1496 28.2 32.1496 26.744C32.1496 26.04 31.9496 25.504 31.5496 25.136C31.1656 24.768 30.6136 24.584 29.8936 24.584C29.1576 24.584 28.5656 24.776 28.1176 25.16C27.6696 25.544 27.3896 26.104 27.2776 26.84L24.3256 25.76C24.6296 24.496 25.2856 23.544 26.2936 22.904C27.3176 22.248 28.5656 21.92 30.0376 21.92Z" fill="#5E4098" fill-opacity="0.3"/>
</svg>
