<svg width="60" height="60" viewBox="0 0 60 60" fill="none" xmlns="http://www.w3.org/2000/svg">
<circle cx="30" cy="30" r="29.5" stroke="#5E4098" stroke-opacity="0.3"/>
<path d="M24.4702 35.744C26.4062 34.448 27.9422 33.312 29.0782 32.336C30.2142 31.36 31.0382 30.456 31.5502 29.624C32.0622 28.792 32.3182 27.968 32.3182 27.152C32.3182 26.4 32.0862 25.792 31.6222 25.328C31.1742 24.864 30.5502 24.632 29.7502 24.632C28.8702 24.632 28.1742 24.936 27.6622 25.544C27.1502 26.152 26.8702 27.016 26.8222 28.136L23.9662 27.056C24.0782 25.456 24.6702 24.2 25.7422 23.288C26.8142 22.376 28.2142 21.92 29.9422 21.92C31.1742 21.92 32.2142 22.152 33.0622 22.616C33.9262 23.08 34.5742 23.696 35.0062 24.464C35.4382 25.216 35.6542 26.048 35.6542 26.96C35.6542 28.448 35.0942 29.856 33.9742 31.184C32.8542 32.496 31.0702 33.904 28.6222 35.408V35.432C29.5502 35.368 30.5182 35.336 31.5262 35.336H35.8942V38H24.4702V35.744Z" fill="#5E4098" fill-opacity="0.3"/>
</svg>
