<?xml version="1.0" encoding="UTF-8"?>
<svg width="46px" height="72px" viewBox="0 0 46 72" version="1.1" xmlns="http://www.w3.org/2000/svg" xmlns:xlink="http://www.w3.org/1999/xlink">
    <!-- Generator: sketchtool 50.2 (55047) - http://www.bohemiancoding.com/sketch -->
    <title>02DA00F1-37D4-4718-832F-A7DB6563FA71</title>
    <desc>Created with sketchtool.</desc>
    <defs>
        <polygon id="path-1" points="0 0.0105761511 45.7525372 0.0105761511 45.7525372 63.0743802 0 63.0743802"></polygon>
    </defs>
    <g id="Page-1" stroke="none" stroke-width="1" fill="none" fill-rule="evenodd">
        <g id="frontpage-ui" transform="translate(-1094.000000, -825.000000)">
            <g id="steps" transform="translate(140.000000, 825.000000)">
                <g id="Page-1" transform="translate(954.000000, 0.000000)">
                    <g id="Group-3" transform="translate(0.000000, 8.925620)">
                        <mask id="mask-2" fill="white">
                            <use xlink:href="#path-1"></use>
                        </mask>
                        <g id="Clip-2"></g>
                        <path d="M43.6735588,59.449013 C43.6735588,60.3024864 42.980566,60.9967863 42.1253189,60.9967863 L3.6270667,60.9967863 C2.77181957,60.9967863 2.08034316,60.3024864 2.08034316,59.449013 L2.08034316,3.6367013 C2.08034316,2.78171192 2.77181957,2.08892798 3.6270667,2.08892798 L42.1253189,2.08892798 C42.980566,2.08892798 43.6735588,2.78171192 43.6735588,3.6367013 L43.6735588,59.449013 Z M42.3012208,0.0105761511 L3.45268121,0.0105761511 C1.54505551,0.0105761511 -0.000151639563,1.55683353 -0.000151639563,3.46085242 L-0.000151639563,59.6233459 C-0.000151639563,61.5288808 1.54505551,63.0751381 3.45268121,63.0751381 L42.3012208,63.0751381 C44.2073301,63.0751381 45.7525372,61.5288808 45.7525372,59.6233459 L45.7525372,3.46085242 C45.7525372,1.55531759 44.2073301,0.0105761511 42.3012208,0.0105761511 Z" id="Fill-1" fill="#4F3C56" mask="url(#mask-2)"></path>
                    </g>
                    <path d="M42.1851324,11.0082645 L3.63304942,11.0082645 C2.77660642,11.0082645 2.08264463,11.7010807 2.08264463,12.55611 L2.08264463,68.3710258 C2.08264463,69.2245391 2.77660642,69.9173554 3.63304942,69.9173554 L42.1851324,69.9173554 C43.0400569,69.9173554 43.7355372,69.2245391 43.7355372,68.3710258 L43.7355372,12.55611 C43.7355372,11.7010807 43.0400569,11.0082645 42.1851324,11.0082645" id="Fill-4" fill="#F0ECEF"></path>
                    <path d="M37.392933,55.6363636 L8.12772818,55.6363636 C7.74589656,55.6363636 7.43801653,55.9413223 7.43801653,56.317686 C7.43801653,56.692562 7.74589656,56.9975207 8.12772818,56.9975207 L37.392933,56.9975207 C37.7747646,56.9975207 38.0826446,56.692562 38.0826446,56.317686 C38.0826446,55.9413223 37.7747646,55.6363636 37.392933,55.6363636" id="Fill-6" fill="#CABAC4"></path>
                    <path d="M37.392933,51.768595 L8.12772818,51.768595 C7.74589656,51.768595 7.43801653,52.0720661 7.43801653,52.4484298 C7.43801653,52.8247934 7.74589656,53.1282645 8.12772818,53.1282645 L37.392933,53.1282645 C37.7747646,53.1282645 38.0826446,52.8247934 38.0826446,52.4484298 C38.0826446,52.0720661 37.7747646,51.768595 37.392933,51.768595" id="Fill-8" fill="#CABAC4"></path>
                    <path d="M37.392933,48.1983471 L8.12772818,48.1983471 C7.74589656,48.1983471 7.43801653,48.5018182 7.43801653,48.8781818 C7.43801653,49.2545455 7.74589656,49.5580165 8.12772818,49.5580165 L37.392933,49.5580165 C37.7747646,49.5580165 38.0826446,49.2545455 38.0826446,48.8781818 C38.0826446,48.5018182 37.7747646,48.1983471 37.392933,48.1983471" id="Fill-10" fill="#CABAC4"></path>
                    <path d="M37.392933,44.6280992 L8.12772818,44.6280992 C7.74589656,44.6280992 7.43801653,44.9330579 7.43801653,45.3079339 C7.43801653,45.6842975 7.74589656,45.9892562 8.12772818,45.9892562 L37.392933,45.9892562 C37.7747646,45.9892562 38.0826446,45.6842975 38.0826446,45.3079339 C38.0826446,44.9330579 37.7747646,44.6280992 37.392933,44.6280992" id="Fill-12" fill="#CABAC4"></path>
                    <path d="M37.392933,41.0578512 L8.12772818,41.0578512 C7.74589656,41.0578512 7.43801653,41.3613223 7.43801653,41.737686 C7.43801653,42.1140496 7.74589656,42.4175207 8.12772818,42.4175207 L37.392933,42.4175207 C37.7747646,42.4175207 38.0826446,42.1140496 38.0826446,41.737686 C38.0826446,41.3613223 37.7747646,41.0578512 37.392933,41.0578512" id="Fill-14" fill="#CABAC4"></path>
                    <path d="M37.392933,37.4876033 L8.12772818,37.4876033 C7.74589656,37.4876033 7.43801653,37.7910744 7.43801653,38.167438 C7.43801653,38.5438017 7.74589656,38.8472727 8.12772818,38.8472727 L37.392933,38.8472727 C37.7747646,38.8472727 38.0826446,38.5438017 38.0826446,38.167438 C38.0826446,37.7910744 37.7747646,37.4876033 37.392933,37.4876033" id="Fill-16" fill="#CABAC4"></path>
                    <path d="M37.392933,33.6198347 L8.12772818,33.6198347 C7.74589656,33.6198347 7.43801653,33.9247934 7.43801653,34.2996694 C7.43801653,34.6760331 7.74589656,34.9809917 8.12772818,34.9809917 L37.392933,34.9809917 C37.7747646,34.9809917 38.0826446,34.6760331 38.0826446,34.2996694 C38.0826446,33.9247934 37.7747646,33.6198347 37.392933,33.6198347" id="Fill-18" fill="#CABAC4"></path>
                    <path d="M37.392933,30.0495868 L8.12772818,30.0495868 C7.74589656,30.0495868 7.43801653,30.3530579 7.43801653,30.7294215 C7.43801653,31.1042975 7.74589656,31.4092562 8.12772818,31.4092562 L37.392933,31.4092562 C37.7747646,31.4092562 38.0826446,31.1042975 38.0826446,30.7294215 C38.0826446,30.3530579 37.7747646,30.0495868 37.392933,30.0495868" id="Fill-20" fill="#CABAC4"></path>
                    <path d="M37.392933,26.4793388 L8.12772818,26.4793388 C7.74589656,26.4793388 7.43801653,26.7828099 7.43801653,27.1591736 C7.43801653,27.5355372 7.74589656,27.8390083 8.12772818,27.8390083 L37.392933,27.8390083 C37.7747646,27.8390083 38.0826446,27.5355372 38.0826446,27.1591736 C38.0826446,26.7828099 37.7747646,26.4793388 37.392933,26.4793388" id="Fill-22" fill="#CABAC4"></path>
                    <path d="M37.392933,22.9090909 L8.12772818,22.9090909 C7.74589656,22.9090909 7.43801653,23.2140496 7.43801653,23.5889256 C7.43801653,23.9652893 7.74589656,24.2687603 8.12772818,24.2687603 L37.392933,24.2687603 C37.7747646,24.2687603 38.0826446,23.9652893 38.0826446,23.5889256 C38.0826446,23.2140496 37.7747646,22.9090909 37.392933,22.9090909" id="Fill-24" fill="#CABAC4"></path>
                    <path d="M22.7604742,5.40156353 C21.6783901,5.40156353 20.8018415,4.5269385 20.8018415,3.44722899 C20.8018415,2.36751947 21.6783901,1.49289444 22.7604742,1.49289444 C23.8425584,1.49289444 24.7191069,2.36751947 24.7191069,3.44722899 C24.7191069,4.5269385 23.8425584,5.40156353 22.7604742,5.40156353 M37.3655872,15.9513509 L36.8109435,15.1943479 C36.3076837,14.5082196 35.5747078,14.0241599 34.7480318,13.8281233 L31.1209342,12.9715939 C30.5798921,12.8449241 30.1960243,12.3608644 30.1960243,11.8059299 L30.1960243,8.03599443 C30.1960243,7.37399377 29.6580048,6.83715496 28.9945482,6.83715496 L27.0842768,6.83715496 C26.6051977,6.83715496 26.2152847,6.44809762 26.2152847,5.9700698 L26.2152847,3.44722899 C26.2152847,1.54265759 24.6692343,0 22.7604742,0 C20.8517141,0 19.3041525,1.54265759 19.3041525,3.44722899 L19.3041525,5.9700698 C19.3041525,6.44809762 18.9157508,6.83715496 18.4351604,6.83715496 L16.524889,6.83715496 C15.8614324,6.83715496 15.3249242,7.37399377 15.3249242,8.03599443 L15.3249242,11.8059299 C15.3249242,12.3608644 14.9410563,12.8449241 14.4000143,12.9715939 L10.7729167,13.8281233 C9.94472942,14.0241599 9.21326473,14.5082196 8.71000494,15.1943479 L8.15536127,15.9513509 C8.01481124,16.1443716 7.99365317,16.3992193 8.10095481,16.6133516 C8.20976773,16.824468 8.42890488,16.9586777 8.6676888,16.9586777 L36.8532597,16.9586777 C37.0920436,16.9586777 37.3111807,16.824468 37.4184824,16.6133516 C37.5272953,16.3992193 37.5061372,16.1443716 37.3655872,15.9513509" id="Fill-26" fill="#B8A5B2"></path>
                </g>
            </g>
        </g>
    </g>
</svg>