<?xml version="1.0" encoding="UTF-8"?>
<svg width="43px" height="72px" viewBox="0 0 43 72" version="1.1" xmlns="http://www.w3.org/2000/svg" xmlns:xlink="http://www.w3.org/1999/xlink">
    <!-- Generator: sketchtool 50.2 (55047) - http://www.bohemiancoding.com/sketch -->
    <title>271A3EE3-F7E7-44D3-A775-C28A4D499E73</title>
    <desc>Created with sketchtool.</desc>
    <defs>
        <polygon id="path-1" points="0 0.197364706 42.4715589 0.197364706 42.4715589 72 0 72"></polygon>
        <polygon id="path-3" points="0.00033927619 0.183240102 34.9771699 0.183240102 34.9771699 56.639915 0.00033927619 56.639915"></polygon>
    </defs>
    <g id="Page-1" stroke="none" stroke-width="1" fill="none" fill-rule="evenodd">
        <g id="frontpage-ui" transform="translate(-299.000000, -825.000000)">
            <g id="steps" transform="translate(140.000000, 825.000000)">
                <g id="Page-1" transform="translate(159.000000, 0.000000)">
                    <g id="Group-3">
                        <mask id="mask-2" fill="white">
                            <use xlink:href="#path-1"></use>
                        </mask>
                        <g id="Clip-2"></g>
                        <path d="M38.1318449,0.197025882 L4.34106224,0.197025882 C1.94368627,0.197025882 -0.000337065164,2.15119059 -0.000337065164,4.56022588 L-0.000337065164,67.6364612 C-0.000337065164,70.0463435 1.94368627,72.0005082 4.34106224,72.0005082 L38.1318449,72.0005082 C40.5292209,72.0005082 42.4715589,70.0463435 42.4715589,67.6364612 L42.4715589,4.56022588 C42.4715589,2.15119059 40.5292209,0.197025882 38.1318449,0.197025882" id="Fill-1" fill="#64455E" mask="url(#mask-2)"></path>
                    </g>
                    <path d="M36.8378146,3.84 L5.40218542,3.84 C4.53896064,3.84 3.84,4.54581436 3.84,5.41561432 L3.84,58.4235404 C3.84,59.2941856 4.53896064,60 5.40218542,60 L36.8378146,60 C37.7010394,60 38.4,59.2941856 38.4,58.4235404 L38.4,5.41561432 C38.4,4.54581436 37.7010394,3.84 36.8378146,3.84" id="Fill-4" fill="#9093B0"></path>
                    <path d="M38.4,22.08 L3.84,56.934383 L3.84,58.4236626 C3.84,59.2942404 4.53978175,60 5.4029856,60 L20.6171628,60 L38.4,42.0652532 L38.4,22.08 Z" id="Fill-6" fill="#A7B2C7"></path>
                    <path d="M3.84,43.2 L38.4,8.61459419 L38.4,5.40413458 C38.4,4.54029618 37.7002182,3.84 36.8378525,3.84 L29.01622,3.84 L3.84,29.0347276 L3.84,43.2 Z" id="Fill-8" fill="#A7B2C7"></path>
                    <path d="M25.8057265,63.36 L16.4342735,63.36 C15.5763412,63.36 14.88,64.0539286 14.88,64.9088885 L14.88,67.0902814 C14.88,67.9460714 15.5763412,68.64 16.4342735,68.64 L25.8057265,68.64 C26.6636588,68.64 27.36,67.9460714 27.36,67.0902814 L27.36,64.9088885 C27.36,64.0539286 26.6636588,63.36 25.8057265,63.36" id="Fill-10" fill="#9E8697"></path>
                    <g opacity="0.386543843" transform="translate(3.840000, 3.840000)">
                        <g id="Group-3">
                            <mask id="mask-4" fill="white">
                                <use xlink:href="#path-3"></use>
                            </mask>
                            <g id="Clip-2"></g>
                            <path d="M33.3961429,0.183155127 L1.58136632,0.183155127 C0.707730133,0.183155127 0.00033927619,0.891849384 0.00033927619,1.76709529 L0.00033927619,55.0551251 C0.00033927619,55.930371 0.707730133,56.639915 1.58136632,56.639915 L33.3961429,56.639915 C34.2697791,56.639915 34.9771699,55.930371 34.9771699,55.0551251 L34.9771699,1.76709529 C34.9771699,0.891849384 34.2697791,0.183155127 33.3961429,0.183155127" id="Fill-1" fill="#FEE3E3" mask="url(#mask-4)"></path>
                        </g>
                        <path d="M17.0080442,16.2196364 C10.5809496,16.2196364 5.37109489,21.4638774 5.37109489,27.9333924 C5.37109489,34.4029075 10.5809496,39.648 17.0080442,39.648 C23.4351388,39.648 28.6458394,34.4029075 28.6458394,27.9333924 C28.6458394,21.4638774 23.4351388,16.2196364 17.0080442,16.2196364" id="Fill-4" fill="#F48989"></path>
                    </g>
                </g>
            </g>
        </g>
    </g>
</svg>