<?xml version="1.0" encoding="utf-8"?>
<!-- Generator: Adobe Illustrator 22.1.0, SVG Export Plug-In . SVG Version: 6.00 Build 0)  -->
<svg version="1.1" id="Layer_1" xmlns="http://www.w3.org/2000/svg" xmlns:xlink="http://www.w3.org/1999/xlink" x="0px" y="0px"
	 viewBox="0 0 244.3 326.5" style="enable-background:new 0 0 244.3 326.5;" xml:space="preserve">
<style type="text/css">
	.st0{fill:#4C3045;}
	.st1{opacity:0.9;}
	.st2{fill:#A0D6D7;}
	.st3{clip-path:url(#SVGID_2_);}
	.st4{fill:#5A3C55;}
	.st5{fill:#FFA898;}
	.st6{fill:#E1D9DF;}
	.st7{fill:#D6CBD3;}
	.st8{fill:#B6664C;}
	.st9{fill:#F0ECEF;}
	.st10{fill:#CABAC4;}
	.st11{fill:#B8A5B2;}
	.st12{fill:#54939B;}
	.st13{fill:#5FA2A8;}
	.st14{fill:#C7B8C3;}
	.st15{fill:#FAF9FA;}
	.st16{fill:#69BDBF;}
	.st17{fill:#FF9E8D;}
	.st18{fill:#71536A;}
	.st19{fill:#81657A;}
	.st20{fill:#53344D;}
	.st21{fill:#4C8890;}
	.st22{fill:#60B5B7;}
	.st23{fill:#7B5E74;}
	.st24{fill:#8C7185;}
	.st25{fill:#F48989;}
	.st26{fill:#73FFC4;}
	.st27{fill:#4B7D88;}
	.st28{fill:#517C88;}
	.st29{fill:#E9E3E8;}
	.st30{fill:#D3C6CF;}
	.st31{fill:#F2EEF1;}
	.st32{fill:#EDE7EB;}
	.st33{fill:#C5B6C1;}
	.st34{fill:#9E8697;}
	.st35{fill:#ECE6EA;}
	.st36{fill:#D9D0D8;}
	.st37{fill:#B3A0AE;}
	.st38{fill:#D63E39;}
	.st39{fill:#532442;}
	.st40{fill:#893327;}
	.st41{fill:#F8918C;}
	.st42{fill:#9F462C;}
	.st43{fill:#B55C32;}
</style>
<path class="st0" d="M197.7,0H46.5C35.8,0,27.1,8.7,27.1,19.4v287.7c0,10.7,8.7,19.4,19.4,19.4h151.2c10.7,0,19.4-8.7,19.4-19.4
	V19.4C217.1,8.7,208.4,0,197.7,0z"/>
<g class="st1">
	<path class="st2" d="M197.8,14.5H46.5c-4.2,0-7.5,3.4-7.5,7.5v252.9c0,4.2,3.4,7.5,7.5,7.5h151.3c4.2,0,7.5-3.4,7.5-7.5V22
		C205.3,17.9,201.9,14.5,197.8,14.5z"/>
	<g>
		<path class="st2" d="M205.3,101.5L39,267.8v7.1c0,4.2,3.4,7.5,7.5,7.5h73.2l85.6-85.6L205.3,101.5L205.3,101.5z"/>
		<path class="st2" d="M39,203.8L205.3,37.5V22c0-4.2-3.4-7.5-7.5-7.5h-37.6L39,135.7V203.8z"/>
	</g>
</g>
<g>
	<g>
		<defs>
			<rect id="SVGID_1_" y="-11.8" width="244.3" height="294"/>
		</defs>
		<clipPath id="SVGID_2_">
			<use xlink:href="#SVGID_1_"  style="overflow:visible;"/>
		</clipPath>
		<g class="st3">
			<g>
				<path class="st4" d="M98.4,120.3c6.4,0,12.2-1.6,17.7-3.2c4.7-1.3,9.1-2.6,13.3-2.6c1,0,1.8-0.8,1.8-1.8s-0.8-1.8-1.8-1.8
					c-4.7,0-9.4,1.3-14.3,2.7c-5.3,1.5-10.8,3.1-16.7,3.1c-7.8,0-9.9-2.5-11.4-4.3c-1-1.2-2.1-2.5-4.1-2.5l0,0c-1,0-1.8,0.8-1.8,1.8
					s0.8,1.8,1.8,1.8l0,0l0,0c0.3,0,0.5,0.2,1.4,1.2C86.1,116.8,89,120.3,98.4,120.3z"/>
			</g>
			<g>
				<g>
					<path class="st5" d="M131.2,124.2c-0.6,1-1,2.3-1,3.6l-1,66.5c-0.2,11.5,5.9,22.3,15.7,28.2l57,34.1c3.4,2,7.8,0.9,9.9-2.5
						c2-3.4,0.9-7.8-2.5-9.9l-57-34.1c-5.5-3.3-8.8-9.3-8.7-15.7l1-66.5c0.1-4-3.1-7.2-7.1-7.3C134.9,120.7,132.5,122.1,131.2,124.2
						z"/>
				</g>
				<g>
					<path class="st6" d="M143.6,224.8l45.1,27c0.7,0.4,1.6,0.2,2-0.5l8.6-14.4c0.4-0.7,0.2-1.6-0.5-2l-45.1-27
						c-4.7-2.8-7.5-7.9-7.4-13.3l1-66.4c0-2.6-1-5.1-2.8-7s-4.3-3-7-3c-3.5,0-6.8,1.8-8.6,4.8c-0.9,1.5-1.4,3.2-1.4,4.9l-1,66.5
						C126.3,206.7,132.9,218.4,143.6,224.8z"/>
					
						<rect x="176.2" y="234.6" transform="matrix(0.513 -0.8584 0.8584 0.513 -114.222 275.9944)" class="st7" width="19.8" height="8.2"/>
				</g>
			</g>
			<g>
				<g>
					<path class="st8" d="M235.2,190l-49-45.6c-2.4-2.2-6.2-2.1-8.4,0.3l-65.9,70.8c-2.2,2.4-2.1,6.2,0.3,8.4l49,45.6
						c2.4,2.2,6.2,2.1,8.4-0.3l65.9-70.8C237.7,196,237.6,192.2,235.2,190z M167.1,266.6c-1,1.1-2.7,1.1-3.8,0.1l-48.5-45.2
						c-1.1-1-1.1-2.7-0.1-3.8l65.5-70.4c1-1.1,2.7-1.1,3.8-0.1l48.5,45.2c1.1,1,1.1,2.7,0.1,3.8L167.1,266.6z"/>
					<path class="st9" d="M232.5,192.4L184,147.2c-1.1-1-2.8-0.9-3.8,0.1l-65.5,70.4c-1,1.1-0.9,2.8,0.1,3.8l48.5,45.2
						c1.1,1,2.8,0.9,3.8-0.1l65.5-70.4C233.6,195.1,233.6,193.4,232.5,192.4z"/>
					<path class="st10" d="M174.5,243.2l-37.1-34.5c-0.5-0.4-1.2-0.4-1.7,0.1c-0.4,0.5-0.4,1.2,0.1,1.7l37.1,34.5
						c0.5,0.4,1.2,0.4,1.7-0.1C175,244.4,175,243.7,174.5,243.2z"/>
					<path class="st10" d="M178.8,238.6l-37.1-34.5c-0.5-0.4-1.2-0.4-1.7,0.1c-0.4,0.5-0.4,1.2,0.1,1.7l37.1,34.5
						c0.5,0.4,1.2,0.4,1.7-0.1C179.3,239.9,179.3,239.1,178.8,238.6z"/>
					<path class="st10" d="M183,234.1l-37-34.5c-0.5-0.4-1.2-0.4-1.7,0.1c-0.4,0.5-0.4,1.2,0.1,1.7l37.1,34.5
						c0.5,0.4,1.2,0.4,1.7-0.1C183.6,235.3,183.5,234.5,183,234.1z"/>
					<path class="st10" d="M187.3,229.5L150.2,195c-0.5-0.4-1.2-0.4-1.7,0.1s-0.4,1.2,0.1,1.7l37.1,34.5c0.5,0.4,1.2,0.4,1.7-0.1
						C187.8,230.7,187.8,229.9,187.3,229.5z"/>
					<path class="st10" d="M191.6,224.9l-37.1-34.5c-0.5-0.4-1.2-0.4-1.7,0.1c-0.4,0.5-0.4,1.2,0.1,1.7l37.1,34.5
						c0.5,0.4,1.2,0.4,1.7-0.1C192.1,226.1,192.1,225.4,191.6,224.9z"/>
					<path class="st10" d="M195.8,220.3l-37.1-34.5c-0.5-0.4-1.2-0.4-1.7,0.1c-0.4,0.5-0.4,1.2,0.1,1.7l37.1,34.5
						c0.5,0.4,1.2,0.4,1.7-0.1C196.3,221.5,196.3,220.8,195.8,220.3z"/>
					<path class="st10" d="M200.1,215.8L163,181.3c-0.5-0.4-1.2-0.4-1.7,0.1c-0.4,0.5-0.4,1.2,0.1,1.7l37.1,34.5
						c0.5,0.4,1.2,0.4,1.7-0.1C200.6,217,200.6,216.2,200.1,215.8z"/>
					<path class="st10" d="M204.3,211.2l-37.1-34.5c-0.5-0.4-1.2-0.4-1.7,0.1c-0.4,0.5-0.4,1.2,0.1,1.7l37.1,34.5
						c0.5,0.4,1.2,0.4,1.7-0.1C204.9,212.4,204.8,211.6,204.3,211.2z"/>
					<path class="st10" d="M208.6,206.6l-37.1-34.5c-0.5-0.4-1.2-0.4-1.7,0.1c-0.4,0.5-0.4,1.2,0.1,1.7l37.1,34.5
						c0.5,0.4,1.2,0.4,1.7-0.1C209.1,207.8,209.1,207.1,208.6,206.6z"/>
					<path class="st10" d="M212.9,202l-37.1-34.5c-0.5-0.4-1.2-0.4-1.7,0.1c-0.4,0.5-0.4,1.2,0.1,1.7l37.1,34.5
						c0.5,0.4,1.2,0.4,1.7-0.1C213.4,203.2,213.4,202.5,212.9,202z"/>
				</g>
				<path class="st11" d="M220.7,193.5l0.2-1.6c0.2-1.5-0.2-2.9-1-4.2l-3.6-5.4c-0.5-0.8-0.4-1.9,0.2-2.6l4.4-4.8
					c0.8-0.8,0.7-2.2-0.1-2.9l-2.4-2.2c-0.6-0.6-0.6-1.5-0.1-2.1l3-3.2c2.2-2.4,2.1-6.2-0.3-8.4c-2.4-2.2-6.2-2.1-8.4,0.3l-3,3.2
					c-0.6,0.6-1.5,0.6-2.1,0.1l-2.4-2.2c-0.8-0.8-2.2-0.7-2.9,0.1l-4.4,4.8c-0.7,0.7-1.7,0.9-2.5,0.4l-5.6-3.2
					c-1.3-0.7-2.8-1-4.2-0.7l-1.6,0.3c-0.4,0.1-0.7,0.4-0.8,0.8c-0.1,0.4,0,0.8,0.3,1.1l35.7,33.2c0.3,0.3,0.7,0.4,1.1,0.2
					C220.4,194.2,220.7,193.9,220.7,193.5z M214.7,162.9c-1.4-1.3-1.4-3.4-0.2-4.8c1.3-1.4,3.4-1.4,4.8-0.2c1.4,1.3,1.4,3.4,0.2,4.8
					S216,164.2,214.7,162.9z"/>
			</g>
			<g>
				<path class="st12" d="M193.8,162.9l-78.1,75.7l-9-9.2c-0.5-0.6-0.5-1.4,0-2l76.2-73.8c0.5-0.5,1.4-0.5,2,0L193.8,162.9z"/>
				<path class="st12" d="M171.2,276.6l-7.1,6.8c-1.5,1.4-3.8,1.4-5.2-0.1l-6.8-7.1L171.2,276.6z"/>
				<polygon class="st13" points="229.9,219.7 171.2,276.6 152.1,276.3 115.6,238.7 193.8,162.9 230.3,200.6 				"/>
				<path class="st12" d="M237,212.8l-7.1,6.8l0.3-19.1l6.8,7.1C238.5,209.1,238.4,211.4,237,212.8z"/>
				<path class="st9" d="M191,230.2c-0.3,0.3-0.9,0.3-1.3,0l-22.2-22.9c-0.3-0.3-0.3-0.9,0-1.3l15-14.6c0.4-0.4,0.9-0.3,1.3,0
					l22.2,22.9c0.3,0.4,0.3,0.9,0,1.3L191,230.2z"/>
			</g>
			<path class="st14" d="M88.2,112.4L88.2,112.4c0-0.1,0-0.1,0-0.2l0,0c0-0.3,0-0.6,0-0.6c0-0.4,0.1-0.6,0.3-0.8l0,0l0,0
				c0.1-0.2,0.3-0.3,0.5-0.4c0,0,0.1,0,0.1-0.1c0.2-0.1,0.4-0.2,0.6-0.2l0,0c0,0,0,0,0.1,0c0.5-0.1,1-0.2,1.5-0.3
				c0.2,0,0.4,0,0.6-0.1c0.2,0,0.3-0.1,0.4-0.1s0.3,0,0.4,0c0.6-0.1,1.1-0.1,1.7-0.1c0.2,0,0.4,0,0.6,0l0,0c0.2,0,0.4,0,0.5,0
				c4.9,0,17.4,0.1,22.3,0.9c0.6,0.1,1.2,0.3,1.8,0.4c0.2,0.1,0.4,0.1,0.5,0.2c0.4,0.1,0.7,0.3,1,0.4c0.2,0.1,0.4,0.2,0.5,0.3
				c0.3,0.2,0.6,0.3,0.8,0.5c0.2,0.1,0.3,0.2,0.5,0.4c0.1,0.1,0.2,0.1,0.3,0.2c0,0,0,0-0.1,0c2,1.7,3.5,4.1,5.4,7.1
				c0.5,0.8,1,1.5,1.3,2.2c8.3,15.5,13.3,31.6,11.5,40.3c0,0.1-0.1,0.3-0.1,0.4c-1.3,6.3-2,12.7-2,19.1v208.3h-4H117h-4.6V174.3
				c0-6.1-1.8-12-5.2-17.1c-2.3-3.3-5-7.2-8.2-11.9c-8.5-12.5-10.7-22.1-11.1-27.6l0,0c0-0.2,0-0.4,0-0.7c-0.1-0.9-0.1-1.6-0.1-2.2
				C88.1,114.7,88.2,113.3,88.2,112.4z"/>
			<path class="st15" d="M123.5,112.9c-1.5-1.3-3.2-2.1-5.6-2.6c-4.9-0.8-17.4-0.9-22.3-0.9c-0.2,0-0.4,0-0.5,0l0,0
				c-1,0-1.9,0.1-2.7,0.2c-0.9,0.1-1.8,0.3-2.6,0.4c-0.1,0-0.1,0-0.2,0c-0.6,0.1-0.9,0.4-1.1,0.7c-0.2,0.4-0.2,0.9-0.3,1.5
				c0,0.1,0,0.1,0,0.2c-1.8,0.3-3.4,0.6-5,1l0,0c0.1-0.1,0.2-0.2,0.4-0.4c1.1-1.1,2.6-2.8,3.4-4.1c0.4-0.6,1-1.1,1.7-1.2l0,0
				c2.5-0.5,5.1-0.8,7.7-0.8c20.8-0.1,23.1,0,28.1,3.4c0.4,0.2,0.7,0.5,1.1,0.8c1.5,1.1,2.9,2.2,4.3,3.4l0,0
				C128,113.9,125.9,113.4,123.5,112.9z"/>
			<path class="st16" d="M115,114.2L115,114.2c0.1-1.4,1.7-2,3.2-1.7l3.4,1.7l0.3,1.1C119.7,114.9,117.4,114.5,115,114.2z"/>
			<g>
				<path class="st17" d="M61.8,521.2c-7.6-2.2-13.4,4.7-16.2,9c-2.8,4.3-11.1,16.3-3,18.6s41.6,11.7,41.6,11.7s2.8,0.4,4.1-4.2
					c1.3-4.6-3-6.4-5-7.8c-2-1.4-6.6-5-10.5-12.2C68.8,529,67.5,522.8,61.8,521.2z"/>
				<g>
					<path class="st17" d="M139.4,274.9c4,1.8,6.4,6.1,5.6,10.6l-13.1,75.7c-6.4,37.2-17.7,73.4-33.5,107.7l-32.2,69.8
						c-2.3,5-8.2,7.1-13.1,4.8c-5-2.3-7.1-8.2-4.8-13.1l32.2-69.8c15.1-32.7,25.9-67.2,32-102.7l13.1-75.7c0.9-5.4,6-9,11.4-8.1
						C137.8,274.3,138.6,274.6,139.4,274.9z"/>
				</g>
				<g>
					<path class="st18" d="M38.6,543.3L38.6,543.3l-0.6,5.5l-0.3,3.1c-0.1,1.2,0.6,2.3,1.8,2.6l43,12.1c1.3,0.4,2.6-0.4,3-1.7
						l0.7-2.5c0,0,0.1,0,0.2,0c0.6-0.1,2.2-0.8,4.1-5.7c0.3-0.7,0.3-1.4,0.3-2.1c0-3.6-3.1-5.6-4.8-6.7c-0.3-0.2-0.7-0.4-1-0.6
						c-3.4-2.4-6.3-5.6-8.7-9.4l0,0c0,0,0-0.1-0.1-0.1c-0.1-0.1-0.2-0.3-0.3-0.4c0-0.1-0.1-0.2-0.2-0.3l0,0
						c-0.9-1.2-2.9-3.3-6.6-4.4c-5.3-1.5-8.6,0-10.7,2.4c-6.6,9-8.5-4.4-11.7-5.3c-0.3-0.1-0.7-0.3-1-0.2c-0.3,0-0.6,0.2-0.7,0.4
						c-0.9,1.3-3,4.6-3.8,6.2l0,0C39.9,538.6,38.9,541.1,38.6,543.3z"/>
					<path class="st19" d="M58.3,535.1l6.9,9.3c1.9,2.6,4.7,4.5,7.8,5.4l17.8,5c0-3.6-3.1-5.6-4.8-6.7c-0.3-0.2-0.7-0.4-1-0.6
						c-3.4-2.4-6.3-5.6-8.7-9.4l0,0c0,0,0-0.1-0.1-0.1c-0.1-0.1-0.2-0.3-0.3-0.4c0-0.1-0.1-0.2-0.2-0.3l0,0
						c-0.9-1.2-2.9-3.3-6.6-4.4C63.7,531.3,60.3,532.8,58.3,535.1z"/>
					<path class="st20" d="M38,548.9l-0.3,3.1c-0.1,1.2,0.6,2.3,1.8,2.6l43,12.1c1.3,0.4,2.6-0.4,3-1.7l0.7-2.5c0,0,0.1,0,0.2,0
						L38,548.9z"/>
				</g>
				<g>
					<path class="st21" d="M124.3,282l-13.1,75.7c-6.1,35.4-16.9,69.8-31.9,102.4l-28.1,60.8c-0.3,0.6,0,1.3,0.6,1.5l18.1,8.4
						c0.6,0.3,1.3,0,1.5-0.6l28.1-60.8c15.9-34.4,27.2-70.7,33.6-108l13.1-75.7c0.9-5-1.7-9.9-6.3-12c-0.9-0.4-1.8-0.7-2.8-0.9
						C131.1,271.9,125.3,276,124.3,282z"/>
					<path class="st22" d="M75.9,520.5l-20.2-9.3l-4.5,9.8c-0.3,0.6,0,1.3,0.6,1.5l18.1,8.4c0.6,0.3,1.3,0,1.5-0.6L75.9,520.5z"/>
				</g>
			</g>
			<g>
				<g>
					<path class="st5" d="M86.4,274c4.4-0.2,8.5,2.6,9.8,7l22.6,73.4c11.1,36.1,17.4,73.5,18.8,111.2l2.8,76.8
						c0.2,5.5-4.1,10-9.5,10.2c-5.5,0.2-10-4.1-10.2-9.5l-2.8-76.8c-1.3-36-7.4-71.7-18-106.1l-22.6-73.4
						c-1.6-5.2,1.3-10.7,6.5-12.4C84.7,274.2,85.5,274.1,86.4,274z"/>
				</g>
				<g>
					<path class="st5" d="M130.7,528.6c-7.9,0-11.7,8.2-13.2,13.1c-1.5,4.9-6.3,18.7,2.2,18.7c8.4,0,43.2,0,43.2,0s2.8-0.4,2.8-5.2
						s-4.6-5.4-6.9-6.2c-2.3-0.8-7.7-3.1-13.5-8.9C139.6,534.3,136.6,528.6,130.7,528.6z"/>
					<g>
						<path class="st23" d="M114.4,556.2L114.4,556.2l0.9,5.5l0.5,3c0.2,1.2,1.2,2,2.4,2h44.7c1.3,0,2.4-1.1,2.4-2.4v-2.6
							c0,0,0.1,0,0.2-0.1c0.5-0.3,1.9-1.4,2.4-6.6c0.1-0.8-0.1-1.5-0.3-2.1c-1-3.5-4.5-4.5-6.5-5.1c-0.4-0.1-0.8-0.2-1.1-0.4
							c-3.9-1.4-7.6-3.7-11-6.7l0,0l-0.1-0.1c-0.1-0.1-0.3-0.2-0.4-0.3c-0.1-0.1-0.2-0.1-0.3-0.2l0,0c-1.2-0.9-3.7-2.4-7.6-2.4
							c-5.5,0-8.3,2.4-9.6,5.2c-3.9,10.5-9.3-1.9-12.7-1.9c-0.3,0-0.8-0.1-1,0.1c-0.3,0.1-0.5,0.3-0.6,0.6c-0.5,1.5-1.6,5.3-2,7l0,0
							C114.4,551.3,114.1,554,114.4,556.2z"/>
						<path class="st24" d="M131.2,543l9.1,7c2.6,2,5.7,3.1,8.9,3.1h18.5c-1-3.5-4.5-4.5-6.5-5.1c-0.4-0.1-0.8-0.2-1.1-0.4
							c-3.9-1.4-7.6-3.7-11-6.7l0,0l-0.1-0.1c-0.1-0.1-0.3-0.2-0.4-0.3c-0.1-0.1-0.2-0.1-0.3-0.2l0,0c-1.2-0.9-3.7-2.4-7.6-2.4
							C135.3,537.8,132.5,540.2,131.2,543z"/>
						<path class="st4" d="M115.4,561.7l0.5,3c0.2,1.2,1.2,2,2.4,2H163c1.3,0,2.4-1.1,2.4-2.4v-2.6c0,0,0.1,0,0.2-0.1L115.4,561.7
							L115.4,561.7z"/>
					</g>
				</g>
				<g>
					<path class="st12" d="M76.1,287.2l22.6,73.4c10.6,34.3,16.6,69.9,17.9,105.8l2.5,66.9c0,0.6,0.6,1.1,1.2,1.1l20-0.7
						c0.6,0,1.1-0.6,1.1-1.2l-2.5-66.9c-1.4-37.8-7.7-75.3-18.9-111.5l-22.6-73.4c-1.5-4.8-6-8-11.1-7.9c-1,0-1.9,0.2-2.9,0.5
						C77.6,275.1,74.3,281.3,76.1,287.2z"/>
					<path class="st16" d="M140.9,521.7l-22.3,0.8l0.4,10.7c0,0.6,0.6,1.1,1.2,1.1l20-0.7c0.6,0,1.1-0.6,1.1-1.2L140.9,521.7z"/>
				</g>
			</g>
			<g>
				<circle class="st5" cx="86.6" cy="283.9" r="9.9"/>
				<circle class="st5" cx="135.2" cy="283.9" r="9.9"/>
				<path class="st5" d="M63.2,128c0,4,3.2,7.2,7.2,7.2s7.2-3.2,7.2-7.2s-3.2-7.2-7.2-7.2C66.4,120.8,63.2,124,63.2,128z"/>
				<path class="st5" d="M130.2,128c0,4,3.2,7.2,7.2,7.2s7.2-3.2,7.2-7.2s-3.2-7.2-7.2-7.2S130.2,124,130.2,128z"/>
				<path class="st5" d="M64.1,131.5c-1.9-3.5-0.7-7.8,2.8-9.8c0.6-0.3,14.8-8,38.4-8l0,0l0,0c22,0,35.2,7.8,35.7,8.2
					c3.4,2.1,4.5,6.5,2.4,9.9c-0.7,1.1-1.6,2-2.8,2.6c-2.3,1.2-3.3,3.9-2.3,6.3l0,0c1.3,3.3,3.8,5.9,6.9,7.5c5.2,2.6,8.8,8,8.8,14.2
					c0,7.5-5.2,13.7-12.2,15.4c-2,11.4-9.1,25.9-3,42.9c1.9,5.3,3.6,9.5,4.9,13.4c3.6,8.2,5.1,18.5,5.1,30
					c0,34.2-13.9,35.6-49.1,35.6c0,0-35.9,1.5-35.4-28.6c0.1-6.1,2.1-14.5,3.8-19.8c4.6-14.2,11.1-20.5,14.8-25.9
					c7.4-10.8,7.7-25,0.6-36.1c-3.3-5.2-6.5-12.1-9.7-21.3c-3.1-9-4.3-16.6-4.1-22.9c0.2-4.5-1.6-8.9-4.8-12.1
					C64.9,132.7,64.5,132.1,64.1,131.5z"/>
				<path class="st25" d="M102.8,171.1h41.6c3.2,0,6.1-0.9,8.6-2.6c-2.4,5.7-8,9.7-14.6,9.7h-34.1c-8.8,0-15.9-7.1-15.9-15.9l0,0
					c0-0.1,0-0.3,0-0.4C91,167.4,96.5,171.1,102.8,171.1z"/>
			</g>
			<path class="st26" d="M86.6,295.1c6.1,0,11.1-5,11.1-11.1s-5-11.1-11.1-11.1s-11.1,5-11.1,11.1S80.5,295.1,86.6,295.1z"/>
			<ellipse class="st26" cx="135.2" cy="283.9" rx="11.1" ry="11.1"/>
			<path class="st12" d="M63.4,271.1c-0.1,8.1,2.3,14.7,7.2,19.7c9.2,9.4,24.3,10.1,28.7,10.1c0.6,0,0.9,0,0.9,0l0,0
				c34.9,0,50.3-1.5,50.3-36.8c0-10.1-1.2-18.8-3.5-26c-0.2-0.6-0.8-1.1-1.4-1.1H74.5c-0.7,0-1.3,0.4-1.6,0.9c-2,3.5-4,7.7-5.7,12.9
				C65.5,256.3,63.5,264.8,63.4,271.1z"/>
			<path class="st27" d="M79.8,230.1c-0.2,0-0.5,0.1-0.6,0.3c-1.4,1.9-3,4.1-4.6,6.7h70.8c-0.4-1.2-0.9-2.4-1.4-3.5
				c-0.4-1.1-0.8-2.2-1.2-3.3c0-0.1-0.1-0.2-0.2-0.2H79.8z"/>
			<g>
				<path class="st16" d="M127.7,123.7c0.1,0.7,0.2,1.4,0.4,2.1c0.2,1,0.4,2.1,0.5,3.1c0.1,0.8,0.2,1.6,0.3,2.5s0.3,1.8,0.4,2.6
					c0.1,0.9,0.2,1.8,0.3,2.8c0.1,0.8,0.2,1.5,0.2,2.3c0.1,1,0.1,2,0.2,2.9c0,0.7,0.1,1.4,0.1,2.1c0,1,0.1,2,0.1,3.1
					c0,0.6,0,1.3,0,1.9c0,1.1,0,2.3-0.1,3.4c0,0.5,0,1.1,0,1.6c-0.1,1.7-0.1,3.3-0.3,5c0,0.5-0.7,4.1-0.4,4.3
					c-0.2-0.1-3.2-2.6-5-4.1c-14.5-12.1-27.6-25.2-37.3-41.4c-0.8-1.4-2-2.6-3.4-3.4c-0.4-0.2-0.8-0.3-1.2-0.4l0,0
					c1.6-0.4,3.3-0.7,5.1-1c1.2-0.2,2.4,0.2,3.1,1.1c1.6,1.8,2.7,4,4,5.9c5.1,7.7,12.9,17.8,29.9,32.4c0.3-11.6-1.2-23.4-3.8-34.3
					c-0.5-2.1-0.7-4.8-2.8-5.7c2.5,0.3,4.8,0.8,7,1.3c0.7,1.5,1,3.1,1.4,4.7C126.9,120.3,127.3,122,127.7,123.7z"/>
				<path class="st13" d="M110.9,172.4L110.9,172.4c-0.8-1.3-1.7-2.5-2.5-3.6c-3.6-4.6-21.2-16.2-25.5-19c-0.5-0.3-0.7-1-0.4-1.5
					l6.5-10.2c0,0-9.1-4.2-12.2-5.6c-0.5-0.2-0.7-0.7-0.7-1.1c0.4-3.5,2.2-8.8,3.6-12.6c0.6-1.8,1.6-3.4,2.7-4.8
					c0.4,0.1,0.8,0.2,1.2,0.4c1.4,0.8,2.6,2,3.4,3.4c9.7,16.1,22.8,29.3,37.3,41.4c1.8,1.5,4.9,4,5,4.1c-0.3-0.2,0.4-3.8,0.4-4.3
					c0.1-1.7,0.2-3.3,0.3-5c0-0.5,0-1.1,0-1.6c0-1.1,0.1-2.3,0.1-3.4c0-0.6,0-1.3,0-1.9c0-1,0-2-0.1-3.1c0-0.7-0.1-1.4-0.1-2.1
					c-0.1-1-0.1-2-0.2-2.9c-0.1-0.8-0.2-1.5-0.2-2.3c-0.1-0.9-0.2-1.8-0.3-2.8c-0.1-0.9-0.2-1.8-0.4-2.6c-0.1-0.8-0.2-1.6-0.3-2.5
					c-0.2-1-0.4-2.1-0.5-3.1c-0.1-0.7-0.2-1.4-0.4-2.1c-0.3-1.7-0.7-3.5-1.1-5.2c-0.4-1.6-0.7-3.3-1.4-4.7c2.1,0.5,4.1,1,5.8,1.6
					c3.1,2.7,6.1,5.7,8.9,9.2c2.1,2.6,4.3,5.1,6.1,7c-0.2,0.4-0.4,0.8-0.6,1.2c-0.9,1.4-2.1,2.6-3.6,3.4c-1.3,0.7-1.9,2.2-1.3,3.6
					l0,0c1.1,2.7,3.2,5,5.9,6.3c2.1,1.1,4,2.5,5.5,4.2c-0.6,8.9-4.8,17.3-8.8,22h-32.1V172.4z"/>
				<path class="st13" d="M114.8,179.6L114.8,179.6h22.9l0,0c-1.4,3.1-2,6-2.1,6.8v20.2V306c-4.6,0.6-10.6,0.9-18.2,1V188.1
					C117.3,186.1,116.3,182.9,114.8,179.6z"/>
				<path class="st28" d="M112,174.2c0-0.1-0.1-0.1-0.1-0.2c-0.3-0.6-0.7-1.1-1-1.6l0,0h32.2l0,0c-0.6,0.7-1.1,1.3-1.7,1.8
					c-0.4,0.3-0.7,0.7-1,1.1c-0.1,0.1-0.1,0.2-0.2,0.3c-0.3,0.4-0.6,0.8-0.9,1.2c0,0,0,0,0,0.1c-0.3,0.4-0.5,0.8-0.8,1.3
					c0,0.1-0.1,0.1-0.1,0.2c-0.2,0.5-0.5,0.9-0.7,1.4l0,0h-22.9l0,0C113.9,177.8,113,176,112,174.2z"/>
				<path class="st29" d="M57.2,388.1c0,0.6,0.2,1.1,0.6,1.5s0.9,0.6,1.5,0.6h56c1.2,0,2.1-0.9,2.1-2.1v-81.2V188.1
					c0-2-1.1-5.1-2.6-8.5h-12h-0.2c-8.8,0-15.9-7.1-15.9-15.9l0,0c0-0.1,0-0.3,0-0.4c2.6,5.3,8,9,14.3,9h0.2h9.7
					c-0.8-1.3-1.7-2.5-2.5-3.6c-3.6-4.6-21.2-16.2-25.5-19c-0.5-0.3-0.7-1-0.4-1.5L89,138c0,0-9.1-4.2-12.2-5.6
					c-0.5-0.2-0.7-0.7-0.7-1.1c0.4-3.5,2.2-8.8,3.6-12.6c0.6-1.8,1.6-3.4,2.7-4.8l0,0c0.2-0.2,0.4-0.5,0.6-0.7
					c-10.9,2.4-17.2,5.8-17.6,6c-4.8,2.6-6.5,8.7-3.9,13.4c0.5,0.8,1,1.6,1.7,2.3c2.7,2.6,4.1,6.3,4,10c-0.3,6.8,1.1,14.8,4.2,23.9
					c3.1,9.1,6.3,16.2,9.9,21.9c6.5,10.2,6.2,23.2-0.6,33.1c-3.7,5.3-10.5,12.1-15.2,26.6c-1.7,5.3-3.4,12.3-3.8,18.1
					C61.2,270.4,57.4,363.3,57.2,388.1z"/>
				<path class="st29" d="M112,174.2c1,1.7,2,3.6,2.8,5.4C113.9,177.8,113,176,112,174.2z"/>
				<path class="st29" d="M110.9,172.4c0.3,0.5,0.7,1.1,1,1.6C111.5,173.5,111.2,172.9,110.9,172.4z"/>
				<path class="st29" d="M131,115.4c-0.3-0.3-0.7-0.6-1-0.9c7.8,2.3,12.2,4.9,12.5,5.1c4.3,2.6,5.9,8,3.9,12.5
					c-0.1-0.1-0.3-0.3-0.4-0.5c-1.7-1.9-3.9-4.4-6.1-7C137,121,134.1,118,131,115.4z"/>
				<path class="st29" d="M152.5,174.4c0.5-0.6,1-1.3,1.5-2C153.6,173.1,153.1,173.7,152.5,174.4z"/>
				<path class="st29" d="M154,172.4c0.4-0.7,0.8-1.4,1.2-2.1C154.8,171,154.5,171.7,154,172.4z"/>
				<path class="st29" d="M150.7,176.2c0.6-0.6,1.2-1.2,1.8-1.8C152,175,151.4,175.6,150.7,176.2z"/>
				<path class="st29" d="M147.3,172.4h-0.8h-3.4l0,0l0,0c4-4.7,8.2-13.1,8.8-22c0-0.3,0-0.5,0.1-0.8c3.2,3.4,5,7.9,5,12.7
					c0,2.7-0.6,5.4-1.8,7.9C152.9,171.6,150.2,172.4,147.3,172.4z"/>
				<path class="st29" d="M135.5,186.4c0.1-0.8,0.7-3.7,2.1-6.8h2.8h0.8c2.7,0,5.1-0.7,7.3-1.8c0.8-0.5,1.5-1,2.1-1.6
					c-0.9,0.8-1.8,1.5-2.9,2.1c-2.2,1.3-3.8,3.4-4.4,5.9c-0.3,1.1-0.6,2.1-0.8,3c-1.6,6-3.3,12.4-3.3,19.4c0,4.2,0.6,8.6,2.3,13.2
					c2.8,7.9,4.8,12.5,6.1,16.4c3.7,10.4,7.4,19.8,8.6,30.3c-1.4,0-3,0-3.1,0c-0.7,0-1.3,0.9-1.3,2.1v7v24.5c0,2.1,0.7,4,1.8,5
					c1.2,1.1,2.7,1.8,4.4,2.1c0.2,0,0.4,0,0.5,0c1.3,29.2,2.6,66.5,2.7,80.9c0,1.2-0.9,2.1-2.1,2.1c-7.5,0-13.3,0-21.9,0
					c-1.2,0-2.1-0.9-2.1-2.1V306v-99.4v-20.2H135.5z"/>
				<path class="st29" d="M138.5,178.1c0.2-0.4,0.5-0.8,0.8-1.3C138.9,177.2,138.7,177.6,138.5,178.1z"/>
				<path class="st29" d="M139.3,176.7c0.3-0.4,0.6-0.8,0.9-1.2C139.8,175.9,139.5,176.3,139.3,176.7z"/>
				<path class="st29" d="M137.7,179.6c0.2-0.5,0.4-0.9,0.7-1.4C138.1,178.7,137.9,179.1,137.7,179.6z"/>
				<path class="st29" d="M140.4,175.3c0.3-0.4,0.7-0.7,1-1.1C141,174.5,140.7,174.9,140.4,175.3z"/>
				<path class="st30" d="M141.3,179.6h-0.8h-2.8l0,0l0,0c0.2-0.5,0.4-0.9,0.7-1.4c0-0.1,0.1-0.1,0.1-0.2c0.2-0.4,0.5-0.8,0.8-1.3
					c0,0,0,0,0-0.1c0.3-0.4,0.6-0.8,0.9-1.2c0.1-0.1,0.1-0.2,0.2-0.3c0.3-0.4,0.7-0.7,1-1.1c0.5-0.5,1.1-1.1,1.7-1.8l0,0h3.4h0.8
					c2.9,0,5.6-0.8,7.9-2.2l0,0l0,0c-0.3,0.7-0.7,1.4-1.2,2.1l0,0c-0.4,0.7-0.9,1.3-1.5,2l0,0c-0.5,0.6-1.1,1.2-1.8,1.8l0,0
					c-0.7,0.6-1.4,1.1-2.1,1.6C146.4,178.9,143.9,179.6,141.3,179.6z"/>
				<path class="st30" d="M110.9,172.4c0.3,0.5,0.7,1.1,1,1.6c0,0.1,0.1,0.1,0.1,0.2c1,1.7,2,3.6,2.8,5.4l0,0l0,0h-12h-0.2
					c-8.8,0-15.9-7.1-15.9-15.9l0,0c0-0.1,0-0.3,0-0.4c2.6,5.3,8,9,14.3,9h0.2L110.9,172.4L110.9,172.4L110.9,172.4z"/>
				<path class="st15" d="M152.1,275.6v-7c0-1.1,0.6-2.1,1.3-2.1c0.1,0,1.6,0,3.1,0c1.3,0,2.5,0,2.4,0c0.6,0,1.1,0.5,1.1,1.1
					c0.1,2.4,0.2,5.1,0.4,8C157.4,275.6,158.9,275.6,152.1,275.6z"/>
				<path class="st6" d="M158.3,307.2c-1.6-0.3-3.1-1-4.4-2.1c-1.1-1-1.8-2.9-1.8-5v-24.5c6.8,0,5.2,0,8.2,0
					c0.2,5.7,0.5,12.4,0.7,20.1v0.1c0,2.2-0.1,8.7-1.4,10.8c-0.2,0.3-0.5,0.5-0.9,0.6C158.7,307.3,158.5,307.3,158.3,307.2z"/>
			</g>
			<g>
				<g>
					<path class="st5" d="M65.7,122.7c-0.5,0.4-0.9,0.9-1.2,1.4l-36.6,55.3c-6.5,9.9-5.6,23,2.2,31.9L74,261c2.6,3,7.2,3.2,10.1,0.6
						c3-2.6,3.2-7.2,0.6-10.1l-44-49.7c-3.6-4-4-9.9-1-14.4l36.6-55.3c2.2-3.3,1.3-7.8-2-10C71.6,120.3,68,120.6,65.7,122.7z"/>
				</g>
				<path class="st5" d="M100,269.6c-0.3,2.2-0.9,4.2-1.9,6.2l-3.5,6.7c-0.7,1.3-2.3,1.8-3.5,1.1c-0.1-0.1-0.3-0.2-0.4-0.2
					c-0.4-0.3-0.9-0.4-1.4-0.3s-0.9,0.4-1.1,0.9l-0.1,0.1c-0.7,1.3-2.3,1.8-3.5,1.1c-1.1-0.6-1.7-1.9-1.3-3.1c0-0.1,0.1-0.3,0.2-0.4
					c0.1-0.2,0.1-0.4,0-0.5c-0.1-0.2-0.3-0.2-0.5-0.2c-0.5,0.1-1,0-1.5-0.3c-1.3-0.7-1.8-2.3-1.1-3.5c0.1-0.2,0.1-0.4,0-0.6
					s-0.3-0.3-0.5-0.3c-0.4,0-0.8-0.1-1.2-0.3c-1-0.6-1.4-1.9-0.8-2.9l2.6-4.7c0.3-0.6,0.4-1.2,0.2-1.8c-0.2-0.6-0.6-1.1-1.2-1.4
					c-5.7-2.9-9.3-7.3-8.5-11.1c0.9-4.8,8.5-6.8,16.8-4.5C103.6,254,102,254.5,100,269.6z"/>
				<g>
					<path class="st31" d="M28,213.1l34.7,39.3c0.5,0.6,1.5,0.7,2.1,0.1l12.6-11.1c0.6-0.5,0.7-1.5,0.1-2.1L42.8,200
						c-2.7-3.1-3.1-7.7-0.8-11.2l36.6-55.3c1.5-2.2,2-4.8,1.4-7.4c-0.5-2.6-2-4.8-4.2-6.3c-3.7-2.5-8.7-2.1-12,0.8
						c-0.7,0.6-1.2,1.3-1.7,2L25.6,178C18.3,188.9,19.4,203.3,28,213.1z"/>
					
						<rect x="54.4" y="235.1" transform="matrix(0.7488 -0.6628 0.6628 0.7488 -142.3592 102.7078)" class="st32" width="19.8" height="8.2"/>
				</g>
			</g>
			<g>
				<g>
					<path class="st4" d="M151.8,147.2c0.3,0,0.5-0.1,0.8-0.2c0.9-0.4,1.3-1.5,0.8-2.4c-1.2-2.5-11.9-24.3-14.7-27.8
						c-3.2-3.9-5.5-5.9-9.3-5.9c-1,0-1.8,0.8-1.8,1.8s0.8,1.8,1.8,1.8c2,0,3.3,0.6,6.5,4.6c2.1,2.7,11,20.5,14.2,27.1
						C150.5,146.8,151.2,147.2,151.8,147.2z"/>
				</g>
				<g>
					<path class="st33" d="M147.1,150.6c0.2-2.3,1.4-4.1,3.1-4.9l0,0l0,0l0,0l2.1-0.9l0,0c0.6-0.3,1.2-0.4,1.9-0.4
						c3.5,0,6.9,3.5,7.6,7.7c0.6,3.4-0.8,6.3-3.1,7.3l0,0l-2.1,0.9c-0.3,0.1-0.6,0.2-0.9,0.3c-0.1,0-0.2,0-0.4,0.1
						c-0.2,0-0.4,0-0.7,0c-0.5,0-0.9-0.1-1.4-0.2l0,0l0,0c-0.2-0.1-0.4-0.1-0.7-0.2c-1-0.4-2-1.1-2.8-1.9c-0.8-0.8-1.5-1.8-2-2.9
						c-0.2-0.4-0.3-0.8-0.4-1.1c-0.1-0.4-0.2-0.9-0.3-1.3c-0.1-0.6-0.1-1.1-0.1-1.7C147.1,151.1,147.1,150.8,147.1,150.6z"/>
					<path class="st34" d="M157.3,154.5C157.3,154.5,157.3,154.6,157.3,154.5C157.2,154.6,157.2,154.6,157.3,154.5
						C157.2,154.6,157.2,154.6,157.3,154.5c-0.1,0.1-0.1,0.1-0.1,0.1s0,0-0.1,0l0,0c0,0-0.1,0-0.1,0.1h-0.1l0,0c0,0,0,0-0.1,0l0,0
						l0,0l0,0c0,0,0,0-0.1,0l0,0l0,0l0,0c-0.1,0-0.1,0-0.2,0.1l0,0l0,0h-0.1l0,0l0,0h-0.1l0,0l0,0l0,0h-0.1c-0.4,0-0.7-0.1-1.1-0.3
						c-0.9-0.5-1.6-1.4-1.8-2.6c0-0.1,0-0.3,0-0.4v-0.1l0,0v-0.1l0,0l0,0v-0.1l0,0l0,0v-0.1l0,0l0,0l0,0V151l0,0l0,0l0,0v-0.1l0,0
						l0,0v-0.1l0,0l0,0v-0.1l0,0l0,0l0,0v-0.1l0,0l0,0c0-0.1,0.1-0.2,0.1-0.2l0,0l0,0l0,0l0,0l0,0l0,0l0,0v-0.1l0,0l0,0
						c0.1-0.1,0.1-0.2,0.2-0.3l0,0l0,0c0,0,0,0,0.1-0.1l0,0l0,0l0,0c0,0,0.1,0,0.1-0.1l0,0l0,0l0,0c0,0,0,0,0.1,0l0,0l0,0l0,0
						c0,0,0,0,0.1,0l0,0l0,0l0,0c0,0,0,0,0.1,0l0,0l0,0c0.3-0.1,0.6-0.2,0.9-0.2c0.2,0,0.5,0,0.7,0.1c0.1,0,0.2,0.1,0.2,0.1
						s0,0,0.1,0c0,0,0.1,0,0.1,0.1c0,0,0,0,0.1,0c0,0,0,0,0.1,0c0.1,0.1,0.2,0.1,0.3,0.2c0.1,0.1,0.2,0.2,0.3,0.3s0.1,0.1,0.2,0.2
						c0.1,0.1,0.1,0.1,0.2,0.2c0.1,0.1,0.1,0.2,0.2,0.2c0,0,0,0.1,0.1,0.1c0,0,0,0.1,0.1,0.1c0,0.1,0.1,0.1,0.1,0.2v0.1
						c0,0,0,0.1,0.1,0.1v0.1v0.1v0.1c0,0.1,0.1,0.3,0.1,0.4c0.1,0.8,0,1.6-0.4,2.1l0,0c0,0,0,0,0,0.1l0,0c0,0,0,0,0,0.1l0,0
						C157.4,154.4,157.4,154.4,157.3,154.5C157.4,154.5,157.4,154.5,157.3,154.5L157.3,154.5z"/>
					<path class="st35" d="M161.2,152.1c-0.6-3.8-3.6-6.8-6.7-6.8c-3.1,0-5.1,3-4.4,6.8c0.6,3.8,3.6,6.8,6.7,6.8
						C159.8,158.9,161.8,155.8,161.2,152.1z M157.2,154.6L157.2,154.6L157.2,154.6C157.2,154.6,157.1,154.6,157.2,154.6
						c-0.1,0.1-0.1,0.1-0.1,0.1s-0.1,0-0.1,0.1h-0.1l0,0c0,0,0,0-0.1,0l0,0c0,0,0,0-0.1,0l0,0c-0.1,0-0.1,0-0.2,0.1l0,0h-0.1l0,0
						h-0.1l0,0h-0.1l0,0l0,0l0,0c-0.4,0-0.7-0.1-1.1-0.3c-0.9-0.5-1.6-1.4-1.8-2.6c0-0.1,0-0.3,0-0.4v-0.1v-0.1l0,0v-0.1l0,0v-0.1
						l0,0v-0.1l0,0V151l0,0v-0.1l0,0v-0.1l0,0v-0.1l0,0c0-0.1,0.1-0.2,0.1-0.2l0,0l0,0l0,0l0,0v-0.1l0,0c0.1-0.1,0.1-0.2,0.2-0.3
						l0,0c0,0,0,0,0.1-0.1l0,0c0,0,0,0,0.1-0.1l0,0c0,0,0,0,0.1,0l0,0c0,0,0,0,0.1,0l0,0c0,0,0,0,0.1,0l0,0c0.3-0.1,0.6-0.2,0.9-0.2
						c0.2,0,0.5,0,0.7,0.1c0.1,0,0.2,0.1,0.2,0.1c0.1,0,0.2,0.1,0.2,0.1c0.1,0.1,0.2,0.1,0.3,0.2c0,0,0,0,0.1,0
						c0.1,0.1,0.2,0.2,0.3,0.3s0.1,0.1,0.2,0.2c0.1,0.1,0.1,0.1,0.2,0.2c0,0,0,0.1,0.1,0.1c0,0,0,0.1,0.1,0.1c0,0,0,0,0,0.1
						c0,0,0,0.1,0.1,0.1l0,0c0.1,0.1,0.1,0.2,0.2,0.3c0,0,0,0,0,0.1c0,0,0,0.1,0.1,0.1c0,0,0,0,0,0.1v0.1c0,0,0,0,0,0.1
						s0.1,0.3,0.1,0.4c0.1,0.8,0,1.6-0.4,2.1l0,0c0,0,0,0,0,0.1l0,0c0,0,0,0,0,0.1l0,0l-0.1,0.1l0,0
						C157.3,154.5,157.3,154.5,157.2,154.6C157.3,154.5,157.3,154.6,157.2,154.6L157.2,154.6z"/>
					<path class="st33" d="M158.7,159.5c0.1,0,0.1,0,0.2-0.1c2.4-1,3.7-3.9,3.1-7.3c-0.7-4.3-4.1-7.7-7.6-7.7
						c-0.7,0-1.4,0.1-1.9,0.4l0,0l0,0c0,0-0.1,0-0.1,0.1c0,0,0,0-0.1,0h-0.1c0,0,0,0-0.1,0H152c0,0,0,0-0.1,0c0,0-0.1,0-0.1,0.1
						c0,0,0,0-0.1,0l-0.1,0.1l0,0l-0.1,0.1l0,0c0,0-0.1,0-0.1,0.1l0,0c0,0-0.1,0-0.1,0.1l0,0c0,0-0.1,0-0.1,0.1l0,0l-0.1,0.1l0,0
						l-0.1,0.1l0,0l-0.1,0.1l0,0c0,0,0,0.1-0.1,0.1c0,0,0,0,0,0.1c0,0,0,0.1-0.1,0.1l0,0l-0.1,0.1l0,0l-0.1,0.1l0,0l-0.1,0.1
						c0,0,0,0,0,0.1c0,0,0,0.1-0.1,0.1c0,0,0,0,0,0.1c0,0,0,0.1-0.1,0.1c0,0,0,0,0,0.1c0,0,0,0.1-0.1,0.1l0,0c0,0.1-0.1,0.1-0.1,0.2
						l0,0c0,0,0,0.1-0.1,0.1l0,0v0.1c0,0,0,0,0,0.1v0.1c0,0,0,0,0,0.1v0.1c0,0,0,0,0,0.1s-0.1,0.2-0.1,0.4c0,0,0,0,0,0.1v0.1
						c0,0,0,0,0,0.1v0.1c0,0,0,0,0,0.1v0.1c0,0,0,0,0,0.1s0,0.1,0,0.2l0,0c0,0.1,0,0.1,0,0.2c0,0,0,0,0,0.1v0.1c0,0,0,0,0,0.1v0.1
						c0,0,0,0,0,0.1v0.1v0.1v0.1v0.1v0.1v0.1v0.1v0.1v0.1v0.1v0.1v0.1v0.1v0.1v0.1v0.1v0.1v0.1c0,0.1,0,0.1,0,0.2
						c0,0.1,0,0.2,0.1,0.3c0,0,0,0,0,0.1s0,0.2,0.1,0.3c0,0,0,0,0,0.1c0,0.2,0.1,0.4,0.2,0.6c0,0,0,0,0,0.1s0.1,0.2,0.1,0.3l0,0
						c0,0.1,0.1,0.2,0.1,0.2s0,0,0,0.1s0.1,0.2,0.1,0.3l0,0c0,0.1,0.1,0.1,0.1,0.2l0,0c0,0.1,0.1,0.1,0.1,0.2l0,0
						c0,0.1,0.1,0.1,0.1,0.2l0,0c0,0,0,0.1,0.1,0.1c0,0,0,0,0,0.1c0,0,0,0.1,0.1,0.1c0,0,0,0,0,0.1c0,0,0,0.1,0.1,0.1c0,0,0,0,0,0.1
						c0,0,0,0.1,0.1,0.1c0,0,0,0,0,0.1s0.1,0.1,0.1,0.2l0,0c0,0.1,0.1,0.1,0.1,0.2l0,0l0.1,0.1c0,0,0,0,0,0.1l0.1,0.1c0,0,0,0,0,0.1
						l0.1,0.1c0,0,0,0,0,0.1l0.1,0.1c0,0,0,0,0,0.1l0.1,0.1l0,0c0,0.1,0.1,0.1,0.1,0.2l0,0l0.1,0.1l0,0l0.1,0.1c0,0,0,0,0.1,0.1
						l0.1,0.1c0,0,0,0,0.1,0.1l0.1,0.1l0,0l0.1,0.1l0,0l0.1,0.1c0,0,0,0,0.1,0.1l0.1,0.1c0,0,0,0,0.1,0l0.1,0.1l0,0
						c0.1,0,0.1,0.1,0.2,0.1l0,0l0.1,0.1c0,0,0,0,0.1,0c0,0,0.1,0,0.1,0.1c0,0,0,0,0.1,0c0,0,0.1,0,0.1,0.1c0,0,0,0,0.1,0
						c0.1,0.1,0.2,0.1,0.3,0.2c0,0,0,0,0.1,0c0,0,0.1,0,0.1,0.1c0,0,0,0,0.1,0c0,0,0.1,0,0.1,0.1l0,0c0.1,0,0.1,0,0.2,0.1l0,0
						c0.1,0,0.1,0,0.2,0.1c0,0,0,0,0.1,0h0.1c0,0,0,0,0.1,0h0.1c0,0,0,0,0.1,0h0.1h0.1h0.1h0.1h0.1h0.1h0.1c0,0,0,0,0.1,0h0.1h0.1
						h0.1c0,0,0,0,0.1,0h0.1c0,0,0,0,0.1,0h0.1c0,0,0,0,0.1,0h0.1l0,0c0.1,0,0.1,0,0.2,0c0.1,0,0.1,0,0.2,0l0,0h0.1c0,0,0,0,0.1,0
						h0.1h0.1h0.1c0,0,0,0,0.1,0h0.1c0,0,0,0,0.1,0h0.1c0,0,0,0,0.1,0s0.1,0,0.2,0l0,0c0.1,0,0.1,0,0.2,0l0,0
						C158.5,159.5,158.6,159.5,158.7,159.5C158.6,159.5,158.6,159.5,158.7,159.5z M156.8,158.9c-3.1,0-6.1-3-6.7-6.8
						c-0.6-3.8,1.4-6.8,4.4-6.8c3.1,0,6.1,3,6.7,6.8C161.8,155.8,159.8,158.9,156.8,158.9z"/>
				</g>
			</g>
			<g>
				<g>
					<path class="st4" d="M86.3,190.5C86.3,190.5,86.4,190.5,86.3,190.5l4.5-0.2c2.4-0.1,4.6-1.2,6.2-3c1.5-1.8,2.3-4.2,2-6.6
						c-1.8-16.7-7-44.4-21.7-42.9c-1,0.1-1.7,1-1.6,2s1,1.7,2,1.6c12.3-1.2,16.7,30.1,17.8,39.7c0.2,1.4-0.3,2.8-1.2,3.9
						c-0.9,1.1-2.2,1.7-3.6,1.8l-4.4,0.2c-1,0-1.8,0.9-1.7,1.9C84.5,189.8,85.3,190.5,86.3,190.5z"/>
				</g>
				<g>
					<path class="st33" d="M86.3,190.5C86.3,190.5,86.4,190.5,86.3,190.5l4.5-0.2c1,0,0.8-3.6-0.2-3.6l-4.4,0.2
						c-1,0-1.8,0.9-1.7,1.9C84.5,189.8,85.3,190.5,86.3,190.5z"/>
				</g>
				<g>
					<path class="st4" d="M74.9,192.2c0.5,0,1.1-0.1,1.6-0.2l4.3-0.8c1-0.2,1.6-1.1,1.4-2.1s-1.1-1.6-2.1-1.4l-4.3,0.8
						c-1.4,0.3-2.8-0.1-3.9-0.9c-1.1-0.8-1.9-2.1-2.1-3.5c-1.2-9.6-4.3-41.1,7.9-42.8c1-0.1,1.7-1,1.5-2c-0.1-1-1-1.7-2-1.5
						c-14.5,2-13.1,30.2-11,46.8c0.3,2.4,1.6,4.5,3.5,5.9C71.2,191.6,73,192.2,74.9,192.2z"/>
				</g>
				<g>
					<path class="st4" d="M77.6,140.9c0.1,0,0.2,0,0.4,0c1-0.2,1.6-1.2,1.4-2.1c-0.8-3.9-0.4-13.1,0.2-19.9c0.5-5.4,2.5-5.4,3.4-5.4
						l0,0c1,0,1.8-0.8,1.8-1.8s-0.8-1.8-1.8-1.8c-4.1,0-6.5,2.9-7,8.7c-0.3,3.6-1.2,15.6-0.1,20.9C76,140.3,76.7,140.9,77.6,140.9z"
						/>
				</g>
				<g>
					<path class="st33" d="M76.1,192c0.1,0,0.2,0,0.3,0l4.3-0.8c1-0.2,1.6-1.1,1.4-2.1s-1.1-1.6-2.1-1.4l-4.3,0.8
						C74.8,188.7,75.3,192,76.1,192z"/>
				</g>
			</g>
			<g>
				<path class="st15" d="M122.6,109.2c2.5,1.4,5.7,3.9,7.4,5.3c3.5,2.9,6.8,6.2,9.9,10.1c2.3,2.8,4.7,5.6,6.5,7.5
					c0.4,0.4,0.8,0.8,1.1,1.2c0.2,0.2,0.4,0.4,0.5,0.6l0.1,0.1c0.1,0.2,0.1,0.4,0,0.6c0,0.1-0.1,0.1-0.1,0.2
					c-0.5,0.7-1.1,1.3-1.8,1.8l-3.9,2.5c0,0,6.4,7,8.9,9.1c0.7,0.6,0.7,1.2,0.7,1.5l0,0c-0.4,10.5-6,20.4-10.5,24.6
					c-4.2,3.9-5.6,10.9-5.9,12.2c0.4-4.8,1.3-8.1,2.4-11.4c1.2-3.6,2.6-7.2,3.7-12.5c2.5-11.9-8.1-35.2-12.8-42.5
					c-2.6-4.1-4.5-7.2-8-8.8c-0.3-0.1-0.5-0.3-0.5-0.6c-0.1-0.3-0.1-0.6,0.1-0.8C120.8,109,121.8,108.7,122.6,109.2z"/>
				<path class="st15" d="M76.3,131.4c0.4-3.5,2.2-8.8,3.6-12.6s4.6-7.4,6.2-9.2c0.3-0.3,0.7-0.4,1.1-0.4s0.8,0.2,1,0.5
					c0.3,0.3,0.4,0.8,0.2,1.2c-0.2,0.4-0.2,0.9-0.2,1.5c0,1.1-0.1,2.3-0.1,2.4c0,0.9,0,2.1,0.1,2.9l0,0c0.4,5.5,2.6,15.2,11.1,27.6
					c13.8,20.2,18.4,25,18.1,38.7c0,0.9-0.1,2.3-0.1,4c-0.1-4.3-4.8-14-8.9-19.2c-3.6-4.6-21.2-16.2-25.5-19c-0.5-0.3-0.7-1-0.4-1.5
					l0,0l6.5-10.2c0,0-9.1-4.2-12.2-5.6C76.4,132.4,76.2,131.9,76.3,131.4z"/>
			</g>
			<g>
				<path class="st36" d="M87.7,183.9c-1.3,0-2.3-1.5-2.3-3.3v-16.8c0-1.8,1-3.3,2.3-3.3H106c1.3,0,2.3,1.5,2.3,3.3v16.8
					c0,1.8-1,3.3-2.3,3.3H87.7z"/>
				<g>
					<path class="st9" d="M107.2,163.7c0-1-0.6-1.7-1.2-1.7H87.7c-0.7,0-1.2,0.8-1.2,1.7v16.8c0,1,0.6,1.7,1.2,1.7H106
						c0.7,0,1.2-0.8,1.2-1.7V163.7z"/>
					<path class="st37" d="M88.2,174.2c0,0.3,0.1,0.5,0.3,0.5h4.1c0.2,0,0.3-0.2,0.3-0.5v-6.5c0-0.3-0.1-0.5-0.3-0.5h-4.1
						c-0.2,0-0.3,0.2-0.3,0.5V174.2z"/>
					<path class="st10" d="M95.5,172.3c0,0.3,0.1,0.5,0.3,0.5h3.7c0.2,0,0.3-0.2,0.3-0.5s-0.1-0.5-0.3-0.5h-3.7
						C95.6,171.8,95.5,172,95.5,172.3z"/>
					<path class="st10" d="M95.5,168.4c0,0.3,0.1,0.5,0.3,0.5h7.2c0.2,0,0.3-0.2,0.3-0.5v-0.8c0-0.3-0.1-0.5-0.3-0.5h-7.2
						c-0.2,0-0.3,0.2-0.3,0.5V168.4z"/>
					<path class="st10" d="M105.5,172.3c0-0.3-0.1-0.5-0.3-0.5h-3.7c-0.2,0-0.3,0.2-0.3,0.5s0.1,0.5,0.3,0.5h3.7
						C105.4,172.7,105.5,172.5,105.5,172.3z"/>
					<path class="st10" d="M105.5,174.2c0-0.3-0.1-0.5-0.3-0.5h-9.4c-0.2,0-0.3,0.2-0.3,0.5s0.1,0.5,0.3,0.5h9.4
						C105.4,174.7,105.5,174.5,105.5,174.2z"/>
					<path class="st12" d="M86.5,177.2v3.3c0,1,0.6,1.7,1.2,1.7H106c0.7,0,1.2-0.8,1.2-1.7v-3.3H86.5z"/>
				</g>
				<path class="st37" d="M97.5,157h-1.3c-0.2,0-0.4,0.2-0.4,0.4v7.4c0,0.2,0.2,0.4,0.4,0.4h1.3c0.2,0,0.4-0.2,0.4-0.4v-7.4
					C97.9,157.2,97.7,157,97.5,157z"/>
				<path class="st10" d="M97.6,157h-1.4c-0.2,0-0.3,0.2-0.3,0.5v3.6H98v-3.6C97.9,157.2,97.7,157,97.6,157z"/>
			</g>
			<path class="st5" d="M225.8,233.1c-0.8-2-1.9-3.9-3.3-5.6l-5-5.8c-0.9-1.1-2.6-1.2-3.7-0.3c-0.1,0.1-0.2,0.2-0.3,0.3
				c-0.3,0.4-0.8,0.6-1.3,0.6s-1-0.2-1.3-0.6l-0.1-0.1c-0.9-1.1-2.6-1.2-3.7-0.3c-1,0.8-1.2,2.2-0.6,3.3c0.1,0.1,0.2,0.3,0.3,0.4
				s0.2,0.4,0.1,0.5c-0.1,0.2-0.2,0.3-0.4,0.3c-0.5,0.1-1,0.3-1.4,0.6c-1.1,0.9-1.2,2.6-0.3,3.7c0.1,0.2,0.2,0.4,0.1,0.6
				c-0.1,0.2-0.2,0.3-0.5,0.4c-0.4,0.1-0.8,0.2-1.1,0.5c-0.9,0.8-0.9,2.1-0.2,3l3.6,4c0.4,0.5,0.6,1.1,0.6,1.8
				c0,0.6-0.3,1.2-0.8,1.7c-4.9,4.1-7.3,9.2-5.7,12.8c2,4.5,9.8,4.7,17.4,0.5C232.9,247.5,231.2,247.3,225.8,233.1z"/>
			<path class="st15" d="M76,275.6v-7.9c0-0.6,0.5-1.1,1.1-1.1h11.6h13.7c0.6,0,1.1,0.5,1.1,1.1v7.9h-0.1H76z"/>
			<path class="st6" d="M76,275.6h27.5h0.1l0.3,24.4c0,2.1-1.1,4.1-3,5.1c-5.8,3.1-16.2,3.1-22,0c-1.9-1-3-2.9-3-5L76,275.6
				L76,275.6z"/>
			<g>
				<g>
					<path class="st5" d="M116.5,113.2c0,5.6-4.5,10.1-10.1,10.1c-5.6,0-10.1-4.5-10.1-10.1s4.5-10.1,10.1-10.1
						C112,103.1,116.5,107.6,116.5,113.2z"/>
					<g>
						<path class="st5" d="M106.4,126.1c-6.4,0-11.6-5.2-11.6-11.6V89.2c0-6.4,5.2-11.6,11.6-11.6c6.4,0,11.6,5.2,11.6,11.6v25.3
							C118,120.9,112.8,126.1,106.4,126.1z"/>
					</g>
					<path class="st25" d="M106.4,77.6c-6.4,0-11.6,5.2-11.6,11.6v16.9c3.7,1.3,7.6,2,11.6,2s7.9-0.7,11.6-2V89.2
						C118,82.8,112.8,77.6,106.4,77.6z"/>
				</g>
				<g>
					<g>
						<path class="st25" d="M145.5,49.2c-2.9-0.5-6.1,4-7.2,10.1c-1.1,6.1,0.4,11.5,3.2,12c2.9,0.5,6.1-4,7.2-10.1
							C149.8,55.1,148.4,49.7,145.5,49.2z"/>
						<path class="st25" d="M67.3,49.2c2.9-0.5,6.1,4,7.2,10.1s-0.4,11.5-3.2,12c-2.9,0.5-6.1-4-7.2-10.1
							C62.9,55.1,64.4,49.7,67.3,49.2z"/>
						<path class="st5" d="M144,54c0-26.4-6.8-47.9-37.7-47.9S68.6,27.5,68.6,54c0,26.4,16.9,47.9,37.7,47.9
							C127.2,101.9,144,80.5,144,54z"/>
						<path class="st5" d="M144,54c0-26.4-6.8-47.9-37.7-47.9S68.6,27.5,68.6,54c0,26.4,16.9,47.9,37.7,47.9
							C127.2,101.9,144,80.5,144,54z"/>
						<path class="st5" d="M102.7,101.7c0.6,0,1.2,0.1,1.9,0.2C104,101.8,103.3,101.8,102.7,101.7L102.7,101.7z"/>
						<path class="st5" d="M148.7,61.2c-0.1,0.3-0.1,0.6-0.2,1c0.3-15.8-5.5-2.6-6.7,1.7c0.8-18-16.7-45.4-16.7-45.4
							c-24.4,45.4-50.9,35.6-53.2,33.7c-1.5,5.5,0,17.6,1.1,23.8c-0.1-0.1-0.1-0.3-0.2-0.4c-0.1-0.2-0.2-0.4-0.3-0.6
							c0-0.1-0.1-0.3-0.2-0.4c-1.8-4.7-2.9-9.9-3.4-15.3c0-0.1,0-0.2,0-0.3c-0.1-1.6-0.2-3.2-0.2-4.9c0-4.1,0.2-8.1,0.6-12l0,0
							c2.2-20.6,11-35.9,37.1-35.9c29,0,36.8,19,37.6,43.2c0.5-0.2,1-0.3,1.5-0.2C148.4,49.8,149.8,55.1,148.7,61.2z"/>
						<path class="st38" d="M121.7,77.9c-0.8-0.7-1.9-0.6-2.6,0.2c-0.1,0.2-3.6,4-12.8,4l0,0l0,0c-9.1,0-12.6-3.8-12.8-4
							c-0.7-0.8-1.8-0.9-2.6-0.2c-0.8,0.7-0.9,1.8-0.2,2.6c0.2,0.2,4.5,5.3,15.6,5.3l0,0l0,0c11.1,0,15.4-5.1,15.6-5.3
							C122.6,79.6,122.5,78.5,121.7,77.9z"/>
						<path class="st39" d="M128.1,63.9L128.1,63.9c1.7,0,3-1.3,3-3V59c0-1.7-1.3-3-3-3s-3,1.3-3,3v1.9
							C125,62.6,126.4,63.9,128.1,63.9z"/>
						<path class="st39" d="M81.7,59v1.9c0,1.7,1.3,3,3,3s3-1.3,3-3V59c0-1.7-1.3-3-3-3S81.7,57.3,81.7,59z"/>
						<path class="st40" d="M135.9,51.4c-4.8-5.3-13.6-3.8-14-3.8c-0.6,0.1-1.1,0.7-1,1.4c0.1,0.7,0.7,1.1,1.4,1c0.1,0,8-1.3,11.8,3
							c0.2,0.3,0.6,0.4,0.9,0.4c0.3,0,0.6-0.1,0.8-0.3C136.3,52.6,136.3,51.9,135.9,51.4z"/>
						<path class="st40" d="M90.5,50c0.7,0.1,1.3-0.3,1.4-1s-0.3-1.3-1-1.4c-0.4-0.1-9.2-1.5-14,3.8c-0.4,0.5-0.4,1.2,0.1,1.7
							c0.2,0.2,0.5,0.3,0.8,0.3s0.7-0.1,0.9-0.4C82.5,48.7,90.4,50,90.5,50z"/>
						<path class="st41" d="M124.9,67c-2-0.6-4.1,0.6-4.6,2.6s0.5,4.1,2.5,4.7c1.2,0.4,2.8,1.3,3,2c0.5,1.3,1.6,2.2,2.9,2.4
							c0.6,0.1,1.3,0.1,1.9-0.2c2-0.7,3-2.9,2.3-4.8C131.2,68.9,125.5,67.2,124.9,67z"/>
						<path class="st41" d="M87.9,67c2-0.6,4.1,0.6,4.6,2.6c0.6,2-0.5,4.1-2.5,4.7c-1.2,0.4-2.8,1.3-3,2c-0.5,1.3-1.6,2.2-2.9,2.4
							c-0.6,0.1-1.3,0.1-1.9-0.2c-2-0.7-3-2.9-2.3-4.8C81.6,68.9,87.2,67.2,87.9,67z"/>
					</g>
					<g>
						<path class="st42" d="M150.4,86.3c-0.8,0.8-1.3,1.7-1.6,2.8c-1.1,4.7-5.6,8.8-9.8,10.1c-0.7,0.2-1.4,0.6-2,1.1
							c-2.1,1.8-5.2,2.7-8.6,3.1c-3.3,0.4-6.9,0.3-10.5,0v-3.8c10.8-4.4,19.4-14.9,23.5-28.2c0,0,0,0,0.1,0c0.6,0.1,1.3,0,1.9-0.3
							c2.1-1.1,4.2-4.5,5.1-8.9l0,0c0.3-15.8-5.5-2.6-6.7,1.7c0.8-18-16.7-45.4-16.7-45.4c-24.4,45.4-50.9,35.6-53.2,33.7
							c-1.5,5.5,0,17.6,1.1,23.8c0,0,0,0,0,0.1c4.5,11.1,12.4,19.6,21.8,23.5v3.7c-3.6,0.2-7.1-0.1-10.1-0.8c-3.6-0.8-6.6-2-8.1-3.3
							C33,68.8,69,13.7,96.3,4.5c19.2-6.5,26.9-0.9,29.4,1.9c0.6,0.7,1.7,1,2.6,0.7c14.6-4.3,25,32.1,26.2,42.5
							c0.2,1.6,0.5,3.3,1,4.8C159.8,68.4,154.3,82.6,150.4,86.3z"/>
						<path class="st40" d="M143.4,71.1c-0.5,6-3.1,28.8-15,32.3c-3.3,0.4-6.9,0.3-10.5,0v-3.8c10.8-4.4,19.4-14.9,23.5-28.2
							c0,0,0,0,0.1,0C142.1,71.5,142.8,71.4,143.4,71.1z"/>
						<path class="st40" d="M94.8,99.6v3.7c-3.6,0.2-7.1-0.1-10.1-0.8C73.9,97.9,72.9,76,72.9,76s0,0,0,0.1
							C77.5,87.1,85.3,95.7,94.8,99.6z"/>
						<path class="st43" d="M118.8,15c-13.1,41-53.2,37.3-53.2,37.3C81.3,21.2,118.6,14.8,118.8,15z"/>
						<path class="st40" d="M118.8,15c-12.1,38.7-47,37.2-47,37.2C96.2,47.4,118.8,15,118.8,15z"/>
					</g>
				</g>
			</g>
		</g>
	</g>
</g>
<path class="st34" d="M135.2,295.7h-26.1c-2.4,0-4.3,1.9-4.3,4.3v6.1c0,2.4,1.9,4.3,4.3,4.3h26.1c2.4,0,4.3-1.9,4.3-4.3V300
	C139.5,297.6,137.6,295.7,135.2,295.7z"/>
</svg>
