<svg width="62" height="40" viewBox="0 0 62 40" fill="none" xmlns="http://www.w3.org/2000/svg">
<rect x="0.5" y="0.5" width="61" height="39" rx="7.5" fill="#1F72CD" stroke="#D9D9D9"/>
<path fill-rule="evenodd" clip-rule="evenodd" d="M14.0481 14L9 25.0865H15.0433L15.7925 23.3188H17.5049L18.2541 25.0865H24.9061V23.7374L25.4988 25.0865H28.9397L29.5324 23.7088V25.0865H43.3667L45.0488 23.3647L46.624 25.0865L53.7295 25.1007L48.6655 19.5742L53.7295 14H46.7342L45.0967 15.6899L43.5711 14H28.5213L27.229 16.8615L25.9063 14H19.8757V15.3032L19.2048 14H14.0481ZM15.2165 15.5741H18.1623L21.5107 23.0919V15.5741H24.7377L27.3239 20.9643L29.7074 15.5741H32.9183V23.5294H30.9645L30.9486 17.2956L28.1002 23.5294H26.3525L23.4882 17.2956V23.5294H19.469L18.707 21.7459H14.5903L13.8299 23.5278H11.6764L15.2165 15.5741ZM42.6498 15.5741H34.7055V23.5247H42.5268L45.0477 20.8897L47.4775 23.5247H50.0175L46.3256 19.5724L50.0175 15.5741H47.5877L45.0796 18.1788L42.6498 15.5741ZM16.6491 16.9151L15.2928 20.0922H18.0038L16.6491 16.9151ZM36.6672 18.6771V17.2248V17.2235H41.6242L43.7871 19.5459L41.5283 21.8811H36.6672V20.2957H41.0011V18.6771H36.6672Z" fill="white"/>
</svg>
