<?xml version="1.0" encoding="UTF-8"?>
<svg xmlns="http://www.w3.org/2000/svg" xmlns:xlink="http://www.w3.org/1999/xlink" viewBox="0 0 50 50" version="1.1" fill="#43007e" width="50px" height="50px">
<g id="surface1" fill="#43007e">
<path style=" " d="M 18.9375 12.84375 C 8.921875 15.546875 1.613281 23.921875 1.25 24.34375 C 0.929688 24.71875 0.929688 25.28125 1.25 25.65625 C 1.683594 26.160156 11.988281 38 25 38 C 38.011719 38 48.316406 26.160156 48.75 25.65625 C 49.070313 25.28125 49.070313 24.71875 48.75 24.34375 C 48.386719 23.921875 41.078125 15.550781 31.0625 12.84375 C 34.027344 14.8125 36 18.171875 36 22 C 35.996094 28.074219 31.074219 33 25 33 C 18.925781 33 14.003906 28.074219 14 22 C 14 18.171875 15.972656 14.8125 18.9375 12.84375 Z M 25 17 C 22.238281 17 20 19.238281 20 22 C 20 24.761719 22.238281 27 25 27 C 27.761719 27 30 24.761719 30 22 C 30 19.238281 27.761719 17 25 17 Z " fill="#43007e"/>
</g>
</svg>
