<svg width="310" height="465" viewBox="0 0 310 465" fill="none" xmlns="http://www.w3.org/2000/svg">
<rect width="310" height="464.867" rx="10" fill="#E1F3F3" fill-opacity="0.5"/>
<circle cx="79.7109" cy="50" r="22" fill="white"/>
<path d="M82.4606 49.3684H82.4607L82.4606 49.3616C82.4577 48.6341 82.1674 47.9371 81.653 47.4227C81.1385 46.9082 80.4416 46.6179 79.714 46.615V46.615H79.7106C78.1986 46.615 76.9606 47.8516 76.9606 49.365C76.9606 50.3522 77.4875 51.2224 78.2739 51.7079C77.4819 51.8843 76.711 52.1837 76.0578 52.5578C75.5335 52.8581 75.0503 53.2261 74.6884 53.6524C74.33 54.0745 74.0414 54.6144 74.0414 55.2356V56.7274V57.3731C74.0394 57.3712 74.0374 57.3692 74.0354 57.3672C73.8767 57.2085 73.7876 56.9933 73.7876 56.7689V43.2304C73.7876 43.006 73.8767 42.7908 74.0354 42.6321C74.1941 42.4734 74.4093 42.3842 74.6337 42.3842H84.7774C85.0018 42.3842 85.217 42.4734 85.3757 42.6321C85.5344 42.7908 85.6236 43.006 85.6236 43.2304V56.7689C85.6236 56.8897 85.5977 57.0078 85.5491 57.1159V56.7274V55.2356C85.5491 54.6027 85.2476 54.0539 84.8779 53.6277C84.5036 53.1961 84.0039 52.8233 83.4612 52.5205C82.7908 52.1466 81.9996 51.8492 81.1872 51.682C81.3544 51.5753 81.5108 51.45 81.6532 51.3075C82.1675 50.7929 82.4577 50.0959 82.4606 49.3684ZM74.6337 57.615C74.544 57.615 74.4558 57.6008 74.3721 57.5736H74.8876H79.7106H84.7029H85.039C84.9553 57.6008 84.8671 57.615 84.7774 57.615H74.6337Z" stroke="#5E4098" stroke-width="1.69231"/>
<path d="M79.7109 119L79.7109 72" stroke="#C3C6CB" stroke-width="2"/>
<circle cx="79.7109" cy="141" r="22" fill="white"/>
<circle cx="79.7106" cy="141" r="7.61538" stroke="#5E4098" stroke-width="1.69231"/>
<line x1="79.6274" y1="137.532" x2="79.6274" y2="141.762" stroke="#5E4098" stroke-width="1.69231" stroke-linecap="round"/>
<circle cx="79.6257" cy="144.811" r="1.26923" fill="#5E4098"/>
<path d="M79.7109 210L79.7109 163" stroke="#C3C6CB" stroke-width="2"/>
<circle cx="79.7109" cy="232" r="22" fill="white"/>
<path d="M87.3274 232.001V225.655C87.3274 225.318 87.1937 224.996 86.9557 224.757C86.7177 224.519 86.3948 224.386 86.0582 224.386H73.3659C73.0293 224.386 72.7065 224.519 72.4684 224.757C72.2304 224.996 72.0967 225.318 72.0967 225.655V238.347C72.0967 238.684 72.2304 239.007 72.4684 239.245C72.7065 239.483 73.0293 239.617 73.3659 239.617H79.7121" stroke="#5E4098" stroke-width="1.69231" stroke-linecap="round" stroke-linejoin="round"/>
<path d="M83.0961 237.924C84.498 237.924 85.6345 236.787 85.6345 235.385C85.6345 233.983 84.498 232.847 83.0961 232.847C81.6941 232.847 80.5576 233.983 80.5576 235.385C80.5576 236.787 81.6941 237.924 83.0961 237.924Z" stroke="#5E4098" stroke-width="1.69231"/>
<path d="M85.2129 237.078L87.3283 238.77" stroke="#5E4098" stroke-width="1.69231" stroke-linecap="round" stroke-linejoin="round"/>
<path d="M75.4805 228.616H83.942" stroke="#5E4098" stroke-width="1.69231" stroke-linecap="round" stroke-linejoin="round"/>
<path d="M75.4805 232.002H78.8651" stroke="#5E4098" stroke-width="1.69231" stroke-linecap="round" stroke-linejoin="round"/>
<path d="M79.7109 301L79.7109 254" stroke="#C3C6CB" stroke-width="2"/>
<circle cx="79.7109" cy="323.145" r="22.1445" fill="white"/>
<path d="M78.0077 323.145C79.7069 323.145 80.9887 321.863 80.9887 320.164C80.9887 318.464 79.7069 317.183 78.0077 317.183C76.3086 317.183 75.0267 318.464 75.0267 320.164C75.0267 321.863 76.3086 323.145 78.0077 323.145ZM78.8595 323.952H77.156C74.8079 323.952 72.8975 325.862 72.8975 328.211V329.062H83.118V328.211C83.118 325.862 81.2076 323.952 78.8595 323.952ZM88.4787 319.942L84.8163 323.598L83.7159 322.497L82.5116 323.702L84.8163 326.005L89.6813 321.148L88.4787 319.942Z" fill="#5E4098"/>
<path d="M79.7109 392.289L79.7109 345.289" stroke="#C3C6CB" stroke-width="2"/>
<circle cx="79.7109" cy="414.578" r="22.2891" fill="white"/>
<path d="M71.9951 410.671C71.9951 410.115 72.2119 409.583 72.5977 409.19C72.9836 408.798 73.5069 408.577 74.0526 408.577H85.3686C85.9142 408.577 86.4375 408.798 86.8234 409.19C87.2092 409.583 87.426 410.115 87.426 410.671V412.241H71.9951V410.671Z" fill="#5E4098"/>
<path d="M71.9951 413.288H87.426V417.998C87.426 418.554 87.2092 419.086 86.8234 419.479C86.4375 419.871 85.9142 420.092 85.3686 420.092H74.0526C73.5069 420.092 72.9836 419.871 72.5977 419.479C72.2119 419.086 71.9951 418.554 71.9951 417.998V413.288ZM83.3111 417.475C83.1747 417.475 83.0439 417.53 82.9474 417.628C82.8509 417.726 82.7967 417.86 82.7967 417.998C82.7967 418.137 82.8509 418.27 82.9474 418.368C83.0439 418.467 83.1747 418.522 83.3111 418.522H85.3686C85.505 418.522 85.6358 418.467 85.7323 418.368C85.8287 418.27 85.8829 418.137 85.8829 417.998C85.8829 417.86 85.8287 417.726 85.7323 417.628C85.6358 417.53 85.505 417.475 85.3686 417.475H83.3111Z" fill="#5E4098"/>
<path d="M139.034 44.44C139.749 44.44 140.367 44.5733 140.89 44.84C141.423 45.096 141.839 45.464 142.138 45.944C142.437 46.424 142.586 46.9947 142.586 47.656C142.586 48.3173 142.437 48.888 142.138 49.368C141.839 49.848 141.423 50.2213 140.89 50.488C140.367 50.744 139.749 50.872 139.034 50.872H136.586V55H135.306V44.44H139.034ZM138.842 49.672C139.674 49.672 140.282 49.5013 140.666 49.16C141.05 48.808 141.242 48.3067 141.242 47.656C141.242 46.9947 141.05 46.4933 140.666 46.152C140.282 45.8107 139.674 45.64 138.842 45.64H136.586V49.672H138.842ZM149.504 49.832C149.504 49.2347 149.344 48.776 149.024 48.456C148.704 48.1253 148.25 47.96 147.664 47.96C147.109 47.96 146.64 48.0827 146.256 48.328C145.872 48.5627 145.589 48.9467 145.408 49.48L144.368 48.84C144.581 48.2427 144.976 47.7627 145.552 47.4C146.128 47.0267 146.842 46.84 147.696 46.84C148.272 46.84 148.794 46.9413 149.264 47.144C149.733 47.336 150.101 47.6347 150.368 48.04C150.645 48.4347 150.784 48.9467 150.784 49.576V53.448C150.784 53.832 150.986 54.024 151.392 54.024C151.594 54.024 151.792 53.9973 151.984 53.944L151.92 54.952C151.706 55.0587 151.429 55.112 151.088 55.112C150.778 55.112 150.501 55.0533 150.256 54.936C150.01 54.8187 149.818 54.6427 149.68 54.408C149.541 54.1627 149.472 53.8587 149.472 53.496V53.336L149.792 53.384C149.664 53.8 149.445 54.1413 149.136 54.408C148.826 54.664 148.48 54.856 148.096 54.984C147.712 55.1013 147.333 55.16 146.96 55.16C146.49 55.16 146.053 55.08 145.648 54.92C145.242 54.76 144.917 54.52 144.672 54.2C144.437 53.8693 144.32 53.464 144.32 52.984C144.32 52.3867 144.517 51.896 144.912 51.512C145.317 51.1173 145.877 50.8507 146.592 50.712L149.76 50.088V51.144L147.184 51.672C146.661 51.7787 146.272 51.928 146.016 52.12C145.76 52.312 145.632 52.5787 145.632 52.92C145.632 53.2507 145.76 53.5227 146.016 53.736C146.282 53.9387 146.656 54.04 147.136 54.04C147.445 54.04 147.738 54.0027 148.016 53.928C148.304 53.8427 148.56 53.72 148.784 53.56C149.008 53.3893 149.184 53.1813 149.312 52.936C149.44 52.68 149.504 52.3813 149.504 52.04V49.832ZM155.47 44.728V52.792C155.47 53.1867 155.582 53.48 155.806 53.672C156.03 53.864 156.318 53.96 156.67 53.96C156.979 53.96 157.246 53.9067 157.47 53.8C157.694 53.6933 157.896 53.5493 158.078 53.368L158.526 54.44C158.28 54.664 157.987 54.84 157.646 54.968C157.315 55.096 156.931 55.16 156.494 55.16C156.088 55.16 155.71 55.0907 155.358 54.952C155.006 54.8027 154.723 54.5733 154.51 54.264C154.307 53.944 154.2 53.528 154.19 53.016V45.08L155.47 44.728ZM158.382 47V48.104H152.59V47H158.382ZM160.925 45.464C160.637 45.464 160.402 45.3787 160.221 45.208C160.05 45.0267 159.965 44.792 159.965 44.504C159.965 44.216 160.05 43.9867 160.221 43.816C160.402 43.6347 160.637 43.544 160.925 43.544C161.213 43.544 161.442 43.6347 161.613 43.816C161.794 43.9867 161.885 44.216 161.885 44.504C161.885 44.792 161.794 45.0267 161.613 45.208C161.442 45.3787 161.213 45.464 160.925 45.464ZM161.565 47V55H160.285V47H161.565ZM167.879 55.16C167.122 55.16 166.444 54.9947 165.847 54.664C165.26 54.3333 164.802 53.8587 164.471 53.24C164.14 52.6107 163.975 51.864 163.975 51C163.975 50.136 164.14 49.3947 164.471 48.776C164.802 48.1467 165.255 47.6667 165.831 47.336C166.407 47.0053 167.063 46.84 167.799 46.84C168.546 46.84 169.18 47 169.703 47.32C170.236 47.64 170.642 48.0773 170.919 48.632C171.196 49.176 171.335 49.7893 171.335 50.472C171.335 50.6533 171.33 50.8187 171.319 50.968C171.308 51.1173 171.292 51.2507 171.271 51.368H164.807V50.232H170.711L170.055 50.36C170.055 49.592 169.842 49 169.415 48.584C168.999 48.168 168.45 47.96 167.767 47.96C167.244 47.96 166.791 48.0827 166.407 48.328C166.034 48.5627 165.74 48.9093 165.527 49.368C165.324 49.816 165.223 50.36 165.223 51C165.223 51.6293 165.33 52.1733 165.543 52.632C165.756 53.0907 166.055 53.4427 166.439 53.688C166.834 53.9227 167.303 54.04 167.847 54.04C168.434 54.04 168.908 53.928 169.271 53.704C169.644 53.48 169.943 53.176 170.167 52.792L171.175 53.384C170.972 53.7467 170.711 54.0613 170.391 54.328C170.082 54.5947 169.714 54.8027 169.287 54.952C168.871 55.0907 168.402 55.16 167.879 55.16ZM173.769 55V47H174.889L175.001 48.792L174.793 48.616C174.964 48.1893 175.193 47.848 175.481 47.592C175.769 47.3253 176.1 47.1333 176.473 47.016C176.857 46.8987 177.252 46.84 177.657 46.84C178.233 46.84 178.756 46.952 179.225 47.176C179.695 47.3893 180.068 47.72 180.345 48.168C180.633 48.616 180.777 49.1867 180.777 49.88V55H179.497V50.328C179.497 49.4427 179.305 48.8293 178.921 48.488C178.548 48.136 178.084 47.96 177.529 47.96C177.145 47.96 176.761 48.0507 176.377 48.232C175.993 48.4133 175.673 48.7067 175.417 49.112C175.172 49.5173 175.049 50.0613 175.049 50.744V55H173.769ZM185.454 44.728V52.792C185.454 53.1867 185.566 53.48 185.79 53.672C186.014 53.864 186.302 53.96 186.654 53.96C186.963 53.96 187.23 53.9067 187.454 53.8C187.678 53.6933 187.881 53.5493 188.062 53.368L188.51 54.44C188.265 54.664 187.971 54.84 187.63 54.968C187.299 55.096 186.915 55.16 186.478 55.16C186.073 55.16 185.694 55.0907 185.342 54.952C184.99 54.8027 184.707 54.5733 184.494 54.264C184.291 53.944 184.185 53.528 184.174 53.016V45.08L185.454 44.728ZM188.366 47V48.104H182.574V47H188.366ZM198.842 55.16C198.181 55.16 197.573 54.9947 197.018 54.664C196.464 54.3333 196.021 53.8587 195.69 53.24C195.36 52.6107 195.194 51.864 195.194 51C195.194 50.1147 195.37 49.3627 195.722 48.744C196.074 48.1253 196.538 47.656 197.114 47.336C197.69 47.0053 198.309 46.84 198.97 46.84C199.632 46.84 200.202 47.0107 200.682 47.352C201.173 47.6933 201.498 48.1467 201.658 48.712L201.498 48.824V43.32H202.778V55H201.658L201.546 53.064L201.722 52.968C201.648 53.4373 201.466 53.8373 201.178 54.168C200.901 54.488 200.554 54.7333 200.138 54.904C199.733 55.0747 199.301 55.16 198.842 55.16ZM198.97 54.04C199.482 54.04 199.925 53.912 200.298 53.656C200.682 53.4 200.976 53.0373 201.178 52.568C201.392 52.088 201.498 51.528 201.498 50.888C201.498 50.28 201.392 49.7573 201.178 49.32C200.976 48.8827 200.688 48.5467 200.314 48.312C199.952 48.0773 199.525 47.96 199.034 47.96C198.224 47.96 197.594 48.2373 197.146 48.792C196.698 49.3467 196.474 50.0827 196.474 51C196.474 51.9173 196.693 52.6533 197.13 53.208C197.568 53.7627 198.181 54.04 198.97 54.04ZM209.098 55.16C208.34 55.16 207.663 54.9947 207.066 54.664C206.479 54.3333 206.02 53.8587 205.69 53.24C205.359 52.6107 205.194 51.864 205.194 51C205.194 50.136 205.359 49.3947 205.69 48.776C206.02 48.1467 206.474 47.6667 207.05 47.336C207.626 47.0053 208.282 46.84 209.018 46.84C209.764 46.84 210.399 47 210.922 47.32C211.455 47.64 211.86 48.0773 212.138 48.632C212.415 49.176 212.554 49.7893 212.554 50.472C212.554 50.6533 212.548 50.8187 212.538 50.968C212.527 51.1173 212.511 51.2507 212.49 51.368H206.026V50.232H211.93L211.274 50.36C211.274 49.592 211.06 49 210.634 48.584C210.218 48.168 209.668 47.96 208.986 47.96C208.463 47.96 208.01 48.0827 207.626 48.328C207.252 48.5627 206.959 48.9093 206.746 49.368C206.543 49.816 206.442 50.36 206.442 51C206.442 51.6293 206.548 52.1733 206.762 52.632C206.975 53.0907 207.274 53.4427 207.658 53.688C208.052 53.9227 208.522 54.04 209.066 54.04C209.652 54.04 210.127 53.928 210.49 53.704C210.863 53.48 211.162 53.176 211.386 52.792L212.394 53.384C212.191 53.7467 211.93 54.0613 211.61 54.328C211.3 54.5947 210.932 54.8027 210.506 54.952C210.09 55.0907 209.62 55.16 209.098 55.16ZM216.642 44.728V52.792C216.642 53.1867 216.754 53.48 216.978 53.672C217.202 53.864 217.49 53.96 217.842 53.96C218.151 53.96 218.418 53.9067 218.642 53.8C218.866 53.6933 219.068 53.5493 219.25 53.368L219.698 54.44C219.452 54.664 219.159 54.84 218.818 54.968C218.487 55.096 218.103 55.16 217.666 55.16C217.26 55.16 216.882 55.0907 216.53 54.952C216.178 54.8027 215.895 54.5733 215.682 54.264C215.479 53.944 215.372 53.528 215.362 53.016V45.08L216.642 44.728ZM219.554 47V48.104H213.762V47H219.554ZM226.129 49.832C226.129 49.2347 225.969 48.776 225.649 48.456C225.329 48.1253 224.875 47.96 224.289 47.96C223.734 47.96 223.265 48.0827 222.881 48.328C222.497 48.5627 222.214 48.9467 222.033 49.48L220.993 48.84C221.206 48.2427 221.601 47.7627 222.177 47.4C222.753 47.0267 223.467 46.84 224.321 46.84C224.897 46.84 225.419 46.9413 225.889 47.144C226.358 47.336 226.726 47.6347 226.993 48.04C227.27 48.4347 227.409 48.9467 227.409 49.576V53.448C227.409 53.832 227.611 54.024 228.017 54.024C228.219 54.024 228.417 53.9973 228.609 53.944L228.545 54.952C228.331 55.0587 228.054 55.112 227.713 55.112C227.403 55.112 227.126 55.0533 226.881 54.936C226.635 54.8187 226.443 54.6427 226.305 54.408C226.166 54.1627 226.097 53.8587 226.097 53.496V53.336L226.417 53.384C226.289 53.8 226.07 54.1413 225.761 54.408C225.451 54.664 225.105 54.856 224.721 54.984C224.337 55.1013 223.958 55.16 223.585 55.16C223.115 55.16 222.678 55.08 222.273 54.92C221.867 54.76 221.542 54.52 221.297 54.2C221.062 53.8693 220.945 53.464 220.945 52.984C220.945 52.3867 221.142 51.896 221.537 51.512C221.942 51.1173 222.502 50.8507 223.217 50.712L226.385 50.088V51.144L223.809 51.672C223.286 51.7787 222.897 51.928 222.641 52.12C222.385 52.312 222.257 52.5787 222.257 52.92C222.257 53.2507 222.385 53.5227 222.641 53.736C222.907 53.9387 223.281 54.04 223.761 54.04C224.07 54.04 224.363 54.0027 224.641 53.928C224.929 53.8427 225.185 53.72 225.409 53.56C225.633 53.3893 225.809 53.1813 225.937 52.936C226.065 52.68 226.129 52.3813 226.129 52.04V49.832ZM231.159 45.464C230.871 45.464 230.637 45.3787 230.455 45.208C230.285 45.0267 230.199 44.792 230.199 44.504C230.199 44.216 230.285 43.9867 230.455 43.816C230.637 43.6347 230.871 43.544 231.159 43.544C231.447 43.544 231.677 43.6347 231.847 43.816C232.029 43.9867 232.119 44.216 232.119 44.504C232.119 44.792 232.029 45.0267 231.847 45.208C231.677 45.3787 231.447 45.464 231.159 45.464ZM231.799 47V55H230.519V47H231.799ZM235.985 43.32V52.968C235.985 53.3733 236.06 53.656 236.209 53.816C236.359 53.9653 236.599 54.04 236.929 54.04C237.143 54.04 237.319 54.024 237.457 53.992C237.596 53.96 237.783 53.9013 238.017 53.816L237.809 54.936C237.639 55.0107 237.452 55.064 237.249 55.096C237.047 55.1387 236.839 55.16 236.625 55.16C235.975 55.16 235.489 54.984 235.169 54.632C234.86 54.28 234.705 53.7413 234.705 53.016V43.32H235.985ZM242.54 55.16C241.761 55.16 241.041 54.9947 240.38 54.664C239.729 54.3333 239.228 53.864 238.876 53.256L239.964 52.472C240.199 52.9627 240.54 53.3467 240.988 53.624C241.447 53.9013 241.996 54.04 242.636 54.04C243.201 54.04 243.644 53.9333 243.964 53.72C244.284 53.496 244.444 53.208 244.444 52.856C244.444 52.632 244.369 52.4293 244.22 52.248C244.081 52.056 243.809 51.9173 243.404 51.832L241.484 51.432C240.705 51.272 240.145 51.0053 239.804 50.632C239.473 50.2587 239.308 49.7947 239.308 49.24C239.308 48.8027 239.431 48.4027 239.676 48.04C239.932 47.6773 240.289 47.3893 240.748 47.176C241.217 46.952 241.767 46.84 242.396 46.84C243.185 46.84 243.852 46.9947 244.396 47.304C244.94 47.6133 245.345 48.0507 245.612 48.616L244.54 49.32C244.359 48.8507 244.065 48.5093 243.66 48.296C243.255 48.072 242.833 47.96 242.396 47.96C242.012 47.96 241.681 48.0133 241.404 48.12C241.137 48.2267 240.929 48.376 240.78 48.568C240.641 48.7493 240.572 48.9573 240.572 49.192C240.572 49.4267 240.652 49.6453 240.812 49.848C240.972 50.04 241.271 50.1787 241.708 50.264L243.708 50.68C244.455 50.8293 244.977 51.0747 245.276 51.416C245.575 51.7573 245.724 52.1733 245.724 52.664C245.724 53.1653 245.591 53.608 245.324 53.992C245.057 54.3653 244.684 54.6533 244.204 54.856C243.724 55.0587 243.169 55.16 242.54 55.16Z" fill="#5E4098"/>
<path d="M145.514 137.151V147.711H144.298V141.071L144.442 138.287H144.426L140.954 147.711H139.866L136.394 138.287H136.378L136.522 141.071V147.711H135.306V137.151H137.274L139.594 143.567L140.394 146.207H140.426L141.242 143.583L143.546 137.151H145.514ZM151.941 147.871C151.184 147.871 150.507 147.706 149.909 147.375C149.323 147.044 148.864 146.57 148.533 145.951C148.203 145.322 148.037 144.575 148.037 143.711C148.037 142.847 148.203 142.106 148.533 141.487C148.864 140.858 149.317 140.378 149.893 140.047C150.469 139.716 151.125 139.551 151.861 139.551C152.608 139.551 153.243 139.711 153.765 140.031C154.299 140.351 154.704 140.788 154.981 141.343C155.259 141.887 155.397 142.5 155.397 143.183C155.397 143.364 155.392 143.53 155.381 143.679C155.371 143.828 155.355 143.962 155.333 144.079H148.869V142.943H154.773L154.117 143.071C154.117 142.303 153.904 141.711 153.477 141.295C153.061 140.879 152.512 140.671 151.829 140.671C151.307 140.671 150.853 140.794 150.469 141.039C150.096 141.274 149.803 141.62 149.589 142.079C149.387 142.527 149.285 143.071 149.285 143.711C149.285 144.34 149.392 144.884 149.605 145.343C149.819 145.802 150.117 146.154 150.501 146.399C150.896 146.634 151.365 146.751 151.909 146.751C152.496 146.751 152.971 146.639 153.333 146.415C153.707 146.191 154.005 145.887 154.229 145.503L155.237 146.095C155.035 146.458 154.773 146.772 154.453 147.039C154.144 147.306 153.776 147.514 153.349 147.663C152.933 147.802 152.464 147.871 151.941 147.871ZM160.952 147.871C160.29 147.871 159.682 147.706 159.128 147.375C158.573 147.044 158.13 146.57 157.8 145.951C157.469 145.322 157.304 144.575 157.304 143.711C157.304 142.826 157.48 142.074 157.832 141.455C158.184 140.836 158.648 140.367 159.224 140.047C159.8 139.716 160.418 139.551 161.08 139.551C161.741 139.551 162.312 139.722 162.792 140.063C163.282 140.404 163.608 140.858 163.768 141.423L163.608 141.535V136.031H164.888V147.711H163.768L163.656 145.775L163.832 145.679C163.757 146.148 163.576 146.548 163.288 146.879C163.01 147.199 162.664 147.444 162.248 147.615C161.842 147.786 161.41 147.871 160.952 147.871ZM161.08 146.751C161.592 146.751 162.034 146.623 162.408 146.367C162.792 146.111 163.085 145.748 163.288 145.279C163.501 144.799 163.608 144.239 163.608 143.599C163.608 142.991 163.501 142.468 163.288 142.031C163.085 141.594 162.797 141.258 162.424 141.023C162.061 140.788 161.634 140.671 161.144 140.671C160.333 140.671 159.704 140.948 159.256 141.503C158.808 142.058 158.584 142.794 158.584 143.711C158.584 144.628 158.802 145.364 159.24 145.919C159.677 146.474 160.29 146.751 161.08 146.751ZM168.503 138.175C168.215 138.175 167.98 138.09 167.799 137.919C167.628 137.738 167.543 137.503 167.543 137.215C167.543 136.927 167.628 136.698 167.799 136.527C167.98 136.346 168.215 136.255 168.503 136.255C168.791 136.255 169.02 136.346 169.191 136.527C169.372 136.698 169.463 136.927 169.463 137.215C169.463 137.503 169.372 137.738 169.191 137.919C169.02 138.09 168.791 138.175 168.503 138.175ZM169.143 139.711V147.711H167.863V139.711H169.143ZM175.425 139.551C175.98 139.551 176.465 139.636 176.881 139.807C177.308 139.978 177.676 140.223 177.985 140.543C178.294 140.863 178.545 141.242 178.737 141.679L177.521 142.255C177.35 141.743 177.089 141.354 176.737 141.087C176.396 140.81 175.948 140.671 175.393 140.671C174.86 140.671 174.401 140.794 174.017 141.039C173.633 141.274 173.34 141.62 173.137 142.079C172.934 142.527 172.833 143.071 172.833 143.711C172.833 144.34 172.934 144.884 173.137 145.343C173.34 145.802 173.633 146.154 174.017 146.399C174.401 146.634 174.86 146.751 175.393 146.751C175.809 146.751 176.166 146.687 176.465 146.559C176.774 146.431 177.025 146.244 177.217 145.999C177.42 145.754 177.558 145.455 177.633 145.103L178.817 145.519C178.636 146.01 178.385 146.431 178.065 146.783C177.756 147.135 177.377 147.407 176.929 147.599C176.492 147.78 175.99 147.871 175.425 147.871C174.678 147.871 174.012 147.706 173.425 147.375C172.838 147.044 172.38 146.57 172.049 145.951C171.718 145.322 171.553 144.575 171.553 143.711C171.553 142.847 171.718 142.106 172.049 141.487C172.38 140.858 172.838 140.378 173.425 140.047C174.012 139.716 174.678 139.551 175.425 139.551ZM185.738 142.543C185.738 141.946 185.578 141.487 185.258 141.167C184.938 140.836 184.485 140.671 183.898 140.671C183.343 140.671 182.874 140.794 182.49 141.039C182.106 141.274 181.823 141.658 181.642 142.191L180.602 141.551C180.815 140.954 181.21 140.474 181.786 140.111C182.362 139.738 183.077 139.551 183.93 139.551C184.506 139.551 185.029 139.652 185.498 139.855C185.967 140.047 186.335 140.346 186.602 140.751C186.879 141.146 187.018 141.658 187.018 142.287V146.159C187.018 146.543 187.221 146.735 187.626 146.735C187.829 146.735 188.026 146.708 188.218 146.655L188.154 147.663C187.941 147.77 187.663 147.823 187.322 147.823C187.013 147.823 186.735 147.764 186.49 147.647C186.245 147.53 186.053 147.354 185.914 147.119C185.775 146.874 185.706 146.57 185.706 146.207V146.047L186.026 146.095C185.898 146.511 185.679 146.852 185.37 147.119C185.061 147.375 184.714 147.567 184.33 147.695C183.946 147.812 183.567 147.871 183.194 147.871C182.725 147.871 182.287 147.791 181.882 147.631C181.477 147.471 181.151 147.231 180.906 146.911C180.671 146.58 180.554 146.175 180.554 145.695C180.554 145.098 180.751 144.607 181.146 144.223C181.551 143.828 182.111 143.562 182.826 143.423L185.994 142.799V143.855L183.418 144.383C182.895 144.49 182.506 144.639 182.25 144.831C181.994 145.023 181.866 145.29 181.866 145.631C181.866 145.962 181.994 146.234 182.25 146.447C182.517 146.65 182.89 146.751 183.37 146.751C183.679 146.751 183.973 146.714 184.25 146.639C184.538 146.554 184.794 146.431 185.018 146.271C185.242 146.1 185.418 145.892 185.546 145.647C185.674 145.391 185.738 145.092 185.738 144.751V142.543ZM191.345 136.031V145.679C191.345 146.084 191.419 146.367 191.569 146.527C191.718 146.676 191.958 146.751 192.289 146.751C192.502 146.751 192.678 146.735 192.817 146.703C192.955 146.671 193.142 146.612 193.377 146.527L193.169 147.647C192.998 147.722 192.811 147.775 192.609 147.807C192.406 147.85 192.198 147.871 191.985 147.871C191.334 147.871 190.849 147.695 190.529 147.343C190.219 146.991 190.065 146.452 190.065 145.727V136.031H191.345ZM200.55 138.175C200.262 138.175 200.027 138.09 199.846 137.919C199.675 137.738 199.59 137.503 199.59 137.215C199.59 136.927 199.675 136.698 199.846 136.527C200.027 136.346 200.262 136.255 200.55 136.255C200.838 136.255 201.067 136.346 201.238 136.527C201.419 136.698 201.51 136.927 201.51 137.215C201.51 137.503 201.419 137.738 201.238 137.919C201.067 138.09 200.838 138.175 200.55 138.175ZM201.19 139.711V147.711H199.91V139.711H201.19ZM207.04 147.871C206.261 147.871 205.541 147.706 204.88 147.375C204.229 147.044 203.728 146.575 203.376 145.967L204.464 145.183C204.699 145.674 205.04 146.058 205.488 146.335C205.947 146.612 206.496 146.751 207.136 146.751C207.701 146.751 208.144 146.644 208.464 146.431C208.784 146.207 208.944 145.919 208.944 145.567C208.944 145.343 208.869 145.14 208.72 144.959C208.581 144.767 208.309 144.628 207.904 144.543L205.984 144.143C205.205 143.983 204.645 143.716 204.304 143.343C203.973 142.97 203.808 142.506 203.808 141.951C203.808 141.514 203.931 141.114 204.176 140.751C204.432 140.388 204.789 140.1 205.248 139.887C205.717 139.663 206.267 139.551 206.896 139.551C207.685 139.551 208.352 139.706 208.896 140.015C209.44 140.324 209.845 140.762 210.112 141.327L209.04 142.031C208.859 141.562 208.565 141.22 208.16 141.007C207.755 140.783 207.333 140.671 206.896 140.671C206.512 140.671 206.181 140.724 205.904 140.831C205.637 140.938 205.429 141.087 205.28 141.279C205.141 141.46 205.072 141.668 205.072 141.903C205.072 142.138 205.152 142.356 205.312 142.559C205.472 142.751 205.771 142.89 206.208 142.975L208.208 143.391C208.955 143.54 209.477 143.786 209.776 144.127C210.075 144.468 210.224 144.884 210.224 145.375C210.224 145.876 210.091 146.319 209.824 146.703C209.557 147.076 209.184 147.364 208.704 147.567C208.224 147.77 207.669 147.871 207.04 147.871ZM215.477 147.871C214.699 147.871 213.979 147.706 213.317 147.375C212.667 147.044 212.165 146.575 211.813 145.967L212.901 145.183C213.136 145.674 213.477 146.058 213.925 146.335C214.384 146.612 214.933 146.751 215.573 146.751C216.139 146.751 216.581 146.644 216.901 146.431C217.221 146.207 217.381 145.919 217.381 145.567C217.381 145.343 217.307 145.14 217.157 144.959C217.019 144.767 216.747 144.628 216.341 144.543L214.421 144.143C213.643 143.983 213.083 143.716 212.741 143.343C212.411 142.97 212.245 142.506 212.245 141.951C212.245 141.514 212.368 141.114 212.613 140.751C212.869 140.388 213.227 140.1 213.685 139.887C214.155 139.663 214.704 139.551 215.333 139.551C216.123 139.551 216.789 139.706 217.333 140.015C217.877 140.324 218.283 140.762 218.549 141.327L217.477 142.031C217.296 141.562 217.003 141.22 216.597 141.007C216.192 140.783 215.771 140.671 215.333 140.671C214.949 140.671 214.619 140.724 214.341 140.831C214.075 140.938 213.867 141.087 213.717 141.279C213.579 141.46 213.509 141.668 213.509 141.903C213.509 142.138 213.589 142.356 213.749 142.559C213.909 142.751 214.208 142.89 214.645 142.975L216.645 143.391C217.392 143.54 217.915 143.786 218.213 144.127C218.512 144.468 218.661 144.884 218.661 145.375C218.661 145.876 218.528 146.319 218.261 146.703C217.995 147.076 217.621 147.364 217.141 147.567C216.661 147.77 216.107 147.871 215.477 147.871ZM223.931 147.871C223.419 147.871 222.934 147.775 222.475 147.583C222.027 147.391 221.659 147.082 221.371 146.655C221.094 146.218 220.955 145.652 220.955 144.959V139.711H222.235V144.623C222.235 145.434 222.411 145.994 222.763 146.303C223.115 146.602 223.611 146.751 224.251 146.751C224.55 146.751 224.843 146.703 225.131 146.607C225.419 146.5 225.675 146.34 225.899 146.127C226.134 145.903 226.315 145.62 226.443 145.279C226.582 144.938 226.651 144.532 226.651 144.063V139.711H227.931V147.711H226.811L226.731 146.495C226.454 146.975 226.075 147.327 225.595 147.551C225.126 147.764 224.571 147.871 223.931 147.871ZM234.254 147.871C233.497 147.871 232.819 147.706 232.222 147.375C231.635 147.044 231.177 146.57 230.846 145.951C230.515 145.322 230.35 144.575 230.35 143.711C230.35 142.847 230.515 142.106 230.846 141.487C231.177 140.858 231.63 140.378 232.206 140.047C232.782 139.716 233.438 139.551 234.174 139.551C234.921 139.551 235.555 139.711 236.078 140.031C236.611 140.351 237.017 140.788 237.294 141.343C237.571 141.887 237.71 142.5 237.71 143.183C237.71 143.364 237.705 143.53 237.694 143.679C237.683 143.828 237.667 143.962 237.646 144.079H231.182V142.943H237.086L236.43 143.071C236.43 142.303 236.217 141.711 235.79 141.295C235.374 140.879 234.825 140.671 234.142 140.671C233.619 140.671 233.166 140.794 232.782 141.039C232.409 141.274 232.115 141.62 231.902 142.079C231.699 142.527 231.598 143.071 231.598 143.711C231.598 144.34 231.705 144.884 231.918 145.343C232.131 145.802 232.43 146.154 232.814 146.399C233.209 146.634 233.678 146.751 234.222 146.751C234.809 146.751 235.283 146.639 235.646 146.415C236.019 146.191 236.318 145.887 236.542 145.503L237.55 146.095C237.347 146.458 237.086 146.772 236.766 147.039C236.457 147.306 236.089 147.514 235.662 147.663C235.246 147.802 234.777 147.871 234.254 147.871Z" fill="#5E4098"/>
<path d="M145.514 226.151V236.711H144.298V230.071L144.442 227.287H144.426L140.954 236.711H139.866L136.394 227.287H136.378L136.522 230.071V236.711H135.306V226.151H137.274L139.594 232.567L140.394 235.207H140.426L141.242 232.583L143.546 226.151H145.514ZM151.941 236.871C151.184 236.871 150.507 236.706 149.909 236.375C149.323 236.044 148.864 235.57 148.533 234.951C148.203 234.322 148.037 233.575 148.037 232.711C148.037 231.847 148.203 231.106 148.533 230.487C148.864 229.858 149.317 229.378 149.893 229.047C150.469 228.716 151.125 228.551 151.861 228.551C152.608 228.551 153.243 228.711 153.765 229.031C154.299 229.351 154.704 229.788 154.981 230.343C155.259 230.887 155.397 231.5 155.397 232.183C155.397 232.364 155.392 232.53 155.381 232.679C155.371 232.828 155.355 232.962 155.333 233.079H148.869V231.943H154.773L154.117 232.071C154.117 231.303 153.904 230.711 153.477 230.295C153.061 229.879 152.512 229.671 151.829 229.671C151.307 229.671 150.853 229.794 150.469 230.039C150.096 230.274 149.803 230.62 149.589 231.079C149.387 231.527 149.285 232.071 149.285 232.711C149.285 233.34 149.392 233.884 149.605 234.343C149.819 234.802 150.117 235.154 150.501 235.399C150.896 235.634 151.365 235.751 151.909 235.751C152.496 235.751 152.971 235.639 153.333 235.415C153.707 235.191 154.005 234.887 154.229 234.503L155.237 235.095C155.035 235.458 154.773 235.772 154.453 236.039C154.144 236.306 153.776 236.514 153.349 236.663C152.933 236.802 152.464 236.871 151.941 236.871ZM160.952 236.871C160.29 236.871 159.682 236.706 159.128 236.375C158.573 236.044 158.13 235.57 157.8 234.951C157.469 234.322 157.304 233.575 157.304 232.711C157.304 231.826 157.48 231.074 157.832 230.455C158.184 229.836 158.648 229.367 159.224 229.047C159.8 228.716 160.418 228.551 161.08 228.551C161.741 228.551 162.312 228.722 162.792 229.063C163.282 229.404 163.608 229.858 163.768 230.423L163.608 230.535V225.031H164.888V236.711H163.768L163.656 234.775L163.832 234.679C163.757 235.148 163.576 235.548 163.288 235.879C163.01 236.199 162.664 236.444 162.248 236.615C161.842 236.786 161.41 236.871 160.952 236.871ZM161.08 235.751C161.592 235.751 162.034 235.623 162.408 235.367C162.792 235.111 163.085 234.748 163.288 234.279C163.501 233.799 163.608 233.239 163.608 232.599C163.608 231.991 163.501 231.468 163.288 231.031C163.085 230.594 162.797 230.258 162.424 230.023C162.061 229.788 161.634 229.671 161.144 229.671C160.333 229.671 159.704 229.948 159.256 230.503C158.808 231.058 158.584 231.794 158.584 232.711C158.584 233.628 158.802 234.364 159.24 234.919C159.677 235.474 160.29 235.751 161.08 235.751ZM168.503 227.175C168.215 227.175 167.98 227.09 167.799 226.919C167.628 226.738 167.543 226.503 167.543 226.215C167.543 225.927 167.628 225.698 167.799 225.527C167.98 225.346 168.215 225.255 168.503 225.255C168.791 225.255 169.02 225.346 169.191 225.527C169.372 225.698 169.463 225.927 169.463 226.215C169.463 226.503 169.372 226.738 169.191 226.919C169.02 227.09 168.791 227.175 168.503 227.175ZM169.143 228.711V236.711H167.863V228.711H169.143ZM175.425 228.551C175.98 228.551 176.465 228.636 176.881 228.807C177.308 228.978 177.676 229.223 177.985 229.543C178.294 229.863 178.545 230.242 178.737 230.679L177.521 231.255C177.35 230.743 177.089 230.354 176.737 230.087C176.396 229.81 175.948 229.671 175.393 229.671C174.86 229.671 174.401 229.794 174.017 230.039C173.633 230.274 173.34 230.62 173.137 231.079C172.934 231.527 172.833 232.071 172.833 232.711C172.833 233.34 172.934 233.884 173.137 234.343C173.34 234.802 173.633 235.154 174.017 235.399C174.401 235.634 174.86 235.751 175.393 235.751C175.809 235.751 176.166 235.687 176.465 235.559C176.774 235.431 177.025 235.244 177.217 234.999C177.42 234.754 177.558 234.455 177.633 234.103L178.817 234.519C178.636 235.01 178.385 235.431 178.065 235.783C177.756 236.135 177.377 236.407 176.929 236.599C176.492 236.78 175.99 236.871 175.425 236.871C174.678 236.871 174.012 236.706 173.425 236.375C172.838 236.044 172.38 235.57 172.049 234.951C171.718 234.322 171.553 233.575 171.553 232.711C171.553 231.847 171.718 231.106 172.049 230.487C172.38 229.858 172.838 229.378 173.425 229.047C174.012 228.716 174.678 228.551 175.425 228.551ZM185.738 231.543C185.738 230.946 185.578 230.487 185.258 230.167C184.938 229.836 184.485 229.671 183.898 229.671C183.343 229.671 182.874 229.794 182.49 230.039C182.106 230.274 181.823 230.658 181.642 231.191L180.602 230.551C180.815 229.954 181.21 229.474 181.786 229.111C182.362 228.738 183.077 228.551 183.93 228.551C184.506 228.551 185.029 228.652 185.498 228.855C185.967 229.047 186.335 229.346 186.602 229.751C186.879 230.146 187.018 230.658 187.018 231.287V235.159C187.018 235.543 187.221 235.735 187.626 235.735C187.829 235.735 188.026 235.708 188.218 235.655L188.154 236.663C187.941 236.77 187.663 236.823 187.322 236.823C187.013 236.823 186.735 236.764 186.49 236.647C186.245 236.53 186.053 236.354 185.914 236.119C185.775 235.874 185.706 235.57 185.706 235.207V235.047L186.026 235.095C185.898 235.511 185.679 235.852 185.37 236.119C185.061 236.375 184.714 236.567 184.33 236.695C183.946 236.812 183.567 236.871 183.194 236.871C182.725 236.871 182.287 236.791 181.882 236.631C181.477 236.471 181.151 236.231 180.906 235.911C180.671 235.58 180.554 235.175 180.554 234.695C180.554 234.098 180.751 233.607 181.146 233.223C181.551 232.828 182.111 232.562 182.826 232.423L185.994 231.799V232.855L183.418 233.383C182.895 233.49 182.506 233.639 182.25 233.831C181.994 234.023 181.866 234.29 181.866 234.631C181.866 234.962 181.994 235.234 182.25 235.447C182.517 235.65 182.89 235.751 183.37 235.751C183.679 235.751 183.973 235.714 184.25 235.639C184.538 235.554 184.794 235.431 185.018 235.271C185.242 235.1 185.418 234.892 185.546 234.647C185.674 234.391 185.738 234.092 185.738 233.751V231.543ZM191.345 225.031V234.679C191.345 235.084 191.419 235.367 191.569 235.527C191.718 235.676 191.958 235.751 192.289 235.751C192.502 235.751 192.678 235.735 192.817 235.703C192.955 235.671 193.142 235.612 193.377 235.527L193.169 236.647C192.998 236.722 192.811 236.775 192.609 236.807C192.406 236.85 192.198 236.871 191.985 236.871C191.334 236.871 190.849 236.695 190.529 236.343C190.219 235.991 190.065 235.452 190.065 234.727V225.031H191.345ZM199.91 236.711V225.031H201.19V229.911C201.467 229.431 201.835 229.084 202.294 228.871C202.753 228.658 203.254 228.551 203.798 228.551C204.374 228.551 204.897 228.663 205.366 228.887C205.835 229.1 206.209 229.431 206.486 229.879C206.774 230.327 206.918 230.898 206.918 231.591V236.711H205.638V232.039C205.638 231.154 205.446 230.54 205.062 230.199C204.689 229.847 204.225 229.671 203.67 229.671C203.286 229.671 202.902 229.762 202.518 229.943C202.134 230.124 201.814 230.423 201.558 230.839C201.313 231.244 201.19 231.788 201.19 232.471V236.711H199.91ZM210.456 227.175C210.168 227.175 209.933 227.09 209.752 226.919C209.581 226.738 209.496 226.503 209.496 226.215C209.496 225.927 209.581 225.698 209.752 225.527C209.933 225.346 210.168 225.255 210.456 225.255C210.744 225.255 210.973 225.346 211.144 225.527C211.325 225.698 211.416 225.927 211.416 226.215C211.416 226.503 211.325 226.738 211.144 226.919C210.973 227.09 210.744 227.175 210.456 227.175ZM211.096 228.711V236.711H209.816V228.711H211.096ZM216.946 236.871C216.167 236.871 215.447 236.706 214.786 236.375C214.135 236.044 213.634 235.575 213.282 234.967L214.37 234.183C214.605 234.674 214.946 235.058 215.394 235.335C215.853 235.612 216.402 235.751 217.042 235.751C217.607 235.751 218.05 235.644 218.37 235.431C218.69 235.207 218.85 234.919 218.85 234.567C218.85 234.343 218.775 234.14 218.626 233.959C218.487 233.767 218.215 233.628 217.81 233.543L215.89 233.143C215.111 232.983 214.551 232.716 214.21 232.343C213.879 231.97 213.714 231.506 213.714 230.951C213.714 230.514 213.837 230.114 214.082 229.751C214.338 229.388 214.695 229.1 215.154 228.887C215.623 228.663 216.173 228.551 216.802 228.551C217.591 228.551 218.258 228.706 218.802 229.015C219.346 229.324 219.751 229.762 220.018 230.327L218.946 231.031C218.765 230.562 218.471 230.22 218.066 230.007C217.661 229.783 217.239 229.671 216.802 229.671C216.418 229.671 216.087 229.724 215.81 229.831C215.543 229.938 215.335 230.087 215.186 230.279C215.047 230.46 214.978 230.668 214.978 230.903C214.978 231.138 215.058 231.356 215.218 231.559C215.378 231.751 215.677 231.89 216.114 231.975L218.114 232.391C218.861 232.54 219.383 232.786 219.682 233.127C219.981 233.468 220.13 233.884 220.13 234.375C220.13 234.876 219.997 235.319 219.73 235.703C219.463 236.076 219.09 236.364 218.61 236.567C218.13 236.77 217.575 236.871 216.946 236.871ZM224.392 226.439V234.503C224.392 234.898 224.504 235.191 224.728 235.383C224.952 235.575 225.24 235.671 225.592 235.671C225.901 235.671 226.168 235.618 226.392 235.511C226.616 235.404 226.818 235.26 227 235.079L227.448 236.151C227.202 236.375 226.909 236.551 226.568 236.679C226.237 236.807 225.853 236.871 225.416 236.871C225.01 236.871 224.632 236.802 224.28 236.663C223.928 236.514 223.645 236.284 223.432 235.975C223.229 235.655 223.122 235.239 223.112 234.727V226.791L224.392 226.439ZM227.304 228.711V229.815H221.512V228.711H227.304ZM232.519 228.551C233.276 228.551 233.943 228.716 234.519 229.047C235.105 229.378 235.564 229.858 235.895 230.487C236.225 231.106 236.391 231.847 236.391 232.711C236.391 233.575 236.225 234.322 235.895 234.951C235.564 235.57 235.105 236.044 234.519 236.375C233.943 236.706 233.276 236.871 232.519 236.871C231.772 236.871 231.105 236.706 230.519 236.375C229.932 236.044 229.473 235.57 229.143 234.951C228.812 234.322 228.647 233.575 228.647 232.711C228.647 231.847 228.812 231.106 229.143 230.487C229.473 229.858 229.932 229.378 230.519 229.047C231.105 228.716 231.772 228.551 232.519 228.551ZM232.519 229.655C231.975 229.655 231.511 229.778 231.127 230.023C230.743 230.268 230.444 230.62 230.231 231.079C230.028 231.527 229.927 232.071 229.927 232.711C229.927 233.34 230.028 233.884 230.231 234.343C230.444 234.802 230.743 235.154 231.127 235.399C231.511 235.644 231.975 235.767 232.519 235.767C233.063 235.767 233.527 235.644 233.911 235.399C234.295 235.154 234.588 234.802 234.791 234.343C235.004 233.884 235.111 233.34 235.111 232.711C235.111 232.071 235.004 231.527 234.791 231.079C234.588 230.62 234.295 230.268 233.911 230.023C233.527 229.778 233.063 229.655 232.519 229.655ZM238.801 236.711V228.711H239.841L240.017 230.023C240.241 229.532 240.566 229.164 240.993 228.919C241.43 228.674 241.958 228.551 242.577 228.551C242.715 228.551 242.865 228.562 243.025 228.583C243.195 228.604 243.339 228.647 243.457 228.711L243.233 229.879C243.115 229.836 242.987 229.804 242.849 229.783C242.71 229.762 242.513 229.751 242.257 229.751C241.926 229.751 241.59 229.847 241.249 230.039C240.918 230.231 240.641 230.524 240.417 230.919C240.193 231.303 240.081 231.794 240.081 232.391V236.711H238.801ZM251.908 228.711L248.148 238.055C247.945 238.578 247.721 238.988 247.476 239.287C247.241 239.596 246.974 239.815 246.676 239.943C246.388 240.082 246.052 240.151 245.668 240.151C245.305 240.151 244.969 240.098 244.66 239.991C244.361 239.895 244.094 239.762 243.86 239.591L244.212 238.471C244.425 238.663 244.649 238.802 244.884 238.887C245.129 238.983 245.369 239.031 245.604 239.031C245.881 239.031 246.142 238.946 246.388 238.775C246.633 238.604 246.857 238.258 247.06 237.735L247.476 236.695L246.676 234.791L244.132 228.711H245.588L247.588 233.927L248.084 235.351L248.66 233.767L250.532 228.711H251.908Z" fill="#5E4098"/>
<path d="M143.722 329.711H142.362L141.242 326.783H136.458L135.338 329.711H133.994L138.106 319.151H139.626L143.722 329.711ZM136.922 325.583H140.778L138.842 320.383L136.922 325.583ZM148.384 329.871C147.872 329.871 147.387 329.775 146.928 329.583C146.48 329.391 146.112 329.082 145.824 328.655C145.547 328.218 145.408 327.652 145.408 326.959V321.711H146.688V326.623C146.688 327.434 146.864 327.994 147.216 328.303C147.568 328.602 148.064 328.751 148.704 328.751C149.003 328.751 149.296 328.703 149.584 328.607C149.872 328.5 150.128 328.34 150.352 328.127C150.587 327.903 150.768 327.62 150.896 327.279C151.035 326.938 151.104 326.532 151.104 326.063V321.711H152.384V329.711H151.264L151.184 328.495C150.907 328.975 150.528 329.327 150.048 329.551C149.579 329.764 149.024 329.871 148.384 329.871ZM157.251 319.439V327.503C157.251 327.898 157.363 328.191 157.587 328.383C157.811 328.575 158.099 328.671 158.451 328.671C158.76 328.671 159.027 328.618 159.251 328.511C159.475 328.404 159.678 328.26 159.859 328.079L160.307 329.151C160.062 329.375 159.768 329.551 159.427 329.679C159.096 329.807 158.712 329.871 158.275 329.871C157.87 329.871 157.491 329.802 157.139 329.663C156.787 329.514 156.504 329.284 156.291 328.975C156.088 328.655 155.982 328.239 155.971 327.727V319.791L157.251 319.439ZM160.163 321.711V322.815H154.371V321.711H160.163ZM162.066 329.711V318.031H163.346V322.911C163.623 322.431 163.991 322.084 164.45 321.871C164.909 321.658 165.41 321.551 165.954 321.551C166.53 321.551 167.053 321.663 167.522 321.887C167.991 322.1 168.365 322.431 168.642 322.879C168.93 323.327 169.074 323.898 169.074 324.591V329.711H167.794V325.039C167.794 324.154 167.602 323.54 167.218 323.199C166.845 322.847 166.381 322.671 165.826 322.671C165.442 322.671 165.058 322.762 164.674 322.943C164.29 323.124 163.97 323.423 163.714 323.839C163.469 324.244 163.346 324.788 163.346 325.471V329.711H162.066ZM175.316 329.871C174.559 329.871 173.882 329.706 173.284 329.375C172.698 329.044 172.239 328.57 171.908 327.951C171.578 327.322 171.412 326.575 171.412 325.711C171.412 324.847 171.578 324.106 171.908 323.487C172.239 322.858 172.692 322.378 173.268 322.047C173.844 321.716 174.5 321.551 175.236 321.551C175.983 321.551 176.618 321.711 177.14 322.031C177.674 322.351 178.079 322.788 178.356 323.343C178.634 323.887 178.772 324.5 178.772 325.183C178.772 325.364 178.767 325.53 178.756 325.679C178.746 325.828 178.73 325.962 178.708 326.079H172.244V324.943H178.148L177.492 325.071C177.492 324.303 177.279 323.711 176.852 323.295C176.436 322.879 175.887 322.671 175.204 322.671C174.682 322.671 174.228 322.794 173.844 323.039C173.471 323.274 173.178 323.62 172.964 324.079C172.762 324.527 172.66 325.071 172.66 325.711C172.66 326.34 172.767 326.884 172.98 327.343C173.194 327.802 173.492 328.154 173.876 328.399C174.271 328.634 174.74 328.751 175.284 328.751C175.871 328.751 176.346 328.639 176.708 328.415C177.082 328.191 177.38 327.887 177.604 327.503L178.612 328.095C178.41 328.458 178.148 328.772 177.828 329.039C177.519 329.306 177.151 329.514 176.724 329.663C176.308 329.802 175.839 329.871 175.316 329.871ZM181.207 329.711V321.711H182.327L182.439 323.503L182.231 323.327C182.401 322.9 182.631 322.559 182.919 322.303C183.207 322.036 183.537 321.844 183.911 321.727C184.295 321.61 184.689 321.551 185.095 321.551C185.671 321.551 186.193 321.663 186.663 321.887C187.132 322.1 187.505 322.431 187.783 322.879C188.071 323.327 188.215 323.898 188.215 324.591V329.711H186.935V325.039C186.935 324.154 186.743 323.54 186.359 323.199C185.985 322.847 185.521 322.671 184.967 322.671C184.583 322.671 184.199 322.762 183.815 322.943C183.431 323.124 183.111 323.418 182.855 323.823C182.609 324.228 182.487 324.772 182.487 325.455V329.711H181.207ZM192.892 319.439V327.503C192.892 327.898 193.004 328.191 193.228 328.383C193.452 328.575 193.74 328.671 194.092 328.671C194.401 328.671 194.668 328.618 194.892 328.511C195.116 328.404 195.318 328.26 195.5 328.079L195.948 329.151C195.702 329.375 195.409 329.551 195.068 329.679C194.737 329.807 194.353 329.871 193.916 329.871C193.51 329.871 193.132 329.802 192.78 329.663C192.428 329.514 192.145 329.284 191.932 328.975C191.729 328.655 191.622 328.239 191.612 327.727V319.791L192.892 319.439ZM195.804 321.711V322.815H190.012V321.711H195.804ZM198.347 320.175C198.059 320.175 197.824 320.09 197.643 319.919C197.472 319.738 197.387 319.503 197.387 319.215C197.387 318.927 197.472 318.698 197.643 318.527C197.824 318.346 198.059 318.255 198.347 318.255C198.635 318.255 198.864 318.346 199.035 318.527C199.216 318.698 199.307 318.927 199.307 319.215C199.307 319.503 199.216 319.738 199.035 319.919C198.864 320.09 198.635 320.175 198.347 320.175ZM198.987 321.711V329.711H197.707V321.711H198.987ZM205.269 321.551C205.823 321.551 206.309 321.636 206.725 321.807C207.151 321.978 207.519 322.223 207.829 322.543C208.138 322.863 208.389 323.242 208.581 323.679L207.365 324.255C207.194 323.743 206.933 323.354 206.581 323.087C206.239 322.81 205.791 322.671 205.237 322.671C204.703 322.671 204.245 322.794 203.861 323.039C203.477 323.274 203.183 323.62 202.981 324.079C202.778 324.527 202.677 325.071 202.677 325.711C202.677 326.34 202.778 326.884 202.981 327.343C203.183 327.802 203.477 328.154 203.861 328.399C204.245 328.634 204.703 328.751 205.237 328.751C205.653 328.751 206.01 328.687 206.309 328.559C206.618 328.431 206.869 328.244 207.061 327.999C207.263 327.754 207.402 327.455 207.477 327.103L208.661 327.519C208.479 328.01 208.229 328.431 207.909 328.783C207.599 329.135 207.221 329.407 206.773 329.599C206.335 329.78 205.834 329.871 205.269 329.871C204.522 329.871 203.855 329.706 203.269 329.375C202.682 329.044 202.223 328.57 201.893 327.951C201.562 327.322 201.397 326.575 201.397 325.711C201.397 324.847 201.562 324.106 201.893 323.487C202.223 322.858 202.682 322.378 203.269 322.047C203.855 321.716 204.522 321.551 205.269 321.551ZM215.582 324.543C215.582 323.946 215.422 323.487 215.102 323.167C214.782 322.836 214.329 322.671 213.742 322.671C213.187 322.671 212.718 322.794 212.334 323.039C211.95 323.274 211.667 323.658 211.486 324.191L210.446 323.551C210.659 322.954 211.054 322.474 211.63 322.111C212.206 321.738 212.921 321.551 213.774 321.551C214.35 321.551 214.873 321.652 215.342 321.855C215.811 322.047 216.179 322.346 216.446 322.751C216.723 323.146 216.862 323.658 216.862 324.287V328.159C216.862 328.543 217.065 328.735 217.47 328.735C217.673 328.735 217.87 328.708 218.062 328.655L217.998 329.663C217.785 329.77 217.507 329.823 217.166 329.823C216.857 329.823 216.579 329.764 216.334 329.647C216.089 329.53 215.897 329.354 215.758 329.119C215.619 328.874 215.55 328.57 215.55 328.207V328.047L215.87 328.095C215.742 328.511 215.523 328.852 215.214 329.119C214.905 329.375 214.558 329.567 214.174 329.695C213.79 329.812 213.411 329.871 213.038 329.871C212.569 329.871 212.131 329.791 211.726 329.631C211.321 329.471 210.995 329.231 210.75 328.911C210.515 328.58 210.398 328.175 210.398 327.695C210.398 327.098 210.595 326.607 210.99 326.223C211.395 325.828 211.955 325.562 212.67 325.423L215.838 324.799V325.855L213.262 326.383C212.739 326.49 212.35 326.639 212.094 326.831C211.838 327.023 211.71 327.29 211.71 327.631C211.71 327.962 211.838 328.234 212.094 328.447C212.361 328.65 212.734 328.751 213.214 328.751C213.523 328.751 213.817 328.714 214.094 328.639C214.382 328.554 214.638 328.431 214.862 328.271C215.086 328.1 215.262 327.892 215.39 327.647C215.518 327.391 215.582 327.092 215.582 326.751V324.543ZM221.548 319.439V327.503C221.548 327.898 221.66 328.191 221.884 328.383C222.108 328.575 222.396 328.671 222.748 328.671C223.057 328.671 223.324 328.618 223.548 328.511C223.772 328.404 223.975 328.26 224.156 328.079L224.604 329.151C224.359 329.375 224.065 329.551 223.724 329.679C223.393 329.807 223.009 329.871 222.572 329.871C222.167 329.871 221.788 329.802 221.436 329.663C221.084 329.514 220.801 329.284 220.588 328.975C220.385 328.655 220.279 328.239 220.268 327.727V319.791L221.548 319.439ZM224.46 321.711V322.815H218.668V321.711H224.46ZM227.003 320.175C226.715 320.175 226.48 320.09 226.299 319.919C226.128 319.738 226.043 319.503 226.043 319.215C226.043 318.927 226.128 318.698 226.299 318.527C226.48 318.346 226.715 318.255 227.003 318.255C227.291 318.255 227.52 318.346 227.691 318.527C227.872 318.698 227.963 318.927 227.963 319.215C227.963 319.503 227.872 319.738 227.691 319.919C227.52 320.09 227.291 320.175 227.003 320.175ZM227.643 321.711V329.711H226.363V321.711H227.643ZM233.925 321.551C234.682 321.551 235.349 321.716 235.925 322.047C236.512 322.378 236.97 322.858 237.301 323.487C237.632 324.106 237.797 324.847 237.797 325.711C237.797 326.575 237.632 327.322 237.301 327.951C236.97 328.57 236.512 329.044 235.925 329.375C235.349 329.706 234.682 329.871 233.925 329.871C233.178 329.871 232.512 329.706 231.925 329.375C231.338 329.044 230.88 328.57 230.549 327.951C230.218 327.322 230.053 326.575 230.053 325.711C230.053 324.847 230.218 324.106 230.549 323.487C230.88 322.858 231.338 322.378 231.925 322.047C232.512 321.716 233.178 321.551 233.925 321.551ZM233.925 322.655C233.381 322.655 232.917 322.778 232.533 323.023C232.149 323.268 231.85 323.62 231.637 324.079C231.434 324.527 231.333 325.071 231.333 325.711C231.333 326.34 231.434 326.884 231.637 327.343C231.85 327.802 232.149 328.154 232.533 328.399C232.917 328.644 233.381 328.767 233.925 328.767C234.469 328.767 234.933 328.644 235.317 328.399C235.701 328.154 235.994 327.802 236.197 327.343C236.41 326.884 236.517 326.34 236.517 325.711C236.517 325.071 236.41 324.527 236.197 324.079C235.994 323.62 235.701 323.268 235.317 323.023C234.933 322.778 234.469 322.655 233.925 322.655ZM240.207 329.711V321.711H241.327L241.439 323.503L241.231 323.327C241.401 322.9 241.631 322.559 241.919 322.303C242.207 322.036 242.537 321.844 242.911 321.727C243.295 321.61 243.689 321.551 244.095 321.551C244.671 321.551 245.193 321.663 245.663 321.887C246.132 322.1 246.505 322.431 246.783 322.879C247.071 323.327 247.215 323.898 247.215 324.591V329.711H245.935V325.039C245.935 324.154 245.743 323.54 245.359 323.199C244.985 322.847 244.521 322.671 243.967 322.671C243.583 322.671 243.199 322.762 242.815 322.943C242.431 323.124 242.111 323.418 241.855 323.823C241.609 324.228 241.487 324.772 241.487 325.455V329.711H240.207Z" fill="#5E4098"/>
<path d="M139.034 409.151C139.749 409.151 140.367 409.284 140.89 409.551C141.423 409.807 141.839 410.175 142.138 410.655C142.437 411.135 142.586 411.706 142.586 412.367C142.586 413.028 142.437 413.599 142.138 414.079C141.839 414.559 141.423 414.932 140.89 415.199C140.367 415.455 139.749 415.583 139.034 415.583H136.586V419.711H135.306V409.151H139.034ZM138.842 414.383C139.674 414.383 140.282 414.212 140.666 413.871C141.05 413.519 141.242 413.018 141.242 412.367C141.242 411.706 141.05 411.204 140.666 410.863C140.282 410.522 139.674 410.351 138.842 410.351H136.586V414.383H138.842ZM149.504 414.543C149.504 413.946 149.344 413.487 149.024 413.167C148.704 412.836 148.25 412.671 147.664 412.671C147.109 412.671 146.64 412.794 146.256 413.039C145.872 413.274 145.589 413.658 145.408 414.191L144.368 413.551C144.581 412.954 144.976 412.474 145.552 412.111C146.128 411.738 146.842 411.551 147.696 411.551C148.272 411.551 148.794 411.652 149.264 411.855C149.733 412.047 150.101 412.346 150.368 412.751C150.645 413.146 150.784 413.658 150.784 414.287V418.159C150.784 418.543 150.986 418.735 151.392 418.735C151.594 418.735 151.792 418.708 151.984 418.655L151.92 419.663C151.706 419.77 151.429 419.823 151.088 419.823C150.778 419.823 150.501 419.764 150.256 419.647C150.01 419.53 149.818 419.354 149.68 419.119C149.541 418.874 149.472 418.57 149.472 418.207V418.047L149.792 418.095C149.664 418.511 149.445 418.852 149.136 419.119C148.826 419.375 148.48 419.567 148.096 419.695C147.712 419.812 147.333 419.871 146.96 419.871C146.49 419.871 146.053 419.791 145.648 419.631C145.242 419.471 144.917 419.231 144.672 418.911C144.437 418.58 144.32 418.175 144.32 417.695C144.32 417.098 144.517 416.607 144.912 416.223C145.317 415.828 145.877 415.562 146.592 415.423L149.76 414.799V415.855L147.184 416.383C146.661 416.49 146.272 416.639 146.016 416.831C145.76 417.023 145.632 417.29 145.632 417.631C145.632 417.962 145.76 418.234 146.016 418.447C146.282 418.65 146.656 418.751 147.136 418.751C147.445 418.751 147.738 418.714 148.016 418.639C148.304 418.554 148.56 418.431 148.784 418.271C149.008 418.1 149.184 417.892 149.312 417.647C149.44 417.391 149.504 417.092 149.504 416.751V414.543ZM160.002 411.711L156.242 421.055C156.039 421.578 155.815 421.988 155.57 422.287C155.335 422.596 155.068 422.815 154.77 422.943C154.482 423.082 154.146 423.151 153.762 423.151C153.399 423.151 153.063 423.098 152.754 422.991C152.455 422.895 152.188 422.762 151.954 422.591L152.306 421.471C152.519 421.663 152.743 421.802 152.978 421.887C153.223 421.983 153.463 422.031 153.698 422.031C153.975 422.031 154.236 421.946 154.482 421.775C154.727 421.604 154.951 421.258 155.154 420.735L155.57 419.695L154.77 417.791L152.226 411.711H153.682L155.682 416.927L156.178 418.351L156.754 416.767L158.626 411.711H160.002ZM161.676 419.711V411.711H162.796L162.876 412.959C163.164 412.468 163.537 412.111 163.996 411.887C164.465 411.663 164.945 411.551 165.436 411.551C166.001 411.551 166.534 411.679 167.036 411.935C167.537 412.191 167.921 412.586 168.188 413.119C168.358 412.756 168.598 412.463 168.908 412.239C169.217 412.004 169.553 411.834 169.916 411.727C170.289 411.61 170.641 411.551 170.972 411.551C171.484 411.551 171.969 411.658 172.428 411.871C172.897 412.084 173.281 412.415 173.58 412.863C173.878 413.311 174.028 413.887 174.028 414.591V419.711H172.748V414.719C172.748 413.994 172.566 413.471 172.204 413.151C171.841 412.831 171.393 412.671 170.86 412.671C170.444 412.671 170.054 412.772 169.692 412.975C169.329 413.178 169.036 413.476 168.812 413.871C168.598 414.266 168.492 414.751 168.492 415.327V419.711H167.212V414.719C167.212 413.994 167.03 413.471 166.668 413.151C166.305 412.831 165.857 412.671 165.324 412.671C164.972 412.671 164.609 412.767 164.236 412.959C163.873 413.14 163.569 413.434 163.324 413.839C163.078 414.244 162.956 414.778 162.956 415.439V419.711H161.676ZM180.27 419.871C179.512 419.871 178.835 419.706 178.238 419.375C177.651 419.044 177.192 418.57 176.862 417.951C176.531 417.322 176.366 416.575 176.366 415.711C176.366 414.847 176.531 414.106 176.862 413.487C177.192 412.858 177.646 412.378 178.222 412.047C178.798 411.716 179.454 411.551 180.19 411.551C180.936 411.551 181.571 411.711 182.094 412.031C182.627 412.351 183.032 412.788 183.31 413.343C183.587 413.887 183.726 414.5 183.726 415.183C183.726 415.364 183.72 415.53 183.71 415.679C183.699 415.828 183.683 415.962 183.661 416.079H177.198V414.943H183.102L182.446 415.071C182.446 414.303 182.232 413.711 181.806 413.295C181.39 412.879 180.84 412.671 180.158 412.671C179.635 412.671 179.182 412.794 178.798 413.039C178.424 413.274 178.131 413.62 177.918 414.079C177.715 414.527 177.614 415.071 177.614 415.711C177.614 416.34 177.72 416.884 177.934 417.343C178.147 417.802 178.446 418.154 178.83 418.399C179.224 418.634 179.694 418.751 180.238 418.751C180.824 418.751 181.299 418.639 181.662 418.415C182.035 418.191 182.334 417.887 182.558 417.503L183.566 418.095C183.363 418.458 183.102 418.772 182.782 419.039C182.472 419.306 182.104 419.514 181.678 419.663C181.262 419.802 180.792 419.871 180.27 419.871ZM186.16 419.711V411.711H187.28L187.392 413.503L187.184 413.327C187.355 412.9 187.584 412.559 187.872 412.303C188.16 412.036 188.491 411.844 188.864 411.727C189.248 411.61 189.643 411.551 190.048 411.551C190.624 411.551 191.147 411.663 191.616 411.887C192.085 412.1 192.459 412.431 192.736 412.879C193.024 413.327 193.168 413.898 193.168 414.591V419.711H191.888V415.039C191.888 414.154 191.696 413.54 191.312 413.199C190.939 412.847 190.475 412.671 189.92 412.671C189.536 412.671 189.152 412.762 188.768 412.943C188.384 413.124 188.064 413.418 187.808 413.823C187.563 414.228 187.44 414.772 187.44 415.455V419.711H186.16ZM197.845 409.439V417.503C197.845 417.898 197.957 418.191 198.181 418.383C198.405 418.575 198.693 418.671 199.045 418.671C199.354 418.671 199.621 418.618 199.845 418.511C200.069 418.404 200.271 418.26 200.453 418.079L200.901 419.151C200.655 419.375 200.362 419.551 200.021 419.679C199.69 419.807 199.306 419.871 198.869 419.871C198.463 419.871 198.085 419.802 197.733 419.663C197.381 419.514 197.098 419.284 196.885 418.975C196.682 418.655 196.575 418.239 196.565 417.727V409.791L197.845 409.439ZM200.757 411.711V412.815H194.965V411.711H200.757Z" fill="#5E4098"/>
</svg>
