<?xml version="1.0" encoding="utf-8"?>
<!-- Generator: Adobe Illustrator 22.1.0, SVG Export Plug-In . SVG Version: 6.00 Build 0)  -->
<svg version="1.1" id="Layer_1" xmlns="http://www.w3.org/2000/svg" xmlns:xlink="http://www.w3.org/1999/xlink" x="0px" y="0px"
	 viewBox="0 0 50 50" style="enable-background:new 0 0 50 50;" xml:space="preserve">
<style type="text/css">
	.st0{filter:url(#Adobe_OpacityMaskFilter);}
	.st1{fill:#FFFFFF;}
	.st2{mask:url(#mask-2_2_);fill:#5E4098;}
</style>
<title>1311EB05-4013-4308-85BE-58303458B398</title>
<desc>Created with sketchtool.</desc>
<g id="Symbols">
	<g id="header-green" transform="translate(2.000000, -5.000000)">
		<g id="header" transform="translate(-2.000000, 5.000000)">
			<g id="Logo">
				<g id="Clip-2">
				</g>
				<defs>
					<filter id="Adobe_OpacityMaskFilter" filterUnits="userSpaceOnUse" x="11.6" y="2.7" width="26.9" height="44.6">
						<feColorMatrix  type="matrix" values="1 0 0 0 0  0 1 0 0 0  0 0 1 0 0  0 0 0 1 0"/>
					</filter>
				</defs>
				<mask maskUnits="userSpaceOnUse" x="11.6" y="2.7" width="26.9" height="44.6" id="mask-2_2_">
					<g class="st0">
						<polygon id="path-1_2_" class="st1" points="11.6,2.1 180.6,2.1 180.6,68.1 11.6,68.1 						"/>
					</g>
				</mask>
				<path class="st2" d="M26.9,31.1c0.2,0.4,0.4,0.8,0.5,1.2c0.4,1.1,0.6,2.3,0.6,3.3c0,1-0.3,2-0.8,2.8c-0.5,0.8-1.2,1.5-2.2,2.1
					c-0.9,0.5-2.1,0.8-3.4,0.9c-1.2,0.1-2.4-0.1-3.4-0.5c-1-0.4-1.9-1.1-2.5-2C15.2,38,15,36.8,15.3,36l0.1-0.3
					c0.2-0.4,0.1-0.9-0.2-1.3c-0.4-0.6-1.3-0.7-1.9-0.3c-0.5,0.4-0.9,0.9-1.2,1.4c-0.3,0.5-0.5,1.1-0.6,1.6
					c-0.2,1.1-0.1,2.2,0.2,3.3c0.6,2.1,2,3.9,3.8,5.1c0.9,0.6,1.9,1,2.9,1.3c1,0.3,2,0.4,3,0.5c2,0.1,4-0.2,6-1
					c1-0.4,1.9-0.9,2.8-1.6c0.9-0.7,1.7-1.5,2.3-2.4c1.3-1.8,2.1-4,2.3-6.2c0.2-1.9-0.1-3.8-0.6-5.5l-1.2-3c-0.5-1-1.1-2-1.7-2.9
					c-0.5-0.8-1.1-1.5-1.7-2.2c-0.3-0.3-0.6-0.7-0.9-1c-0.3-0.3-0.7-0.7-0.9-0.9c-1-1-1.8-2-2.4-3.1c-0.3-0.5-0.6-1.1-0.8-1.6
					c-0.2-0.5-0.3-1-0.4-1.5c-0.1-1-0.1-1.9,0.3-2.7c0.4-0.8,1-1.6,1.9-2.1C27.1,9.4,27.6,9.2,28,9c0.2-0.1,0.5-0.1,0.7-0.1l0.2,0
					l0.2,0l0.2,0l0.2,0c0.5,0,1,0.1,1.4,0.2c0.4,0.1,0.8,0.3,1.1,0.6c0.3,0.3,0.7,0.7,0.9,1.2c0.1,0.2,0.3,0.5,0.4,0.8
					c0.1,0.1,0.1,0.3,0.2,0.4l0.1,0.2l0,0.1c0,0,0,0.1,0,0c0.1,1.3,1.2,2.3,2.5,2.2c1.3-0.1,2.3-1.2,2.2-2.5l0-0.3l0-0.2
					c0-0.1,0-0.3,0-0.4c0-0.3-0.1-0.5-0.1-0.8c-0.1-0.5-0.2-1-0.4-1.5c-0.4-1-0.9-2-1.7-2.9c-0.4-0.4-0.8-0.9-1.3-1.2
					c-0.5-0.4-1-0.7-1.5-0.9c-1.1-0.5-2.2-0.8-3.2-1c-0.1,0-0.3,0-0.4,0l-0.4,0c-0.1,0-0.3,0-0.4,0l-0.4,0c-0.6,0-1.1,0.1-1.7,0.1
					c-1.1,0.2-2.2,0.5-3.2,1c-1,0.5-2,1.1-2.8,1.9c-0.8,0.8-1.6,1.7-2.1,2.7c-0.6,1-1,2.1-1.2,3.3c-0.2,1.1-0.3,2.3-0.2,3.4
					c0.1,1.1,0.4,2.2,0.7,3.2c0.3,1,0.8,1.9,1.3,2.8c1,1.7,2.2,3.2,3.5,4.5l0.8,0.8c0.2,0.3,0.5,0.5,0.7,0.8c0.3,0.4,0.7,0.8,1,1.2"
					/>
			</g>
		</g>
	</g>
</g>
</svg>
