<?xml version="1.0" standalone="no"?>
<!DOCTYPE svg PUBLIC "-//W3C//DTD SVG 20010904//EN"
 "http://www.w3.org/TR/2001/REC-SVG-20010904/DTD/svg10.dtd">
<svg version="1.0" xmlns="http://www.w3.org/2000/svg"
 width="1000.000000pt" height="1000.000000pt" viewBox="0 0 1000.000000 1000.000000"
 preserveAspectRatio="xMidYMid meet">
<metadata>
Created by potrace 1.11, written by Peter Selinger 2001-2013
</metadata>
<g transform="translate(0.000000,1000.000000) scale(0.100000,-0.100000)"
fill="#000000" stroke="none">
<path d="M5727 9424 c-2 -1 -178 -12 -302 -19 -174 -10 -485 -97 -673 -189
-51 -26 -94 -46 -96 -46 -5 0 -170 -95 -217 -126 -96 -62 -204 -150 -292 -237
-84 -84 -114 -116 -201 -217 -32 -37 -156 -207 -156 -214 0 -2 -22 -42 -48
-88 -88 -153 -162 -324 -197 -458 -12 -45 -27 -108 -31 -130 -2 -14 -7 -38
-11 -55 -3 -16 -7 -37 -9 -45 -1 -8 -5 -35 -9 -60 -25 -169 -33 -283 -30 -450
2 -102 5 -194 8 -205 3 -11 8 -40 11 -65 9 -63 15 -96 32 -170 9 -36 18 -76
20 -90 12 -58 88 -312 119 -390 69 -180 207 -433 358 -660 45 -67 232 -317
246 -330 3 -3 26 -30 51 -60 63 -76 134 -154 280 -302 134 -136 256 -268 280
-302 8 -12 29 -37 46 -56 87 -95 157 -187 234 -308 47 -73 106 -166 132 -205
128 -196 164 -269 224 -461 102 -320 128 -637 71 -857 -94 -361 -345 -639
-722 -799 -25 -11 -120 -41 -143 -45 -9 -2 -17 -4 -17 -5 0 -3 -119 -27 -175
-36 -19 -3 -44 -7 -55 -9 -138 -22 -400 -22 -510 0 -293 60 -482 150 -656 313
-131 121 -202 250 -239 430 -26 128 -20 232 20 344 16 48 31 104 32 126 3 90
-70 209 -156 254 -32 17 -59 22 -121 23 -101 0 -150 -22 -239 -110 -205 -202
-312 -476 -307 -785 1 -81 7 -160 16 -200 2 -13 7 -42 10 -65 3 -22 8 -48 11
-57 3 -9 7 -26 9 -38 10 -52 69 -219 106 -298 42 -91 118 -225 131 -230 5 -2
8 -8 8 -14 0 -34 241 -303 365 -408 268 -226 672 -395 1072 -450 46 -6 97 -13
115 -15 172 -23 527 -23 646 0 10 2 43 6 73 10 45 6 195 35 249 49 8 2 44 12
80 21 74 19 270 85 327 110 21 10 66 30 101 46 35 16 65 29 67 29 10 0 199
112 260 155 312 217 524 449 715 780 126 219 245 541 284 765 2 14 7 36 10 50
3 14 8 48 11 75 3 28 8 64 10 80 13 97 16 166 16 309 0 89 -3 184 -6 211 -11
106 -16 142 -26 205 -15 92 -46 242 -71 335 -24 94 -241 641 -300 759 -41 81
-177 319 -209 366 -9 14 -56 84 -103 157 -112 172 -176 253 -436 548 -19 22
-114 121 -211 220 -306 312 -387 417 -558 720 -39 69 -107 208 -134 277 -22
52 -57 190 -73 283 -18 107 -12 329 10 415 36 134 135 299 249 412 91 91 164
135 272 164 14 4 149 58 219 87 56 24 70 25 227 25 215 -1 357 -26 473 -85 62
-31 175 -138 226 -213 73 -107 195 -365 203 -430 26 -197 181 -367 372 -405
114 -22 260 8 360 74 94 64 182 193 200 295 7 44 7 329 -1 367 -2 13 -7 42 -9
64 -18 153 -76 337 -166 522 -51 104 -148 267 -168 283 -4 3 -14 17 -23 31
-32 51 -229 247 -306 306 -101 77 -218 153 -235 153 -7 0 -17 4 -22 9 -35 35
-371 154 -565 201 -119 28 -153 33 -283 34 -82 0 -149 0 -150 0z"/>
</g>
</svg>
