<svg width="38" height="37" viewBox="0 0 38 37" fill="none" xmlns="http://www.w3.org/2000/svg">
<rect width="38" height="37" rx="6" fill="#4D4557"/>
<path d="M19.1567 6C16.5222 6 14.3805 8.14407 14.3805 10.7763V13.3805H11.7763C9.14174 13.3805 7 15.5245 7 18.1568C7 18.5631 7.32931 18.8925 7.7357 18.8925C8.1421 18.8925 8.47142 18.5631 8.47142 18.1568C8.47142 16.335 9.95453 14.8519 11.7763 14.8519H15.1162C15.5226 14.8519 15.8519 14.5226 15.8519 14.1162V10.7763C15.8519 8.95452 17.335 7.47142 19.1567 7.47142C20.9785 7.47142 22.4616 8.95452 22.4616 10.7763V14.1162C22.4616 14.5226 22.7909 14.8519 23.1973 14.8519C23.6037 14.8519 23.933 14.5226 23.933 14.1162V10.7763C23.933 8.14174 21.7913 6 19.1567 6Z" fill="white"/>
<path d="M30.584 17.4209C30.1776 17.4209 29.8483 17.7502 29.8483 18.1566C29.8483 19.9784 28.3652 21.4615 26.5435 21.4615H23.2036C22.7972 21.4615 22.4679 21.7908 22.4679 22.1972V25.5371C22.4679 27.3588 20.9848 28.8419 19.163 28.8419C17.3412 28.8419 15.8581 27.3588 15.8581 25.5371V22.1972C15.8581 21.7908 15.5288 21.4615 15.1224 21.4615C14.716 21.4615 14.3867 21.7908 14.3867 22.1972V25.5371C14.3867 28.1716 16.5308 30.3134 19.163 30.3134C21.7975 30.3134 23.9393 28.1693 23.9393 25.5371V22.9329H26.5435C29.178 22.9329 31.3197 20.7888 31.3197 18.1566C31.3197 17.7502 30.9904 17.4209 30.584 17.4209Z" fill="#AC94CE"/>
</svg>
