<svg width="16" height="17" viewBox="0 0 16 17" fill="none" xmlns="http://www.w3.org/2000/svg">
<path d="M7.19498 2.92822H2.28248C1.91023 2.92822 1.55322 3.0761 1.29 3.33932C1.02678 3.60254 0.878906 3.95954 0.878906 4.3318V14.1568C0.878906 14.5291 1.02678 14.8861 1.29 15.1493C1.55322 15.4125 1.91023 15.5604 2.28248 15.5604H12.1075C12.4797 15.5604 12.8367 15.4125 13.1 15.1493C13.3632 14.8861 13.5111 14.5291 13.5111 14.1568V9.2443" stroke="#54939B" stroke-linecap="round" stroke-linejoin="round"/>
<path d="M7.19498 2.92822H2.28248C1.91023 2.92822 1.55322 3.0761 1.29 3.33932C1.02678 3.60254 0.878906 3.95954 0.878906 4.3318V14.1568C0.878906 14.5291 1.02678 14.8861 1.29 15.1493C1.55322 15.4125 1.91023 15.5604 2.28248 15.5604H12.1075C12.4797 15.5604 12.8367 15.4125 13.1 15.1493C13.3632 14.8861 13.5111 14.5291 13.5111 14.1568V9.2443" stroke="black" stroke-opacity="0.2" stroke-linecap="round" stroke-linejoin="round"/>
<path d="M12.4586 1.87598C12.7378 1.59679 13.1164 1.43994 13.5113 1.43994C13.9061 1.43994 14.2848 1.59679 14.564 1.87598C14.8431 2.15516 15 2.53382 15 2.92865C15 3.32349 14.8431 3.70215 14.564 3.98133L7.89699 10.6483L5.08984 11.3501L5.79163 8.54295L12.4586 1.87598Z" stroke="#54939B" stroke-linecap="round" stroke-linejoin="round"/>
<path d="M12.4586 1.87598C12.7378 1.59679 13.1164 1.43994 13.5113 1.43994C13.9061 1.43994 14.2848 1.59679 14.564 1.87598C14.8431 2.15516 15 2.53382 15 2.92865C15 3.32349 14.8431 3.70215 14.564 3.98133L7.89699 10.6483L5.08984 11.3501L5.79163 8.54295L12.4586 1.87598Z" stroke="black" stroke-opacity="0.2" stroke-linecap="round" stroke-linejoin="round"/>
</svg>
