<svg width="117" height="117" viewBox="0 0 117 117" fill="none" xmlns="http://www.w3.org/2000/svg">
<rect width="117" height="117" fill="#F9F7F8"/>
<path fill-rule="evenodd" clip-rule="evenodd" d="M58.5 95.4012C56.7692 95.4012 55.3661 96.8044 55.3661 98.5352C55.3661 100.266 56.7692 101.669 58.5 101.669C60.2308 101.669 61.6339 100.266 61.6339 98.5352C61.6339 96.8044 60.2308 95.4012 58.5 95.4012Z" fill="#5E4098"/>
<path fill-rule="evenodd" clip-rule="evenodd" d="M29.25 19.1423C29.25 13.3729 33.927 8.69592 39.6964 8.69592H77.3036C83.073 8.69592 87.75 13.3729 87.75 19.1424V98.5352C87.75 104.305 83.073 108.982 77.3036 108.982H39.6964C33.927 108.982 29.25 104.305 29.25 98.5352V19.1423ZM39.6964 12.8745C36.2348 12.8745 33.4286 15.6807 33.4286 19.1423V98.5352C33.4286 101.997 36.2348 104.803 39.6964 104.803H77.3036C80.7652 104.803 83.5714 101.997 83.5714 98.5352V19.1424C83.5714 15.6807 80.7652 12.8745 77.3036 12.8745H39.6964Z" fill="#5E4098"/>
<path fill-rule="evenodd" clip-rule="evenodd" d="M29.25 90.178C29.25 89.0242 30.1854 88.0887 31.3393 88.0887H85.6607C86.8146 88.0887 87.75 89.0242 87.75 90.178C87.75 91.3319 86.8146 92.2673 85.6607 92.2673H31.3393C30.1854 92.2673 29.25 91.3319 29.25 90.178Z" fill="#5E4098"/>
<path fill-rule="evenodd" clip-rule="evenodd" d="M29.25 27.4994C29.25 26.3456 30.1854 25.4102 31.3393 25.4102H85.6607C86.8146 25.4102 87.75 26.3456 87.75 27.4994C87.75 28.6533 86.8146 29.5887 85.6607 29.5887H31.3393C30.1854 29.5887 29.25 28.6533 29.25 27.4994Z" fill="#5E4098"/>
<path fill-rule="evenodd" clip-rule="evenodd" d="M50.1429 19.1424C50.1429 17.9885 51.0783 17.0531 52.2321 17.0531H64.7679C65.9217 17.0531 66.8571 17.9885 66.8571 19.1424C66.8571 20.2963 65.9217 21.2317 64.7679 21.2317H52.2321C51.0783 21.2317 50.1429 20.2963 50.1429 19.1424Z" fill="#5E4098"/>
<path fill-rule="evenodd" clip-rule="evenodd" d="M61.1359 42.8017C61.1382 42.7995 61.1404 42.7972 61.1427 42.7949C61.145 42.7926 61.1473 42.7904 61.1495 42.7881L63.653 40.2846C65.1493 38.7865 67.1801 37.9443 69.2974 37.9443C71.4149 37.9443 73.4454 38.7862 74.9417 40.2845L74.9649 40.3076C76.4632 41.8039 77.3051 43.8345 77.3051 45.952C77.3051 48.0695 76.4632 50.1002 74.9649 51.5964L53.7095 72.8518C53.4178 73.1435 53.0464 73.3423 52.6419 73.4232L42.1955 75.5125C41.5105 75.6495 40.8023 75.4351 40.3084 74.9411C39.8144 74.4471 39.6 73.739 39.737 73.054L41.8263 62.6076C41.9072 62.2031 42.106 61.8316 42.3977 61.54L61.1359 42.8017ZM66.6098 43.2373C67.3222 42.5238 68.2892 42.1229 69.2974 42.1229C70.3057 42.1229 71.2726 42.5238 71.9851 43.2373L72.0112 43.2634C72.7247 43.9758 73.1266 44.9438 73.1266 45.952C73.1266 46.9603 72.7257 47.9272 72.0122 48.6397L70.9772 49.6747L65.5748 44.2723L66.6098 43.2373ZM68.0225 52.6294L51.2021 69.4498L44.4491 70.8004L45.7997 64.0474L62.6201 47.227L68.0225 52.6294Z" fill="#5E4098"/>
</svg>
