<svg width="64" height="64" viewBox="0 0 64 64" fill="none" xmlns="http://www.w3.org/2000/svg">
<path d="M45.9469 12.2919L33.9297 1.11969C32.7752 0.0441692 30.9941 0.0441692 29.8396 1.11969L17.8664 12.2919H45.9469Z" fill="#5E4098"/>
<path d="M57.1725 12.2919H6.5968V33.8682L23.0889 46.4123H40.6804L57.1725 33.8682V12.2919Z" fill="#A38BD1"/>
<path d="M45.0783 22.3996H18.691C18.0863 22.3996 17.5915 21.9057 17.5915 21.3021C17.5915 20.6985 18.0863 20.2047 18.691 20.2047H45.0783C45.683 20.2047 46.1778 20.6985 46.1778 21.3021C46.1778 21.9057 45.683 22.3996 45.0783 22.3996Z" fill="#F0ECEF"/>
<path d="M45.0783 28.4357H18.691C18.0863 28.4357 17.5915 27.9418 17.5915 27.3382C17.5915 26.7346 18.0863 26.2407 18.691 26.2407H45.0783C45.683 26.2407 46.1778 26.7346 46.1778 27.3382C46.1778 27.9418 45.683 28.4357 45.0783 28.4357Z" fill="#F0ECEF"/>
<path d="M45.0783 34.4718H18.691C18.0863 34.4718 17.5915 33.9779 17.5915 33.3743C17.5915 32.7707 18.0863 32.2769 18.691 32.2769H45.0783C45.683 32.2769 46.1778 32.7707 46.1778 33.3743C46.1778 33.9779 45.683 34.4718 45.0783 34.4718Z" fill="#F0ECEF"/>
<path d="M45.0783 40.5079H18.691C18.0863 40.5079 17.5915 40.014 17.5915 39.4104C17.5915 38.8068 18.0863 38.3129 18.691 38.3129H45.0783C45.683 38.3129 46.1778 38.8068 46.1778 39.4104C46.1778 40.014 45.683 40.5079 45.0783 40.5079Z" fill="#F0ECEF"/>
<path d="M6.70676 33.956L6.59681 33.8682V22.7179L0 28.8418V28.8528L6.70676 33.956Z" fill="#43007E"/>
<path d="M57.1725 22.7179V33.8682L56.9416 34.0328L63.7693 28.8527V28.8418L57.1725 22.7179Z" fill="#43007E"/>
<path d="M0 63.9718H0.142932H63.2635H63.6264H63.7693L40.6804 46.4123H23.0889L0 63.9718Z" fill="#43007E"/>
<path d="M0 63.9717V28.8527L23.0889 46.4122L0 63.9717Z" fill="#5E4098"/>
<path d="M63.6448 63.8898V28.7708L40.5559 46.3303L63.6448 63.8898Z" fill="#5E4098"/>
</svg>
