<svg width="117" height="117" viewBox="0 0 117 117" fill="none" xmlns="http://www.w3.org/2000/svg">
<rect width="117" height="117" fill="#F9F7F8"/>
<path fill-rule="evenodd" clip-rule="evenodd" d="M58.5 95.4012C56.7692 95.4012 55.3661 96.8044 55.3661 98.5352C55.3661 100.266 56.7692 101.669 58.5 101.669C60.2308 101.669 61.6339 100.266 61.6339 98.5352C61.6339 96.8044 60.2308 95.4012 58.5 95.4012Z" fill="#5E4098"/>
<path fill-rule="evenodd" clip-rule="evenodd" d="M29.25 19.1423C29.25 13.3729 33.927 8.69592 39.6964 8.69592H77.3036C83.073 8.69592 87.75 13.3729 87.75 19.1424V98.5352C87.75 104.305 83.073 108.982 77.3036 108.982H39.6964C33.927 108.982 29.25 104.305 29.25 98.5352V19.1423ZM39.6964 12.8745C36.2348 12.8745 33.4286 15.6807 33.4286 19.1423V98.5352C33.4286 101.997 36.2348 104.803 39.6964 104.803H77.3036C80.7652 104.803 83.5714 101.997 83.5714 98.5352V19.1424C83.5714 15.6807 80.7652 12.8745 77.3036 12.8745H39.6964Z" fill="#5E4098"/>
<path fill-rule="evenodd" clip-rule="evenodd" d="M29.25 90.178C29.25 89.0242 30.1854 88.0887 31.3393 88.0887H85.6607C86.8146 88.0887 87.75 89.0242 87.75 90.178C87.75 91.3319 86.8146 92.2673 85.6607 92.2673H31.3393C30.1854 92.2673 29.25 91.3319 29.25 90.178Z" fill="#5E4098"/>
<path fill-rule="evenodd" clip-rule="evenodd" d="M29.25 27.4994C29.25 26.3456 30.1854 25.4102 31.3393 25.4102H85.6607C86.8146 25.4102 87.75 26.3456 87.75 27.4994C87.75 28.6533 86.8146 29.5887 85.6607 29.5887H31.3393C30.1854 29.5887 29.25 28.6533 29.25 27.4994Z" fill="#5E4098"/>
<path fill-rule="evenodd" clip-rule="evenodd" d="M50.1429 19.1424C50.1429 17.9885 51.0783 17.0531 52.2321 17.0531H64.7679C65.9217 17.0531 66.8571 17.9885 66.8571 19.1424C66.8571 20.2963 65.9217 21.2317 64.7679 21.2317H52.2321C51.0783 21.2317 50.1429 20.2963 50.1429 19.1424Z" fill="#5E4098"/>
<path fill-rule="evenodd" clip-rule="evenodd" d="M58.4413 36.3656C58.4804 36.3646 58.5196 36.3646 58.5587 36.3656C61.5158 36.4389 64.3094 37.7378 66.2711 39.9517C68.1809 42.107 69.135 44.9406 68.9228 47.8059C69.2624 51.9075 67.9061 55.969 65.1718 59.043C65.155 59.1021 65.1348 59.1833 65.1145 59.2877C65.0443 59.6494 65.0034 60.1265 65.0214 60.6067C65.0364 61.0058 65.0888 61.3177 65.1476 61.525C65.5228 61.6635 65.8958 61.8006 66.2656 61.9366C68.8155 62.874 71.2149 63.7562 73.1515 64.6474C74.322 65.186 75.4199 65.7702 76.339 66.4312C77.2455 67.083 78.1243 67.9128 78.6663 68.9954C78.6883 69.0393 78.7089 69.0838 78.7281 69.129C80.0043 72.1301 80.6035 76.8496 80.635 79.8194C80.6489 81.1292 79.5984 82.2022 78.2887 82.2161C76.979 82.23 75.9059 81.1795 75.892 79.8698C75.864 77.2324 75.3106 73.2851 74.4005 71.0745C74.314 70.9296 74.0926 70.658 73.5698 70.2821C73.0005 69.8727 72.2089 69.435 71.1685 68.9562C69.4185 68.1509 67.2378 67.3486 64.6851 66.4095C64.1702 66.22 63.6401 66.025 63.0954 65.8233C61.7514 65.3261 61.0867 64.1904 60.7705 63.3767C60.4391 62.5238 60.3119 61.5928 60.2815 60.7847C60.2505 59.9593 60.3155 59.1181 60.4584 58.383C60.5298 58.0152 60.6286 57.6334 60.7649 57.2725C60.8874 56.9481 61.1025 56.4702 61.4855 56.0474L61.5004 56.0311C63.4924 53.8727 64.468 50.9666 64.1819 48.0435C64.167 47.8912 64.1669 47.7378 64.1815 47.5855C64.3386 45.9516 63.8096 44.3259 62.721 43.0974C61.6454 41.8835 60.1191 41.1653 58.5 41.1091C56.8809 41.1653 55.3546 41.8835 54.279 43.0974C53.1904 44.3259 52.6614 45.9516 52.8185 47.5855C52.8331 47.7376 52.833 47.8909 52.8182 48.043C52.5328 50.9652 53.5084 53.8703 55.4996 56.0281L55.5145 56.0443C55.8975 56.4671 56.1126 56.945 56.2351 57.2694C56.3714 57.6303 56.4702 58.0122 56.5416 58.3799C56.6845 59.1151 56.7495 59.9562 56.7185 60.7816C56.6881 61.5897 56.5609 62.5207 56.2295 63.3737C55.9134 64.1872 55.2489 65.3226 53.9054 65.82C53.3419 66.0286 52.7942 66.23 52.2627 66.4255C49.7318 67.3561 47.57 68.151 45.8318 68.9501C44.7919 69.4283 44.0009 69.8655 43.4321 70.2748C42.9092 70.6511 42.6871 70.9237 42.5999 71.0705C41.6892 73.2818 41.1356 77.2308 41.108 79.8694C41.0943 81.1792 40.0214 82.2298 38.7117 82.2161C37.4019 82.2024 36.3513 81.1295 36.365 79.8198C36.3961 76.8487 36.9953 72.128 38.2719 69.1259C38.291 69.0812 38.3114 69.037 38.3332 68.9934C38.8754 67.909 39.754 67.0779 40.6617 66.4247C41.5816 65.7628 42.6799 65.1787 43.8504 64.6406C45.7749 63.7558 48.1573 62.8803 50.6893 61.9499C51.0739 61.8086 51.462 61.666 51.8524 61.5219C51.9112 61.3146 51.9636 61.0028 51.9786 60.6036C51.9966 60.1235 51.9558 59.6463 51.8855 59.2847C51.8652 59.1803 51.8451 59.0991 51.8282 59.04C49.0948 55.9667 47.7385 51.9066 48.0772 47.8061C47.865 44.9408 48.8191 42.107 50.7289 39.9517C52.6906 37.7378 55.4842 36.4389 58.4413 36.3656ZM51.7881 58.9221C51.7882 58.9219 51.7909 58.9276 51.7958 58.9402C51.7903 58.9287 51.7879 58.9224 51.7881 58.9221ZM51.7724 61.7346C51.7722 61.7342 51.7752 61.728 51.7819 61.7175C51.7759 61.7298 51.7726 61.735 51.7724 61.7346ZM64.7419 61.375C64.7421 61.3751 64.7424 61.3752 64.7427 61.3753L64.7419 61.375ZM65.2181 61.7205C65.2248 61.7311 65.2278 61.7372 65.2276 61.7376C65.2274 61.7381 65.2241 61.7328 65.2181 61.7205ZM65.212 58.9252C65.2121 58.9255 65.2096 58.9318 65.2042 58.9433C65.2091 58.9306 65.2118 58.9249 65.212 58.9252Z" fill="#5E4098"/>
</svg>
