<svg width="11" height="11" viewBox="0 0 11 11" fill="none" xmlns="http://www.w3.org/2000/svg">
<path d="M5.49984 10.0837C8.03114 10.0837 10.0832 8.03163 10.0832 5.50033C10.0832 2.96902 8.03114 0.916992 5.49984 0.916992C2.96853 0.916992 0.916504 2.96902 0.916504 5.50033C0.916504 8.03163 2.96853 10.0837 5.49984 10.0837Z" stroke="#54939B" stroke-width="0.916667" stroke-linecap="round" stroke-linejoin="round"/>
<path d="M5.49984 10.0837C8.03114 10.0837 10.0832 8.03163 10.0832 5.50033C10.0832 2.96902 8.03114 0.916992 5.49984 0.916992C2.96853 0.916992 0.916504 2.96902 0.916504 5.50033C0.916504 8.03163 2.96853 10.0837 5.49984 10.0837Z" stroke="black" stroke-opacity="0.2" stroke-width="0.916667" stroke-linecap="round" stroke-linejoin="round"/>
<path d="M5.5 7.33333V5.5" stroke="#54939B" stroke-width="0.916667" stroke-linecap="round" stroke-linejoin="round"/>
<path d="M5.5 7.33333V5.5" stroke="black" stroke-opacity="0.2" stroke-width="0.916667" stroke-linecap="round" stroke-linejoin="round"/>
<path d="M5.5 3.66699H5.50458" stroke="#54939B" stroke-width="0.916667" stroke-linecap="round" stroke-linejoin="round"/>
<path d="M5.5 3.66699H5.50458" stroke="black" stroke-opacity="0.2" stroke-width="0.916667" stroke-linecap="round" stroke-linejoin="round"/>
</svg>
