<svg width="24" height="20" viewBox="0 0 24 20" fill="none" xmlns="http://www.w3.org/2000/svg">
<path fill-rule="evenodd" clip-rule="evenodd" d="M0.853959 11.6461C0.627344 11.8723 0.5 12.1794 0.5 12.4996C0.5 12.8198 0.627344 13.1268 0.853959 13.3531L6.64596 19.1461C7.11812 19.6165 7.88179 19.6165 8.35396 19.1461L23.146 4.35307C23.3726 4.12684 23.4999 3.81978 23.4999 3.49957C23.4999 3.17936 23.3726 2.8723 23.146 2.64607L20.854 0.353068C20.6276 0.126392 20.3203 -0.000976562 20 -0.000976562C19.6796 -0.000976562 19.3724 0.126392 19.146 0.353068L7.49996 12.0001L4.85396 9.35307C4.62756 9.12639 4.32033 8.99902 3.99996 8.99902C3.67959 8.99902 3.37236 9.12639 3.14596 9.35307L0.853959 11.6461Z" fill="#5E4098"/>
</svg>
