<svg width="52" height="54" viewBox="0 0 52 54" fill="none" xmlns="http://www.w3.org/2000/svg">
<path d="M33.5834 43.25H5.41675" stroke="#5E4098" stroke-width="3" stroke-linecap="round" stroke-linejoin="round"/>
<path d="M19.5002 47.041C19.7993 47.041 20.0418 47.2835 20.0418 47.5827V47.5827C20.0418 47.8818 19.7993 48.1243 19.5002 48.1243V48.1243C19.201 48.1243 18.9585 47.8818 18.9585 47.5827V47.5827C18.9585 47.2835 19.201 47.041 19.5002 47.041" stroke="#5E4098" stroke-width="3" stroke-linecap="round" stroke-linejoin="round"/>
<path d="M33.5834 33.4997V47.583C33.5834 49.9762 31.6433 51.9163 29.2501 51.9163H9.75008C7.35685 51.9163 5.41675 49.9762 5.41675 47.583V6.41634C5.41675 4.02311 7.35685 2.08301 9.75008 2.08301H22.7501" stroke="#5E4098" stroke-width="3" stroke-linecap="round" stroke-linejoin="round"/>
<path fill-rule="evenodd" clip-rule="evenodd" d="M45.5001 21.583C43.5595 19.6616 42.4014 17.0882 42.2501 14.3615V10.7497C42.2501 5.96321 38.3699 2.08301 33.5834 2.08301C28.7969 2.08301 24.9167 5.96321 24.9167 10.7497V14.3615C24.7655 17.0882 23.6073 19.6616 21.6667 21.583H45.5001Z" stroke="#5E4098" stroke-width="3" stroke-linecap="round" stroke-linejoin="round"/>
<path d="M30.7971 25.916C31.1214 27.1902 32.2687 28.082 33.5835 28.082C34.8982 28.082 36.0455 27.1902 36.3698 25.916" stroke="#5E4098" stroke-width="3" stroke-linecap="round" stroke-linejoin="round"/>
</svg>
