<svg width="56" height="56" viewBox="0 0 56 56" fill="none" xmlns="http://www.w3.org/2000/svg">
<path d="M20.17 54.0806H4.3441C3.09547 54.0806 2.08325 53.0685 2.08325 51.8199V4.34377C2.08325 3.09519 3.09547 2.08301 4.3441 2.08301H34.3975C34.9974 2.08374 35.5724 2.32284 35.9959 2.74767L44.3768 11.1261C44.8009 11.55 45.0391 12.1249 45.0393 12.7244V20.1691" stroke="#5E4098" stroke-width="3" stroke-linecap="round" stroke-linejoin="round"/>
<path fill-rule="evenodd" clip-rule="evenodd" d="M22.4309 35.9963C28.6741 35.9963 33.7351 30.9354 33.7351 24.6925C33.7351 18.4496 28.6741 13.3887 22.4309 13.3887C16.1878 13.3887 11.1267 18.4496 11.1267 24.6925C11.1267 30.9354 16.1878 35.9963 22.4309 35.9963Z" stroke="#5E4098" stroke-width="3" stroke-linecap="round" stroke-linejoin="round"/>
<path d="M22.4309 17.9111V24.6934H26.9526" stroke="#5E4098" stroke-width="3" stroke-linecap="round" stroke-linejoin="round"/>
<path fill-rule="evenodd" clip-rule="evenodd" d="M52.681 35.135L35.4308 52.387L26.9526 54.0825L28.6483 45.6047L45.8985 28.3527C47.7666 26.4853 50.7948 26.4853 52.6629 28.3527L52.681 28.3731C53.5788 29.2692 54.0834 30.4856 54.0834 31.7541C54.0834 33.0225 53.5788 34.2389 52.681 35.135V35.135Z" stroke="#5E4098" stroke-width="3" stroke-linecap="round" stroke-linejoin="round"/>
</svg>
